<svg width="64" height="64" viewBox="0 0 64 64" fill="none" xmlns="http://www.w3.org/2000/svg">
<g clip-path="url(#clip0_1342_5692)">
<path d="M0 0H64V64H0V0Z" fill="#EE1C25"/>
<path d="M25.6004 13.1204L9.28039 23.6804L16.0004 6.40039L21.7604 23.6804L6.40039 13.1204H25.6004Z" fill="#FFFF00"/>
<path d="M29.572 4.13056L35.3871 6.97869L29.3003 8.02454L33.246 3.41528L32.866 9.61272L29.572 4.13056Z" fill="#FFFF00"/>
<path d="M36.9839 9.77596L41.2352 14.6657L35.2171 13.2597L40.6491 10.5472L37.8856 16.1121L36.9839 9.77596Z" fill="#FFFF00"/>
<path d="M38.3217 19.0659L40.2069 25.2687L35.2849 21.5258L41.3542 21.2677L36.5567 25.2213L38.3217 19.0659Z" fill="#FFFF00"/>
<path d="M33.2511 25.7049L32.5967 32.1481L29.5039 26.8009L35.1967 28.9033L29.2511 30.6969L33.2511 25.7049Z" fill="#FFFF00"/>
</g>
<defs>
<clipPath id="clip0_1342_5692">
<rect width="64" height="64" rx="32" fill="white"/>
</clipPath>
</defs>
</svg>
