<svg width="64" height="64" viewBox="0 0 64 64" fill="none" xmlns="http://www.w3.org/2000/svg">
<mask id="mask0_1342_5690" style="mask-type:luminance" maskUnits="userSpaceOnUse" x="0" y="0" width="64" height="65">
<path d="M0 32.0018C0 14.3302 14.3257 0 31.9973 0V0C49.6689 0 63.9946 14.3302 63.9946 32.0018V32.0018C63.9946 49.6734 49.6689 64.0036 31.9973 64.0036V64.0036C14.3257 64.0036 0 49.6734 0 32.0018V32.0018Z" fill="white"/>
</mask>
<g mask="url(#mask0_1342_5690)">
<path fill-rule="evenodd" clip-rule="evenodd" d="M-16.0029 32.0018C-16.0029 14.3277 -1.67524 0 15.9989 0H47.9962C65.6703 0 79.9979 14.3277 79.9979 32.0018V32.0018C79.9979 49.6759 65.6702 64.0036 47.9961 64.0036H15.9988C-1.67528 64.0036 -16.0029 49.6759 -16.0029 32.0018V32.0018Z" fill="white"/>
<path d="M31.9979 51.9001C42.9847 51.9001 51.8913 42.9935 51.8913 32.0067C51.8913 21.0199 42.9847 12.1133 31.9979 12.1133C21.0111 12.1133 12.1045 21.0199 12.1045 32.0067C12.1045 42.9935 21.0111 51.9001 31.9979 51.9001Z" fill="#BC002D"/>
</g>
</svg>
