<svg width="88" height="100" viewBox="0 0 88 100" fill="none" xmlns="http://www.w3.org/2000/svg">
<path d="M46.2457 3.32354C46.1143 3.14576 45.9643 2.9828 45.7976 2.8365C45.2087 2.32169 44.4124 2.02539 43.5291 2.02539C43.2568 2.02539 42.9717 2.05502 42.6828 2.11428C42.542 2.14391 42.405 2.18095 42.2698 2.22169C42.255 2.22539 42.2402 2.22909 42.2254 2.2328C42.1698 2.25132 42.1143 2.27169 42.0587 2.29206C42.0365 2.29947 42.0124 2.30687 41.9902 2.31613C41.8994 2.35131 41.8087 2.38835 41.7198 2.42724C41.7143 2.42909 41.7087 2.4328 41.705 2.43465C41.5828 2.4902 41.4643 2.55132 41.3476 2.61613C41.3402 2.61984 41.3346 2.62354 41.3272 2.62724C41.2994 2.64391 41.2735 2.66243 41.2457 2.67909C41.1735 2.72354 41.1013 2.76798 41.0309 2.81428C41.018 2.82354 41.0031 2.83095 40.9902 2.8402C40.9624 2.85872 40.9365 2.88094 40.9087 2.90131C40.8513 2.94391 40.7939 2.98465 40.7365 3.02909C40.7198 3.04205 40.7013 3.05502 40.6828 3.06798C40.6606 3.0865 40.6383 3.10687 40.6161 3.12539C40.5624 3.16984 40.5106 3.21613 40.4587 3.26243C40.4383 3.28094 40.418 3.29761 40.3976 3.31613C40.3587 3.35317 40.3198 3.3902 40.2828 3.42909C40.2328 3.48094 40.1846 3.5328 40.1365 3.58465C40.1235 3.59761 40.1143 3.61243 40.1013 3.62724C40.0457 3.6902 39.992 3.75687 39.9402 3.82168C39.9217 3.84576 39.8994 3.86798 39.8828 3.89206C39.8772 3.89946 39.8735 3.90687 39.868 3.91428C39.7883 4.01983 39.7143 4.12909 39.6457 4.24206C39.642 4.24761 39.6383 4.25131 39.6346 4.25687C39.5865 4.3365 39.5402 4.41798 39.4957 4.49946C39.4865 4.51613 39.4791 4.53465 39.4698 4.55131C39.4402 4.61057 39.4087 4.66984 39.3828 4.7291C39.3754 4.74391 39.3717 4.75872 39.3642 4.77354C39.3513 4.80502 39.3383 4.8365 39.3254 4.86983C39.2994 4.9328 39.2754 4.99576 39.2531 5.05873C39.2402 5.09206 39.2291 5.12724 39.218 5.16057C39.1957 5.22724 39.1772 5.29206 39.1587 5.35872C39.1513 5.39021 39.142 5.41984 39.1346 5.45132C39.1105 5.54761 39.0902 5.64576 39.0754 5.74391C39.0328 6.00687 39.018 6.27724 39.0383 6.54576L39.1346 7.94946L43.1383 13.4069L43.042 12.0032C43.0217 11.7328 43.0365 11.4643 43.0791 11.2013C43.0939 11.1032 43.1161 11.005 43.1383 10.9087C43.1457 10.8772 43.155 10.8476 43.1624 10.8161C43.1809 10.7495 43.1994 10.6828 43.2198 10.618C43.2309 10.5847 43.242 10.5495 43.255 10.5161C43.2772 10.4532 43.3013 10.3902 43.3272 10.3272C43.3402 10.2958 43.3531 10.2643 43.3661 10.2328C43.3994 10.1587 43.4346 10.0847 43.4717 10.0106C43.4809 9.99391 43.4883 9.97539 43.4976 9.95872C43.5439 9.87169 43.5939 9.78465 43.6457 9.69947C43.7143 9.58836 43.7902 9.47909 43.868 9.37168C43.892 9.3402 43.9161 9.31057 43.942 9.27909C43.9939 9.21243 44.0476 9.14761 44.1031 9.08465C44.1624 9.01798 44.2217 8.95132 44.2846 8.8865C44.342 8.82909 44.4013 8.77539 44.4605 8.71983C44.5124 8.67354 44.5643 8.62724 44.618 8.5828C44.6569 8.54947 44.6976 8.51613 44.7383 8.48465C44.7939 8.44021 44.8513 8.39761 44.9105 8.35687C44.9513 8.32724 44.9902 8.29761 45.0328 8.26984C45.1031 8.22354 45.1754 8.17909 45.2476 8.13465C45.2828 8.11428 45.3161 8.09206 45.3513 8.07169C45.468 8.00687 45.5865 7.94576 45.7087 7.8902C45.8031 7.84761 45.8976 7.80687 45.9957 7.76983C46.018 7.76057 46.042 7.75317 46.0643 7.74576C46.1346 7.71983 46.205 7.69761 46.2772 7.67539C46.4124 7.63465 46.5494 7.59576 46.6902 7.56798C46.9791 7.50872 47.2642 7.47909 47.5365 7.47909C48.4217 7.47909 49.2179 7.77539 49.805 8.2902C49.9717 8.4365 50.1217 8.59761 50.2531 8.77724L46.2457 3.32354Z" fill="#D0D5DD"/>
<path d="M43.1368 13.78C43.022 13.78 42.909 13.7263 42.8387 13.6282L38.835 8.16891C38.7942 8.1115 38.7683 8.04483 38.7646 7.97446L38.6683 6.57076C38.6461 6.28557 38.6609 5.98558 38.709 5.68372C38.7257 5.58372 38.7461 5.47817 38.7739 5.36335C38.7794 5.33928 38.7868 5.31335 38.7924 5.28928L38.7998 5.2615C38.8202 5.18928 38.8405 5.11706 38.8628 5.04483C38.8757 5.0078 38.8887 4.97076 38.9016 4.93187C38.9257 4.86335 38.9516 4.79483 38.9813 4.72631L38.9887 4.70595C38.9998 4.67817 39.0109 4.65039 39.0239 4.62261L39.0424 4.57631C39.072 4.5115 39.1016 4.45224 39.1331 4.39113L39.1461 4.36521C39.1535 4.35039 39.1591 4.33743 39.1665 4.32261C39.2128 4.23372 39.2628 4.14668 39.3165 4.05965C39.3202 4.05224 39.3313 4.03742 39.3368 4.03002C39.4016 3.92631 39.4813 3.80594 39.5702 3.68928C39.5702 3.68742 39.5776 3.67632 39.5868 3.66521C39.6016 3.64669 39.6165 3.62817 39.6331 3.60965L39.6498 3.58928C39.7053 3.51706 39.7628 3.44668 39.8239 3.37817C39.8387 3.3578 39.8498 3.34669 39.8609 3.33372C39.9128 3.27446 39.9665 3.21891 40.0202 3.1652C40.0609 3.12446 40.1016 3.08372 40.1442 3.04483C40.1609 3.03002 40.1776 3.0152 40.1942 3.00039L40.2109 2.98557C40.2646 2.93557 40.322 2.88558 40.3794 2.83743L40.3998 2.81891C40.4165 2.80409 40.4331 2.78928 40.4516 2.77446C40.4665 2.76335 40.4813 2.75224 40.4961 2.74113C40.5683 2.68372 40.6313 2.63928 40.6942 2.59483L40.7183 2.57632C40.7387 2.55965 40.759 2.54484 40.7813 2.53002C40.7942 2.52076 40.8072 2.51335 40.8202 2.50409C40.8998 2.45039 40.9776 2.40409 41.0553 2.35595L41.0794 2.34113C41.0998 2.32816 41.122 2.31335 41.1442 2.30039C41.1516 2.29668 41.1683 2.28742 41.1757 2.28372C41.2924 2.21891 41.422 2.15224 41.5498 2.09298L41.5665 2.08372C41.6627 2.04113 41.7609 2.00039 41.859 1.96335C41.8757 1.9578 41.8942 1.95039 41.9109 1.94483L41.9628 1.92631C42.0128 1.9078 42.0628 1.88928 42.1146 1.87446C42.1313 1.86891 42.1479 1.8652 42.1646 1.8615C42.3294 1.8115 42.472 1.77446 42.6109 1.74668C42.9239 1.68372 43.2331 1.65039 43.5313 1.65039C44.485 1.65039 45.3776 1.97076 46.0442 2.55224C46.2313 2.71706 46.4016 2.90039 46.5461 3.09853L50.5498 8.55594C50.6702 8.72076 50.635 8.95224 50.4702 9.07446C50.3053 9.19484 50.0739 9.15965 49.9516 8.99484V8.99298C49.8387 8.83928 49.7072 8.69483 49.5609 8.56705C49.0294 8.10224 48.3109 7.84669 47.535 7.84669C47.285 7.84669 47.0257 7.87446 46.7627 7.92817C46.6498 7.95224 46.5257 7.98372 46.385 8.02632C46.3183 8.04669 46.2535 8.06706 46.1887 8.09113L46.1257 8.11335C46.0368 8.14669 45.9498 8.18372 45.8628 8.22261C45.7535 8.27261 45.6424 8.32817 45.5331 8.39113C45.5146 8.40039 45.4979 8.4115 45.4813 8.42261L45.4368 8.44854C45.3702 8.48928 45.3035 8.53002 45.2387 8.57261C45.2072 8.59299 45.1794 8.61521 45.1498 8.63558L45.1276 8.65224C45.0739 8.69113 45.022 8.73002 44.9702 8.77076C44.9331 8.80039 44.8961 8.83002 44.8591 8.8615C44.8109 8.90224 44.7627 8.94484 44.7146 8.98743L44.6979 9.00224C44.6479 9.04668 44.5998 9.09298 44.5516 9.14113C44.4942 9.20039 44.4387 9.2615 44.385 9.32261C44.3331 9.38187 44.285 9.44113 44.2368 9.50224L44.2072 9.53928C44.1942 9.55594 44.1813 9.57076 44.1683 9.58743C44.0942 9.68743 44.0257 9.78928 43.9627 9.88743C43.9146 9.9652 43.8683 10.0448 43.8257 10.1245L43.8016 10.1726C43.7683 10.2374 43.735 10.3059 43.7053 10.3726L43.6702 10.4596C43.6461 10.5171 43.6239 10.5745 43.6035 10.6319C43.5924 10.6634 43.5813 10.693 43.572 10.7245C43.5516 10.7856 43.535 10.8448 43.5183 10.9059L43.4961 10.9893C43.4757 11.0763 43.4572 11.1652 43.4424 11.2522C43.4035 11.4967 43.3924 11.7393 43.409 11.9689L43.5053 13.3745C43.5165 13.5393 43.4183 13.6911 43.2628 13.7467C43.222 13.7726 43.1794 13.78 43.1368 13.78ZM39.4961 7.81891L42.6813 12.1615L42.672 12.0319C42.6498 11.7467 42.6646 11.4467 42.7127 11.1448C42.7294 11.0448 42.7498 10.9393 42.7776 10.8245C42.7831 10.8004 42.7905 10.7763 42.7961 10.7504L42.8035 10.7226C42.822 10.6504 42.8442 10.5782 42.8665 10.5059C42.8776 10.4689 42.8905 10.4319 42.9053 10.393C42.9294 10.3245 42.9553 10.2559 42.985 10.1874L42.9942 10.1652C43.0053 10.1393 43.0165 10.1115 43.0276 10.0856C43.0628 10.0041 43.1016 9.92447 43.1424 9.84484L43.1702 9.78928C43.2202 9.69483 43.2739 9.60039 43.3313 9.50965C43.4035 9.39113 43.485 9.27261 43.572 9.15595C43.5905 9.13187 43.609 9.1078 43.6276 9.08558L43.6516 9.05595C43.7072 8.98557 43.7646 8.9152 43.8257 8.84668C43.8887 8.77446 43.9535 8.70224 44.022 8.63372C44.0776 8.57632 44.1368 8.52261 44.1961 8.46891L44.2128 8.45409C44.2683 8.40409 44.3239 8.3541 44.3813 8.30595C44.4239 8.27076 44.4665 8.23558 44.5109 8.20039C44.572 8.15224 44.6331 8.1078 44.6961 8.06336L44.7183 8.04668C44.7553 8.02076 44.7905 7.99483 44.8276 7.96891C44.9035 7.91891 44.9813 7.87076 45.059 7.82446L45.0942 7.80409C45.1202 7.78928 45.1442 7.77261 45.172 7.7578C45.2998 7.68557 45.4294 7.62076 45.5572 7.5615C45.659 7.5152 45.7609 7.47261 45.8665 7.43187L45.9405 7.40594C46.0165 7.37817 46.0924 7.35409 46.1702 7.33002C46.3331 7.28002 46.4794 7.24113 46.6165 7.21335C47.3461 7.06335 48.0516 7.09298 48.6924 7.28187L45.9516 3.54669C45.8387 3.39113 45.7053 3.24854 45.559 3.12076C45.0276 2.65595 44.3072 2.40039 43.5331 2.40039C43.285 2.40039 43.0239 2.42817 42.7609 2.48187C42.6461 2.50594 42.5257 2.53743 42.3831 2.58002C42.3683 2.58372 42.3535 2.58743 42.3387 2.59113C42.2998 2.60224 42.259 2.61706 42.2183 2.63187L42.1257 2.6652C42.0405 2.69668 41.9572 2.73187 41.8757 2.76891C41.7516 2.82631 41.6405 2.88372 41.5331 2.94483C41.5257 2.94854 41.509 2.9578 41.5016 2.9615C41.5035 2.9615 41.4961 2.96705 41.4868 2.97261C41.472 2.98372 41.4553 2.99298 41.4387 3.00224C41.372 3.04298 41.3053 3.08372 41.2405 3.12632C41.2294 3.13372 41.2164 3.14113 41.2053 3.14854C41.1924 3.15595 41.1831 3.16521 41.1739 3.17261C41.159 3.18372 41.1442 3.19483 41.1294 3.20595C41.0757 3.24483 41.022 3.28372 40.9702 3.32446C40.9572 3.33372 40.9461 3.34298 40.9331 3.35224L40.8998 3.38002C40.8868 3.39113 40.8739 3.40409 40.859 3.41521C40.8109 3.45595 40.7628 3.49854 40.7146 3.54113C40.7016 3.55409 40.6887 3.56335 40.6757 3.57446L40.6572 3.59113C40.622 3.62446 40.5868 3.65965 40.5516 3.69483C40.5053 3.74113 40.4609 3.78928 40.4165 3.83928C40.4035 3.85594 40.3942 3.86706 40.3831 3.87817C40.3331 3.93558 40.285 3.99669 40.2368 4.05594C40.2257 4.07076 40.2127 4.08558 40.2016 4.09854L40.1831 4.12076C40.1831 4.12076 40.1776 4.13002 40.1702 4.13928C40.0942 4.24113 40.0257 4.34113 39.9646 4.44113C39.9609 4.44668 39.9553 4.45595 39.9498 4.46335C39.9072 4.53372 39.8664 4.60594 39.8276 4.67816L39.8035 4.72631C39.7739 4.78557 39.7461 4.83743 39.7239 4.88928L39.7072 4.93002C39.6979 4.95039 39.6905 4.97076 39.6813 4.99298L39.672 5.0152C39.6479 5.07261 39.6257 5.13002 39.6053 5.18742C39.5942 5.2189 39.5831 5.24853 39.5739 5.28002C39.5553 5.33928 39.5368 5.40039 39.5202 5.45965L39.4979 5.54298C39.4776 5.63002 39.4591 5.71706 39.4442 5.80595C39.4053 6.05039 39.3942 6.29298 39.4109 6.52261L39.4961 7.81891Z" fill="#F9FAFB"/>
<path d="M48.0606 11.2274L44.0569 5.76998C44.0143 5.71257 43.9662 5.65887 43.9125 5.61257C43.7199 5.4459 43.4644 5.34961 43.181 5.34961C43.0903 5.35146 42.9995 5.36072 42.9051 5.37924C42.8551 5.39035 42.8051 5.40331 42.7569 5.41813C42.7421 5.42368 42.7292 5.42924 42.7143 5.43479C42.6921 5.4422 42.6718 5.45146 42.6514 5.45887C42.6329 5.46628 42.6125 5.47183 42.594 5.48109C42.5606 5.4959 42.531 5.51257 42.4995 5.52924C42.4921 5.53294 42.4847 5.53665 42.4792 5.54035C42.4755 5.5422 42.4736 5.54405 42.4699 5.54591C42.4329 5.56628 42.3977 5.5885 42.3625 5.61257C42.3458 5.62368 42.3292 5.63665 42.3144 5.64961C42.3069 5.65516 42.2977 5.66257 42.2903 5.66813C42.2829 5.67368 42.2736 5.67924 42.2662 5.68479C42.2347 5.71072 42.2051 5.73664 42.1755 5.76442C42.1607 5.77739 42.1477 5.7922 42.1347 5.80516C42.1181 5.82183 42.1014 5.84035 42.0847 5.85702C42.0551 5.8885 42.0273 5.92368 42.0014 5.95702C41.9995 5.95887 41.9977 5.96257 41.9958 5.96627C41.9903 5.97368 41.9866 5.98109 41.981 5.9885C41.9606 6.01812 41.9403 6.0459 41.9218 6.07739C41.9125 6.0922 41.9051 6.10887 41.8977 6.12368C41.8866 6.14405 41.8755 6.16442 41.8643 6.18479C41.8569 6.19961 41.8477 6.21442 41.8403 6.22924C41.8292 6.25517 41.8199 6.28294 41.8106 6.30887C41.8032 6.32739 41.7958 6.3459 41.7884 6.36627C41.7681 6.42739 41.7514 6.4885 41.7421 6.55146C41.7292 6.63665 41.7255 6.72368 41.731 6.81072L41.8088 7.95516L45.8125 13.4126L45.7347 12.2681C45.7292 12.1811 45.7329 12.0941 45.7458 12.0089C45.7551 11.9459 45.7718 11.8848 45.7921 11.8237C45.7977 11.8052 45.8069 11.7866 45.8143 11.7663C45.831 11.7237 45.8477 11.6829 45.8681 11.6422C45.8792 11.6218 45.8903 11.6015 45.9014 11.5811C45.9273 11.5348 45.9551 11.4903 45.9866 11.4459C45.9921 11.4385 45.9958 11.4311 46.0014 11.4237C46.044 11.3681 46.0884 11.3126 46.1384 11.2626C46.1866 11.2126 46.2384 11.1681 46.294 11.1237C46.3014 11.1181 46.3107 11.1107 46.3181 11.1052C46.3699 11.0663 46.4255 11.0292 46.4829 10.9959C46.4903 10.9922 46.4977 10.9885 46.5032 10.9848C46.5532 10.9589 46.6032 10.9348 46.6569 10.9144C46.6773 10.9052 46.6995 10.8978 46.7199 10.8903C46.781 10.8681 46.844 10.8496 46.9106 10.8348C47.0051 10.8163 47.0958 10.807 47.1866 10.8052C47.4699 10.8052 47.7255 10.9015 47.918 11.0681C47.9699 11.1181 48.0181 11.17 48.0606 11.2274Z" fill="#D0D5DD"/>
<path d="M45.811 13.7802C45.6962 13.7802 45.5832 13.7265 45.5128 13.6283L41.5091 8.16905C41.4684 8.11165 41.4425 8.04498 41.4388 7.97461L41.361 6.83017C41.3536 6.7135 41.3573 6.59869 41.3758 6.48758C41.3888 6.41165 41.4073 6.33202 41.4351 6.24498C41.4425 6.22276 41.4499 6.20239 41.4573 6.18202L41.4684 6.15239C41.4777 6.12461 41.4888 6.09683 41.5017 6.06905C41.511 6.05054 41.5203 6.03202 41.5295 6.0135C41.5443 5.98572 41.5573 5.9598 41.5721 5.93202C41.5832 5.9098 41.5925 5.89313 41.6036 5.87461C41.6277 5.83572 41.6536 5.79869 41.6795 5.7635C41.6832 5.75794 41.6869 5.75239 41.6925 5.74498C41.6943 5.74128 41.698 5.73757 41.6999 5.73387C41.7388 5.68202 41.774 5.64128 41.8091 5.60054C41.8295 5.57831 41.8499 5.55609 41.8703 5.53572C41.8851 5.52091 41.9017 5.50239 41.9203 5.48758C41.9573 5.45239 41.9943 5.42091 42.0332 5.38943C42.0388 5.38572 42.0573 5.3709 42.0628 5.3672L42.1054 5.33572C42.1203 5.32461 42.1369 5.31165 42.1536 5.30054C42.198 5.27091 42.2425 5.24313 42.2869 5.2172C42.2943 5.2135 42.3054 5.20609 42.3129 5.20424L42.3277 5.19683C42.3628 5.17832 42.4017 5.15609 42.4425 5.13757C42.4629 5.12831 42.4832 5.12091 42.5036 5.1135C42.5406 5.09868 42.5665 5.08943 42.5943 5.08017C42.6128 5.07276 42.6295 5.06535 42.648 5.0598C42.7091 5.04128 42.7703 5.02461 42.8314 5.01165C42.9443 4.98943 43.0554 4.97646 43.174 4.97461C43.548 4.97461 43.8925 5.10054 44.1554 5.32831C44.2314 5.39498 44.298 5.46905 44.3554 5.54683L48.3573 11.0042C48.3573 11.0042 48.3573 11.0061 48.3591 11.0061C48.4795 11.1709 48.4443 11.4024 48.2795 11.5246C48.1147 11.645 47.8832 11.6098 47.761 11.445C47.7351 11.4098 47.7054 11.3765 47.6721 11.3468C47.5443 11.2357 47.3721 11.1746 47.1851 11.1746C47.1184 11.1765 47.048 11.1839 46.9814 11.1968C46.9425 11.2042 46.8999 11.2172 46.8406 11.2376C46.824 11.2431 46.8073 11.2505 46.7925 11.2561C46.7536 11.2709 46.7147 11.2894 46.6777 11.3079C46.674 11.3098 46.6592 11.3172 46.6554 11.3191C46.6221 11.3376 46.5814 11.3654 46.5369 11.3968L46.2906 11.1191L46.5184 11.4116C46.4721 11.4468 46.4351 11.482 46.3999 11.5172C46.3629 11.5561 46.3277 11.5968 46.2943 11.6413L46.2832 11.6579C46.261 11.6894 46.2406 11.7228 46.2203 11.7579C46.2128 11.7728 46.2036 11.7876 46.1962 11.8042C46.1814 11.832 46.1684 11.8635 46.1573 11.8931L46.148 11.9172C46.1258 11.982 46.1147 12.0246 46.1091 12.0617C46.0999 12.1154 46.098 12.1765 46.1017 12.2376L46.1795 13.382C46.1906 13.5468 46.0925 13.6987 45.9369 13.7542C45.8962 13.7728 45.8536 13.7802 45.811 13.7802ZM42.1703 7.81906L45.361 12.1691C45.361 12.095 45.3684 12.0209 45.3795 11.9487C45.3925 11.8728 45.411 11.7931 45.4406 11.7061C45.4462 11.6857 45.4554 11.6672 45.4629 11.6468C45.4888 11.5783 45.511 11.5265 45.5369 11.4746C45.5499 11.4468 45.5647 11.4228 45.5777 11.3968C45.611 11.3376 45.6462 11.282 45.6851 11.2265C45.6906 11.2191 45.6962 11.2079 45.7036 11.1987C45.7554 11.1283 45.8147 11.0598 45.874 10.9987C45.9295 10.9413 45.9925 10.8857 46.0647 10.8283C46.0666 10.8265 46.0851 10.8135 46.0869 10.8117C46.1647 10.7542 46.2314 10.7098 46.2999 10.6709C46.3054 10.6672 46.3221 10.6598 46.3277 10.6561C46.3869 10.6246 46.4499 10.595 46.5166 10.5691C46.5443 10.5579 46.5703 10.5487 46.5962 10.5394C46.6851 10.5079 46.7591 10.4876 46.8332 10.4709C46.898 10.4579 46.961 10.4487 47.0277 10.4431L43.7591 5.98757C43.7332 5.95239 43.7036 5.91905 43.6684 5.88942C43.5406 5.78017 43.3684 5.7172 43.1814 5.7172C43.1147 5.71906 43.0443 5.72646 42.9777 5.73943C42.9425 5.74683 42.9054 5.75609 42.8703 5.7672C42.8629 5.77091 42.8499 5.77646 42.8388 5.78017C42.8221 5.78572 42.8054 5.79313 42.7906 5.79869L42.7536 5.8135C42.7221 5.82646 42.698 5.83943 42.6758 5.85239C42.6721 5.85424 42.6573 5.86165 42.6536 5.8635C42.6517 5.86535 42.648 5.8672 42.6462 5.8672C42.6221 5.88202 42.5962 5.89683 42.574 5.9135L42.5369 5.94128L42.2906 5.6635L42.5203 5.95424C42.5166 5.95794 42.5017 5.96905 42.498 5.97091C42.4777 5.98757 42.4554 6.00794 42.4332 6.02831L42.4017 6.0598C42.3869 6.07461 42.374 6.08758 42.3628 6.10054C42.3425 6.12276 42.324 6.14498 42.3054 6.16906C42.3017 6.17276 42.2999 6.17832 42.298 6.18017C42.2943 6.18387 42.2888 6.19498 42.2851 6.19869C42.2703 6.22091 42.2536 6.24128 42.2388 6.26535L42.2221 6.29868C42.2129 6.31535 42.2054 6.32832 42.198 6.34313L42.1795 6.37832C42.1777 6.38387 42.174 6.39128 42.1721 6.40054L42.1517 6.45794C42.1295 6.52461 42.1184 6.56535 42.1128 6.60424C42.1036 6.65795 42.1017 6.71905 42.1054 6.78017L42.1703 7.81906Z" fill="#F9FAFB"/>
<path d="M49.4737 11.4984C49.4681 11.4076 49.4552 11.3187 49.4385 11.2317C49.4385 11.228 49.4366 11.2243 49.4348 11.2206C49.4144 11.1243 49.3904 11.0298 49.357 10.9391C49.3292 10.8632 49.2978 10.7891 49.2607 10.7169C49.2589 10.7113 49.2552 10.7076 49.2515 10.7021C49.2422 10.6835 49.2292 10.665 49.22 10.6465C49.1978 10.6076 49.1755 10.5669 49.1515 10.5298C49.1366 10.5076 49.12 10.4835 49.1033 10.4613L45.0996 5.00391C45.1422 5.06317 45.1792 5.12613 45.2163 5.18909C45.2274 5.20761 45.2385 5.22428 45.2478 5.24465C45.2885 5.32058 45.3237 5.40021 45.3533 5.48169C45.3866 5.57243 45.4107 5.66502 45.4311 5.76317C45.4496 5.85206 45.4626 5.94465 45.4681 6.03909L45.5978 7.9502L49.6015 13.4076L49.4737 11.4984Z" fill="#D0D5DD"/>
<path d="M49.6039 13.7802C49.489 13.7802 49.3761 13.7265 49.3057 13.6283L45.302 8.16906C45.2613 8.11166 45.2353 8.04499 45.2316 7.97462L45.102 6.06351C45.0964 5.98758 45.0872 5.91351 45.0705 5.83573C45.0539 5.75425 45.0335 5.67647 45.0076 5.6061C44.9853 5.54499 44.9576 5.48203 44.9224 5.41536L44.8965 5.37277C44.8668 5.32091 44.8353 5.26721 44.8039 5.22277C44.6835 5.05795 44.7187 4.82647 44.8835 4.70425C45.0483 4.58388 45.2798 4.61906 45.402 4.78388C45.402 4.78388 45.402 4.78573 45.4039 4.78573L49.4057 10.2431C49.4242 10.2691 49.4446 10.2968 49.4631 10.3246C49.489 10.3635 49.5113 10.4024 49.5335 10.4431L49.5464 10.4654C49.5613 10.4894 49.5705 10.5061 49.5798 10.5209C49.5853 10.5302 49.5909 10.5413 49.5946 10.5468C49.639 10.632 49.6779 10.7209 49.7113 10.8117C49.7483 10.9135 49.7779 11.0209 49.802 11.1339C49.8057 11.145 49.8076 11.1561 49.8094 11.1654C49.8279 11.2617 49.8427 11.3672 49.8483 11.4728L49.9779 13.3839C49.989 13.5487 49.8909 13.7006 49.7353 13.7561C49.689 13.7728 49.6464 13.7802 49.6039 13.7802ZM45.9631 7.81907L49.1483 12.1617L49.1057 11.5246C49.102 11.4543 49.0927 11.3857 49.0798 11.3191C49.0779 11.3154 49.0779 11.3098 49.0761 11.3061C49.0575 11.2154 49.0372 11.1394 49.0113 11.0691C48.9909 11.0117 48.965 10.9543 48.9372 10.8987C48.9335 10.8913 48.9279 10.882 48.9242 10.8765L48.8835 10.808C48.8705 10.7857 48.8576 10.7617 48.8427 10.7394C48.8298 10.7209 48.8168 10.7024 48.8039 10.6839L45.8853 6.70425L45.9631 7.81907Z" fill="#F9FAFB"/>
<path d="M22.7033 7.95312H37.8903L38.2625 13.4087L21.2773 16.8883L22.7033 7.95312Z" fill="#F7F9FC"/>
<path d="M21.278 17.2579C21.1836 17.2579 21.091 17.2208 21.0225 17.156C20.9355 17.0727 20.8929 16.9505 20.9132 16.8301L22.3392 7.89304C22.3669 7.71341 22.5225 7.58008 22.7058 7.58008H37.8929C38.0873 7.58008 38.2484 7.73008 38.2632 7.92453L38.6355 13.3801C38.6484 13.5653 38.5225 13.7301 38.341 13.769L21.3558 17.2504C21.328 17.256 21.3021 17.2579 21.278 17.2579ZM23.0188 8.32267L21.728 16.419L37.8725 13.1097L37.5466 8.32267H23.0188Z" fill="#F9FAFB"/>
<path d="M38.2625 13.4082L42.2662 18.8656L25.2811 22.3471L21.2773 16.8878L38.2625 13.4082Z" fill="#98A2B3"/>
<path d="M25.2816 22.7169C25.1649 22.7169 25.0538 22.6614 24.9834 22.5651L20.9797 17.1058C20.9057 17.004 20.8871 16.8706 20.9334 16.754C20.9797 16.6355 21.0816 16.5503 21.2038 16.5243L38.189 13.0429C38.3297 13.0132 38.476 13.0706 38.5612 13.1873L42.5649 18.6466C42.639 18.7484 42.6575 18.8818 42.6112 18.9984C42.5649 19.1169 42.4631 19.2021 42.3408 19.228L25.3557 22.7095C25.3316 22.7151 25.3057 22.7169 25.2816 22.7169ZM21.9186 17.1355L25.4408 21.9373L41.6279 18.6206L38.1057 13.8188L21.9186 17.1355Z" fill="#F9FAFB"/>
<path d="M40.9273 25.6551C40.5384 25.3143 40.2865 24.8328 40.2476 24.2551L39.4902 13.1551L40.9013 12.8662L41.2847 18.4736C41.3032 18.7477 41.5236 18.9347 41.8032 18.9347C41.8458 18.9347 41.8902 18.931 41.9365 18.9199C42.2754 18.8495 42.5328 18.5384 42.5106 18.2217L42.1273 12.6143L44.6439 12.0977L45.4032 23.1976C45.4143 23.3773 45.405 23.5532 45.3773 23.7291C45.2865 24.294 44.9976 24.831 44.5791 25.2588C44.1569 25.6865 43.6087 26.0032 42.9902 26.131C42.8013 26.168 42.6125 26.1884 42.431 26.1884C41.8439 26.1902 41.318 25.9958 40.9273 25.6551Z" fill="#D0D5DD"/>
<path d="M42.4276 26.5604C41.7683 26.5604 41.1498 26.3382 40.685 25.9345L40.6831 25.9326C40.2016 25.5104 39.9239 24.9382 39.8794 24.2808L39.122 13.1808C39.109 12.9956 39.235 12.8308 39.4164 12.7919L40.8276 12.503C40.9313 12.4808 41.0405 12.5067 41.1257 12.5715C41.2109 12.6363 41.2646 12.7345 41.2702 12.8419L41.6535 18.4493C41.6609 18.553 41.7609 18.5641 41.8035 18.5641C41.822 18.5641 41.8424 18.5623 41.8627 18.5585C42.0331 18.5234 42.1498 18.366 42.1424 18.2493L41.759 12.6419C41.7461 12.4567 41.872 12.2919 42.0535 12.253L44.5702 11.7363C44.6739 11.7141 44.7831 11.74 44.8683 11.8048C44.9535 11.8697 45.0072 11.9678 45.0127 12.0752L45.772 23.1752C45.785 23.3845 45.7739 23.59 45.7424 23.79C45.6424 24.416 45.322 25.0308 44.8424 25.5215C44.3498 26.0197 43.735 26.3567 43.0627 26.4974C42.8479 26.54 42.635 26.5604 42.4276 26.5604ZM41.1702 25.3771C41.6109 25.7586 42.2516 25.9049 42.9146 25.7715C43.4405 25.6623 43.9239 25.3956 44.3127 25.003C44.685 24.6234 44.9331 24.1511 45.009 23.6752C45.0331 23.5271 45.0405 23.3771 45.0313 23.2252L44.3016 12.5511L42.5183 12.916L42.8794 18.2011C42.9146 18.703 42.5313 19.1789 42.0109 19.2863C41.9424 19.3011 41.872 19.3085 41.8035 19.3085C41.3202 19.3085 40.9479 18.9697 40.9146 18.503L40.5609 13.3178L39.8831 13.4567L40.6183 24.2326C40.6498 24.69 40.8405 25.0863 41.1702 25.3771Z" fill="#F9FAFB"/>
<path d="M39.1328 7.95312H40.5643L40.8995 12.8679L39.4884 13.1568L39.1328 7.95312Z" fill="#F7F9FC"/>
<path d="M39.4887 13.5265C39.409 13.5265 39.3294 13.5005 39.2646 13.4505C39.1794 13.3857 39.1257 13.2876 39.1202 13.1802L38.7646 7.97648C38.7572 7.87462 38.7942 7.77277 38.8628 7.6987C38.9331 7.62462 39.0313 7.58203 39.1331 7.58203H40.5627C40.7572 7.58203 40.9183 7.73203 40.9331 7.92647L41.2683 12.8413C41.2813 13.0265 41.1553 13.1913 40.9739 13.2302L39.5627 13.5191C39.5387 13.5246 39.5146 13.5265 39.4887 13.5265ZM39.5294 8.32277L39.8294 12.708L40.5072 12.5691L40.2165 8.32277H39.5294Z" fill="#F9FAFB"/>
<path d="M52.2783 13.7801C52.1635 13.7801 52.0505 13.7264 51.9801 13.6282L47.9764 8.16898C47.9357 8.11157 47.9098 8.04491 47.9061 7.97454L47.6839 4.72269C47.6783 4.63194 47.669 4.54305 47.6561 4.45416L47.6431 4.37084C47.6338 4.31343 47.6246 4.25417 47.6135 4.19676C47.6024 4.13935 47.5875 4.0838 47.5727 4.02824L47.5487 3.92824C47.5246 3.8412 47.4968 3.75417 47.4653 3.67084C47.4209 3.55046 47.3672 3.42454 47.2987 3.2875L47.2746 3.2375C47.2209 3.13565 47.1616 3.03194 47.095 2.93194C47.0561 2.87268 47.0246 2.82454 46.9894 2.77824C46.869 2.61343 46.9042 2.38194 47.069 2.25972C47.1357 2.21157 47.2116 2.1875 47.2876 2.1875C47.4024 2.1875 47.5135 2.23935 47.5857 2.33935L51.5894 7.79861C51.6264 7.84861 51.6616 7.90046 51.6968 7.95232C51.7024 7.96158 51.7172 7.98565 51.7227 7.9949C51.795 8.10602 51.8672 8.22639 51.9283 8.34491C51.9357 8.35602 51.9413 8.36713 51.9468 8.38009C51.9524 8.3912 51.9598 8.40787 51.9672 8.42639C52.045 8.58009 52.1098 8.73195 52.1635 8.87824C52.2005 8.98009 52.2338 9.0838 52.2635 9.18935C52.2709 9.21528 52.2764 9.23935 52.282 9.26528L52.2894 9.29861C52.3079 9.36898 52.3246 9.43935 52.3394 9.51343C52.3394 9.51528 52.3431 9.52639 52.345 9.5375C52.3542 9.58195 52.3616 9.62824 52.3672 9.67454C52.3672 9.67454 52.3875 9.79676 52.3894 9.82083C52.4042 9.92454 52.4135 10.0301 52.4209 10.1375L52.6431 13.3875C52.6542 13.5523 52.5561 13.7042 52.4005 13.7597C52.3635 13.7727 52.3209 13.7801 52.2783 13.7801Z" fill="#D0D5DD"/>
<path d="M47.2877 2.56193L51.2914 8.0212C51.3247 8.06749 51.3581 8.11379 51.3896 8.16194C51.397 8.1712 51.4007 8.1823 51.4081 8.19156C51.4784 8.30082 51.5451 8.41193 51.6062 8.5286C51.6099 8.53601 51.6136 8.54157 51.6173 8.54897C51.6229 8.56009 51.6266 8.57304 51.634 8.58601C51.7025 8.72304 51.7655 8.86193 51.8173 9.00823C51.8507 9.10082 51.8803 9.19712 51.9081 9.29342C51.9173 9.32675 51.9247 9.36009 51.9321 9.39342C51.9488 9.45823 51.9655 9.52305 51.9784 9.58971C51.9803 9.59712 51.9821 9.60453 51.984 9.61194C51.9951 9.66749 52.0025 9.72305 52.0118 9.7786C52.0173 9.81008 52.0229 9.83971 52.0266 9.87119C52.0396 9.96749 52.0488 10.0638 52.0562 10.1619L52.2784 13.4138L48.2747 7.95638L48.0525 4.70453C48.0451 4.60638 48.0358 4.50823 48.0229 4.41379C48.0192 4.3823 48.0118 4.35268 48.0081 4.32119C47.9988 4.25823 47.9877 4.19527 47.9747 4.13231C47.9618 4.06564 47.9451 4.00083 47.9284 3.93601C47.9192 3.90268 47.9136 3.86934 47.9044 3.83786C47.8766 3.74157 47.847 3.64527 47.8136 3.55268C47.7599 3.40638 47.6988 3.26749 47.6303 3.13045C47.621 3.11194 47.6118 3.09342 47.6025 3.0749C47.5414 2.95823 47.4747 2.84712 47.4044 2.73786C47.3655 2.6749 47.3284 2.61749 47.2877 2.56193ZM47.8858 2.12305L47.2877 2.56193L46.6914 3.00082C46.7229 3.04342 46.7525 3.08786 46.7803 3.13231C46.8433 3.23046 46.8988 3.32119 46.9451 3.41193L46.9507 3.42304L46.9673 3.45638C47.0303 3.58231 47.0803 3.69527 47.1173 3.80082C47.1173 3.80268 47.1192 3.80453 47.1192 3.80453C47.1451 3.87675 47.1692 3.95268 47.1914 4.03231C47.1932 4.04156 47.1951 4.05082 47.1988 4.06008C47.2025 4.0786 47.2081 4.09527 47.2118 4.11379C47.2266 4.17119 47.2395 4.22305 47.2507 4.27675C47.2618 4.32675 47.2692 4.3786 47.2766 4.43045L47.284 4.48046C47.2858 4.48972 47.2877 4.49897 47.2877 4.50823C47.2988 4.59342 47.3062 4.67305 47.3118 4.75082L47.534 8.00268C47.5433 8.14342 47.5932 8.27675 47.6766 8.38971L51.6803 13.8471C51.8229 14.0416 52.047 14.149 52.2784 14.149C52.3636 14.149 52.4488 14.1342 52.5321 14.1045C52.8414 13.9916 53.0396 13.6879 53.0173 13.3582L52.7951 10.1064C52.7877 9.99712 52.7766 9.88231 52.7618 9.76749C52.7581 9.73786 52.7525 9.71008 52.7488 9.68045L52.7451 9.65638L52.7396 9.62305C52.7321 9.56934 52.7229 9.51379 52.7118 9.46194C52.7099 9.45268 52.7062 9.43786 52.7025 9.4212C52.6858 9.34527 52.6692 9.2749 52.6507 9.20453L52.6451 9.1786C52.6377 9.14712 52.6303 9.11749 52.6229 9.08786C52.5896 8.9712 52.5544 8.85823 52.5155 8.75083C52.5136 8.74897 52.5136 8.74527 52.5118 8.74342C52.4562 8.58971 52.3895 8.43601 52.3062 8.26934C52.297 8.24712 52.2877 8.2249 52.2766 8.20453C52.271 8.19342 52.2618 8.1786 52.2525 8.16194C52.1877 8.03972 52.1173 7.91934 52.0395 7.79897C52.0284 7.78045 52.0173 7.76194 52.0062 7.74342C51.9692 7.68971 51.9303 7.63416 51.8914 7.5786L47.8858 2.12305Z" fill="#F9FAFB"/>
<path d="M41.8086 7.95312H44.3604L44.6438 12.1013L42.1271 12.6161L41.8086 7.95312Z" fill="#F7F9FC"/>
<path d="M42.1274 12.9857C42.0478 12.9857 41.9682 12.9598 41.9033 12.9098C41.8182 12.845 41.7645 12.7468 41.7589 12.6394L41.4404 7.97648C41.433 7.87462 41.47 7.77277 41.5385 7.6987C41.6089 7.62462 41.7071 7.58203 41.8089 7.58203H44.3589C44.5534 7.58203 44.7145 7.73203 44.7293 7.92647L45.0126 12.0746C45.0256 12.2598 44.8997 12.4246 44.7182 12.4635L42.2015 12.9783C42.1774 12.9839 42.1515 12.9857 42.1274 12.9857ZM42.2052 8.32277L42.4682 12.1691L44.2515 11.8043L44.0145 8.32462H42.2052V8.32277Z" fill="#F9FAFB"/>
<path d="M45.5996 7.95312H47.0311L47.2774 11.5605L45.8663 11.8494L45.5996 7.95312Z" fill="#F7F9FC"/>
<path d="M45.8666 12.2191C45.787 12.2191 45.7073 12.1931 45.6425 12.1431C45.5573 12.0783 45.5036 11.9802 45.4981 11.8728L45.2314 7.97648C45.224 7.87462 45.261 7.77277 45.3295 7.6987C45.3999 7.62462 45.4981 7.58203 45.5999 7.58203H47.0314C47.2258 7.58203 47.3869 7.73203 47.4018 7.92647L47.6481 11.5339C47.661 11.7191 47.5351 11.8839 47.3536 11.9228L45.9425 12.2117C45.9166 12.2172 45.8907 12.2191 45.8666 12.2191ZM45.9962 8.32277L46.2073 11.4024L46.887 11.2635L46.687 8.32462H45.9962V8.32277Z" fill="#F9FAFB"/>
<path d="M48.2734 7.95312H82.9771L73.1716 69.4365H57.3457L54.9105 84.7031L54.5938 84.9661H52.8457C54.0957 84.2605 54.9197 82.9124 54.7975 81.5679L52.2179 53.0402H64.4901C65.0253 53.0402 65.5271 52.6216 65.6086 52.105C65.6919 51.5865 65.3234 51.1698 64.7882 51.1698H52.0494L51.3568 43.5031H66.0123C66.5475 43.5031 67.0494 43.0846 67.1327 42.5661C67.2142 42.0494 66.8475 41.6309 66.3123 41.6309H51.1882L50.4957 33.9642H67.5345C68.0697 33.9642 68.5716 33.5457 68.6549 33.0272C68.7364 32.5105 68.3697 32.092 67.8345 32.092H50.342C50.366 30.4772 51.7068 28.9328 53.4438 28.5753C55.2716 28.1994 56.6586 26.5161 56.5401 24.8124L56.5142 24.4253H69.0568C69.5919 24.4253 70.0938 24.0068 70.1771 23.4883C70.2586 22.9716 69.8919 22.5531 69.3568 22.5531H56.3864L55.7308 12.9624C55.6308 11.4865 54.4364 10.479 52.9327 10.479C52.6994 10.479 52.4586 10.5031 52.2142 10.5531L48.9086 11.2309L48.5068 11.3124L48.2734 7.95312Z" fill="#F7F9FC"/>
<path d="M54.5944 85.3378H52.8463C52.6778 85.3378 52.5315 85.2248 52.4889 85.0619C52.4463 84.8989 52.5185 84.7285 52.6648 84.6452C53.8259 83.9896 54.5352 82.7656 54.4296 81.6026L51.85 53.0748C51.8407 52.9711 51.8759 52.8693 51.9463 52.7915C52.0166 52.7156 52.1166 52.6711 52.2204 52.6711H64.4926C64.8463 52.6711 65.1926 52.3859 65.2463 52.0471C65.2685 51.9082 65.2389 51.7859 65.1592 51.6915C65.0759 51.5933 64.9444 51.5396 64.7907 51.5396H52.0518C51.8611 51.5396 51.7 51.3933 51.6833 51.2026L50.9907 43.5359C50.9815 43.4322 51.0167 43.3304 51.087 43.2526C51.1574 43.1767 51.2574 43.1322 51.3611 43.1322H66.0167C66.3704 43.1322 66.7167 42.8452 66.7704 42.5063C66.7926 42.3693 66.7611 42.2433 66.6815 42.1508C66.5981 42.0526 66.4666 41.9989 66.3148 41.9989H51.1907C51 41.9989 50.8389 41.8526 50.8222 41.6619L50.1296 33.9952C50.1203 33.8915 50.1555 33.7896 50.2259 33.7119C50.2963 33.6359 50.3963 33.5915 50.5 33.5915H67.5389C67.8926 33.5915 68.2389 33.3045 68.2926 32.9656C68.3148 32.8285 68.2833 32.7026 68.2055 32.6119C68.1222 32.5137 67.9907 32.46 67.8389 32.46H50.3463C50.2463 32.46 50.1518 32.4211 50.0833 32.3489C50.0148 32.2767 49.9759 32.1822 49.9778 32.0841C50.0055 30.2674 51.4648 28.6026 53.3741 28.21C55.0241 27.8711 56.2815 26.3582 56.1759 24.8359L56.15 24.4489C56.1426 24.347 56.1796 24.2452 56.2481 24.1711C56.3185 24.0952 56.4166 24.0545 56.5185 24.0545H69.0611C69.4148 24.0545 69.7611 23.7674 69.8148 23.4285C69.837 23.2915 69.8055 23.1656 69.7278 23.073C69.6444 22.9748 69.5129 22.9211 69.3611 22.9211H56.3907C56.1963 22.9211 56.0352 22.7711 56.0203 22.5767L55.3648 12.9859C55.2796 11.7267 54.2815 10.8489 52.9352 10.8489C52.7241 10.8489 52.5074 10.8711 52.2907 10.9156L48.5833 11.6767C48.4778 11.6989 48.3704 11.673 48.2852 11.6082C48.2 11.5433 48.1463 11.4452 48.1407 11.3378L47.9111 7.98038C47.9037 7.87853 47.9407 7.77668 48.0092 7.70261C48.0796 7.62853 48.1778 7.58594 48.2796 7.58594H82.9833C83.0926 7.58594 83.1944 7.63409 83.2648 7.71557C83.3352 7.79705 83.3666 7.90631 83.3481 8.01371L73.5426 69.497C73.5148 69.6767 73.3592 69.81 73.1759 69.81H57.6666L55.2815 84.7656C55.2666 84.8545 55.2222 84.9341 55.1518 84.9915L54.8352 85.2544C54.7648 85.3063 54.6815 85.3378 54.5944 85.3378ZM53.95 84.597H54.4611L54.5685 84.5082L54.7148 83.5859C54.5166 83.9508 54.2574 84.2933 53.95 84.597ZM52.6241 53.41L55.1222 81.0359L56.9815 69.3785C57.0092 69.1989 57.1648 69.0656 57.3481 69.0656H72.8574L82.5444 8.32298H48.6703L48.8444 10.8619L52.137 10.1859C52.4018 10.1322 52.6703 10.1045 52.9296 10.1045C54.6555 10.1045 55.987 11.2933 56.0981 12.9322L56.7296 22.1785H69.3537C69.7222 22.1785 70.0611 22.3285 70.2852 22.5915C70.5074 22.8508 70.5981 23.1896 70.5407 23.5433C70.4296 24.2433 69.7759 24.7933 69.0555 24.7933H56.9092C57.0333 26.6693 55.5129 28.5267 53.5166 28.9359C52.1 29.2267 50.95 30.41 50.7426 31.7193H67.8315C68.2 31.7193 68.5389 31.8693 68.7629 32.1322C68.9852 32.3915 69.0759 32.7304 69.0185 33.0841C68.9074 33.7841 68.2537 34.3341 67.5333 34.3341H50.9L51.5259 41.26H66.3111C66.6796 41.26 67.0185 41.41 67.2426 41.6711C67.4648 41.9304 67.5555 42.2693 67.4981 42.623C67.387 43.323 66.7333 43.873 66.0129 43.873H51.7629L52.3889 50.7989H64.7907C65.1592 50.7989 65.4981 50.9489 65.7222 51.21C65.9426 51.4693 66.0333 51.8082 65.9778 52.1619C65.8666 52.8619 65.2148 53.41 64.4926 53.41H52.6241Z" fill="#F9FAFB"/>
<path d="M69.3532 22.5469C69.8884 22.5469 70.2569 22.9654 70.1736 23.4821C70.0902 24.0006 69.5884 24.4191 69.0532 24.4191H56.5106L56.3828 22.5469H69.3532Z" fill="#D0D5DD"/>
<path d="M69.0553 24.7908H56.5128C56.3183 24.7908 56.1572 24.6408 56.1424 24.4464L56.0146 22.5741C56.0072 22.4723 56.0442 22.3704 56.1127 22.2964C56.1831 22.2223 56.2813 22.1797 56.3831 22.1797H69.3516C69.7202 22.1797 70.0591 22.3297 70.2831 22.5927C70.5053 22.8519 70.5961 23.1908 70.5387 23.5445C70.4276 24.2408 69.7757 24.7908 69.0553 24.7908ZM56.8572 24.0501H69.0535C69.4072 24.0501 69.7535 23.763 69.8072 23.4241C69.8294 23.2871 69.7979 23.1612 69.7202 23.0686C69.6368 22.9704 69.5053 22.9167 69.3535 22.9167H56.7813L56.8572 24.0501Z" fill="#D0D5DD"/>
<path d="M67.8324 32.0879C68.3676 32.0879 68.7361 32.5064 68.6528 33.0231C68.5695 33.5416 68.0676 33.9601 67.5324 33.9601H50.4936L50.3473 32.3342C50.3417 32.2527 50.3398 32.1694 50.3398 32.0879H67.8324Z" fill="#D0D5DD"/>
<path d="M67.5344 34.3298H50.4955C50.3048 34.3298 50.1437 34.1835 50.127 33.9927L49.9807 32.3668C49.9733 32.2668 49.9715 32.1742 49.9733 32.0816C49.977 31.8798 50.1418 31.7168 50.3437 31.7168H67.8363C68.2048 31.7168 68.5437 31.8668 68.7678 32.1298C68.99 32.389 69.0807 32.7279 69.0233 33.0816C68.9085 33.7816 68.2567 34.3298 67.5344 34.3298ZM50.8326 33.589H67.5344C67.8881 33.589 68.2344 33.302 68.2881 32.9631C68.3104 32.8261 68.2789 32.7001 68.2011 32.6075C68.1178 32.5094 67.9863 32.4557 67.8344 32.4557H50.7326L50.8326 33.589Z" fill="#D0D5DD"/>
<path d="M66.3116 41.6289C66.8468 41.6289 67.2153 42.0474 67.1319 42.5641C67.0486 43.0826 66.5468 43.5011 66.0116 43.5011H51.356L51.1875 41.6289H66.3116Z" fill="#D0D5DD"/>
<path d="M66.0124 43.8708H51.3568C51.1661 43.8708 51.005 43.7245 50.9883 43.5337L50.8198 41.6615C50.8106 41.5578 50.8457 41.456 50.9161 41.3782C50.9865 41.3023 51.0865 41.2578 51.1902 41.2578H66.3143C66.6828 41.2578 67.0217 41.4078 67.2457 41.6708C67.468 41.93 67.5587 42.2689 67.5013 42.6226C67.3865 43.3226 66.7346 43.8708 66.0124 43.8708ZM51.6957 43.13H66.0124C66.3661 43.13 66.7124 42.843 66.7661 42.5041C66.7883 42.3671 66.7569 42.2411 66.6772 42.1486C66.5939 42.0504 66.4624 41.9967 66.3105 41.9967H51.5939L51.6957 43.13Z" fill="#D0D5DD"/>
<path d="M64.7897 51.1699C65.3249 51.1699 65.6934 51.5866 65.61 52.1051C65.5286 52.6218 65.0267 53.0403 64.4915 53.0403H52.2193L52.0508 51.1699H64.7897Z" fill="#D0D5DD"/>
<path d="M64.4924 53.4099H52.2201C52.0294 53.4099 51.8683 53.2636 51.8516 53.0729L51.6831 51.2025C51.6738 51.0988 51.709 50.997 51.7794 50.9192C51.8498 50.8433 51.9498 50.7988 52.0535 50.7988H64.7924C65.1609 50.7988 65.4998 50.9488 65.7238 51.2099C65.9442 51.4692 66.035 51.8081 65.9794 52.1618C65.8664 52.8618 65.2127 53.4099 64.4924 53.4099ZM52.559 52.6692H64.4924C64.8461 52.6692 65.1924 52.384 65.2461 52.0451C65.2683 51.9062 65.2387 51.784 65.159 51.6896C65.0757 51.5914 64.9442 51.5377 64.7905 51.5377H52.4572L52.559 52.6692Z" fill="#D0D5DD"/>
<path d="M82.9774 7.95117L86.9811 13.4086L77.1756 74.8938L73.1719 69.4345L82.9774 7.95117Z" fill="#E4E7EC"/>
<path d="M77.1764 75.2646C77.0598 75.2646 76.9486 75.209 76.8783 75.1127L72.8746 69.6535C72.8153 69.5738 72.7912 69.4738 72.8079 69.3757L82.6135 7.89236C82.6375 7.74421 82.7468 7.62569 82.8912 7.59051C83.0357 7.55532 83.1894 7.61088 83.2764 7.73125L87.2801 13.1905C87.3394 13.2701 87.3634 13.3701 87.3468 13.4683L77.5412 74.9516C77.5172 75.0998 77.4079 75.2183 77.2635 75.2535C77.2338 75.2609 77.206 75.2646 77.1764 75.2646ZM73.5635 69.3405L76.9505 73.959L86.5931 13.5035L83.206 8.88495L73.5635 69.3405Z" fill="#F9FAFB"/>
<path d="M73.1733 69.4355L54.9141 84.7022L57.3474 69.4355H73.1733Z" fill="#D0D5DD"/>
<path d="M54.9142 85.0719C54.8513 85.0719 54.7883 85.0552 54.7309 85.0237C54.5957 84.9478 54.5235 84.7959 54.5476 84.6441L56.9827 69.3774C57.0105 69.1978 57.1661 69.0645 57.3494 69.0645H73.1753C73.3309 69.0645 73.4698 69.1626 73.5235 69.3089C73.5772 69.4552 73.5327 69.62 73.4124 69.72L55.1531 84.9867C55.0827 85.0441 54.9975 85.0719 54.9142 85.0719ZM57.6642 69.8052L55.4346 83.783L72.1531 69.8052H57.6642Z" fill="#F9FAFB"/>
<path d="M73.1733 69.4355L77.177 74.8948L58.9159 90.1615L54.9141 84.7022L73.1733 69.4355Z" fill="#D0D5DD"/>
<path d="M58.9162 90.5322C58.9014 90.5322 58.8866 90.5322 58.8718 90.5304C58.7699 90.5174 58.6792 90.4637 58.6181 90.3822L54.6144 84.923C54.4996 84.7656 54.5255 84.5452 54.6755 84.4193L72.9348 69.1526C73.0125 69.0878 73.1144 69.0563 73.2162 69.0693C73.3181 69.0822 73.4088 69.1359 73.4699 69.2174L77.4736 74.6767C77.5885 74.8341 77.5625 75.0545 77.4125 75.1804L59.1551 90.4452C59.0885 90.5026 59.0033 90.5322 58.9162 90.5322ZM55.4181 84.7637L58.9829 89.623L76.6736 74.8322L73.1088 69.973L55.4181 84.7637Z" fill="#F9FAFB"/>
<path d="M54.9142 84.7031L58.9161 90.1624L54.5957 84.9679L54.9142 84.7031Z" fill="#E4E7EC"/>
<path d="M58.9171 90.5327C58.8116 90.5327 58.706 90.4864 58.6319 90.3993L54.3116 85.2049C54.2486 85.129 54.219 85.0327 54.2282 84.9345C54.2375 84.8364 54.2856 84.7456 54.3597 84.6845L54.6764 84.4215C54.7542 84.3567 54.8579 84.3271 54.9579 84.3382C55.0597 84.3512 55.1504 84.4049 55.2116 84.4864L59.2153 89.9438C59.3338 90.1049 59.3023 90.3308 59.1449 90.4549C59.0764 90.5067 58.9967 90.5327 58.9171 90.5327Z" fill="#F9FAFB"/>
<path d="M54.5939 84.9688L58.9142 90.1632L56.8494 90.4262L52.8457 84.9688H54.5939Z" fill="#E4E7EC"/>
<path d="M56.8502 90.7956C56.7335 90.7956 56.6224 90.7401 56.552 90.6438L52.5483 85.1845C52.465 85.0715 52.4539 84.9234 52.5168 84.7974C52.5798 84.6734 52.7076 84.5938 52.8465 84.5938H54.5946C54.7039 84.5938 54.8094 84.6419 54.8798 84.7271L59.2002 89.9215C59.2872 90.0252 59.3094 90.1678 59.2594 90.2938C59.2094 90.4197 59.0965 90.5086 58.9613 90.5252L56.8946 90.7882C56.8817 90.7937 56.865 90.7956 56.8502 90.7956ZM53.578 85.3382L57.0206 90.0308L58.2002 89.8808L54.4224 85.3382H53.578Z" fill="#F9FAFB"/>
<path d="M53.4063 84.5859C53.323 84.6526 53.2359 84.7174 53.147 84.7785C53.0544 84.8415 52.9582 84.9026 52.86 84.9582C52.8545 84.9619 52.8507 84.9637 52.8452 84.9674C52.7415 85.0267 52.6359 85.0804 52.5267 85.1285C52.3878 85.1915 52.2433 85.247 52.097 85.2933C51.9693 85.3341 51.8396 85.3674 51.7081 85.3952L10.2507 93.8933C10.0063 93.9433 9.76555 93.9674 9.53222 93.9674C8.56926 93.9674 7.73037 93.5545 7.22852 92.8674L11.2322 98.3248C11.7359 99.0119 12.573 99.4248 13.5359 99.4248C13.7693 99.4248 14.01 99.4008 14.2544 99.3508L55.7118 90.8526C55.8433 90.8248 55.9748 90.7915 56.1007 90.7508C56.247 90.7045 56.3915 90.6489 56.5304 90.5859C56.6396 90.5359 56.7452 90.4822 56.8489 90.4248C56.8544 90.4211 56.8582 90.4193 56.8637 90.4156C56.9619 90.36 57.0582 90.2989 57.1507 90.2359C57.2396 90.1748 57.3267 90.11 57.41 90.0433L53.4063 84.5859Z" fill="#667185"/>
<path d="M13.5363 99.7955C12.4659 99.7955 11.5159 99.3399 10.9326 98.5455L6.92886 93.0863C6.80849 92.9214 6.84367 92.69 7.00849 92.5677C7.1733 92.4474 7.40479 92.4825 7.52701 92.6474L7.52886 92.6492C7.97145 93.2492 8.70108 93.5955 9.53256 93.5955C9.74367 93.5955 9.96034 93.5733 10.177 93.5288L51.6344 85.0307C51.7529 85.0066 51.8715 84.9751 51.9863 84.9381C52.1177 84.8955 52.2492 84.8455 52.3752 84.7881C52.4733 84.7437 52.5696 84.6937 52.6641 84.6418C52.7659 84.5844 52.8548 84.5288 52.9381 84.4714C53.0178 84.4159 53.0974 84.3585 53.1733 84.2955C53.2529 84.2325 53.3529 84.2029 53.4529 84.2159C53.5529 84.2288 53.6437 84.2825 53.7048 84.364L57.7085 89.8214C57.8252 89.9807 57.7974 90.2029 57.6437 90.3288C57.5529 90.4029 57.4585 90.4733 57.3622 90.54C57.2603 90.6103 57.1548 90.677 57.0492 90.7363L57.0326 90.7455C56.9196 90.8085 56.8029 90.8677 56.6844 90.9214C56.5326 90.99 56.3733 91.0511 56.2141 91.1011C56.0733 91.1455 55.9307 91.1825 55.7863 91.2122L14.3289 99.7103C14.064 99.7677 13.7974 99.7955 13.5363 99.7955ZM8.69367 94.2381L11.5307 98.1066C11.9733 98.7085 12.7029 99.0548 13.5363 99.0548C13.7474 99.0548 13.964 99.0325 14.1807 98.9881L55.6381 90.49C55.7566 90.4659 55.8752 90.4344 55.99 90.3974C56.1215 90.3548 56.2529 90.3048 56.3789 90.2474C56.477 90.2029 56.5752 90.1529 56.6678 90.1011C56.7492 90.0548 56.8233 90.0103 56.8918 89.964L53.327 85.1029C53.2363 85.164 53.14 85.2233 53.0455 85.2788C53.0437 85.2788 53.027 85.2881 53.027 85.29C52.9159 85.3529 52.7992 85.4122 52.6807 85.4659C52.5289 85.5344 52.3696 85.5955 52.2103 85.6455C52.0696 85.69 51.927 85.727 51.7826 85.7566L10.3252 94.2548C9.76775 94.3696 9.20293 94.3622 8.69367 94.2381Z" fill="#F9FAFB"/>
<path d="M54.7986 81.5672C54.9208 82.9116 54.0968 84.2598 52.8468 84.9653C52.4968 85.1635 52.1134 85.3098 51.7097 85.3931L10.2523 93.8913C10.0079 93.9413 9.76712 93.9653 9.53379 93.9653C8.04675 93.9653 6.86157 92.982 6.73749 91.5283L1.02638 24.1691C0.909717 22.4653 2.29676 20.7783 4.12453 20.4042L21.2801 16.8876L38.2653 13.4061L39.0227 24.5079C39.0819 25.3524 39.456 26.069 40.0282 26.5709C40.6023 27.0709 41.3764 27.3598 42.2412 27.3616C42.5097 27.3616 42.7856 27.332 43.0671 27.2746C43.9727 27.0894 44.7912 26.6191 45.4116 25.9894C46.0301 25.3598 46.4579 24.5672 46.5912 23.7302C46.6319 23.4728 46.6449 23.2098 46.6264 22.9487L45.869 11.8487L47.2801 11.5598L47.7486 18.4413C47.7671 18.7153 47.9893 18.9005 48.269 18.9005C48.7393 18.8172 48.9967 18.5042 48.9745 18.1894L48.5042 11.3079L48.906 11.2265L52.2116 10.5487C52.456 10.4987 52.6967 10.4746 52.9301 10.4746C54.4356 10.4746 55.6301 11.482 55.7282 12.9579L56.3838 22.5487L56.5116 24.4209L56.5375 24.8079C56.6542 26.5116 55.2671 28.1968 53.4412 28.5709C51.7042 28.9283 50.3634 30.4709 50.3393 32.0876C50.3375 32.1691 50.3393 32.2524 50.3468 32.3339L50.493 33.9598L51.1856 41.6265L51.3542 43.4987L52.0468 51.1654L52.2153 53.0357L54.7986 81.5672Z" fill="#D0D5DD"/>
<path d="M9.53402 94.335C7.83587 94.335 6.50624 93.1683 6.3692 91.5591L0.658093 24.1998C0.528463 22.3146 2.05068 20.4517 4.05068 20.0406L38.1914 13.0443C38.297 13.022 38.4044 13.048 38.4896 13.1128C38.5748 13.1776 38.6285 13.2757 38.634 13.3831L39.3914 24.485C39.4414 25.1998 39.7544 25.8424 40.271 26.2943C40.7859 26.7424 41.4859 26.9906 42.2414 26.9924C42.4803 26.9924 42.734 26.9665 42.9933 26.9128C43.7914 26.7498 44.5562 26.3294 45.147 25.7313C45.7248 25.1443 46.1062 24.4128 46.2248 23.6739C46.2618 23.4368 46.2729 23.2035 46.2562 22.9776L45.4988 11.8739C45.4859 11.6887 45.6118 11.5239 45.7933 11.485L47.2044 11.1961C47.3081 11.1739 47.4173 11.1998 47.5025 11.2646C47.5877 11.3294 47.6414 11.4276 47.647 11.535L48.1173 18.4165C48.1229 18.5017 48.1933 18.5239 48.2414 18.5294C48.4914 18.4757 48.6136 18.3331 48.6044 18.2165L48.134 11.335C48.1211 11.1498 48.247 10.985 48.4285 10.9461L52.1359 10.185C52.4025 10.1313 52.6692 10.1035 52.9285 10.1035C54.6544 10.1035 55.9859 11.2924 56.097 12.9313L56.9062 24.7831C57.0359 26.6609 55.5136 28.5239 53.5136 28.935C51.9618 29.2535 50.7303 30.6406 50.7081 32.0943C50.7062 32.1665 50.7081 32.2369 50.7136 32.3091L55.1636 81.535C55.2951 82.9832 54.4359 84.4924 53.0247 85.2887C52.6322 85.5109 52.2136 85.6683 51.7803 85.7572L10.3229 94.2554C10.0618 94.3072 9.79513 94.335 9.53402 94.335ZM37.9229 13.8554L4.19698 20.7665C2.54698 21.1054 1.28957 22.6202 1.39513 24.1443L7.10624 91.498C7.21179 92.7331 8.20994 93.5961 9.53402 93.5961C9.74513 93.5961 9.96179 93.5739 10.1785 93.5294L51.6359 85.0313C51.9933 84.9572 52.3396 84.8276 52.6655 84.6443C53.8266 83.9887 54.5359 82.7665 54.4303 81.6017L49.9785 32.3683C49.9711 32.2683 49.9692 32.1757 49.971 32.0831C49.9988 30.2665 51.4599 28.6017 53.3692 28.2091C55.0192 27.8702 56.2766 26.3572 56.171 24.835L55.3618 12.9831C55.2766 11.7239 54.2785 10.8461 52.9322 10.8461C52.721 10.8461 52.5044 10.8683 52.2877 10.9128L48.897 11.6091L49.3451 18.1665C49.3822 18.6943 48.9581 19.1572 48.334 19.2665C48.3136 19.2702 48.2914 19.272 48.2692 19.272C47.7859 19.272 47.4099 18.9331 47.3785 18.4665L46.9377 12.0072L46.2581 12.1461L46.9933 22.9239C47.0136 23.2035 47.0007 23.4961 46.9544 23.7887C46.8118 24.6776 46.3581 25.5517 45.6729 26.248C44.9803 26.9517 44.0803 27.4443 43.1396 27.6368C42.8303 27.6998 42.5266 27.7313 42.2396 27.7313C41.3044 27.7294 40.4322 27.4165 39.7822 26.8498C39.1155 26.2665 38.7136 25.4443 38.6507 24.5331L37.9229 13.8554Z" fill="#F9FAFB"/>
<path d="M42.2397 27.7326C41.3064 27.7308 40.4342 27.4178 39.7842 26.8511C39.1175 26.2678 38.7156 25.4456 38.6527 24.5345L37.4434 6.82522C37.4175 6.45115 37.4342 6.06781 37.4953 5.68818C37.6823 4.51411 38.2823 3.36225 39.186 2.44559C40.099 1.51596 41.2879 0.864107 42.5342 0.608551C42.9342 0.52707 43.3323 0.486328 43.7193 0.486328C44.9453 0.486328 46.0916 0.897437 46.9453 1.64188C47.8194 2.40485 48.3453 3.48262 48.4231 4.67522L49.3453 18.1641C49.3805 18.666 48.999 19.1419 48.4768 19.2493C48.4064 19.2623 48.3379 19.2697 48.2712 19.2697C47.7879 19.2697 47.4138 18.9308 47.3805 18.4641L46.4601 4.97522C46.4082 4.22892 46.0971 3.58633 45.5582 3.11596C45.0268 2.65115 44.3082 2.39559 43.5323 2.39559C43.2823 2.39559 43.0231 2.42337 42.7601 2.47707C41.9286 2.64744 41.1638 3.06781 40.549 3.69188C39.9564 4.29374 39.5638 5.04373 39.4434 5.80299C39.4045 6.04744 39.3934 6.29003 39.4101 6.51966L40.6194 24.2289C40.6508 24.6882 40.8416 25.0845 41.1731 25.3752C41.5027 25.6604 41.949 25.8178 42.4286 25.8178C42.586 25.8178 42.7508 25.8011 42.9157 25.7678C43.4416 25.6586 43.9249 25.3919 44.3138 24.9993C44.686 24.6197 44.9342 24.1474 45.0101 23.6715C45.0342 23.5252 45.0416 23.3734 45.0323 23.2215L43.8768 6.31781C43.8638 6.14373 43.7953 5.99744 43.6694 5.88818C43.5434 5.77892 43.3694 5.71596 43.1823 5.71596C43.1157 5.71781 43.0453 5.72521 42.9786 5.73818C42.7601 5.78447 42.5582 5.89559 42.3971 6.0604C42.2397 6.21966 42.1379 6.41226 42.1064 6.60485C42.0971 6.65855 42.0953 6.71966 42.099 6.78077L42.8786 18.1956C42.9138 18.6974 42.5305 19.1734 42.0101 19.2808C41.9416 19.2956 41.8712 19.303 41.8027 19.303C41.3194 19.303 40.9471 18.9641 40.9138 18.4974L40.1342 7.08448C40.1212 6.89374 40.1305 6.69374 40.1619 6.48818C40.2582 5.88077 40.5693 5.28447 41.0342 4.81225C41.499 4.33633 42.1101 4.00115 42.7527 3.86781C42.9657 3.82707 43.1712 3.80485 43.3675 3.80485C44.0082 3.80485 44.6064 4.02152 45.0564 4.41226C45.5194 4.81411 45.7971 5.38262 45.8397 6.01225L46.9934 22.9197C47.0138 23.1993 47.0008 23.4919 46.9545 23.7845C46.8138 24.6734 46.3582 25.5474 45.6731 26.2437C44.9805 26.9456 44.0823 27.44 43.1397 27.6326C42.8323 27.7011 42.5286 27.7326 42.2397 27.7326Z" fill="#D0D5DD"/>
<path d="M43.7175 0.857928C44.8842 0.857928 45.9268 1.24682 46.7008 1.92274C47.473 2.59682 47.9786 3.55978 48.0527 4.70237L48.2749 7.95422L48.5045 11.3116L48.9749 18.1931C48.9971 18.5061 48.7397 18.8209 48.4008 18.8913C48.3564 18.9005 48.3119 18.9042 48.2693 18.9042C47.9897 18.9042 47.7675 18.719 47.749 18.445L47.2805 11.5635L47.0342 7.95607L46.8286 4.95607C46.7693 4.08385 46.3897 3.35608 45.8008 2.84311C45.2119 2.3283 44.4156 2.032 43.5323 2.032C43.2601 2.032 42.9749 2.06163 42.686 2.12089C41.7527 2.31348 40.923 2.79126 40.2842 3.43756C39.6471 4.08385 39.2119 4.89681 39.0767 5.75052C39.0342 6.01348 39.0193 6.28385 39.0397 6.55237L39.136 7.95607L39.4916 13.1598L40.249 24.2598C40.2879 24.8376 40.5397 25.3172 40.9286 25.6579C41.3193 25.9968 41.8453 26.1931 42.4286 26.1931C42.6101 26.1931 42.799 26.1746 42.9879 26.1357C43.6064 26.0079 44.1545 25.6913 44.5767 25.2635C44.9971 24.8357 45.286 24.2987 45.3749 23.7339C45.4027 23.5598 45.4119 23.382 45.4008 23.2024L44.6416 12.1024L44.3582 7.95422L44.2453 6.29682C44.2249 6.01163 44.1027 5.78015 43.9119 5.61348C43.7193 5.44682 43.4638 5.35052 43.1805 5.35052C43.0897 5.35237 42.999 5.36163 42.9045 5.38015C42.6008 5.44311 42.3379 5.59496 42.1305 5.80608C41.9249 6.01534 41.7823 6.2783 41.7379 6.55237C41.7249 6.63756 41.7212 6.72459 41.7267 6.81163L41.8045 7.95607L42.123 12.619L42.5064 18.2264C42.5286 18.5431 42.2712 18.8542 41.9323 18.9246C41.886 18.9339 41.8416 18.9376 41.799 18.9376C41.5193 18.9376 41.299 18.7505 41.2805 18.4764L40.8971 12.869L40.5619 7.95422L40.5008 7.06348C40.4879 6.89311 40.499 6.72089 40.5249 6.55237C40.6119 6.00608 40.8916 5.48755 41.2953 5.07829C41.6971 4.66718 42.2342 4.35978 42.8249 4.23756C43.0082 4.20237 43.1879 4.182 43.3638 4.182C43.9305 4.182 44.4342 4.37089 44.8082 4.69867C45.1842 5.02459 45.4286 5.49311 45.4656 6.04496L45.5953 7.95607L45.8619 11.8524L46.6193 22.9524C46.6397 23.2135 46.6249 23.4764 46.5842 23.7339C46.4508 24.5709 46.023 25.3616 45.4045 25.9931C44.7842 26.6227 43.9656 27.0931 43.0601 27.2783C42.7786 27.3357 42.5027 27.3653 42.2342 27.3653C41.3693 27.3635 40.5934 27.0746 40.0212 26.5746C39.4471 26.0727 39.0749 25.3561 39.0156 24.5116L38.2638 13.4079L37.8916 7.95237L37.8138 6.80052C37.7897 6.44867 37.8064 6.09496 37.8619 5.74682C38.0416 4.62089 38.6156 3.55422 39.4508 2.70607C40.286 1.85607 41.3879 1.22274 42.6082 0.972742C42.9842 0.894964 43.3564 0.857928 43.7175 0.857928ZM43.7175 0.117188C43.3064 0.117188 42.8842 0.159781 42.4601 0.244966C41.1397 0.515336 39.8842 1.20422 38.9193 2.1857C37.9638 3.15607 37.3268 4.37829 37.1286 5.62829C37.0638 6.0357 37.0453 6.44681 37.073 6.85052L37.1508 8.00237L37.523 13.4579L38.2805 24.5598C38.3527 25.5709 38.799 26.482 39.5379 27.1301C40.2564 27.7561 41.2138 28.1005 42.2379 28.1042C42.5527 28.1042 42.8805 28.0709 43.2119 28.0024C44.2267 27.795 45.1953 27.2653 45.9379 26.5116C46.6768 25.7598 47.1675 24.8135 47.3212 23.8505C47.373 23.5283 47.386 23.2079 47.3638 22.8968L47.0879 18.8505C47.2675 19.3209 47.7249 19.6431 48.2693 19.6431C48.3601 19.6431 48.4527 19.6338 48.5453 19.6153C49.2508 19.4709 49.7619 18.8227 49.7138 18.1394L49.2434 11.2598L49.0138 7.90237L48.7916 4.65052C48.7064 3.35978 48.136 2.19126 47.1879 1.36348C46.2656 0.559776 45.0323 0.117188 43.7175 0.117188ZM39.7805 6.54682L39.7768 6.49867C39.7619 6.29126 39.7712 6.08015 39.8064 5.86348C39.9156 5.1783 40.273 4.50052 40.8101 3.95237C41.373 3.382 42.073 2.99867 42.8323 2.84126C43.0712 2.79311 43.3045 2.76719 43.5305 2.76719C44.2156 2.76719 44.849 2.99126 45.3119 3.39496C45.7768 3.80052 46.0453 4.35607 46.0879 5.00052L46.1175 5.44682C45.9805 4.93756 45.699 4.482 45.2971 4.13385C44.7823 3.68385 44.0971 3.4357 43.3675 3.4357C43.1471 3.4357 42.9175 3.45792 42.686 3.50422C41.9638 3.65422 41.286 4.02459 40.7693 4.55422C40.2508 5.08015 39.9064 5.74682 39.7971 6.43015C39.7916 6.47089 39.786 6.50793 39.7805 6.54682ZM41.8027 19.6746C41.8953 19.6746 41.9916 19.6653 42.0842 19.645C42.7842 19.5005 43.2953 18.8542 43.249 18.1709L42.8656 12.5635L42.5471 7.90052L42.4693 6.75607C42.4675 6.72274 42.4675 6.69126 42.473 6.66348C42.4916 6.54866 42.5601 6.42274 42.6601 6.32089C42.7712 6.20608 42.9082 6.132 43.0582 6.10052C43.0953 6.09311 43.1397 6.08756 43.1897 6.08756C43.286 6.08941 43.3675 6.11719 43.4286 6.16904C43.4767 6.21163 43.5027 6.26718 43.5082 6.34496L43.6212 8.00052L43.9045 12.1487L44.6638 23.2487C44.6712 23.3672 44.6656 23.4913 44.6453 23.6135C44.5823 24.0135 44.3693 24.4153 44.049 24.7413C43.7138 25.082 43.2934 25.3116 42.8379 25.4079C42.7027 25.4357 42.5619 25.4487 42.4286 25.4487C42.0379 25.4487 41.6768 25.3227 41.4138 25.095C41.1619 24.8727 41.0138 24.5653 40.9879 24.2061L40.6249 18.8857C40.8027 19.3542 41.2601 19.6746 41.8027 19.6746Z" fill="#F9FAFB"/>
</svg>
