<svg width="64" height="64" viewBox="0 0 64 64" fill="none" xmlns="http://www.w3.org/2000/svg">
<g clip-path="url(#clip0_1342_5577)">
<path d="M0 0H64V21.3375H0V0Z" fill="#FF9933"/>
<path d="M0 21.3379H64V42.6629H0V21.3379Z" fill="white"/>
<path d="M0 42.6621H64V63.9996H0V42.6621Z" fill="#128807"/>
<path d="M31.9991 40.5334C36.712 40.5334 40.5325 36.7129 40.5325 32.0001C40.5325 27.2873 36.712 23.4668 31.9991 23.4668C27.2863 23.4668 23.4658 27.2873 23.4658 32.0001C23.4658 36.7129 27.2863 40.5334 31.9991 40.5334Z" fill="#000088"/>
<path d="M31.9999 39.4665C36.1236 39.4665 39.4665 36.1236 39.4665 31.9999C39.4665 27.8761 36.1236 24.5332 31.9999 24.5332C27.8761 24.5332 24.5332 27.8761 24.5332 31.9999C24.5332 36.1236 27.8761 39.4665 31.9999 39.4665Z" fill="white"/>
<path d="M31.9992 33.4925C32.8239 33.4925 33.4925 32.8239 33.4925 31.9992C33.4925 31.1744 32.8239 30.5059 31.9992 30.5059C31.1744 30.5059 30.5059 31.1744 30.5059 31.9992C30.5059 32.8239 31.1744 33.4925 31.9992 33.4925Z" fill="#000088"/>
<path d="M39.3527 33.3584C39.563 33.3861 39.7559 33.2381 39.7836 33.0278C39.8113 32.8176 39.6632 32.6247 39.453 32.597C39.2427 32.5693 39.0498 32.7173 39.0221 32.9276C38.9945 33.1379 39.1425 33.3307 39.3527 33.3584Z" fill="#000088"/>
<path d="M32.0001 39.4668L32.2561 34.9868L32.0001 32.8535L31.7441 34.9868L32.0001 39.4668Z" fill="#000088"/>
<path d="M38.7503 35.2159C38.9463 35.297 39.1709 35.204 39.252 35.008C39.3332 34.8121 39.2402 34.5875 39.0442 34.5063C38.8483 34.4252 38.6237 34.5182 38.5425 34.7141C38.4613 34.9101 38.5544 35.1347 38.7503 35.2159Z" fill="#000088"/>
<path d="M30.0678 39.214L31.4746 34.9529L31.7795 32.826L30.9801 34.8204L30.0678 39.214Z" fill="#000088"/>
<path d="M37.6887 36.8528C37.8569 36.9819 38.098 36.9502 38.2271 36.7819C38.3562 36.6137 38.3245 36.3726 38.1562 36.2435C37.988 36.1144 37.7469 36.1462 37.6178 36.3144C37.4887 36.4827 37.5204 36.7237 37.6887 36.8528Z" fill="#000088"/>
<path d="M28.2666 38.4666L30.7283 34.7148L31.5733 32.7393L30.2849 34.4588L28.2666 38.4666Z" fill="#000088"/>
<path d="M36.2378 38.1608C36.3669 38.3291 36.6079 38.3608 36.7762 38.2317C36.9444 38.1026 36.9761 37.8616 36.847 37.6933C36.7179 37.5251 36.4769 37.4933 36.3086 37.6224C36.1404 37.7515 36.1086 37.9926 36.2378 38.1608Z" fill="#000088"/>
<path d="M26.7195 37.2812L30.0684 34.2944L31.3959 32.6048L29.7064 33.9323L26.7195 37.2812Z" fill="#000088"/>
<path d="M34.4989 39.0471C34.5801 39.243 34.8047 39.3361 35.0007 39.2549C35.1966 39.1738 35.2896 38.9491 35.2085 38.7532C35.1273 38.5573 34.9027 38.4642 34.7068 38.5454C34.5108 38.6265 34.4178 38.8512 34.4989 39.0471Z" fill="#000088"/>
<path d="M25.5325 35.7354L29.5403 33.7171L31.2598 32.4287L29.2843 33.2737L25.5325 35.7354Z" fill="#000088"/>
<path d="M32.5895 39.4536C32.6172 39.6639 32.81 39.8119 33.0203 39.7842C33.2306 39.7565 33.3786 39.5636 33.3509 39.3534C33.3232 39.1431 33.1303 38.9951 32.9201 39.0228C32.7098 39.0505 32.5618 39.2434 32.5895 39.4536Z" fill="#000088"/>
<path d="M24.7867 33.9335L29.1803 33.0213L31.1747 32.2219L29.0478 32.5268L24.7867 33.9335Z" fill="#000088"/>
<path d="M30.6406 39.3527C30.6129 39.563 30.7609 39.7559 30.9712 39.7836C31.1815 39.8113 31.3743 39.6632 31.402 39.453C31.4297 39.2427 31.2817 39.0498 31.0714 39.0221C30.8612 38.9945 30.6683 39.1425 30.6406 39.3527Z" fill="#000088"/>
<path d="M24.5322 32.0001L29.0122 32.2561L31.1455 32.0001L29.0122 31.7441L24.5322 32.0001Z" fill="#000088"/>
<path d="M28.7841 38.7503C28.703 38.9463 28.796 39.1709 28.992 39.252C29.1879 39.3332 29.4125 39.2402 29.4937 39.0442C29.5748 38.8483 29.4818 38.6237 29.2859 38.5425C29.0899 38.4613 28.8653 38.5544 28.7841 38.7503Z" fill="#000088"/>
<path d="M24.787 30.0669L29.0481 31.4737L31.175 31.7785L29.1806 30.9791L24.787 30.0669Z" fill="#000088"/>
<path d="M27.1472 37.6867C27.0181 37.855 27.0498 38.096 27.2181 38.2251C27.3863 38.3542 27.6274 38.3225 27.7565 38.1543C27.8856 37.986 27.8538 37.7449 27.6856 37.6158C27.5173 37.4867 27.2763 37.5185 27.1472 37.6867Z" fill="#000088"/>
<path d="M25.5334 28.2646L29.2852 30.7263L31.2607 31.5713L29.5412 30.2829L25.5334 28.2646Z" fill="#000088"/>
<path d="M25.8401 36.2378C25.6719 36.3669 25.6401 36.6079 25.7692 36.7762C25.8984 36.9444 26.1394 36.9761 26.3077 36.847C26.4759 36.7179 26.5076 36.4769 26.3785 36.3086C26.2494 36.1404 26.0084 36.1086 25.8401 36.2378Z" fill="#000088"/>
<path d="M26.7198 26.7195L29.7066 30.0684L31.3961 31.3959L30.0687 29.7064L26.7198 26.7195Z" fill="#000088"/>
<path d="M24.9529 34.4999C24.757 34.5811 24.6639 34.8057 24.7451 35.0016C24.8262 35.1976 25.0509 35.2906 25.2468 35.2095C25.4427 35.1283 25.5358 34.9037 25.4546 34.7077C25.3735 34.5118 25.1488 34.4188 24.9529 34.4999Z" fill="#000088"/>
<path d="M28.2666 25.5335L30.2849 29.5413L31.5732 31.2608L30.7283 29.2853L28.2666 25.5335Z" fill="#000088"/>
<path d="M24.5464 32.5914C24.3361 32.6191 24.1881 32.812 24.2158 33.0223C24.2435 33.2325 24.4364 33.3805 24.6466 33.3529C24.8569 33.3252 25.0049 33.1323 24.9772 32.922C24.9495 32.7118 24.7566 32.5637 24.5464 32.5914Z" fill="#000088"/>
<path d="M30.0674 24.7876L30.9797 29.1813L31.7791 31.1756L31.4742 29.0487L30.0674 24.7876Z" fill="#000088"/>
<path d="M24.6463 30.6416C24.436 30.6139 24.2431 30.7619 24.2155 30.9722C24.1878 31.1824 24.3358 31.3753 24.546 31.403C24.7563 31.4307 24.9492 31.2827 24.9769 31.0724C25.0046 30.8621 24.8566 30.6693 24.6463 30.6416Z" fill="#000088"/>
<path d="M31.9989 24.5332L31.7429 29.0132L31.9989 31.1465L32.2549 29.0132L31.9989 24.5332Z" fill="#000088"/>
<path d="M25.2487 28.7841C25.0528 28.703 24.8281 28.796 24.747 28.992C24.6658 29.1879 24.7589 29.4125 24.9548 29.4937C25.1507 29.5748 25.3754 29.4818 25.4565 29.2859C25.5377 29.0899 25.4446 28.8653 25.2487 28.7841Z" fill="#000088"/>
<path d="M33.9312 24.786L32.5244 29.0471L32.2195 31.174L33.0189 29.1796L33.9312 24.786Z" fill="#000088"/>
<path d="M26.3103 27.1472C26.1421 27.0181 25.901 27.0498 25.7719 27.2181C25.6428 27.3863 25.6746 27.6274 25.8428 27.7565C26.0111 27.8856 26.2521 27.8538 26.3812 27.6856C26.5103 27.5173 26.4786 27.2763 26.3103 27.1472Z" fill="#000088"/>
<path d="M35.7324 25.5334L33.2707 29.2852L32.4258 31.2607L33.7141 29.5412L35.7324 25.5334Z" fill="#000088"/>
<path d="M27.7613 25.8392C27.6322 25.6709 27.3911 25.6392 27.2229 25.7683C27.0546 25.8974 27.0229 26.1384 27.152 26.3067C27.2811 26.4749 27.5221 26.5067 27.6904 26.3776C27.8586 26.2485 27.8904 26.0074 27.7613 25.8392Z" fill="#000088"/>
<path d="M37.2795 26.7188L33.9306 29.7056L32.6032 31.3952L34.2927 30.0677L37.2795 26.7188Z" fill="#000088"/>
<path d="M29.4991 24.9529C29.418 24.757 29.1933 24.6639 28.9974 24.7451C28.8015 24.8262 28.7084 25.0509 28.7896 25.2468C28.8707 25.4427 29.0954 25.5358 29.2913 25.4546C29.4872 25.3735 29.5803 25.1488 29.4991 24.9529Z" fill="#000088"/>
<path d="M38.4655 28.2646L34.4577 30.2829L32.7382 31.5713L34.7137 30.7263L38.4655 28.2646Z" fill="#000088"/>
<path d="M31.4086 24.5464C31.3809 24.3361 31.188 24.1881 30.9777 24.2158C30.7675 24.2435 30.6195 24.4364 30.6471 24.6466C30.6748 24.8569 30.8677 25.0049 31.078 24.9772C31.2882 24.9495 31.4363 24.7566 31.4086 24.5464Z" fill="#000088"/>
<path d="M39.2114 30.0665L34.8178 30.9787L32.8234 31.7781L34.9503 31.4732L39.2114 30.0665Z" fill="#000088"/>
<path d="M33.3574 24.6473C33.3851 24.437 33.2371 24.2441 33.0269 24.2164C32.8166 24.1887 32.6237 24.3368 32.596 24.547C32.5683 24.7573 32.7164 24.9502 32.9266 24.9779C33.1369 25.0055 33.3298 24.8575 33.3574 24.6473Z" fill="#000088"/>
<path d="M39.4659 31.9999L34.9859 31.7439L32.8525 31.9999L34.9859 32.2559L39.4659 31.9999Z" fill="#000088"/>
<path d="M35.2139 25.2497C35.2951 25.0537 35.202 24.8291 35.0061 24.748C34.8102 24.6668 34.5855 24.7598 34.5044 24.9558C34.4232 25.1517 34.5163 25.3763 34.7122 25.4575C34.9081 25.5387 35.1328 25.4456 35.2139 25.2497Z" fill="#000088"/>
<path d="M39.2111 33.9331L34.95 32.5263L32.8231 32.2215L34.8175 33.0209L39.2111 33.9331Z" fill="#000088"/>
<path d="M36.8509 26.3113C36.98 26.1431 36.9482 25.902 36.78 25.7729C36.6117 25.6438 36.3707 25.6755 36.2416 25.8438C36.1125 26.012 36.1442 26.2531 36.3125 26.3822C36.4807 26.5113 36.7218 26.4796 36.8509 26.3113Z" fill="#000088"/>
<path d="M38.4647 35.7334L34.7129 33.2717L32.7374 32.4267L34.4569 33.7151L38.4647 35.7334Z" fill="#000088"/>
<path d="M38.1579 27.7603C38.3262 27.6312 38.3579 27.3901 38.2288 27.2219C38.0997 27.0536 37.8586 27.0219 37.6904 27.151C37.5221 27.2801 37.4904 27.5212 37.6195 27.6894C37.7486 27.8577 37.9897 27.8894 38.1579 27.7603Z" fill="#000088"/>
<path d="M37.2782 37.2785L34.2914 33.9297L32.6019 32.6022L33.9294 34.2917L37.2782 37.2785Z" fill="#000088"/>
<path d="M39.0452 29.4981C39.2411 29.417 39.3341 29.1923 39.253 28.9964C39.1718 28.8005 38.9472 28.7074 38.7513 28.7886C38.5553 28.8698 38.4623 29.0944 38.5434 29.2903C38.6246 29.4863 38.8492 29.5793 39.0452 29.4981Z" fill="#000088"/>
<path d="M35.7315 38.4645L33.7132 34.4568L32.4248 32.7372L33.2698 34.7128L35.7315 38.4645Z" fill="#000088"/>
<path d="M39.4517 31.4066C39.6619 31.3789 39.8099 31.186 39.7823 30.9758C39.7546 30.7655 39.5617 30.6175 39.3514 30.6452C39.1412 30.6729 38.9931 30.8658 39.0208 31.076C39.0485 31.2863 39.2414 31.4343 39.4517 31.4066Z" fill="#000088"/>
<path d="M33.9306 39.2104L33.0184 34.8168L32.219 32.8224L32.5238 34.9493L33.9306 39.2104Z" fill="#000088"/>
</g>
<defs>
<clipPath id="clip0_1342_5577">
<rect width="64" height="64" rx="32" fill="white"/>
</clipPath>
</defs>
</svg>
