<svg width="64" height="64" viewBox="0 0 64 64" fill="none" xmlns="http://www.w3.org/2000/svg">
<g clip-path="url(#clip0_1342_5558)">
<path d="M0 0H64V64H0V0Z" fill="white"/>
<path d="M0 0H64V19.2H0V0Z" fill="#000001"/>
<path d="M0 44.8008H64V64.0008H0V44.8008Z" fill="#006600"/>
<path d="M20.5352 50.9996L21.2552 51.3996L39.9352 18.9996C41.0152 18.7596 41.6152 17.7196 42.2152 16.6796C42.6152 15.9596 44.2152 13.1996 44.8952 9.59961C42.9975 11.286 41.3894 13.2724 40.1352 15.4796C39.5352 16.5196 38.9352 17.5596 39.2152 18.6396L20.5352 50.9996Z" fill="black" stroke="black" stroke-width="0.4"/>
<path d="M20.5352 50.9996L21.2552 51.3996L39.9352 18.9996C41.0152 18.7596 41.6152 17.7196 42.2152 16.6796C42.6152 15.9596 44.2152 13.1996 44.8952 9.59961C42.9975 11.286 41.3894 13.2724 40.1352 15.4796C39.5352 16.5196 38.9352 17.5596 39.2152 18.6396L20.5352 50.9996Z" fill="white"/>
<path d="M43.4277 50.9996L42.7077 51.3996L24.0277 18.9996C22.9477 18.7596 22.3477 17.7196 21.7477 16.6796C21.3477 15.9596 19.7477 13.1996 19.0677 9.59961C20.9654 11.286 22.5735 13.2724 23.8277 15.4796C24.4277 16.5196 25.0277 17.5596 24.7477 18.6396L43.4277 50.9996Z" fill="black" stroke="black" stroke-width="0.4"/>
<path d="M43.4277 50.9996L42.7077 51.3996L24.0277 18.9996C22.9477 18.7596 22.3477 17.7196 21.7477 16.6796C21.3477 15.9596 19.7477 13.1996 19.0677 9.59961C20.9654 11.286 22.5735 13.2724 23.8277 15.4796C24.4277 16.5196 25.0277 17.5596 24.7477 18.6396L43.4277 50.9996Z" fill="white"/>
<path d="M31.975 12.8008C29.575 12.8008 25.575 19.2008 24.375 22.4008H0V41.6008H24.375C25.5875 44.8008 29.5875 51.2008 31.9875 51.2008C34.3875 51.2008 38.3875 44.8008 39.5875 41.6008H64V22.4008H39.575C38.375 19.2008 34.375 12.8008 31.975 12.8008Z" fill="#BB0000"/>
<path d="M39.5752 41.6004C40.8116 38.5461 41.4891 35.2944 41.5752 32.0004C41.4891 28.7064 40.8116 25.4547 39.5752 22.4004C38.3388 25.4547 37.6613 28.7064 37.5752 32.0004C37.6613 35.2944 38.3388 38.5461 39.5752 41.6004Z" fill="black"/>
<path d="M24.3877 41.6004C23.1513 38.5461 22.4738 35.2944 22.3877 32.0004C22.4738 28.7064 23.1513 25.4547 24.3877 22.4004C25.6241 25.4547 26.3016 28.7064 26.3877 32.0004C26.3016 35.2944 25.6241 38.5461 24.3877 41.6004Z" fill="black"/>
<path d="M31.975 34.4016C32.8587 34.4016 33.575 33.327 33.575 32.0016C33.575 30.6761 32.8587 29.6016 31.975 29.6016C31.0913 29.6016 30.375 30.6761 30.375 32.0016C30.375 33.327 31.0913 34.4016 31.975 34.4016Z" fill="white"/>
<path d="M32.375 34.3203C32.375 34.3203 33.975 37.5203 33.975 42.7203C33.975 47.9203 32.375 51.1203 32.375 51.1203V34.3203Z" fill="white"/>
<path d="M31.5742 29.6816C31.5742 29.6816 29.9742 26.4816 29.9742 21.2816C29.9742 16.0816 31.5742 12.8816 31.5742 12.8816V29.6816Z" fill="white"/>
<path d="M31.5742 34.3203C31.5742 34.3203 29.9742 37.5203 29.9742 42.7203C29.9742 47.9203 31.5742 51.1203 31.5742 51.1203V34.3203Z" fill="white"/>
<path d="M32.375 29.6816C32.375 29.6816 33.975 26.4816 33.975 21.2816C33.975 16.0816 32.375 12.8816 32.375 12.8816V29.6816Z" fill="white"/>
</g>
<defs>
<clipPath id="clip0_1342_5558">
<rect width="64" height="64" rx="32" fill="white"/>
</clipPath>
</defs>
</svg>
