<svg width="16" height="16" viewBox="0 0 16 16" fill="none" xmlns="http://www.w3.org/2000/svg">
<path d="M7.70174 6.93965C7.72925 6.88383 7.77184 6.83682 7.82468 6.80395C7.87752 6.77108 7.93851 6.75366 8.00074 6.75366C8.06297 6.75366 8.12396 6.77108 8.17681 6.80395C8.22965 6.83682 8.27223 6.88383 8.29974 6.93965L9.29474 8.95565C9.31862 9.00418 9.35395 9.04616 9.39768 9.07799C9.44141 9.10981 9.49222 9.13052 9.54574 9.13832L11.7707 9.46165C11.8322 9.47064 11.89 9.49664 11.9375 9.53672C11.985 9.5768 12.0204 9.62936 12.0396 9.68847C12.0588 9.74758 12.0611 9.81088 12.0462 9.87123C12.0313 9.93158 11.9999 9.98657 11.9554 10.03L10.3454 11.5993C10.3067 11.637 10.2777 11.6836 10.261 11.735C10.2443 11.7864 10.2403 11.841 10.2494 11.8943L10.6294 14.1103C10.6399 14.1716 10.633 14.2345 10.6096 14.2921C10.5861 14.3496 10.5471 14.3995 10.4968 14.436C10.4466 14.4726 10.3871 14.4943 10.3251 14.4989C10.2631 14.5034 10.2011 14.4905 10.1461 14.4617L8.15608 13.4157C8.10823 13.3905 8.05497 13.3773 8.00091 13.3773C7.94684 13.3773 7.89359 13.3905 7.84574 13.4157L5.85574 14.4617C5.80068 14.4907 5.73859 14.5037 5.67651 14.4993C5.61442 14.4949 5.55481 14.4731 5.50444 14.4366C5.45407 14.4 5.41494 14.3501 5.39149 14.2924C5.36803 14.2347 5.36119 14.1717 5.37174 14.1103L5.75174 11.8943C5.7609 11.8411 5.75697 11.7864 5.74031 11.735C5.72364 11.6836 5.69473 11.6371 5.65608 11.5993L4.04608 10.03C4.00151 9.98658 3.96998 9.93157 3.95505 9.87117C3.94012 9.81078 3.9424 9.74741 3.96161 9.68824C3.98082 9.62907 4.01622 9.57645 4.06378 9.53635C4.11134 9.49625 4.16918 9.47026 4.23074 9.46132L6.45574 9.13798C6.50923 9.13022 6.56002 9.10956 6.60375 9.0778C6.64747 9.04603 6.68282 9.00411 6.70674 8.95565L7.70174 6.93965ZM12.0007 1.33398H4.00074V4.66732L8.00074 6.33398L12.0007 4.66732V1.33398Z" stroke="#667185" stroke-linecap="round" stroke-linejoin="round"/>
</svg>
