<svg width="16" height="17" viewBox="0 0 16 17" fill="none" xmlns="http://www.w3.org/2000/svg">
<path d="M9.33333 6.5C9.14444 6.5 8.98622 6.436 8.85867 6.308C8.73111 6.18 8.66711 6.02178 8.66667 5.83333V3.16667C8.66667 2.97778 8.73067 2.81956 8.85867 2.692C8.98667 2.56444 9.14489 2.50044 9.33333 2.5H13.3333C13.5222 2.5 13.6807 2.564 13.8087 2.692C13.9367 2.82 14.0004 2.97822 14 3.16667V5.83333C14 6.02222 13.936 6.18067 13.808 6.30867C13.68 6.43667 13.5218 6.50044 13.3333 6.5H9.33333ZM2.66667 9.16667C2.47778 9.16667 2.31956 9.10267 2.192 8.97467C2.06444 8.84667 2.00044 8.68844 2 8.5V3.16667C2 2.97778 2.064 2.81956 2.192 2.692C2.32 2.56444 2.47822 2.50044 2.66667 2.5H6.66667C6.85556 2.5 7.014 2.564 7.142 2.692C7.27 2.82 7.33378 2.97822 7.33333 3.16667V8.5C7.33333 8.68889 7.26933 8.84733 7.14133 8.97533C7.01333 9.10333 6.85511 9.16711 6.66667 9.16667H2.66667ZM9.33333 14.5C9.14444 14.5 8.98622 14.436 8.85867 14.308C8.73111 14.18 8.66711 14.0218 8.66667 13.8333V8.5C8.66667 8.31111 8.73067 8.15289 8.85867 8.02533C8.98667 7.89778 9.14489 7.83378 9.33333 7.83333H13.3333C13.5222 7.83333 13.6807 7.89733 13.8087 8.02533C13.9367 8.15333 14.0004 8.31156 14 8.5V13.8333C14 14.0222 13.936 14.1807 13.808 14.3087C13.68 14.4367 13.5218 14.5004 13.3333 14.5H9.33333ZM2.66667 14.5C2.47778 14.5 2.31956 14.436 2.192 14.308C2.06444 14.18 2.00044 14.0218 2 13.8333V11.1667C2 10.9778 2.064 10.8196 2.192 10.692C2.32 10.5644 2.47822 10.5004 2.66667 10.5H6.66667C6.85556 10.5 7.014 10.564 7.142 10.692C7.27 10.82 7.33378 10.9782 7.33333 11.1667V13.8333C7.33333 14.0222 7.26933 14.1807 7.14133 14.3087C7.01333 14.4367 6.85511 14.5004 6.66667 14.5H2.66667Z" fill="#101928"/>
</svg>
