<svg width="64" height="64" viewBox="0 0 64 64" fill="none" xmlns="http://www.w3.org/2000/svg">
<g clip-path="url(#clip0_1342_5763)">
<mask id="mask0_1342_5763" style="mask-type:luminance" maskUnits="userSpaceOnUse" x="0" y="0" width="64" height="64">
<path d="M0 0H64V64H0V0Z" fill="white"/>
</mask>
<g mask="url(#mask0_1342_5763)">
<path fill-rule="evenodd" clip-rule="evenodd" d="M-11.875 0H84.125V64H-11.875V0Z" fill="#0C590B"/>
<path fill-rule="evenodd" clip-rule="evenodd" d="M-11.875 0H12.1875V64H-11.875V0Z" fill="white"/>
<path fill-rule="evenodd" clip-rule="evenodd" d="M50.4619 28.1742L46.5619 27.3492L44.5119 30.7617L44.0869 26.8117L40.2119 25.9117L43.8369 24.2867L43.4994 20.3242L46.1744 23.2742L49.8369 21.7242L47.8494 25.1742L50.4744 28.1742H50.4619Z" fill="white"/>
<path fill-rule="evenodd" clip-rule="evenodd" d="M51.9247 38.25C51.0955 40.0675 49.9144 41.7027 48.4497 43.0612C46.985 44.4197 45.2657 45.4746 43.3911 46.1649C41.5164 46.8553 39.5236 47.1674 37.5277 47.0833C35.5317 46.9993 33.5722 46.5206 31.7623 45.675C29.9423 44.8342 28.3061 43.6428 26.947 42.169C25.588 40.6952 24.5329 38.9679 23.8421 37.0859C23.1514 35.2039 22.8384 33.2042 22.9212 31.2011C23.004 29.1981 23.481 27.231 24.3248 25.4125C25.172 23.526 26.4032 21.8368 27.94 20.4529C29.4767 19.069 31.2851 18.0207 33.2498 17.375C32.735 17.8035 32.2427 18.2583 31.7748 18.7375C29.336 21.4383 28.0414 24.9807 28.1639 28.6176C28.2863 32.2545 29.8164 35.7017 32.4313 38.2324C35.0463 40.763 38.5418 42.1793 42.1807 42.1826C45.8197 42.1859 49.3177 40.7759 51.9373 38.25H51.9247Z" fill="white"/>
</g>
</g>
<defs>
<clipPath id="clip0_1342_5763">
<rect width="64" height="64" rx="32" fill="white"/>
</clipPath>
</defs>
</svg>
