<svg width="64" height="64" viewBox="0 0 64 64" fill="none" xmlns="http://www.w3.org/2000/svg">
<g clip-path="url(#clip0_647_4042)">
<path d="M25.6004 0H64.0004V64H25.5879L25.6004 0Z" fill="#FF0000"/>
<path d="M-0.000195312 0H25.5998V64H-0.0126953L-0.000195312 0Z" fill="#006600"/>
<path fill-rule="evenodd" clip-rule="evenodd" d="M36.7256 40.825C32.4256 40.7 12.7256 28.4 12.6006 26.4375L13.6756 24.625C15.6256 27.4625 35.7756 39.425 37.7506 39L36.7256 40.825Z" fill="#FFFF00" stroke="black" stroke-width="0.0875" stroke-linecap="round" stroke-linejoin="round"/>
<path fill-rule="evenodd" clip-rule="evenodd" d="M13.4506 24.3746C13.0631 25.4121 18.5881 28.8246 25.2381 32.8746C31.8881 36.9121 37.6131 39.4121 38.0506 39.0621L38.2381 38.6996C38.1548 38.8329 37.9631 38.8579 37.6631 38.7746C35.8631 38.2496 31.1756 36.0996 25.3756 32.5871C19.5756 29.0746 14.5256 25.8246 13.7506 24.4496C13.6882 24.3213 13.6582 24.1797 13.6631 24.0371H13.6381L13.4756 24.3246L13.4506 24.3746ZM36.8256 40.8746C36.7506 41.0121 36.6131 41.0121 36.3631 40.9996C34.7506 40.8121 29.8631 38.4371 24.1131 34.9871C17.3881 30.9621 11.8381 27.2996 12.4506 26.3496L12.6131 26.0496L12.6381 26.0621C12.1006 27.6871 23.5881 34.2496 24.2631 34.6746C30.9006 38.7996 36.5131 41.1996 37.0131 40.5746L36.8256 40.8746Z" fill="#FFFF00" stroke="black" stroke-width="0.0875" stroke-linecap="round" stroke-linejoin="round"/>
<path fill-rule="evenodd" clip-rule="evenodd" d="M25.6254 27.6246C29.9129 27.5871 35.2254 27.0371 38.2754 25.8246L37.6254 24.7496C35.8129 25.7496 30.4879 26.4121 25.5879 26.4996C19.7879 26.4496 15.7004 25.9121 13.6504 24.5371L13.0254 25.6746C16.8004 27.2621 20.6504 27.6121 25.6254 27.6246Z" fill="#FFFF00" stroke="black" stroke-width="0.0875" stroke-linecap="round" stroke-linejoin="round"/>
<path fill-rule="evenodd" clip-rule="evenodd" d="M38.4623 25.8504C38.3498 26.0129 36.3623 26.7004 33.4248 27.2004C30.8347 27.5888 28.2189 27.7811 25.5998 27.7754C23.0919 27.7867 20.5862 27.628 18.0998 27.3004C15.0373 26.8129 13.4373 26.1379 12.8498 25.9004L12.9998 25.6129C14.6621 26.2681 16.3944 26.7294 18.1623 26.9879C20.6281 27.3104 23.113 27.4649 25.5998 27.4504C28.198 27.452 30.7927 27.2598 33.3623 26.8754C36.3623 26.3879 38.0123 25.7629 38.2373 25.4754L38.4623 25.8504ZM37.8748 24.7504C37.5498 25.0004 35.9248 25.5879 33.0748 26.0379C30.6115 26.3915 28.1259 26.5669 25.6373 26.5629C23.2376 26.5811 20.8398 26.4265 18.4623 26.1004C15.5498 25.7254 14.0123 25.0379 13.4623 24.8379L13.6248 24.5504C14.0498 24.7754 15.5498 25.3754 18.4998 25.8004C20.8664 26.1071 23.251 26.2533 25.6373 26.2379C28.1051 26.2411 30.5699 26.0657 33.0123 25.7129C35.8873 25.3129 37.4373 24.5879 37.6748 24.4004L37.8748 24.7504ZM11.4998 32.8004C14.1498 34.2254 20.0123 34.9504 25.5748 35.0004C30.6373 35.0004 37.2373 34.2129 39.6998 32.9004L39.6248 31.4754C38.8623 32.6879 31.7998 33.8504 25.5248 33.8004C19.2498 33.7504 13.4248 32.7754 11.4873 31.5254V32.8004" fill="#FFFF00"/>
<path d="M11.4998 32.8004C14.1498 34.2254 20.0123 34.9504 25.5748 35.0004C30.6373 35.0004 37.2373 34.2129 39.6998 32.9004L39.6248 31.4754C38.8623 32.6879 31.7998 33.8504 25.5248 33.8004C19.2498 33.7504 13.4248 32.7754 11.4873 31.5254V32.8004M38.4623 25.8504C38.3498 26.0129 36.3623 26.7004 33.4248 27.2004C30.8347 27.5888 28.2189 27.7811 25.5998 27.7754C23.0919 27.7867 20.5862 27.628 18.0998 27.3004C15.0373 26.8129 13.4373 26.1379 12.8498 25.9004L12.9998 25.6129C14.6621 26.2681 16.3944 26.7294 18.1623 26.9879C20.6281 27.3104 23.113 27.4649 25.5998 27.4504C28.198 27.452 30.7927 27.2598 33.3623 26.8754C36.3623 26.3879 38.0123 25.7629 38.2373 25.4754L38.4623 25.8504ZM37.8748 24.7504C37.5498 25.0004 35.9248 25.5879 33.0748 26.0379C30.6115 26.3915 28.1259 26.5669 25.6373 26.5629C23.2376 26.5811 20.8398 26.4265 18.4623 26.1004C15.5498 25.7254 14.0123 25.0379 13.4623 24.8379L13.6248 24.5504C14.0498 24.7754 15.5498 25.3754 18.4998 25.8004C20.8664 26.1071 23.251 26.2533 25.6373 26.2379C28.1051 26.2411 30.5699 26.0657 33.0123 25.7129C35.8873 25.3129 37.4373 24.5879 37.6748 24.4004L37.8748 24.7504Z" stroke="black" stroke-width="0.0875" stroke-linecap="round" stroke-linejoin="round"/>
<path fill-rule="evenodd" clip-rule="evenodd" d="M39.8377 32.5996V32.9371C39.4627 33.3871 37.1377 34.0621 34.2252 34.5246C31.3403 34.9438 28.4278 35.1443 25.5127 35.1246C22.0877 35.1246 19.3627 34.8746 17.2377 34.5496C15.1989 34.3175 13.2061 33.7825 11.3252 32.9621V32.5621C12.6252 33.4246 16.1127 34.0496 17.2877 34.2371C19.3877 34.5621 22.1002 34.7996 25.5127 34.7996C29.1002 34.7996 31.9752 34.5496 34.1752 34.2121C36.2752 33.9121 39.2502 33.1246 39.8377 32.5996ZM39.8377 31.3871V31.7371C39.4627 32.1746 37.1377 32.8496 34.2252 33.3121C31.3403 33.7313 28.4278 33.9318 25.5127 33.9121C22.0877 33.9121 19.3627 33.6621 17.2502 33.3496C15.2065 33.1147 13.2093 32.5754 11.3252 31.7496V31.3496C12.6252 32.2121 16.1127 32.8496 17.2877 33.0246C19.4002 33.3496 22.1127 33.5996 25.5127 33.5996C29.1002 33.5996 31.9752 33.3496 34.1752 32.9996C36.2752 32.6996 39.2502 31.9121 39.8377 31.3871ZM25.5627 40.5746C19.4877 40.5371 14.2752 38.9246 13.1752 38.6496L13.9752 39.8996C15.9127 40.7246 21.0002 41.9496 25.6252 41.8121C30.2502 41.6746 34.2877 41.3121 37.1252 39.9371L37.9502 38.6246C36.0127 39.5371 29.4127 40.5746 25.5752 40.5746" fill="#FFFF00"/>
<path d="M25.5627 40.5746C19.4877 40.5371 14.2752 38.9246 13.1752 38.6496L13.9752 39.8996C15.9127 40.7246 21.0002 41.9496 25.6252 41.8121C30.2502 41.6746 34.2877 41.3121 37.1252 39.9371L37.9502 38.6246C36.0127 39.5371 29.4127 40.5746 25.5752 40.5746M39.8377 32.5996V32.9371C39.4627 33.3871 37.1377 34.0621 34.2252 34.5246C31.3403 34.9438 28.4278 35.1443 25.5127 35.1246C22.0877 35.1246 19.3627 34.8746 17.2377 34.5496C15.1989 34.3175 13.2061 33.7825 11.3252 32.9621V32.5621C12.6252 33.4246 16.1127 34.0496 17.2877 34.2371C19.3877 34.5621 22.1002 34.7996 25.5127 34.7996C29.1002 34.7996 31.9752 34.5496 34.1752 34.2121C36.2752 33.9121 39.2502 33.1246 39.8377 32.5996ZM39.8377 31.3871V31.7371C39.4627 32.1746 37.1377 32.8496 34.2252 33.3121C31.3403 33.7313 28.4278 33.9318 25.5127 33.9121C22.0877 33.9121 19.3627 33.6621 17.2502 33.3496C15.2065 33.1147 13.2093 32.5754 11.3252 31.7496V31.3496C12.6252 32.2121 16.1127 32.8496 17.2877 33.0246C19.4002 33.3496 22.1127 33.5996 25.5127 33.5996C29.1002 33.5996 31.9752 33.3496 34.1752 32.9996C36.2752 32.6996 39.2502 31.9121 39.8377 31.3871Z" stroke="black" stroke-width="0.0875" stroke-linecap="round" stroke-linejoin="round"/>
<path fill-rule="evenodd" clip-rule="evenodd" d="M37.4373 39.6379L37.0623 40.1879C35.6439 40.6584 34.1946 41.0301 32.7248 41.3004C30.3662 41.7343 27.973 41.9519 25.5748 41.9504C20.1873 41.8754 15.7748 40.8254 13.6998 39.9254L13.5248 39.6379L13.5623 39.5879L13.8373 39.7004C17.6328 40.957 21.6018 41.6108 25.5998 41.6379C28.0998 41.6504 30.5998 41.3504 32.6123 41.0004C35.7123 40.3754 36.9623 39.9129 37.3498 39.7004L37.4373 39.6379ZM38.1498 38.4629H38.1623L37.8873 38.9379C37.1748 39.1879 35.2248 39.7629 32.3873 40.1629C30.5123 40.4129 29.3498 40.6629 25.6373 40.7379C21.3836 40.692 17.1565 40.0611 13.0748 38.8629L12.9248 38.5504C17.0706 39.6887 21.3394 40.3183 25.6373 40.4254C29.0373 40.3504 30.4873 40.1004 32.3373 39.8379C35.6498 39.3379 37.3123 38.7879 37.8123 38.6254L37.7998 38.6004L38.1498 38.4629Z" fill="#FFFF00" stroke="black" stroke-width="0.075" stroke-linecap="round" stroke-linejoin="round"/>
<path fill-rule="evenodd" clip-rule="evenodd" d="M38.2256 31.6746C38.2506 35.6746 36.2006 39.2746 34.5506 40.8621C32.1269 43.2194 28.8937 44.5609 25.5131 44.6121C21.4756 44.6871 17.6756 42.0496 16.6506 40.8996C14.6506 38.6371 13.0256 35.7746 12.9756 31.8996C13.2256 27.5246 14.9381 24.4871 17.4256 22.3996C19.831 20.4169 22.8585 19.3458 25.9756 19.3746C29.1506 19.4621 32.8756 21.0246 35.4381 24.1246C37.1131 26.1496 37.8506 28.3496 38.2256 31.6871V31.6746ZM25.5506 17.9746C33.3006 17.9746 39.6756 24.2871 39.6756 32.0121C39.6525 35.7431 38.1541 39.3134 35.5077 41.9435C32.8612 44.5735 29.2817 46.0497 25.5506 46.0496C17.8006 46.0496 11.4756 39.7496 11.4756 32.0121C11.4756 24.2746 17.8006 17.9746 25.5506 17.9746Z" fill="#FFFF00" stroke="black" stroke-width="0.0875" stroke-linecap="round" stroke-linejoin="round"/>
<path fill-rule="evenodd" clip-rule="evenodd" d="M25.5875 17.9246C33.3375 17.9246 39.6625 24.2621 39.6625 32.0121C39.6625 39.7621 33.3375 46.0996 25.5875 46.0996C21.8521 46.0897 18.2728 44.6006 15.6327 41.9581C12.9925 39.3156 11.5066 35.735 11.5 31.9996C11.5099 28.2664 12.9973 24.689 15.6371 22.0492C18.2768 19.4094 21.8543 17.922 25.5875 17.9121V17.9246ZM11.8125 32.0121C11.8125 39.5871 18.0375 45.7871 25.5875 45.7871C33.1375 45.7871 39.35 39.5871 39.35 32.0121C39.35 24.4371 33.1375 18.2496 25.5875 18.2496C21.9404 18.2628 18.4462 19.7166 15.866 22.2943C13.2859 24.8721 11.829 28.365 11.8125 32.0121Z" fill="#FFFF00" stroke="black" stroke-width="0.0875" stroke-linecap="round" stroke-linejoin="round"/>
<path fill-rule="evenodd" clip-rule="evenodd" d="M25.6 19.0996C32.6625 19.0996 38.4875 24.9121 38.4875 31.9996C38.4875 39.0871 32.6625 44.8996 25.6 44.8996C22.1806 44.8897 18.9039 43.5279 16.4848 41.1111C14.0657 38.6944 12.7007 35.419 12.6875 31.9996C12.6875 24.9121 18.5125 19.0996 25.5875 19.0996H25.6ZM13 31.9996C13 38.9246 18.6875 44.5871 25.6 44.5871C32.5125 44.5871 38.1875 38.9246 38.1875 31.9996C38.1875 25.0746 32.5 19.4121 25.5875 19.4121C18.675 19.4121 13 25.0746 13 31.9996Z" fill="#FFFF00" stroke="black" stroke-width="0.0875" stroke-linecap="round" stroke-linejoin="round"/>
<path fill-rule="evenodd" clip-rule="evenodd" d="M26.1627 17.875H24.9502V46.175H26.1627V17.875Z" fill="#FFFF00" stroke="black" stroke-width="0.0875" stroke-linecap="round" stroke-linejoin="round"/>
<path fill-rule="evenodd" clip-rule="evenodd" d="M26.0379 17.7129H26.3504V46.3379H26.0379V17.7129ZM24.8379 17.7129H25.1504V46.3379H24.8379V17.7129Z" fill="#FFFF00" stroke="black" stroke-width="0.0875" stroke-linecap="round" stroke-linejoin="round"/>
<path fill-rule="evenodd" clip-rule="evenodd" d="M39.6752 32.5629V31.5004L38.8252 30.7129L33.9877 29.4254L27.0127 28.7129L18.6377 29.1379L12.6502 30.5629L11.4502 31.4629V32.5004L14.5002 31.1254L21.7502 30.0004H28.7252L33.8502 30.5629L37.4002 31.4254L39.6752 32.5629Z" fill="#FFFF00" stroke="black" stroke-width="0.0875" stroke-linecap="round" stroke-linejoin="round"/>
<path fill-rule="evenodd" clip-rule="evenodd" d="M25.5877 29.8385C28.6438 29.826 31.6945 30.098 34.7002 30.651C37.3377 31.176 39.2002 31.8385 39.8252 32.576V32.951C39.0752 32.026 36.5752 31.351 34.6377 30.951C32.1002 30.4635 28.8877 30.151 25.5877 30.151C22.0877 30.151 18.8377 30.4885 16.3377 30.976C14.3377 31.376 11.6627 32.1635 11.3252 32.951V32.576C11.5127 32.026 13.5002 31.2135 16.3002 30.651C19.3644 30.0951 22.4735 29.8231 25.5877 29.8385ZM25.5877 28.626C28.6479 28.6142 31.7027 28.8862 34.7127 29.4385C37.3377 29.9635 39.2127 30.626 39.8377 31.376V31.7385C39.0752 30.8135 36.5627 30.1385 34.6377 29.751C32.1002 29.251 28.8877 28.9385 25.5877 28.9385C22.4939 28.9289 19.4057 29.2051 16.3627 29.7635C14.4252 30.1385 11.6377 30.9635 11.3252 31.7385V31.3635C11.5127 30.826 13.5502 29.9885 16.3002 29.451C19.3641 28.8909 22.4731 28.6147 25.5877 28.626ZM25.5252 22.4635C30.7627 22.4385 35.3377 23.201 37.4252 24.276L38.1877 25.5885C36.3752 24.6135 31.4377 23.5885 25.5252 23.751C20.7127 23.776 15.5752 24.276 12.9877 25.651L13.9002 24.126C16.0252 23.026 21.0252 22.476 25.5252 22.4635Z" fill="#FFFF00" stroke="black" stroke-width="0.0875" stroke-linecap="round" stroke-linejoin="round"/>
<path fill-rule="evenodd" clip-rule="evenodd" d="M25.5879 23.5495C28.5879 23.5495 31.4629 23.712 33.7629 24.1245C35.9004 24.5245 37.9504 25.1245 38.2379 25.4495L38.4629 25.8495C37.7504 25.387 35.9879 24.862 33.7129 24.437C31.0266 24.009 28.3075 23.8207 25.5879 23.8745C22.2129 23.8745 19.5879 24.037 17.3379 24.437C14.9629 24.8745 13.3129 25.512 12.9004 25.812L13.1254 25.3995C13.9129 24.987 15.1754 24.4995 17.2879 24.1245C19.6129 23.6995 22.2504 23.5745 25.5879 23.5495ZM25.5879 22.3495C28.2279 22.308 30.8667 22.492 33.4754 22.8995C35.2129 23.237 36.9254 23.762 37.5629 24.2245L37.8879 24.7495C37.3254 24.1245 35.2129 23.537 33.3379 23.212C31.1629 22.837 28.4504 22.687 25.5879 22.662C22.5879 22.662 19.8129 22.8495 17.6629 23.237C15.6129 23.637 14.2879 24.0995 13.7254 24.462L14.0129 24.012C14.7879 23.612 16.0379 23.237 17.6129 22.9245C19.7754 22.537 22.5754 22.3495 25.5879 22.3495ZM32.5879 37.862C30.2768 37.4633 27.9327 37.2875 25.5879 37.337C16.8504 37.437 14.0379 39.1245 13.6879 39.637L13.0379 38.5745C15.2504 36.962 20.0004 36.062 25.6254 36.1495C28.5421 36.1912 31.0587 36.4078 33.1754 36.7995L32.5754 37.862" fill="#FFFF00"/>
<path d="M32.5879 37.862C30.2768 37.4633 27.9327 37.2875 25.5879 37.337C16.8504 37.437 14.0379 39.1245 13.6879 39.637L13.0379 38.5745C15.2504 36.962 20.0004 36.062 25.6254 36.1495C28.5421 36.1912 31.0587 36.4078 33.1754 36.7995L32.5754 37.862M25.5879 23.5495C28.5879 23.5495 31.4629 23.712 33.7629 24.1245C35.9004 24.5245 37.9504 25.1245 38.2379 25.4495L38.4629 25.8495C37.7504 25.387 35.9879 24.862 33.7129 24.437C31.0266 24.009 28.3075 23.8207 25.5879 23.8745C22.2129 23.8745 19.5879 24.037 17.3379 24.437C14.9629 24.8745 13.3129 25.512 12.9004 25.812L13.1254 25.3995C13.9129 24.987 15.1754 24.4995 17.2879 24.1245C19.6129 23.6995 22.2504 23.5745 25.5879 23.5495ZM25.5879 22.3495C28.2279 22.308 30.8667 22.492 33.4754 22.8995C35.2129 23.237 36.9254 23.762 37.5629 24.2245L37.8879 24.7495C37.3254 24.1245 35.2129 23.537 33.3379 23.212C31.1629 22.837 28.4504 22.687 25.5879 22.662C22.5879 22.662 19.8129 22.8495 17.6629 23.237C15.6129 23.637 14.2879 24.0995 13.7254 24.462L14.0129 24.012C14.7879 23.612 16.0379 23.237 17.6129 22.9245C19.7754 22.537 22.5754 22.3495 25.5879 22.3495Z" stroke="black" stroke-width="0.0875" stroke-linecap="round" stroke-linejoin="round"/>
<path fill-rule="evenodd" clip-rule="evenodd" d="M25.5381 37.1876C27.9631 37.2251 30.3506 37.3126 32.6631 37.7501L32.4881 38.0501C30.1974 37.6549 27.8748 37.4749 25.5506 37.5126C22.3256 37.4876 19.0506 37.7876 16.2256 38.6001C15.3256 38.8501 13.8506 39.4251 13.6881 39.9001L13.5256 39.6251C13.5756 39.3501 14.4756 38.7626 16.1506 38.3001C19.4006 37.3626 22.4381 37.2126 25.5256 37.1751L25.5381 37.1876ZM25.6506 35.9626C28.2109 35.9602 30.7665 36.1819 33.2881 36.6251L33.1131 36.9376C30.6556 36.4881 28.1613 36.2704 25.6631 36.2876C22.4256 36.2876 19.0006 36.5251 15.8756 37.4251C14.8756 37.7251 13.1256 38.3501 13.0756 38.8501L12.9131 38.5626C12.9506 38.1126 14.4506 37.5126 15.8131 37.1126C19.0227 36.2731 22.3339 35.886 25.6506 35.9626Z" fill="#FFFF00" stroke="black" stroke-width="0.075" stroke-linecap="round" stroke-linejoin="round"/>
<path fill-rule="evenodd" clip-rule="evenodd" d="M38.0502 38.7371L37.0002 40.3621L33.9877 37.6871L26.1627 32.4371L17.3502 27.5871L12.7627 26.0246L13.7377 24.2121L14.0752 24.0371L16.9252 24.7496L26.3002 29.5871L31.7127 32.9996L36.2502 36.2496L38.1002 38.3871L38.0502 38.7371Z" fill="#FFFF00" stroke="black" stroke-width="0.0875" stroke-linecap="round" stroke-linejoin="round"/>
<path fill-rule="evenodd" clip-rule="evenodd" d="M12.5998 26.0629C13.4123 25.5254 19.3123 28.1504 25.4748 31.8754C31.6373 35.6004 37.5248 39.8254 36.9998 40.6254L36.8248 40.8879L36.7373 40.9504C36.7623 40.9504 36.8498 40.8254 36.7373 40.5379C36.4623 39.6754 32.2998 36.3504 25.3623 32.1629C18.6123 28.1379 12.9873 25.7129 12.4248 26.4129L12.5998 26.0629ZM38.2623 38.7129C38.7623 37.7129 33.2998 33.5879 26.5123 29.5754C19.5748 25.6379 14.5623 23.3254 13.6498 24.0129L13.4498 24.3879C13.4415 24.3879 13.4581 24.3671 13.4998 24.3254C13.6623 24.1879 13.9373 24.2004 14.0623 24.2004C15.6373 24.2129 20.1373 26.2754 26.4373 29.9004C29.1998 31.5004 38.1123 37.2254 38.0748 38.8254C38.0748 38.9629 38.0873 38.9879 38.0373 39.0629L38.2623 38.7129Z" fill="#FFFF00" stroke="black" stroke-width="0.0875" stroke-linecap="round" stroke-linejoin="round"/>
<path d="M17.1475 33.5595C17.1519 34.6631 17.374 35.7551 17.8011 36.7728C18.2282 37.7904 18.8519 38.7139 19.6364 39.4902C20.4132 40.2789 21.3384 40.9062 22.3587 41.3358C23.379 41.7654 24.4742 41.9888 25.5813 41.9933C26.6911 41.9963 27.7905 41.7792 28.8158 41.3544C29.8412 40.9296 30.7721 40.3056 31.5546 39.5186C32.3382 38.7395 32.9602 37.8132 33.3849 36.793C33.8096 35.7728 34.0286 34.6788 34.0293 33.5737V22.3097L17.1475 22.2812V33.5595Z" fill="white" stroke="black" stroke-width="0.0995558"/>
<path d="M17.4893 33.5731C17.4891 34.6326 17.7004 35.6815 18.1106 36.6583C18.5209 37.6352 19.122 38.5203 19.8786 39.262C21.3928 40.7841 23.449 41.6434 25.5959 41.6513C27.7389 41.6509 29.7944 40.8021 31.3133 39.2904C32.0674 38.5476 32.6658 37.6619 33.0736 36.6851C33.4814 35.7083 33.6904 34.66 33.6884 33.6015V22.6504H17.4893V33.5731ZM30.4315 25.9357V32.8904L30.4173 33.6157C30.4237 34.2514 30.301 34.8816 30.0565 35.4684C29.812 36.0551 29.4509 36.5861 28.9951 37.0291C28.0906 37.9367 26.863 38.4482 25.5817 38.4513C24.2448 38.4513 23.0644 37.8824 22.1826 37.0006C21.275 36.0962 20.7635 34.8686 20.7604 33.5873V25.9073L30.4315 25.9357Z" fill="#FF0000" stroke="black" stroke-width="0.0711113"/>
<path d="M18.5127 25.5101C18.5269 24.7279 19.0816 24.543 19.0816 24.543C19.0958 24.543 19.6931 24.7421 19.6931 25.5243L18.5127 25.5101Z" fill="#FFFF00"/>
<path d="M18.0293 24.5572L17.9298 25.4532H18.5271C18.5271 24.7136 19.096 24.5999 19.096 24.5999C19.1102 24.5999 19.6649 24.7563 19.6791 25.4532H20.2764L20.1627 24.543L18.0293 24.5572ZM17.8871 25.4674H20.3049C20.3523 25.4674 20.3807 25.5006 20.3902 25.567C20.3902 25.6428 20.3618 25.6807 20.3049 25.6807H17.8871C17.8397 25.6807 17.8112 25.6428 17.8018 25.567C17.8018 25.5006 17.8349 25.4674 17.9013 25.4674H17.8871Z" fill="#FFFF00" stroke="black" stroke-width="0.0711113"/>
<path d="M18.7686 25.4537C18.7686 24.9843 19.0957 24.8563 19.0957 24.8563C19.0957 24.8563 19.4228 24.9986 19.4228 25.4537H18.7686ZM17.9437 24.1737H20.262C20.3094 24.1832 20.3378 24.2211 20.3473 24.2875C20.3473 24.3349 20.3188 24.3633 20.262 24.3728H17.9437C17.8963 24.3728 17.8679 24.3396 17.8584 24.2732C17.8584 24.2258 17.8868 24.1974 17.9437 24.1879V24.1737ZM18.0006 24.387H20.1908C20.2383 24.387 20.2667 24.4202 20.2762 24.4866C20.2857 24.5529 20.2572 24.5861 20.1908 24.5861H17.9864C17.9295 24.5861 17.9011 24.5529 17.9011 24.4866C17.9011 24.4202 17.9295 24.387 17.9864 24.387H18.0006ZM18.7117 22.8795H18.8824V22.9932H19.0104V22.8795H19.1953V23.0075H19.3233V22.8652H19.494V23.1497C19.494 23.2066 19.4703 23.235 19.4228 23.235H18.7971C18.7497 23.235 18.7212 23.2113 18.7117 23.1639V22.8795ZM19.366 23.2635L19.4086 24.1737H18.7971L18.8397 23.2492H19.366" fill="#FFFF00"/>
<path d="M19.366 23.2635L19.4086 24.1737H18.7971L18.8397 23.2492H19.366M18.7686 25.4537C18.7686 24.9843 19.0957 24.8563 19.0957 24.8563C19.0957 24.8563 19.4228 24.9986 19.4228 25.4537H18.7686ZM17.9437 24.1737H20.262C20.3094 24.1832 20.3378 24.2211 20.3473 24.2875C20.3473 24.3349 20.3188 24.3633 20.262 24.3728H17.9437C17.8963 24.3728 17.8679 24.3396 17.8584 24.2732C17.8584 24.2258 17.8868 24.1974 17.9437 24.1879V24.1737ZM18.0006 24.387H20.1908C20.2383 24.387 20.2667 24.4202 20.2762 24.4866C20.2857 24.5529 20.2572 24.5861 20.1908 24.5861H17.9864C17.9295 24.5861 17.9011 24.5529 17.9011 24.4866C17.9011 24.4202 17.9295 24.387 17.9864 24.387H18.0006ZM18.7117 22.8795H18.8824V22.9932H19.0104V22.8795H19.1953V23.0075H19.3233V22.8652H19.494V23.1497C19.494 23.2066 19.4703 23.235 19.4228 23.235H18.7971C18.7497 23.235 18.7212 23.2113 18.7117 23.1639V22.8795Z" stroke="black" stroke-width="0.0711113"/>
<path d="M18.6265 23.6895V24.173H18.0576V23.6895H18.6265Z" fill="#FFFF00" stroke="black" stroke-width="0.0711113"/>
<path d="M20.1343 23.6895V24.173H19.5654V23.6895H20.1343Z" fill="#FFFF00" stroke="black" stroke-width="0.0711113"/>
<path d="M17.958 23.3203H18.1287V23.4625H18.2567V23.3203H18.4273V23.4625H18.5553V23.3203H18.726V23.6048C18.726 23.6616 18.7023 23.6901 18.6549 23.6901H18.0433C18.0237 23.683 18.0059 23.6717 17.9912 23.6569C17.9764 23.6422 17.9651 23.6244 17.958 23.6048V23.3203Z" fill="#FFFF00" stroke="black" stroke-width="0.0711113"/>
<path d="M19.4658 23.3203H19.6365V23.4625H19.7645V23.3203H19.9352V23.4625H20.0632V23.3203H20.2338V23.6048C20.2338 23.6616 20.2101 23.6901 20.1627 23.6901H19.5512C19.5315 23.683 19.5137 23.6717 19.499 23.6569C19.4842 23.6422 19.4729 23.6244 19.4658 23.6048V23.3203Z" fill="#FFFF00" stroke="black" stroke-width="0.0711113"/>
<path d="M19.0391 23.5484C19.0391 23.463 19.1671 23.463 19.1671 23.5484V23.7759H19.0391V23.5484Z" fill="#000001"/>
<path d="M18.2852 23.8609C18.2852 23.7755 18.3989 23.7755 18.3989 23.8609V24.0315H18.2852V23.8609Z" fill="#000001"/>
<path d="M19.793 23.8609C19.793 23.7755 19.9067 23.7755 19.9067 23.8609V24.0315H19.793V23.8609Z" fill="#000001"/>
<path d="M18.5127 32.0941C18.5269 31.3118 19.0816 31.127 19.0816 31.127C19.0958 31.127 19.6931 31.3261 19.6931 32.1083L18.5127 32.0941Z" fill="#FFFF00"/>
<path d="M18.0293 31.1412L17.9298 32.0372H18.5271C18.5271 31.2976 19.096 31.1838 19.096 31.1838C19.1102 31.1838 19.6649 31.3403 19.6791 32.0372H20.2764L20.1627 31.127L18.0293 31.1412ZM17.8871 32.0514H20.3049C20.3523 32.0514 20.3807 32.0846 20.3902 32.151C20.3902 32.2268 20.3618 32.2647 20.3049 32.2647H17.8871C17.8397 32.2647 17.8112 32.2268 17.8018 32.151C17.8018 32.0846 17.8349 32.0514 17.9013 32.0514H17.8871Z" fill="#FFFF00" stroke="black" stroke-width="0.0711113"/>
<path d="M18.7686 32.0377C18.7686 31.5683 19.0957 31.4403 19.0957 31.4403C19.0957 31.4403 19.4228 31.5826 19.4228 32.0377H18.7686ZM17.9437 30.7577H20.262C20.3094 30.7671 20.3378 30.8051 20.3473 30.8714C20.3473 30.9189 20.3188 30.9473 20.262 30.9568H17.9437C17.8963 30.9568 17.8679 30.9236 17.8584 30.8572C17.8584 30.8098 17.8868 30.7814 17.9437 30.7719V30.7577ZM18.0006 30.971H20.1908C20.2383 30.971 20.2667 31.0042 20.2762 31.0706C20.2857 31.1369 20.2572 31.1701 20.1908 31.1701H17.9864C17.9295 31.1701 17.9011 31.1369 17.9011 31.0706C17.9011 31.0042 17.9295 30.971 17.9864 30.971H18.0006ZM18.7117 29.4634H18.8824V29.5772H19.0104V29.4634H19.1953V29.5914H19.3233V29.4492H19.494V29.7337C19.494 29.7906 19.4703 29.819 19.4228 29.819H18.7971C18.7497 29.819 18.7212 29.7953 18.7117 29.7479V29.4634ZM19.366 29.8474L19.4086 30.7577H18.7971L18.8397 29.8332H19.366" fill="#FFFF00"/>
<path d="M19.366 29.8474L19.4086 30.7577H18.7971L18.8397 29.8332H19.366M18.7686 32.0377C18.7686 31.5683 19.0957 31.4403 19.0957 31.4403C19.0957 31.4403 19.4228 31.5826 19.4228 32.0377H18.7686ZM17.9437 30.7577H20.262C20.3094 30.7671 20.3378 30.8051 20.3473 30.8714C20.3473 30.9189 20.3188 30.9473 20.262 30.9568H17.9437C17.8963 30.9568 17.8679 30.9236 17.8584 30.8572C17.8584 30.8098 17.8868 30.7814 17.9437 30.7719V30.7577ZM18.0006 30.971H20.1908C20.2383 30.971 20.2667 31.0042 20.2762 31.0706C20.2857 31.1369 20.2572 31.1701 20.1908 31.1701H17.9864C17.9295 31.1701 17.9011 31.1369 17.9011 31.0706C17.9011 31.0042 17.9295 30.971 17.9864 30.971H18.0006ZM18.7117 29.4634H18.8824V29.5772H19.0104V29.4634H19.1953V29.5914H19.3233V29.4492H19.494V29.7337C19.494 29.7906 19.4703 29.819 19.4228 29.819H18.7971C18.7497 29.819 18.7212 29.7953 18.7117 29.7479V29.4634Z" stroke="black" stroke-width="0.0711113"/>
<path d="M18.6265 30.2734V30.757H18.0576V30.2734H18.6265Z" fill="#FFFF00" stroke="black" stroke-width="0.0711113"/>
<path d="M20.1343 30.2734V30.757H19.5654V30.2734H20.1343Z" fill="#FFFF00" stroke="black" stroke-width="0.0711113"/>
<path d="M17.958 29.9043H18.1287V30.0465H18.2567V29.9043H18.4273V30.0465H18.5553V29.9043H18.726V30.1887C18.726 30.2456 18.7023 30.2741 18.6549 30.2741H18.0433C18.0237 30.267 18.0059 30.2557 17.9912 30.2409C17.9764 30.2262 17.9651 30.2084 17.958 30.1887V29.9043Z" fill="#FFFF00" stroke="black" stroke-width="0.0711113"/>
<path d="M19.4658 29.9043H19.6365V30.0465H19.7645V29.9043H19.9352V30.0465H20.0632V29.9043H20.2338V30.1887C20.2338 30.2456 20.2101 30.2741 20.1627 30.2741H19.5512C19.5315 30.267 19.5137 30.2557 19.499 30.2409C19.4842 30.2262 19.4729 30.2084 19.4658 30.1887V29.9043Z" fill="#FFFF00" stroke="black" stroke-width="0.0711113"/>
<path d="M19.0391 30.1324C19.0391 30.047 19.1671 30.047 19.1671 30.1324V30.3599H19.0391V30.1324Z" fill="#000001"/>
<path d="M18.2852 30.4449C18.2852 30.3595 18.3989 30.3595 18.3989 30.4449V30.6155H18.2852V30.4449Z" fill="#000001"/>
<path d="M19.793 30.4449C19.793 30.3595 19.9067 30.3595 19.9067 30.4449V30.6155H19.793V30.4449Z" fill="#000001"/>
<path d="M21.0788 38.9569C20.5338 38.3956 20.7934 37.8717 20.7934 37.8717C20.8035 37.8616 21.3656 37.5781 21.9207 38.1293L21.0788 38.9569Z" fill="#FFFF00"/>
<path d="M20.062 38.6298L20.6277 39.3318L21.0486 38.9079C20.5238 38.3868 20.8439 37.903 20.8439 37.903C20.8539 37.8929 21.3558 37.6096 21.8603 38.0905L22.2812 37.6667L21.5552 37.106L20.062 38.6298ZM20.6077 39.3721L22.3113 37.6565C22.3447 37.6229 22.3883 37.6261 22.4421 37.6661C22.4959 37.7196 22.5028 37.7665 22.4627 37.8068L20.7591 39.5224C20.7257 39.5561 20.6787 39.5495 20.6182 39.5028C20.5711 39.456 20.5709 39.4091 20.6177 39.362L20.6077 39.3721Z" fill="#FFFF00" stroke="black" stroke-width="0.0711113"/>
<path d="M21.2193 38.7366C20.8862 38.4059 21.0259 38.0836 21.0259 38.0836C21.0259 38.0836 21.3573 37.9517 21.6803 38.2724L21.2193 38.7366ZM19.7298 38.42L21.3633 36.7751C21.4034 36.7481 21.4504 36.7547 21.5041 36.7947C21.5378 36.8281 21.5379 36.8683 21.5046 36.9154L19.8711 38.5603C19.8377 38.594 19.7941 38.5908 19.7403 38.5507C19.7066 38.5173 19.7065 38.4771 19.7399 38.43L19.7298 38.42ZM19.9212 38.53L21.4645 36.9759C21.4979 36.9422 21.5415 36.9454 21.5953 36.9855C21.6491 37.0255 21.6526 37.0691 21.6058 37.1162L20.0525 38.6804C20.0124 38.7207 19.9688 38.7175 19.9217 38.6708C19.8746 38.624 19.8711 38.5804 19.9112 38.5401L19.9212 38.53ZM19.3526 36.9631L19.4728 36.842L19.5536 36.9222L19.6438 36.8314L19.563 36.7512L19.6933 36.62L19.7841 36.7102L19.8743 36.6194L19.7734 36.5192L19.8937 36.398L20.0955 36.5985C20.1359 36.6386 20.1394 36.6754 20.106 36.7091L19.665 37.1531C19.6316 37.1867 19.5947 37.1902 19.5544 37.1635L19.3526 36.9631ZM20.0861 36.7695L20.762 37.3806L20.3311 37.8145L19.7052 37.1328L20.076 36.7595" fill="#FFFF00"/>
<path d="M20.0861 36.7695L20.762 37.3806L20.3311 37.8145L19.7052 37.1328L20.076 36.7595M21.2193 38.7366C20.8862 38.4059 21.0259 38.0836 21.0259 38.0836C21.0259 38.0836 21.3573 37.9517 21.6803 38.2724L21.2193 38.7366ZM19.7298 38.42L21.3633 36.7751C21.4034 36.7481 21.4504 36.7547 21.5041 36.7947C21.5378 36.8281 21.5379 36.8683 21.5046 36.9154L19.8711 38.5603C19.8377 38.594 19.7941 38.5908 19.7403 38.5507C19.7066 38.5173 19.7065 38.4771 19.7399 38.43L19.7298 38.42ZM19.9212 38.53L21.4645 36.9759C21.4979 36.9422 21.5415 36.9454 21.5953 36.9855C21.6491 37.0255 21.6526 37.0691 21.6058 37.1162L20.0525 38.6804C20.0124 38.7207 19.9688 38.7175 19.9217 38.6708C19.8746 38.624 19.8711 38.5804 19.9112 38.5401L19.9212 38.53ZM19.3526 36.9631L19.4728 36.842L19.5536 36.9222L19.6438 36.8314L19.563 36.7512L19.6933 36.62L19.7841 36.7102L19.8743 36.6194L19.7734 36.5192L19.8937 36.398L20.0955 36.5985C20.1359 36.6386 20.1394 36.6754 20.106 36.7091L19.665 37.1531C19.6316 37.1867 19.5947 37.1902 19.5544 37.1635L19.3526 36.9631Z" stroke="black" stroke-width="0.0711113"/>
<path d="M19.8677 37.5944L20.2108 37.9351L19.8099 38.3388L19.4668 37.998L19.8677 37.5944Z" fill="#FFFF00" stroke="black" stroke-width="0.0711113"/>
<path d="M20.9302 36.5241L21.2733 36.8648L20.8724 37.2685L20.5293 36.9277L20.9302 36.5241Z" fill="#FFFF00" stroke="black" stroke-width="0.0711113"/>
<path d="M19.1338 37.8086L19.254 37.6875L19.355 37.7877L19.4452 37.6969L19.3442 37.5967L19.4645 37.4756L19.5654 37.5758L19.6556 37.485L19.5547 37.3847L19.6749 37.2636L19.8768 37.4641C19.9171 37.5042 19.9206 37.541 19.8872 37.5747L19.4563 38.0086C19.4374 38.0175 19.4169 38.0222 19.396 38.0222C19.3752 38.0223 19.3545 38.0178 19.3356 38.009L19.1338 37.8086Z" fill="#FFFF00" stroke="black" stroke-width="0.0711113"/>
<path d="M20.1963 36.7383L20.3165 36.6172L20.4175 36.7174L20.5077 36.6266L20.4067 36.5264L20.527 36.4053L20.6279 36.5055L20.7181 36.4146L20.6172 36.3144L20.7374 36.1933L20.9393 36.3938C20.9796 36.4338 20.9831 36.4707 20.9497 36.5043L20.5188 36.9383C20.4999 36.9472 20.4794 36.9519 20.4585 36.9519C20.4377 36.952 20.417 36.9475 20.3981 36.9387L20.1963 36.7383Z" fill="#FFFF00" stroke="black" stroke-width="0.0711113"/>
<path d="M20.0571 37.2013C19.9966 37.1412 20.0868 37.0504 20.1473 37.1105L20.3088 37.2709L20.2186 37.3617L20.0571 37.2013Z" fill="#000001"/>
<path d="M19.7485 37.9572C19.688 37.8971 19.7682 37.8163 19.8287 37.8765L19.9498 37.9967L19.8696 38.0775L19.7485 37.9572Z" fill="#000001"/>
<path d="M20.8101 36.8869C20.7495 36.8268 20.8297 36.746 20.8902 36.8062L21.0113 36.9264L20.9312 37.0072L20.8101 36.8869Z" fill="#000001"/>
<path d="M25.0117 25.5101C25.0259 24.7279 25.5806 24.543 25.5806 24.543C25.5948 24.543 26.1922 24.7421 26.1922 25.5243L25.0117 25.5101Z" fill="#FFFF00"/>
<path d="M24.5283 24.5572L24.4288 25.4532H25.0261C25.0261 24.7136 25.595 24.5999 25.595 24.5999C25.6092 24.5999 26.1639 24.7563 26.1781 25.4532H26.7755L26.6617 24.543L24.5283 24.5572ZM24.3861 25.4674H26.8039C26.8513 25.4674 26.8797 25.5006 26.8892 25.567C26.8892 25.6428 26.8608 25.6807 26.8039 25.6807H24.3861C24.3387 25.6807 24.3103 25.6428 24.3008 25.567C24.3008 25.5006 24.334 25.4674 24.4003 25.4674H24.3861Z" fill="#FFFF00" stroke="black" stroke-width="0.0711113"/>
<path d="M25.2676 25.4537C25.2676 24.9843 25.5948 24.8563 25.5948 24.8563C25.5948 24.8563 25.9219 24.9986 25.9219 25.4537H25.2676ZM24.4428 24.1737H26.761C26.8084 24.1832 26.8368 24.2211 26.8463 24.2875C26.8463 24.3349 26.8179 24.3633 26.761 24.3728H24.4428C24.3953 24.3728 24.3669 24.3396 24.3574 24.2732C24.3574 24.2258 24.3859 24.1974 24.4428 24.1879V24.1737ZM24.4996 24.387H26.6899C26.7373 24.387 26.7657 24.4202 26.7752 24.4866C26.7847 24.5529 26.7562 24.5861 26.6899 24.5861H24.4854C24.4285 24.5861 24.4001 24.5529 24.4001 24.4866C24.4001 24.4202 24.4285 24.387 24.4854 24.387H24.4996ZM25.2108 22.8795H25.3814V22.9932H25.5094V22.8795H25.6943V23.0075H25.8223V22.8652H25.993V23.1497C25.993 23.2066 25.9693 23.235 25.9219 23.235H25.2961C25.2487 23.235 25.2202 23.2113 25.2108 23.1639V22.8795ZM25.865 23.2635L25.9076 24.1737H25.2961L25.3388 23.2492H25.865" fill="#FFFF00"/>
<path d="M25.865 23.2635L25.9076 24.1737H25.2961L25.3388 23.2492H25.865M25.2676 25.4537C25.2676 24.9843 25.5948 24.8563 25.5948 24.8563C25.5948 24.8563 25.9219 24.9986 25.9219 25.4537H25.2676ZM24.4428 24.1737H26.761C26.8084 24.1832 26.8368 24.2211 26.8463 24.2875C26.8463 24.3349 26.8179 24.3633 26.761 24.3728H24.4428C24.3953 24.3728 24.3669 24.3396 24.3574 24.2732C24.3574 24.2258 24.3859 24.1974 24.4428 24.1879V24.1737ZM24.4996 24.387H26.6899C26.7373 24.387 26.7657 24.4202 26.7752 24.4866C26.7847 24.5529 26.7562 24.5861 26.6899 24.5861H24.4854C24.4285 24.5861 24.4001 24.5529 24.4001 24.4866C24.4001 24.4202 24.4285 24.387 24.4854 24.387H24.4996ZM25.2108 22.8795H25.3814V22.9932H25.5094V22.8795H25.6943V23.0075H25.8223V22.8652H25.993V23.1497C25.993 23.2066 25.9693 23.235 25.9219 23.235H25.2961C25.2487 23.235 25.2202 23.2113 25.2108 23.1639V22.8795Z" stroke="black" stroke-width="0.0711113"/>
<path d="M25.1255 23.6895V24.173H24.5566V23.6895H25.1255Z" fill="#FFFF00" stroke="black" stroke-width="0.0711113"/>
<path d="M26.6333 23.6895V24.173H26.0645V23.6895H26.6333Z" fill="#FFFF00" stroke="black" stroke-width="0.0711113"/>
<path d="M24.457 23.3203H24.6277V23.4625H24.7557V23.3203H24.9264V23.4625H25.0544V23.3203H25.225V23.6048C25.225 23.6616 25.2013 23.6901 25.1539 23.6901H24.5424C24.5228 23.683 24.5049 23.6717 24.4902 23.6569C24.4755 23.6422 24.4641 23.6244 24.457 23.6048V23.3203Z" fill="#FFFF00" stroke="black" stroke-width="0.0711113"/>
<path d="M25.9648 23.3203H26.1355V23.4625H26.2635V23.3203H26.4342V23.4625H26.5622V23.3203H26.7328V23.6048C26.7328 23.6616 26.7091 23.6901 26.6617 23.6901H26.0502C26.0306 23.683 26.0128 23.6717 25.998 23.6569C25.9833 23.6422 25.9719 23.6244 25.9648 23.6048V23.3203Z" fill="#FFFF00" stroke="black" stroke-width="0.0711113"/>
<path d="M25.5381 23.5484C25.5381 23.463 25.6661 23.463 25.6661 23.5484V23.7759H25.5381V23.5484Z" fill="#000001"/>
<path d="M24.7842 23.8609C24.7842 23.7755 24.898 23.7755 24.898 23.8609V24.0315H24.7842V23.8609Z" fill="#000001"/>
<path d="M26.292 23.8609C26.292 23.7755 26.4058 23.7755 26.4058 23.8609V24.0315H26.292V23.8609Z" fill="#000001"/>
<path d="M32.6494 25.5101C32.6352 24.7279 32.0805 24.543 32.0805 24.543C32.0663 24.543 31.469 24.7421 31.469 25.5243L32.6494 25.5101Z" fill="#FFFF00"/>
<path d="M33.1328 24.5572L33.2324 25.4532H32.635C32.635 24.7136 32.0661 24.5999 32.0661 24.5999C32.0519 24.5999 31.4972 24.7563 31.483 25.4532H30.8857L30.9995 24.543L33.1328 24.5572ZM33.275 25.4674H30.8572C30.8098 25.4674 30.7814 25.5006 30.7719 25.567C30.7719 25.6428 30.8003 25.6807 30.8572 25.6807H33.275C33.3224 25.6807 33.3509 25.6428 33.3604 25.567C33.3604 25.5006 33.3272 25.4674 33.2608 25.4674H33.275Z" fill="#FFFF00" stroke="black" stroke-width="0.0711113"/>
<path d="M32.3935 25.4537C32.3935 24.9843 32.0664 24.8563 32.0664 24.8563C32.0664 24.8563 31.7393 24.9986 31.7393 25.4537H32.3935ZM33.2184 24.1737H30.9002C30.8527 24.1832 30.8243 24.2211 30.8148 24.2875C30.8148 24.3349 30.8433 24.3633 30.9002 24.3728H33.2184C33.2658 24.3728 33.2942 24.3396 33.3037 24.2732C33.3037 24.2258 33.2753 24.1974 33.2184 24.1879V24.1737ZM33.1615 24.387H30.9713C30.9239 24.387 30.8954 24.4202 30.8859 24.4866C30.8764 24.5529 30.9049 24.5861 30.9713 24.5861H33.1757C33.2326 24.5861 33.261 24.5529 33.261 24.4866C33.261 24.4202 33.2326 24.387 33.1757 24.387H33.1615ZM32.4504 22.8795H32.2797V22.9932H32.1517V22.8795H31.9668V23.0075H31.8388V22.8652H31.6682V23.1497C31.6682 23.2066 31.6919 23.235 31.7393 23.235H32.365C32.4125 23.235 32.4409 23.2113 32.4504 23.1639V22.8795ZM31.7962 23.2635L31.7535 24.1737H32.365L32.3224 23.2492H31.7962" fill="#FFFF00"/>
<path d="M31.7962 23.2635L31.7535 24.1737H32.365L32.3224 23.2492H31.7962M32.3935 25.4537C32.3935 24.9843 32.0664 24.8563 32.0664 24.8563C32.0664 24.8563 31.7393 24.9986 31.7393 25.4537H32.3935ZM33.2184 24.1737H30.9002C30.8527 24.1832 30.8243 24.2211 30.8148 24.2875C30.8148 24.3349 30.8433 24.3633 30.9002 24.3728H33.2184C33.2658 24.3728 33.2942 24.3396 33.3037 24.2732C33.3037 24.2258 33.2753 24.1974 33.2184 24.1879V24.1737ZM33.1615 24.387H30.9713C30.9239 24.387 30.8954 24.4202 30.8859 24.4866C30.8764 24.5529 30.9049 24.5861 30.9713 24.5861H33.1757C33.2326 24.5861 33.261 24.5529 33.261 24.4866C33.261 24.4202 33.2326 24.387 33.1757 24.387H33.1615ZM32.4504 22.8795H32.2797V22.9932H32.1517V22.8795H31.9668V23.0075H31.8388V22.8652H31.6682V23.1497C31.6682 23.2066 31.6919 23.235 31.7393 23.235H32.365C32.4125 23.235 32.4409 23.2113 32.4504 23.1639V22.8795Z" stroke="black" stroke-width="0.0711113"/>
<path d="M32.5356 23.6895V24.173H33.1045V23.6895H32.5356Z" fill="#FFFF00" stroke="black" stroke-width="0.0711113"/>
<path d="M31.0278 23.6895V24.173H31.5967V23.6895H31.0278Z" fill="#FFFF00" stroke="black" stroke-width="0.0711113"/>
<path d="M33.2041 23.3203H33.0334V23.4625H32.9054V23.3203H32.7348V23.4625H32.6068V23.3203H32.4361V23.6048C32.4361 23.6616 32.4598 23.6901 32.5072 23.6901H33.1188C33.1384 23.683 33.1562 23.6717 33.1709 23.6569C33.1857 23.6422 33.197 23.6244 33.2041 23.6048V23.3203Z" fill="#FFFF00" stroke="black" stroke-width="0.0711113"/>
<path d="M31.6963 23.3203H31.5256V23.4625H31.3976V23.3203H31.227V23.4625H31.099V23.3203H30.9283V23.6048C30.9283 23.6616 30.952 23.6901 30.9994 23.6901H31.611C31.6306 23.683 31.6484 23.6717 31.6631 23.6569C31.6779 23.6422 31.6892 23.6244 31.6963 23.6048V23.3203Z" fill="#FFFF00" stroke="black" stroke-width="0.0711113"/>
<path d="M32.123 23.5484C32.123 23.463 31.995 23.463 31.995 23.5484V23.7759H32.123V23.5484Z" fill="#000001"/>
<path d="M32.877 23.8609C32.877 23.7755 32.7632 23.7755 32.7632 23.8609V24.0315H32.877V23.8609Z" fill="#000001"/>
<path d="M31.3691 23.8609C31.3691 23.7755 31.2554 23.7755 31.2554 23.8609V24.0315H31.3691V23.8609Z" fill="#000001"/>
<path d="M32.6494 32.0941C32.6352 31.3118 32.0805 31.127 32.0805 31.127C32.0663 31.127 31.469 31.3261 31.469 32.1083L32.6494 32.0941Z" fill="#FFFF00"/>
<path d="M33.1328 31.1412L33.2324 32.0372H32.635C32.635 31.2976 32.0661 31.1838 32.0661 31.1838C32.0519 31.1838 31.4972 31.3403 31.483 32.0372H30.8857L30.9995 31.127L33.1328 31.1412ZM33.275 32.0514H30.8572C30.8098 32.0514 30.7814 32.0846 30.7719 32.151C30.7719 32.2268 30.8003 32.2647 30.8572 32.2647H33.275C33.3224 32.2647 33.3509 32.2268 33.3604 32.151C33.3604 32.0846 33.3272 32.0514 33.2608 32.0514H33.275Z" fill="#FFFF00" stroke="black" stroke-width="0.0711113"/>
<path d="M32.3935 32.0377C32.3935 31.5683 32.0664 31.4403 32.0664 31.4403C32.0664 31.4403 31.7393 31.5826 31.7393 32.0377H32.3935ZM33.2184 30.7577H30.9002C30.8527 30.7671 30.8243 30.8051 30.8148 30.8714C30.8148 30.9189 30.8433 30.9473 30.9002 30.9568H33.2184C33.2658 30.9568 33.2942 30.9236 33.3037 30.8572C33.3037 30.8098 33.2753 30.7814 33.2184 30.7719V30.7577ZM33.1615 30.971H30.9713C30.9239 30.971 30.8954 31.0042 30.8859 31.0706C30.8764 31.1369 30.9049 31.1701 30.9713 31.1701H33.1757C33.2326 31.1701 33.261 31.1369 33.261 31.0706C33.261 31.0042 33.2326 30.971 33.1757 30.971H33.1615ZM32.4504 29.4634H32.2797V29.5772H32.1517V29.4634H31.9668V29.5914H31.8388V29.4492H31.6682V29.7337C31.6682 29.7906 31.6919 29.819 31.7393 29.819H32.365C32.4125 29.819 32.4409 29.7953 32.4504 29.7479V29.4634ZM31.7962 29.8474L31.7535 30.7577H32.365L32.3224 29.8332H31.7962" fill="#FFFF00"/>
<path d="M31.7962 29.8474L31.7535 30.7577H32.365L32.3224 29.8332H31.7962M32.3935 32.0377C32.3935 31.5683 32.0664 31.4403 32.0664 31.4403C32.0664 31.4403 31.7393 31.5826 31.7393 32.0377H32.3935ZM33.2184 30.7577H30.9002C30.8527 30.7671 30.8243 30.8051 30.8148 30.8714C30.8148 30.9189 30.8433 30.9473 30.9002 30.9568H33.2184C33.2658 30.9568 33.2942 30.9236 33.3037 30.8572C33.3037 30.8098 33.2753 30.7814 33.2184 30.7719V30.7577ZM33.1615 30.971H30.9713C30.9239 30.971 30.8954 31.0042 30.8859 31.0706C30.8764 31.1369 30.9049 31.1701 30.9713 31.1701H33.1757C33.2326 31.1701 33.261 31.1369 33.261 31.0706C33.261 31.0042 33.2326 30.971 33.1757 30.971H33.1615ZM32.4504 29.4634H32.2797V29.5772H32.1517V29.4634H31.9668V29.5914H31.8388V29.4492H31.6682V29.7337C31.6682 29.7906 31.6919 29.819 31.7393 29.819H32.365C32.4125 29.819 32.4409 29.7953 32.4504 29.7479V29.4634Z" stroke="black" stroke-width="0.0711113"/>
<path d="M32.5356 30.2734V30.757H33.1045V30.2734H32.5356Z" fill="#FFFF00" stroke="black" stroke-width="0.0711113"/>
<path d="M31.0278 30.2734V30.757H31.5967V30.2734H31.0278Z" fill="#FFFF00" stroke="black" stroke-width="0.0711113"/>
<path d="M33.2041 29.9043H33.0334V30.0465H32.9054V29.9043H32.7348V30.0465H32.6068V29.9043H32.4361V30.1887C32.4361 30.2456 32.4598 30.2741 32.5072 30.2741H33.1188C33.1384 30.267 33.1562 30.2557 33.1709 30.2409C33.1857 30.2262 33.197 30.2084 33.2041 30.1887V29.9043Z" fill="#FFFF00" stroke="black" stroke-width="0.0711113"/>
<path d="M31.6963 29.9043H31.5256V30.0465H31.3976V29.9043H31.227V30.0465H31.099V29.9043H30.9283V30.1887C30.9283 30.2456 30.952 30.2741 30.9994 30.2741H31.611C31.6306 30.267 31.6484 30.2557 31.6631 30.2409C31.6779 30.2262 31.6892 30.2084 31.6963 30.1887V29.9043Z" fill="#FFFF00" stroke="black" stroke-width="0.0711113"/>
<path d="M32.123 30.1324C32.123 30.047 31.995 30.047 31.995 30.1324V30.3599H32.123V30.1324Z" fill="#000001"/>
<path d="M32.877 30.4449C32.877 30.3595 32.7632 30.3595 32.7632 30.4449V30.6155H32.877V30.4449Z" fill="#000001"/>
<path d="M31.3691 30.4449C31.3691 30.3595 31.2554 30.3595 31.2554 30.4449V30.6155H31.3691V30.4449Z" fill="#000001"/>
<path d="M30.0833 38.9569C30.6283 38.3956 30.3687 37.8717 30.3687 37.8717C30.3587 37.8616 29.7965 37.5781 29.2414 38.1293L30.0833 38.9569Z" fill="#FFFF00"/>
<path d="M31.1001 38.6298L30.5344 39.3318L30.1135 38.9079C30.6383 38.3868 30.3182 37.903 30.3182 37.903C30.3082 37.8929 29.8063 37.6096 29.3018 38.0905L28.8809 37.6667L29.6069 37.106L31.1001 38.6298ZM30.5544 39.3721L28.8508 37.6565C28.8174 37.6229 28.7738 37.6261 28.72 37.6661C28.6662 37.7196 28.6593 37.7665 28.6994 37.8068L30.403 39.5224C30.4364 39.5561 30.4834 39.5495 30.5439 39.5028C30.591 39.456 30.5912 39.4091 30.5444 39.362L30.5544 39.3721Z" fill="#FFFF00" stroke="black" stroke-width="0.0711113"/>
<path d="M29.9428 38.7366C30.2759 38.4059 30.1362 38.0836 30.1362 38.0836C30.1362 38.0836 29.8048 37.9517 29.4818 38.2724L29.9428 38.7366ZM31.4323 38.42L29.7988 36.7751C29.7587 36.7481 29.7117 36.7547 29.658 36.7947C29.6243 36.8281 29.6242 36.8683 29.6575 36.9154L31.2911 38.5603C31.3245 38.594 31.368 38.5908 31.4218 38.5507C31.4555 38.5173 31.4556 38.4771 31.4222 38.43L31.4323 38.42ZM31.2409 38.53L29.6976 36.9759C29.6642 36.9422 29.6206 36.9454 29.5668 36.9855C29.513 37.0255 29.5095 37.0691 29.5563 37.1162L31.1096 38.6804C31.1497 38.7207 31.1933 38.7175 31.2404 38.6708C31.2875 38.624 31.291 38.5804 31.2509 38.5401L31.2409 38.53ZM31.8095 36.9631L31.6893 36.842L31.6085 36.9222L31.5183 36.8314L31.5991 36.7512L31.4688 36.62L31.378 36.7102L31.2878 36.6194L31.3887 36.5192L31.2684 36.398L31.0666 36.5985C31.0262 36.6386 31.0227 36.6754 31.0562 36.7091L31.4971 37.1531C31.5305 37.1867 31.5674 37.1902 31.6077 37.1635L31.8095 36.9631ZM31.0761 36.7695L30.4001 37.3806L30.831 37.8145L31.4569 37.1328L31.0861 36.7595" fill="#FFFF00"/>
<path d="M31.0761 36.7695L30.4001 37.3806L30.831 37.8145L31.4569 37.1328L31.0861 36.7595M29.9428 38.7366C30.2759 38.4059 30.1362 38.0836 30.1362 38.0836C30.1362 38.0836 29.8048 37.9517 29.4818 38.2724L29.9428 38.7366ZM31.4323 38.42L29.7988 36.7751C29.7587 36.7481 29.7117 36.7547 29.658 36.7947C29.6243 36.8281 29.6242 36.8683 29.6575 36.9154L31.2911 38.5603C31.3245 38.594 31.368 38.5908 31.4218 38.5507C31.4555 38.5173 31.4556 38.4771 31.4222 38.43L31.4323 38.42ZM31.2409 38.53L29.6976 36.9759C29.6642 36.9422 29.6206 36.9454 29.5668 36.9855C29.513 37.0255 29.5095 37.0691 29.5563 37.1162L31.1096 38.6804C31.1497 38.7207 31.1933 38.7175 31.2404 38.6708C31.2875 38.624 31.291 38.5804 31.2509 38.5401L31.2409 38.53ZM31.8095 36.9631L31.6893 36.842L31.6085 36.9222L31.5183 36.8314L31.5991 36.7512L31.4688 36.62L31.378 36.7102L31.2878 36.6194L31.3887 36.5192L31.2684 36.398L31.0666 36.5985C31.0262 36.6386 31.0227 36.6754 31.0562 36.7091L31.4971 37.1531C31.5305 37.1867 31.5674 37.1902 31.6077 37.1635L31.8095 36.9631Z" stroke="black" stroke-width="0.0711113"/>
<path d="M31.2945 37.5944L30.9513 37.9351L31.3522 38.3388L31.6953 37.998L31.2945 37.5944Z" fill="#FFFF00" stroke="black" stroke-width="0.0711113"/>
<path d="M30.232 36.5241L29.8888 36.8648L30.2897 37.2685L30.6328 36.9277L30.232 36.5241Z" fill="#FFFF00" stroke="black" stroke-width="0.0711113"/>
<path d="M32.0283 37.8086L31.9081 37.6875L31.8071 37.7877L31.717 37.6969L31.8179 37.5967L31.6976 37.4756L31.5967 37.5758L31.5065 37.485L31.6074 37.3847L31.4872 37.2636L31.2853 37.4641C31.245 37.5042 31.2415 37.541 31.2749 37.5747L31.7058 38.0086C31.7247 38.0175 31.7452 38.0222 31.7661 38.0222C31.787 38.0223 31.8076 38.0178 31.8265 38.009L32.0283 37.8086Z" fill="#FFFF00" stroke="black" stroke-width="0.0711113"/>
<path d="M30.9658 36.7383L30.8456 36.6172L30.7446 36.7174L30.6545 36.6266L30.7554 36.5264L30.6351 36.4053L30.5342 36.5055L30.444 36.4146L30.5449 36.3144L30.4247 36.1933L30.2228 36.3938C30.1825 36.4338 30.179 36.4707 30.2124 36.5043L30.6433 36.9383C30.6622 36.9472 30.6827 36.9519 30.7036 36.9519C30.7245 36.952 30.7451 36.9475 30.764 36.9387L30.9658 36.7383Z" fill="#FFFF00" stroke="black" stroke-width="0.0711113"/>
<path d="M31.105 37.2013C31.1655 37.1412 31.0753 37.0504 31.0148 37.1105L30.8533 37.2709L30.9435 37.3617L31.105 37.2013Z" fill="#000001"/>
<path d="M31.4136 37.9572C31.4741 37.8971 31.394 37.8163 31.3334 37.8765L31.2123 37.9967L31.2925 38.0775L31.4136 37.9572Z" fill="#000001"/>
<path d="M30.352 36.8869C30.4126 36.8268 30.3324 36.746 30.2719 36.8062L30.1508 36.9264L30.2309 37.0072L30.352 36.8869Z" fill="#000001"/>
<path d="M24.5433 32.3368C24.5362 32.6378 24.6487 32.9293 24.8562 33.1475C24.95 33.2551 25.0659 33.3412 25.1959 33.4001C25.326 33.459 25.4672 33.4893 25.61 33.4888C25.9134 33.4698 26.1646 33.356 26.3637 33.1475C26.5712 32.9293 26.6837 32.6378 26.6766 32.3368V30.8008H24.5433V32.3368Z" fill="#003399"/>
<path d="M25.0415 31.5966C25.1593 31.5966 25.2548 31.5011 25.2548 31.3833C25.2548 31.2654 25.1593 31.1699 25.0415 31.1699C24.9236 31.1699 24.8281 31.2654 24.8281 31.3833C24.8281 31.5011 24.9236 31.5966 25.0415 31.5966Z" fill="white"/>
<path d="M26.2211 31.5966C26.339 31.5966 26.4345 31.5011 26.4345 31.3833C26.4345 31.2654 26.339 31.1699 26.2211 31.1699C26.1033 31.1699 26.0078 31.2654 26.0078 31.3833C26.0078 31.5011 26.1033 31.5966 26.2211 31.5966Z" fill="white"/>
<path d="M25.6245 32.1669C25.7423 32.1669 25.8378 32.0714 25.8378 31.9536C25.8378 31.8357 25.7423 31.7402 25.6245 31.7402C25.5066 31.7402 25.4111 31.8357 25.4111 31.9536C25.4111 32.0714 25.5066 32.1669 25.6245 32.1669Z" fill="white"/>
<path d="M25.0415 32.7626C25.1593 32.7626 25.2548 32.6671 25.2548 32.5493C25.2548 32.4315 25.1593 32.3359 25.0415 32.3359C24.9236 32.3359 24.8281 32.4315 24.8281 32.5493C24.8281 32.6671 24.9236 32.7626 25.0415 32.7626Z" fill="white"/>
<path d="M26.2211 32.7626C26.339 32.7626 26.4345 32.6671 26.4345 32.5493C26.4345 32.4315 26.339 32.3359 26.2211 32.3359C26.1033 32.3359 26.0078 32.4315 26.0078 32.5493C26.0078 32.6671 26.1033 32.7626 26.2211 32.7626Z" fill="white"/>
<path d="M24.5433 28.6395C24.5362 28.9405 24.6487 29.232 24.8562 29.4502C24.95 29.5578 25.0659 29.644 25.1959 29.7029C25.326 29.7618 25.4672 29.792 25.61 29.7915C25.9134 29.7726 26.1646 29.6588 26.3637 29.4502C26.5712 29.232 26.6837 28.9405 26.6766 28.6395V27.1035H24.5433V28.6395Z" fill="#003399"/>
<path d="M25.0415 27.8993C25.1593 27.8993 25.2548 27.8038 25.2548 27.686C25.2548 27.5682 25.1593 27.4727 25.0415 27.4727C24.9236 27.4727 24.8281 27.5682 24.8281 27.686C24.8281 27.8038 24.9236 27.8993 25.0415 27.8993Z" fill="white"/>
<path d="M26.2211 27.8993C26.339 27.8993 26.4345 27.8038 26.4345 27.686C26.4345 27.5682 26.339 27.4727 26.2211 27.4727C26.1033 27.4727 26.0078 27.5682 26.0078 27.686C26.0078 27.8038 26.1033 27.8993 26.2211 27.8993Z" fill="white"/>
<path d="M25.6245 28.4696C25.7423 28.4696 25.8378 28.3741 25.8378 28.2563C25.8378 28.1385 25.7423 28.043 25.6245 28.043C25.5066 28.043 25.4111 28.1385 25.4111 28.2563C25.4111 28.3741 25.5066 28.4696 25.6245 28.4696Z" fill="white"/>
<path d="M25.0415 29.0653C25.1593 29.0653 25.2548 28.9698 25.2548 28.852C25.2548 28.7342 25.1593 28.6387 25.0415 28.6387C24.9236 28.6387 24.8281 28.7342 24.8281 28.852C24.8281 28.9698 24.9236 29.0653 25.0415 29.0653Z" fill="white"/>
<path d="M26.2211 29.0653C26.339 29.0653 26.4345 28.9698 26.4345 28.852C26.4345 28.7342 26.339 28.6387 26.2211 28.6387C26.1033 28.6387 26.0078 28.7342 26.0078 28.852C26.0078 28.9698 26.1033 29.0653 26.2211 29.0653Z" fill="white"/>
<path d="M21.5853 32.3368C21.5782 32.6378 21.6907 32.9293 21.8982 33.1475C21.992 33.2551 22.1079 33.3412 22.2379 33.4001C22.368 33.459 22.5092 33.4893 22.6519 33.4888C22.9554 33.4698 23.2066 33.356 23.4057 33.1475C23.6132 32.9293 23.7257 32.6378 23.7186 32.3368V30.8008H21.5853V32.3368Z" fill="#003399"/>
<path d="M22.0835 31.5966C22.2013 31.5966 22.2968 31.5011 22.2968 31.3833C22.2968 31.2654 22.2013 31.1699 22.0835 31.1699C21.9656 31.1699 21.8701 31.2654 21.8701 31.3833C21.8701 31.5011 21.9656 31.5966 22.0835 31.5966Z" fill="white"/>
<path d="M23.2631 31.5966C23.381 31.5966 23.4765 31.5011 23.4765 31.3833C23.4765 31.2654 23.381 31.1699 23.2631 31.1699C23.1453 31.1699 23.0498 31.2654 23.0498 31.3833C23.0498 31.5011 23.1453 31.5966 23.2631 31.5966Z" fill="white"/>
<path d="M22.6665 32.1669C22.7843 32.1669 22.8798 32.0714 22.8798 31.9536C22.8798 31.8357 22.7843 31.7402 22.6665 31.7402C22.5486 31.7402 22.4531 31.8357 22.4531 31.9536C22.4531 32.0714 22.5486 32.1669 22.6665 32.1669Z" fill="white"/>
<path d="M22.0835 32.7626C22.2013 32.7626 22.2968 32.6671 22.2968 32.5493C22.2968 32.4315 22.2013 32.3359 22.0835 32.3359C21.9656 32.3359 21.8701 32.4315 21.8701 32.5493C21.8701 32.6671 21.9656 32.7626 22.0835 32.7626Z" fill="white"/>
<path d="M23.2631 32.7626C23.381 32.7626 23.4765 32.6671 23.4765 32.5493C23.4765 32.4315 23.381 32.3359 23.2631 32.3359C23.1453 32.3359 23.0498 32.4315 23.0498 32.5493C23.0498 32.6671 23.1453 32.7626 23.2631 32.7626Z" fill="white"/>
<path d="M27.5013 32.3368C27.4942 32.6378 27.6067 32.9293 27.8142 33.1475C27.908 33.2551 28.0239 33.3412 28.1539 33.4001C28.284 33.459 28.4252 33.4893 28.568 33.4888C28.8714 33.4698 29.1226 33.356 29.3217 33.1475C29.5292 32.9293 29.6417 32.6378 29.6346 32.3368V30.8008H27.5013V32.3368Z" fill="#003399"/>
<path d="M27.9995 31.5966C28.1173 31.5966 28.2128 31.5011 28.2128 31.3833C28.2128 31.2654 28.1173 31.1699 27.9995 31.1699C27.8816 31.1699 27.7861 31.2654 27.7861 31.3833C27.7861 31.5011 27.8816 31.5966 27.9995 31.5966Z" fill="white"/>
<path d="M29.1792 31.5966C29.297 31.5966 29.3925 31.5011 29.3925 31.3833C29.3925 31.2654 29.297 31.1699 29.1792 31.1699C29.0613 31.1699 28.9658 31.2654 28.9658 31.3833C28.9658 31.5011 29.0613 31.5966 29.1792 31.5966Z" fill="white"/>
<path d="M28.5825 32.1669C28.7003 32.1669 28.7958 32.0714 28.7958 31.9536C28.7958 31.8357 28.7003 31.7402 28.5825 31.7402C28.4647 31.7402 28.3691 31.8357 28.3691 31.9536C28.3691 32.0714 28.4647 32.1669 28.5825 32.1669Z" fill="white"/>
<path d="M27.9995 32.7626C28.1173 32.7626 28.2128 32.6671 28.2128 32.5493C28.2128 32.4315 28.1173 32.3359 27.9995 32.3359C27.8816 32.3359 27.7861 32.4315 27.7861 32.5493C27.7861 32.6671 27.8816 32.7626 27.9995 32.7626Z" fill="white"/>
<path d="M29.1792 32.7626C29.297 32.7626 29.3925 32.6671 29.3925 32.5493C29.3925 32.4315 29.297 32.3359 29.1792 32.3359C29.0613 32.3359 28.9658 32.4315 28.9658 32.5493C28.9658 32.6671 29.0613 32.7626 29.1792 32.7626Z" fill="white"/>
<path d="M24.5433 36.0048C24.5362 36.3057 24.6487 36.5972 24.8562 36.8154C24.95 36.923 25.0659 37.0092 25.1959 37.0681C25.326 37.127 25.4672 37.1572 25.61 37.1568C25.9134 37.1378 26.1646 37.024 26.3637 36.8154C26.5712 36.5972 26.6837 36.3057 26.6766 36.0048V34.4688H24.5433V36.0048Z" fill="#003399"/>
<path d="M25.0415 35.2646C25.1593 35.2646 25.2548 35.169 25.2548 35.0512C25.2548 34.9334 25.1593 34.8379 25.0415 34.8379C24.9236 34.8379 24.8281 34.9334 24.8281 35.0512C24.8281 35.169 24.9236 35.2646 25.0415 35.2646Z" fill="white"/>
<path d="M26.2211 35.2646C26.339 35.2646 26.4345 35.169 26.4345 35.0512C26.4345 34.9334 26.339 34.8379 26.2211 34.8379C26.1033 34.8379 26.0078 34.9334 26.0078 35.0512C26.0078 35.169 26.1033 35.2646 26.2211 35.2646Z" fill="white"/>
<path d="M25.6245 35.8349C25.7423 35.8349 25.8378 35.7394 25.8378 35.6215C25.8378 35.5037 25.7423 35.4082 25.6245 35.4082C25.5066 35.4082 25.4111 35.5037 25.4111 35.6215C25.4111 35.7394 25.5066 35.8349 25.6245 35.8349Z" fill="white"/>
<path d="M25.0415 36.4306C25.1593 36.4306 25.2548 36.3351 25.2548 36.2172C25.2548 36.0994 25.1593 36.0039 25.0415 36.0039C24.9236 36.0039 24.8281 36.0994 24.8281 36.2172C24.8281 36.3351 24.9236 36.4306 25.0415 36.4306Z" fill="white"/>
<path d="M26.2211 36.4306C26.339 36.4306 26.4345 36.3351 26.4345 36.2172C26.4345 36.0994 26.339 36.0039 26.2211 36.0039C26.1033 36.0039 26.0078 36.0994 26.0078 36.2172C26.0078 36.3351 26.1033 36.4306 26.2211 36.4306Z" fill="white"/>
<g clip-path="url(#clip1_647_4042)">
<path d="M0 0H64V64H0V0Z" fill="#006B3F"/>
<path d="M0 0H64V42.6625H0V0Z" fill="#FCD116"/>
<path d="M0 0H64V21.3375H0V0Z" fill="#CE1126"/>
<path d="M31.9996 21.3379L38.9371 42.6629L20.7871 29.5004H43.2121L25.0746 42.6629L31.9996 21.3379Z" fill="#000001"/>
</g>
<g clip-path="url(#clip2_647_4042)">
<path fill-rule="evenodd" clip-rule="evenodd" d="M0 0H64V64H0V0Z" fill="white"/>
<path fill-rule="evenodd" clip-rule="evenodd" d="M2.74707 20.9434L10.5496 9.244L12.4995 10.5444L4.69696 22.2438L2.74707 20.9434ZM5.67191 22.894L13.4744 11.1946L15.4243 12.495L7.6218 24.1944L5.67191 22.894ZM8.59675 24.8446L16.3992 13.1453L18.3491 14.4457L10.5466 26.145L8.59675 24.8446Z" fill="#000001"/>
<path fill-rule="evenodd" clip-rule="evenodd" d="M45.6445 49.5527L53.447 37.8534L55.3969 39.1538L47.5944 50.8532L45.6445 49.5527ZM48.5694 51.5034L56.3719 39.804L58.3218 41.1044L50.5193 52.8038L48.5694 51.5034ZM51.4942 53.454L59.2967 41.7546L61.2466 43.055L53.4441 54.7544L51.4942 53.454Z" fill="#000001"/>
<path fill-rule="evenodd" clip-rule="evenodd" d="M48.5713 43.0527L58.3208 49.5548L48.5713 43.0527Z" fill="black"/>
<path d="M48.5713 43.0527L58.3208 49.5548" stroke="white" stroke-width="1.17188"/>
<path fill-rule="evenodd" clip-rule="evenodd" d="M20.2979 24.1973C22.3672 21.0944 25.5844 18.9407 29.2417 18.2099C32.899 17.4791 36.6968 18.2311 39.7997 20.3004C42.9026 22.3698 45.0563 25.587 45.7871 29.2443C46.5179 32.9016 45.7659 36.6994 43.6966 39.8023L20.2979 24.1973Z" fill="#CD2E3A"/>
<path fill-rule="evenodd" clip-rule="evenodd" d="M20.2976 24.1971C18.2283 27.3 17.4763 31.0978 18.2071 34.7551C18.9379 38.4124 21.0916 41.6296 24.1945 43.699C27.2973 45.7683 31.0952 46.5203 34.7525 45.7895C38.4098 45.0587 41.627 42.905 43.6963 39.8021C44.731 38.2507 45.107 36.3518 44.7416 34.5231C44.3762 32.6945 43.2993 31.0859 41.7479 30.0512C40.1965 29.0165 38.2976 28.6405 36.4689 29.0059C34.6403 29.3713 33.0316 30.4482 31.997 31.9996L20.2976 24.1971Z" fill="#0047A0"/>
<path d="M31.9971 31.9997C34.1517 28.769 33.2793 24.4034 30.0487 22.2488C26.818 20.0942 22.4523 20.9665 20.2977 24.1972C18.1431 27.4279 19.0155 31.7935 22.2462 33.9481C25.4768 36.1027 29.8425 35.2304 31.9971 31.9997Z" fill="#CD2E3A"/>
<path fill-rule="evenodd" clip-rule="evenodd" d="M10.5557 54.7539L2.75316 43.0546L4.70306 41.7541L12.5056 53.4535L10.5557 54.7539ZM13.4805 52.8033L5.678 41.1039L7.6279 39.8035L15.4304 51.5029L13.4805 52.8033ZM16.4053 50.8527L8.60284 39.1533L10.5527 37.8529L18.3552 49.5522L16.4053 50.8527Z" fill="#000001"/>
<path fill-rule="evenodd" clip-rule="evenodd" d="M53.4531 26.1445L45.6506 14.4452L47.6005 13.1448L55.403 24.8441L53.4531 26.1445ZM56.378 24.1939L48.5755 12.4946L50.5254 11.1941L58.3279 22.8935L56.378 24.1939ZM59.3028 22.2433L51.5003 10.5439L53.4502 9.24351L61.2527 20.9429L59.3028 22.2433Z" fill="#000001"/>
<path fill-rule="evenodd" clip-rule="evenodd" d="M9.0918 47.2793L12.0166 45.3287L9.0918 47.2793ZM48.5771 20.9459L51.9894 18.6701L48.5771 20.9459ZM54.9143 16.7195L57.8391 14.7689L54.9143 16.7195Z" fill="black"/>
<path d="M9.0918 47.2793L12.0166 45.3287M48.5771 20.9459L51.9894 18.6701M54.9143 16.7195L57.8391 14.7689" stroke="white" stroke-width="1.17188"/>
</g>
<g clip-path="url(#clip3_647_4042)">
<path d="M0 0H64V64H0V0Z" fill="white"/>
<path d="M0 0H64V19.2H0V0Z" fill="#000001"/>
<path d="M0 44.8008H64V64.0008H0V44.8008Z" fill="#006600"/>
<path d="M20.5352 50.9996L21.2552 51.3996L39.9352 18.9996C41.0152 18.7596 41.6152 17.7196 42.2152 16.6796C42.6152 15.9596 44.2152 13.1996 44.8952 9.59961C42.9975 11.286 41.3894 13.2724 40.1352 15.4796C39.5352 16.5196 38.9352 17.5596 39.2152 18.6396L20.5352 50.9996Z" fill="black" stroke="black" stroke-width="0.4"/>
<path d="M20.5352 50.9996L21.2552 51.3996L39.9352 18.9996C41.0152 18.7596 41.6152 17.7196 42.2152 16.6796C42.6152 15.9596 44.2152 13.1996 44.8952 9.59961C42.9975 11.286 41.3894 13.2724 40.1352 15.4796C39.5352 16.5196 38.9352 17.5596 39.2152 18.6396L20.5352 50.9996Z" fill="white"/>
<path d="M43.4277 50.9996L42.7077 51.3996L24.0277 18.9996C22.9477 18.7596 22.3477 17.7196 21.7477 16.6796C21.3477 15.9596 19.7477 13.1996 19.0677 9.59961C20.9654 11.286 22.5735 13.2724 23.8277 15.4796C24.4277 16.5196 25.0277 17.5596 24.7477 18.6396L43.4277 50.9996Z" fill="black" stroke="black" stroke-width="0.4"/>
<path d="M43.4277 50.9996L42.7077 51.3996L24.0277 18.9996C22.9477 18.7596 22.3477 17.7196 21.7477 16.6796C21.3477 15.9596 19.7477 13.1996 19.0677 9.59961C20.9654 11.286 22.5735 13.2724 23.8277 15.4796C24.4277 16.5196 25.0277 17.5596 24.7477 18.6396L43.4277 50.9996Z" fill="white"/>
<path d="M31.975 12.8008C29.575 12.8008 25.575 19.2008 24.375 22.4008H0V41.6008H24.375C25.5875 44.8008 29.5875 51.2008 31.9875 51.2008C34.3875 51.2008 38.3875 44.8008 39.5875 41.6008H64V22.4008H39.575C38.375 19.2008 34.375 12.8008 31.975 12.8008Z" fill="#BB0000"/>
<path d="M39.5752 41.6004C40.8116 38.5461 41.4891 35.2944 41.5752 32.0004C41.4891 28.7064 40.8116 25.4547 39.5752 22.4004C38.3388 25.4547 37.6613 28.7064 37.5752 32.0004C37.6613 35.2944 38.3388 38.5461 39.5752 41.6004Z" fill="black"/>
<path d="M24.3877 41.6004C23.1513 38.5461 22.4738 35.2944 22.3877 32.0004C22.4738 28.7064 23.1513 25.4547 24.3877 22.4004C25.6241 25.4547 26.3016 28.7064 26.3877 32.0004C26.3016 35.2944 25.6241 38.5461 24.3877 41.6004Z" fill="black"/>
<path d="M31.974 34.3996C32.8577 34.3996 33.574 33.3251 33.574 31.9996C33.574 30.6741 32.8577 29.5996 31.974 29.5996C31.0904 29.5996 30.374 30.6741 30.374 31.9996C30.374 33.3251 31.0904 34.3996 31.974 34.3996Z" fill="white"/>
<path d="M32.374 34.3203C32.374 34.3203 33.974 37.5203 33.974 42.7203C33.974 47.9203 32.374 51.1203 32.374 51.1203V34.3203Z" fill="white"/>
<path d="M31.5742 29.6797C31.5742 29.6797 29.9742 26.4797 29.9742 21.2797C29.9742 16.0797 31.5742 12.8797 31.5742 12.8797V29.6797Z" fill="white"/>
<path d="M31.5742 34.3203C31.5742 34.3203 29.9742 37.5203 29.9742 42.7203C29.9742 47.9203 31.5742 51.1203 31.5742 51.1203V34.3203Z" fill="white"/>
<path d="M32.374 29.6797C32.374 29.6797 33.974 26.4797 33.974 21.2797C33.974 16.0797 32.374 12.8797 32.374 12.8797V29.6797Z" fill="white"/>
</g>
<g clip-path="url(#clip4_647_4042)">
<path fill-rule="evenodd" clip-rule="evenodd" d="M0 0H64V64H0V0Z" fill="#E30A17"/>
<path fill-rule="evenodd" clip-rule="evenodd" d="M43.6002 32.9992C43.6002 41.8242 36.3127 48.9867 27.3377 48.9867C18.3627 48.9867 11.0752 41.8242 11.0752 32.9867C11.0752 24.1492 18.3502 17.0117 27.3252 17.0117C36.3002 17.0117 43.6127 24.1617 43.6127 32.9992H43.6002Z" fill="white"/>
<path fill-rule="evenodd" clip-rule="evenodd" d="M44.4129 33.0004C44.4129 40.0629 38.5879 45.7879 31.4004 45.7879C24.2129 45.7879 18.4004 40.0629 18.4004 33.0004C18.4004 25.9379 24.2129 20.2129 31.4004 20.2129C38.5879 20.2129 44.4004 25.9379 44.4004 33.0004H44.4129Z" fill="#E30A17"/>
<path fill-rule="evenodd" clip-rule="evenodd" d="M46.7623 25.5254L46.6373 31.4379L41.1123 32.9379L46.5498 34.8754L46.4248 40.2879L49.9623 36.0629L55.3248 37.9129L52.2248 33.3754L55.9998 28.8629L50.1998 30.4629L46.7623 25.5254Z" fill="white"/>
</g>
<g clip-path="url(#clip5_647_4042)">
<path d="M0 0H64V21.3375H0V0Z" fill="#FF9933"/>
<path d="M0 21.3379H64V42.6629H0V21.3379Z" fill="white"/>
<path d="M0 42.6621H64V63.9996H0V42.6621Z" fill="#128807"/>
<path d="M32.0001 40.5334C36.7129 40.5334 40.5334 36.7129 40.5334 32.0001C40.5334 27.2873 36.7129 23.4668 32.0001 23.4668C27.2873 23.4668 23.4668 27.2873 23.4668 32.0001C23.4668 36.7129 27.2873 40.5334 32.0001 40.5334Z" fill="#000088"/>
<path d="M31.9999 39.4665C36.1236 39.4665 39.4665 36.1236 39.4665 31.9999C39.4665 27.8761 36.1236 24.5332 31.9999 24.5332C27.8761 24.5332 24.5332 27.8761 24.5332 31.9999C24.5332 36.1236 27.8761 39.4665 31.9999 39.4665Z" fill="white"/>
<path d="M32.0002 33.4945C32.8249 33.4945 33.4935 32.8259 33.4935 32.0011C33.4935 31.1764 32.8249 30.5078 32.0002 30.5078C31.1754 30.5078 30.5068 31.1764 30.5068 32.0011C30.5068 32.8259 31.1754 33.4945 32.0002 33.4945Z" fill="#000088"/>
<path d="M39.3527 33.3584C39.563 33.3861 39.7559 33.2381 39.7836 33.0278C39.8113 32.8176 39.6632 32.6247 39.453 32.597C39.2427 32.5693 39.0498 32.7173 39.0221 32.9276C38.9945 33.1379 39.1425 33.3307 39.3527 33.3584Z" fill="#000088"/>
<path d="M32.0001 39.4668L32.2561 34.9868L32.0001 32.8535L31.7441 34.9868L32.0001 39.4668Z" fill="#000088"/>
<path d="M38.7503 35.2159C38.9463 35.297 39.1709 35.204 39.252 35.008C39.3332 34.8121 39.2402 34.5875 39.0442 34.5063C38.8483 34.4252 38.6237 34.5182 38.5425 34.7141C38.4613 34.9101 38.5544 35.1347 38.7503 35.2159Z" fill="#000088"/>
<path d="M30.0678 39.214L31.4746 34.9529L31.7795 32.826L30.9801 34.8204L30.0678 39.214Z" fill="#000088"/>
<path d="M37.6887 36.8528C37.8569 36.9819 38.098 36.9502 38.2271 36.7819C38.3562 36.6137 38.3245 36.3726 38.1562 36.2435C37.988 36.1144 37.7469 36.1462 37.6178 36.3144C37.4887 36.4827 37.5204 36.7237 37.6887 36.8528Z" fill="#000088"/>
<path d="M28.2666 38.4666L30.7283 34.7148L31.5733 32.7393L30.2849 34.4588L28.2666 38.4666Z" fill="#000088"/>
<path d="M36.2387 38.1608C36.3678 38.3291 36.6089 38.3608 36.7771 38.2317C36.9454 38.1026 36.9771 37.8616 36.848 37.6933C36.7189 37.5251 36.4779 37.4933 36.3096 37.6224C36.1414 37.7515 36.1096 37.9926 36.2387 38.1608Z" fill="#000088"/>
<path d="M26.7205 37.2812L30.0694 34.2944L31.3968 32.6048L29.7073 33.9323L26.7205 37.2812Z" fill="#000088"/>
<path d="M34.4999 39.0491C34.5811 39.245 34.8057 39.338 35.0016 39.2569C35.1976 39.1757 35.2906 38.9511 35.2095 38.7552C35.1283 38.5592 34.9037 38.4662 34.7077 38.5473C34.5118 38.6285 34.4188 38.8531 34.4999 39.0491Z" fill="#000088"/>
<path d="M25.5335 35.7354L29.5413 33.7171L31.2608 32.4287L29.2853 33.2737L25.5335 35.7354Z" fill="#000088"/>
<path d="M32.5914 39.4556C32.6191 39.6658 32.812 39.8138 33.0223 39.7862C33.2325 39.7585 33.3805 39.5656 33.3529 39.3553C33.3252 39.1451 33.1323 38.997 32.922 39.0247C32.7118 39.0524 32.5637 39.2453 32.5914 39.4556Z" fill="#000088"/>
<path d="M24.7876 33.9335L29.1813 33.0213L31.1756 32.2219L29.0487 32.5268L24.7876 33.9335Z" fill="#000088"/>
<path d="M30.6416 39.3527C30.6139 39.563 30.7619 39.7559 30.9722 39.7836C31.1824 39.8113 31.3753 39.6632 31.403 39.453C31.4307 39.2427 31.2827 39.0498 31.0724 39.0221C30.8621 38.9945 30.6693 39.1425 30.6416 39.3527Z" fill="#000088"/>
<path d="M24.5332 32.0001L29.0132 32.2561L31.1465 32.0001L29.0132 31.7441L24.5332 32.0001Z" fill="#000088"/>
<path d="M28.7851 38.7503C28.704 38.9463 28.797 39.1709 28.9929 39.252C29.1889 39.3332 29.4135 39.2402 29.4947 39.0442C29.5758 38.8483 29.4828 38.6237 29.2868 38.5425C29.0909 38.4613 28.8663 38.5544 28.7851 38.7503Z" fill="#000088"/>
<path d="M24.787 30.0688L29.0481 31.4756L31.175 31.7805L29.1806 30.9811L24.787 30.0688Z" fill="#000088"/>
<path d="M27.1472 37.6867C27.0181 37.855 27.0498 38.096 27.2181 38.2251C27.3863 38.3542 27.6274 38.3225 27.7565 38.1543C27.8856 37.986 27.8538 37.7449 27.6856 37.6158C27.5173 37.4867 27.2763 37.5185 27.1472 37.6867Z" fill="#000088"/>
<path d="M25.5334 28.2646L29.2852 30.7263L31.2607 31.5713L29.5412 30.2829L25.5334 28.2646Z" fill="#000088"/>
<path d="M25.8401 36.2378C25.6719 36.3669 25.6401 36.6079 25.7692 36.7762C25.8984 36.9444 26.1394 36.9761 26.3077 36.847C26.4759 36.7179 26.5076 36.4769 26.3785 36.3086C26.2494 36.1404 26.0084 36.1086 25.8401 36.2378Z" fill="#000088"/>
<path d="M26.7198 26.7195L29.7066 30.0684L31.3961 31.3959L30.0687 29.7064L26.7198 26.7195Z" fill="#000088"/>
<path d="M24.9519 34.4999C24.756 34.5811 24.6629 34.8057 24.7441 35.0016C24.8253 35.1976 25.0499 35.2906 25.2458 35.2095C25.4418 35.1283 25.5348 34.9037 25.4536 34.7077C25.3725 34.5118 25.1478 34.4188 24.9519 34.4999Z" fill="#000088"/>
<path d="M28.2656 25.5335L30.2839 29.5413L31.5722 31.2608L30.7273 29.2853L28.2656 25.5335Z" fill="#000088"/>
<path d="M24.5454 32.5914C24.3351 32.6191 24.1871 32.812 24.2148 33.0223C24.2425 33.2325 24.4354 33.3805 24.6457 33.3529C24.8559 33.3252 25.0039 33.1323 24.9762 32.922C24.9486 32.7118 24.7557 32.5637 24.5454 32.5914Z" fill="#000088"/>
<path d="M30.0665 24.7876L30.9787 29.1813L31.7781 31.1756L31.4732 29.0487L30.0665 24.7876Z" fill="#000088"/>
<path d="M24.6473 30.6416C24.437 30.6139 24.2441 30.7619 24.2164 30.9722C24.1887 31.1824 24.3368 31.3753 24.547 31.403C24.7573 31.4307 24.9502 31.2827 24.9779 31.0724C25.0055 30.8621 24.8575 30.6693 24.6473 30.6416Z" fill="#000088"/>
<path d="M31.9999 24.5332L31.7439 29.0132L31.9999 31.1465L32.2559 29.0132L31.9999 24.5332Z" fill="#000088"/>
<path d="M25.2497 28.7841C25.0537 28.703 24.8291 28.796 24.748 28.992C24.6668 29.1879 24.7598 29.4125 24.9558 29.4937C25.1517 29.5748 25.3763 29.4818 25.4575 29.2859C25.5387 29.0899 25.4456 28.8653 25.2497 28.7841Z" fill="#000088"/>
<path d="M33.9322 24.786L32.5254 29.0471L32.2205 31.174L33.0199 29.1796L33.9322 24.786Z" fill="#000088"/>
<path d="M26.3113 27.1472C26.1431 27.0181 25.902 27.0498 25.7729 27.2181C25.6438 27.3863 25.6755 27.6274 25.8438 27.7565C26.012 27.8856 26.2531 27.8538 26.3822 27.6856C26.5113 27.5173 26.4796 27.2763 26.3113 27.1472Z" fill="#000088"/>
<path d="M35.7334 25.5334L33.2717 29.2852L32.4267 31.2607L33.7151 29.5412L35.7334 25.5334Z" fill="#000088"/>
<path d="M27.7613 25.8392C27.6322 25.6709 27.3911 25.6392 27.2229 25.7683C27.0546 25.8974 27.0229 26.1384 27.152 26.3067C27.2811 26.4749 27.5221 26.5067 27.6904 26.3776C27.8586 26.2485 27.8904 26.0074 27.7613 25.8392Z" fill="#000088"/>
<path d="M37.2795 26.7188L33.9306 29.7056L32.6032 31.3952L34.2927 30.0677L37.2795 26.7188Z" fill="#000088"/>
<path d="M29.5001 24.9529C29.4189 24.757 29.1943 24.6639 28.9984 24.7451C28.8024 24.8262 28.7094 25.0509 28.7905 25.2468C28.8717 25.4427 29.0963 25.5358 29.2923 25.4546C29.4882 25.3735 29.5812 25.1488 29.5001 24.9529Z" fill="#000088"/>
<path d="M38.4665 28.2666L34.4587 30.2849L32.7392 31.5732L34.7147 30.7283L38.4665 28.2666Z" fill="#000088"/>
<path d="M31.4086 24.5464C31.3809 24.3361 31.188 24.1881 30.9777 24.2158C30.7675 24.2435 30.6195 24.4364 30.6471 24.6466C30.6748 24.8569 30.8677 25.0049 31.078 24.9772C31.2882 24.9495 31.4363 24.7566 31.4086 24.5464Z" fill="#000088"/>
<path d="M39.2124 30.0684L34.8187 30.9806L32.8244 31.7801L34.9513 31.4752L39.2124 30.0684Z" fill="#000088"/>
<path d="M33.3584 24.6492C33.3861 24.439 33.2381 24.2461 33.0278 24.2184C32.8176 24.1907 32.6247 24.3387 32.597 24.549C32.5693 24.7592 32.7173 24.9521 32.9276 24.9798C33.1379 25.0075 33.3307 24.8595 33.3584 24.6492Z" fill="#000088"/>
<path d="M39.4668 32.0018L34.9868 31.7458L32.8535 32.0018L34.9868 32.2578L39.4668 32.0018Z" fill="#000088"/>
<path d="M35.2149 25.2516C35.296 25.0557 35.203 24.8311 35.0071 24.7499C34.8111 24.6688 34.5865 24.7618 34.5053 24.9577C34.4242 25.1537 34.5172 25.3783 34.7132 25.4595C34.9091 25.5406 35.1337 25.4476 35.2149 25.2516Z" fill="#000088"/>
<path d="M39.213 33.9331L34.9519 32.5263L32.825 32.2215L34.8194 33.0209L39.213 33.9331Z" fill="#000088"/>
<path d="M36.8518 26.3133C36.981 26.145 36.9492 25.904 36.781 25.7749C36.6127 25.6458 36.3717 25.6775 36.2426 25.8457C36.1134 26.014 36.1452 26.2551 36.3134 26.3842C36.4817 26.5133 36.7227 26.4815 36.8518 26.3133Z" fill="#000088"/>
<path d="M38.4657 35.7354L34.7139 33.2737L32.7384 32.4287L34.4579 33.7171L38.4657 35.7354Z" fill="#000088"/>
<path d="M38.1589 27.7622C38.3271 27.6331 38.3589 27.3921 38.2298 27.2238C38.1007 27.0556 37.8596 27.0239 37.6914 27.153C37.5231 27.2821 37.4914 27.5231 37.6205 27.6914C37.7496 27.8596 37.9906 27.8914 38.1589 27.7622Z" fill="#000088"/>
<path d="M37.2792 37.2805L34.2924 33.9316L32.6029 32.6041L33.9304 34.2936L37.2792 37.2805Z" fill="#000088"/>
<path d="M39.0471 29.5001C39.243 29.4189 39.3361 29.1943 39.2549 28.9984C39.1738 28.8024 38.9491 28.7094 38.7532 28.7905C38.5573 28.8717 38.4642 29.0963 38.5454 29.2923C38.6265 29.4882 38.8512 29.5812 39.0471 29.5001Z" fill="#000088"/>
<path d="M35.7334 38.4665L33.7151 34.4587L32.4268 32.7392L33.2717 34.7147L35.7334 38.4665Z" fill="#000088"/>
<path d="M39.4536 31.4086C39.6639 31.3809 39.8119 31.188 39.7842 30.9777C39.7565 30.7675 39.5636 30.6195 39.3534 30.6471C39.1431 30.6748 38.9951 30.8677 39.0228 31.078C39.0505 31.2882 39.2434 31.4363 39.4536 31.4086Z" fill="#000088"/>
<path d="M33.9326 39.2124L33.0203 34.8187L32.2209 32.8244L32.5258 34.9513L33.9326 39.2124Z" fill="#000088"/>
</g>
<g clip-path="url(#clip6_647_4042)">
<path d="M0 0H64V64H0V0Z" fill="#EE1C25"/>
<path d="M25.6004 13.1204L9.28039 23.6804L16.0004 6.40039L21.7604 23.6804L6.40039 13.1204H25.6004Z" fill="#FFFF00"/>
<path d="M29.572 4.13056L35.3871 6.97869L29.3003 8.02454L33.246 3.41528L32.866 9.61272L29.572 4.13056Z" fill="#FFFF00"/>
<path d="M36.9839 9.77596L41.2352 14.6657L35.2171 13.2597L40.6491 10.5472L37.8856 16.1121L36.9839 9.77596Z" fill="#FFFF00"/>
<path d="M38.3217 19.0659L40.2069 25.2687L35.2849 21.5258L41.3542 21.2677L36.5567 25.2213L38.3217 19.0659Z" fill="#FFFF00"/>
<path d="M33.2511 25.7049L32.5967 32.1481L29.5039 26.8009L35.1967 28.9033L29.2511 30.6969L33.2511 25.7049Z" fill="#FFFF00"/>
</g>
<g clip-path="url(#clip7_647_4042)">
<path fill-rule="evenodd" clip-rule="evenodd" d="M0 0H64V64H0V0Z" fill="white"/>
<path fill-rule="evenodd" clip-rule="evenodd" d="M42.6625 0H64V64H42.6625V0ZM0 0H21.3375V64H0V0Z" fill="#008753"/>
</g>
<g clip-path="url(#clip8_647_4042)">
<path d="M0 0H64V32H0V0Z" fill="#0038A8"/>
<path d="M0 32H64V64H0V32Z" fill="#CE1126"/>
<path d="M55.425 32L0 64V0" fill="white"/>
<path d="M3.15 5.55078L5.075 7.21328L7.3125 5.98828L6.3125 8.32578L8.1875 10.0758L5.625 9.86328L4.55 12.1633L3.9625 9.68828L1.4375 9.36328L3.625 8.05078L3.15 5.55078ZM46.5125 28.6258L46.5625 31.1633L48.975 32.0008L46.5625 32.8383L46.5125 35.3758L44.975 33.3508L42.5375 34.1008L44 32.0008L42.5375 29.9133L44.975 30.6508L46.5125 28.6258ZM4.5625 51.8383L5.6375 54.1383L8.175 53.9258L6.325 55.6758L7.3125 58.0133L5.075 56.7883L3.15 58.4508L3.6375 55.9508L1.45 54.6383L3.975 54.3133L4.5625 51.8383ZM19.8625 18.5008L19.0375 19.3258L19.4375 25.6133L19.025 25.6508L18.275 19.9133L17.5875 20.5883L18.6125 25.7133C17.79 25.8796 17.0083 26.2067 16.3125 26.6758L13.4 22.3258H12.4375L15.9625 26.9258L15.65 27.1883L11.4875 22.4383H10.3125V23.6258L15.0625 27.7883L14.7875 28.1008L10.1875 24.5758V25.5383L14.5375 28.4508C14.0728 29.1476 13.75 29.9292 13.5875 30.7508L8.4625 29.7258L7.775 30.4133L13.525 31.1633L13.475 31.5883L7.1875 31.1758L6.35 32.0008L7.1875 32.8258L13.475 32.4258L13.5125 32.8383L7.775 33.5883L8.45 34.2758L13.575 33.2508C13.7413 34.0733 14.0684 34.8549 14.5375 35.5508L10.1875 38.4633V39.4258L14.7875 35.9008L15.05 36.2133L10.3 40.3758V41.5508H11.5L15.6625 36.8008L15.975 37.0758L12.45 41.6758H13.4125L16.325 37.3258C17.0218 37.7905 17.8034 38.1133 18.625 38.2758L17.6 43.4008L18.2875 44.0883L19.0375 38.3383L19.45 38.3883L19.05 44.6758L19.875 45.5133L20.7 44.6758L20.3 38.3883L20.7125 38.3508L21.4625 44.0883L22.15 43.4133L21.125 38.2883C21.9475 38.122 22.7292 37.7949 23.425 37.3258L26.3375 41.6758H27.3L23.75 37.0758L24.0625 36.8133L28.225 41.5633H29.4V40.3758L24.65 36.2133L24.925 35.9008L29.525 39.4258V38.4633L25.175 35.5508C25.6397 34.854 25.9625 34.0724 26.125 33.2508L31.25 34.2758L31.9375 33.5883L26.1875 32.8383L26.2375 32.4258L32.525 32.8258L33.3625 32.0008L32.525 31.1758L26.2375 31.5883C26.2375 31.4383 26.225 31.2966 26.2 31.1633L31.9375 30.4133L31.2625 29.7258L26.1375 30.7508C25.9712 29.9282 25.6441 29.1466 25.175 28.4508L29.525 25.5383V24.5758L24.925 28.1008L24.6625 27.7883L29.4125 23.6258V22.4508H28.225L24.0625 27.2008L23.75 26.9258L27.275 22.3258H26.3125L23.4 26.6758C22.7032 26.2111 21.9216 25.8883 21.1 25.7258L22.125 20.6008L21.4375 19.9133L20.6875 25.6633L20.275 25.6133L20.675 19.3258L19.8625 18.5008Z" fill="#FCD116"/>
</g>
<g clip-path="url(#clip9_647_4042)">
<mask id="mask0_647_4042" style="mask-type:luminance" maskUnits="userSpaceOnUse" x="0" y="0" width="64" height="64">
<path d="M0 0H64V64H0V0Z" fill="white"/>
</mask>
<g mask="url(#mask0_647_4042)">
<path fill-rule="evenodd" clip-rule="evenodd" d="M-11.875 0H84.125V64H-11.875V0Z" fill="#0C590B"/>
<path fill-rule="evenodd" clip-rule="evenodd" d="M-11.875 0H12.1875V64H-11.875V0Z" fill="white"/>
<path fill-rule="evenodd" clip-rule="evenodd" d="M50.4619 28.1742L46.5619 27.3492L44.5119 30.7617L44.0869 26.8117L40.2119 25.9117L43.8369 24.2867L43.4994 20.3242L46.1744 23.2742L49.8369 21.7242L47.8494 25.1742L50.4744 28.1742H50.4619Z" fill="white"/>
<path fill-rule="evenodd" clip-rule="evenodd" d="M51.9247 38.25C51.0955 40.0675 49.9144 41.7027 48.4497 43.0612C46.985 44.4197 45.2657 45.4746 43.3911 46.1649C41.5164 46.8553 39.5236 47.1674 37.5277 47.0833C35.5317 46.9993 33.5722 46.5206 31.7623 45.675C29.9423 44.8342 28.3061 43.6428 26.947 42.169C25.588 40.6952 24.5329 38.9679 23.8421 37.0859C23.1514 35.2039 22.8384 33.2042 22.9212 31.2011C23.004 29.1981 23.481 27.231 24.3248 25.4125C25.172 23.526 26.4032 21.8368 27.94 20.4529C29.4767 19.069 31.2851 18.0207 33.2498 17.375C32.735 17.8035 32.2427 18.2583 31.7748 18.7375C29.336 21.4383 28.0414 24.9807 28.1639 28.6176C28.2863 32.2545 29.8164 35.7017 32.4313 38.2324C35.0463 40.763 38.5418 42.1793 42.1807 42.1826C45.8197 42.1859 49.3177 40.7759 51.9373 38.25H51.9247Z" fill="white"/>
</g>
</g>
</g>
<defs>
<clipPath id="clip0_647_4042">
<rect width="64" height="64" rx="32" fill="white"/>
</clipPath>
<clipPath id="clip1_647_4042">
<rect width="64" height="64" fill="white"/>
</clipPath>
<clipPath id="clip2_647_4042">
<rect width="64" height="64" fill="white"/>
</clipPath>
<clipPath id="clip3_647_4042">
<rect width="64" height="64" fill="white"/>
</clipPath>
<clipPath id="clip4_647_4042">
<rect width="64" height="64" fill="white"/>
</clipPath>
<clipPath id="clip5_647_4042">
<rect width="64" height="64" fill="white"/>
</clipPath>
<clipPath id="clip6_647_4042">
<rect width="64" height="64" fill="white"/>
</clipPath>
<clipPath id="clip7_647_4042">
<rect width="64" height="64" fill="white"/>
</clipPath>
<clipPath id="clip8_647_4042">
<rect width="64" height="64" fill="white"/>
</clipPath>
<clipPath id="clip9_647_4042">
<rect width="64" height="64" fill="white"/>
</clipPath>
</defs>
</svg>
