<svg width="64" height="64" viewBox="0 0 64 64" fill="none" xmlns="http://www.w3.org/2000/svg">
<g clip-path="url(#clip0_1342_5754)">
<path d="M0 0H64V32H0V0Z" fill="#0038A8"/>
<path d="M0 32H64V64H0V32Z" fill="#CE1126"/>
<path d="M55.425 32L0 64V0" fill="white"/>
<path d="M3.15 5.55078L5.075 7.21328L7.3125 5.98828L6.3125 8.32578L8.1875 10.0758L5.625 9.86328L4.55 12.1633L3.9625 9.68828L1.4375 9.36328L3.625 8.05078L3.15 5.55078ZM46.5125 28.6258L46.5625 31.1633L48.975 32.0008L46.5625 32.8383L46.5125 35.3758L44.975 33.3508L42.5375 34.1008L44 32.0008L42.5375 29.9133L44.975 30.6508L46.5125 28.6258ZM4.5625 51.8383L5.6375 54.1383L8.175 53.9258L6.325 55.6758L7.3125 58.0133L5.075 56.7883L3.15 58.4508L3.6375 55.9508L1.45 54.6383L3.975 54.3133L4.5625 51.8383ZM19.8625 18.5008L19.0375 19.3258L19.4375 25.6133L19.025 25.6508L18.275 19.9133L17.5875 20.5883L18.6125 25.7133C17.79 25.8796 17.0083 26.2067 16.3125 26.6758L13.4 22.3258H12.4375L15.9625 26.9258L15.65 27.1883L11.4875 22.4383H10.3125V23.6258L15.0625 27.7883L14.7875 28.1008L10.1875 24.5758V25.5383L14.5375 28.4508C14.0728 29.1476 13.75 29.9292 13.5875 30.7508L8.4625 29.7258L7.775 30.4133L13.525 31.1633L13.475 31.5883L7.1875 31.1758L6.35 32.0008L7.1875 32.8258L13.475 32.4258L13.5125 32.8383L7.775 33.5883L8.45 34.2758L13.575 33.2508C13.7413 34.0733 14.0684 34.8549 14.5375 35.5508L10.1875 38.4633V39.4258L14.7875 35.9008L15.05 36.2133L10.3 40.3758V41.5508H11.5L15.6625 36.8008L15.975 37.0758L12.45 41.6758H13.4125L16.325 37.3258C17.0218 37.7905 17.8034 38.1133 18.625 38.2758L17.6 43.4008L18.2875 44.0883L19.0375 38.3383L19.45 38.3883L19.05 44.6758L19.875 45.5133L20.7 44.6758L20.3 38.3883L20.7125 38.3508L21.4625 44.0883L22.15 43.4133L21.125 38.2883C21.9475 38.122 22.7292 37.7949 23.425 37.3258L26.3375 41.6758H27.3L23.75 37.0758L24.0625 36.8133L28.225 41.5633H29.4V40.3758L24.65 36.2133L24.925 35.9008L29.525 39.4258V38.4633L25.175 35.5508C25.6397 34.854 25.9625 34.0724 26.125 33.2508L31.25 34.2758L31.9375 33.5883L26.1875 32.8383L26.2375 32.4258L32.525 32.8258L33.3625 32.0008L32.525 31.1758L26.2375 31.5883C26.2375 31.4383 26.225 31.2966 26.2 31.1633L31.9375 30.4133L31.2625 29.7258L26.1375 30.7508C25.9712 29.9282 25.6441 29.1466 25.175 28.4508L29.525 25.5383V24.5758L24.925 28.1008L24.6625 27.7883L29.4125 23.6258V22.4508H28.225L24.0625 27.2008L23.75 26.9258L27.275 22.3258H26.3125L23.4 26.6758C22.7032 26.2111 21.9216 25.8883 21.1 25.7258L22.125 20.6008L21.4375 19.9133L20.6875 25.6633L20.275 25.6133L20.675 19.3258L19.8625 18.5008Z" fill="#FCD116"/>
</g>
<defs>
<clipPath id="clip0_1342_5754">
<rect width="64" height="64" rx="32" fill="white"/>
</clipPath>
</defs>
</svg>
