<svg width="64" height="64" viewBox="0 0 64 64" fill="none" xmlns="http://www.w3.org/2000/svg">
<g clip-path="url(#clip0_647_1943)">
<path d="M25.5999 0H63.9999V64H25.5874L25.5999 0Z" fill="#FF0000"/>
<path d="M-0.000195312 0H25.5998V64H-0.0126953L-0.000195312 0Z" fill="#006600"/>
<path fill-rule="evenodd" clip-rule="evenodd" d="M36.7251 40.825C32.4251 40.7 12.7251 28.4 12.6001 26.4375L13.6751 24.625C15.6251 27.4625 35.7751 39.425 37.7501 39L36.7251 40.825Z" fill="#FFFF00" stroke="black" stroke-width="0.0875" stroke-linecap="round" stroke-linejoin="round"/>
<path fill-rule="evenodd" clip-rule="evenodd" d="M13.4501 24.3746C13.0626 25.4121 18.5876 28.8246 25.2376 32.8746C31.8876 36.9121 37.6126 39.4121 38.0501 39.0621L38.2376 38.6996C38.1543 38.8329 37.9626 38.8579 37.6626 38.7746C35.8626 38.2496 31.1751 36.0996 25.3751 32.5871C19.5751 29.0746 14.5251 25.8246 13.7501 24.4496C13.6877 24.3213 13.6577 24.1797 13.6626 24.0371H13.6376L13.4751 24.3246L13.4501 24.3746ZM36.8251 40.8746C36.7501 41.0121 36.6126 41.0121 36.3626 40.9996C34.7501 40.8121 29.8626 38.4371 24.1126 34.9871C17.3876 30.9621 11.8376 27.2996 12.4501 26.3496L12.6126 26.0496L12.6376 26.0621C12.1001 27.6871 23.5876 34.2496 24.2626 34.6746C30.9001 38.7996 36.5126 41.1996 37.0126 40.5746L36.8251 40.8746Z" fill="#FFFF00" stroke="black" stroke-width="0.0875" stroke-linecap="round" stroke-linejoin="round"/>
<path fill-rule="evenodd" clip-rule="evenodd" d="M25.6254 27.6246C29.9129 27.5871 35.2254 27.0371 38.2754 25.8246L37.6254 24.7496C35.8129 25.7496 30.4879 26.4121 25.5879 26.4996C19.7879 26.4496 15.7004 25.9121 13.6504 24.5371L13.0254 25.6746C16.8004 27.2621 20.6504 27.6121 25.6254 27.6246Z" fill="#FFFF00" stroke="black" stroke-width="0.0875" stroke-linecap="round" stroke-linejoin="round"/>
<path fill-rule="evenodd" clip-rule="evenodd" d="M38.4628 25.8504C38.3503 26.0129 36.3628 26.7004 33.4253 27.2004C30.8352 27.5888 28.2194 27.7811 25.6003 27.7754C23.0924 27.7867 20.5867 27.628 18.1003 27.3004C15.0378 26.8129 13.4378 26.1379 12.8503 25.9004L13.0003 25.6129C14.6626 26.2681 16.3948 26.7294 18.1628 26.9879C20.6286 27.3104 23.1135 27.4649 25.6003 27.4504C28.1985 27.452 30.7932 27.2598 33.3628 26.8754C36.3628 26.3879 38.0128 25.7629 38.2378 25.4754L38.4628 25.8504ZM37.8753 24.7504C37.5503 25.0004 35.9253 25.5879 33.0753 26.0379C30.612 26.3915 28.1264 26.5669 25.6378 26.5629C23.2381 26.5811 20.8403 26.4265 18.4628 26.1004C15.5503 25.7254 14.0128 25.0379 13.4628 24.8379L13.6253 24.5504C14.0503 24.7754 15.5503 25.3754 18.5003 25.8004C20.8669 26.1071 23.2515 26.2533 25.6378 26.2379C28.1056 26.2411 30.5704 26.0657 33.0128 25.7129C35.8878 25.3129 37.4378 24.5879 37.6753 24.4004L37.8753 24.7504ZM11.5003 32.8004C14.1503 34.2254 20.0128 34.9504 25.5753 35.0004C30.6378 35.0004 37.2378 34.2129 39.7003 32.9004L39.6253 31.4754C38.8628 32.6879 31.8003 33.8504 25.5253 33.8004C19.2503 33.7504 13.4253 32.7754 11.4878 31.5254V32.8004" fill="#FFFF00"/>
<path d="M11.5003 32.8004C14.1503 34.2254 20.0128 34.9504 25.5753 35.0004C30.6378 35.0004 37.2378 34.2129 39.7003 32.9004L39.6253 31.4754C38.8628 32.6879 31.8003 33.8504 25.5253 33.8004C19.2503 33.7504 13.4253 32.7754 11.4878 31.5254V32.8004M38.4628 25.8504C38.3503 26.0129 36.3628 26.7004 33.4253 27.2004C30.8352 27.5888 28.2194 27.7811 25.6003 27.7754C23.0924 27.7867 20.5867 27.628 18.1003 27.3004C15.0378 26.8129 13.4378 26.1379 12.8503 25.9004L13.0003 25.6129C14.6626 26.2681 16.3948 26.7294 18.1628 26.9879C20.6286 27.3104 23.1135 27.4649 25.6003 27.4504C28.1985 27.452 30.7932 27.2598 33.3628 26.8754C36.3628 26.3879 38.0128 25.7629 38.2378 25.4754L38.4628 25.8504ZM37.8753 24.7504C37.5503 25.0004 35.9253 25.5879 33.0753 26.0379C30.612 26.3915 28.1264 26.5669 25.6378 26.5629C23.2381 26.5811 20.8403 26.4265 18.4628 26.1004C15.5503 25.7254 14.0128 25.0379 13.4628 24.8379L13.6253 24.5504C14.0503 24.7754 15.5503 25.3754 18.5003 25.8004C20.8669 26.1071 23.2515 26.2533 25.6378 26.2379C28.1056 26.2411 30.5704 26.0657 33.0128 25.7129C35.8878 25.3129 37.4378 24.5879 37.6753 24.4004L37.8753 24.7504Z" stroke="black" stroke-width="0.0875" stroke-linecap="round" stroke-linejoin="round"/>
<path fill-rule="evenodd" clip-rule="evenodd" d="M39.8377 32.5996V32.9371C39.4627 33.3871 37.1377 34.0621 34.2252 34.5246C31.3403 34.9438 28.4278 35.1443 25.5127 35.1246C22.0877 35.1246 19.3627 34.8746 17.2377 34.5496C15.1989 34.3175 13.2061 33.7825 11.3252 32.9621V32.5621C12.6252 33.4246 16.1127 34.0496 17.2877 34.2371C19.3877 34.5621 22.1002 34.7996 25.5127 34.7996C29.1002 34.7996 31.9752 34.5496 34.1752 34.2121C36.2752 33.9121 39.2502 33.1246 39.8377 32.5996ZM39.8377 31.3871V31.7371C39.4627 32.1746 37.1377 32.8496 34.2252 33.3121C31.3403 33.7313 28.4278 33.9318 25.5127 33.9121C22.0877 33.9121 19.3627 33.6621 17.2502 33.3496C15.2065 33.1147 13.2093 32.5754 11.3252 31.7496V31.3496C12.6252 32.2121 16.1127 32.8496 17.2877 33.0246C19.4002 33.3496 22.1127 33.5996 25.5127 33.5996C29.1002 33.5996 31.9752 33.3496 34.1752 32.9996C36.2752 32.6996 39.2502 31.9121 39.8377 31.3871ZM25.5627 40.5746C19.4877 40.5371 14.2752 38.9246 13.1752 38.6496L13.9752 39.8996C15.9127 40.7246 21.0002 41.9496 25.6252 41.8121C30.2502 41.6746 34.2877 41.3121 37.1252 39.9371L37.9502 38.6246C36.0127 39.5371 29.4127 40.5746 25.5752 40.5746" fill="#FFFF00"/>
<path d="M25.5627 40.5746C19.4877 40.5371 14.2752 38.9246 13.1752 38.6496L13.9752 39.8996C15.9127 40.7246 21.0002 41.9496 25.6252 41.8121C30.2502 41.6746 34.2877 41.3121 37.1252 39.9371L37.9502 38.6246C36.0127 39.5371 29.4127 40.5746 25.5752 40.5746M39.8377 32.5996V32.9371C39.4627 33.3871 37.1377 34.0621 34.2252 34.5246C31.3403 34.9438 28.4278 35.1443 25.5127 35.1246C22.0877 35.1246 19.3627 34.8746 17.2377 34.5496C15.1989 34.3175 13.2061 33.7825 11.3252 32.9621V32.5621C12.6252 33.4246 16.1127 34.0496 17.2877 34.2371C19.3877 34.5621 22.1002 34.7996 25.5127 34.7996C29.1002 34.7996 31.9752 34.5496 34.1752 34.2121C36.2752 33.9121 39.2502 33.1246 39.8377 32.5996ZM39.8377 31.3871V31.7371C39.4627 32.1746 37.1377 32.8496 34.2252 33.3121C31.3403 33.7313 28.4278 33.9318 25.5127 33.9121C22.0877 33.9121 19.3627 33.6621 17.2502 33.3496C15.2065 33.1147 13.2093 32.5754 11.3252 31.7496V31.3496C12.6252 32.2121 16.1127 32.8496 17.2877 33.0246C19.4002 33.3496 22.1127 33.5996 25.5127 33.5996C29.1002 33.5996 31.9752 33.3496 34.1752 32.9996C36.2752 32.6996 39.2502 31.9121 39.8377 31.3871Z" stroke="black" stroke-width="0.0875" stroke-linecap="round" stroke-linejoin="round"/>
<path fill-rule="evenodd" clip-rule="evenodd" d="M37.4378 39.6379L37.0628 40.1879C35.6444 40.6584 34.1951 41.0301 32.7253 41.3004C30.3667 41.7343 27.9734 41.9519 25.5753 41.9504C20.1878 41.8754 15.7753 40.8254 13.7003 39.9254L13.5253 39.6379L13.5628 39.5879L13.8378 39.7004C17.6333 40.957 21.6023 41.6108 25.6003 41.6379C28.1003 41.6504 30.6003 41.3504 32.6128 41.0004C35.7128 40.3754 36.9628 39.9129 37.3503 39.7004L37.4378 39.6379ZM38.1503 38.4629H38.1628L37.8878 38.9379C37.1753 39.1879 35.2253 39.7629 32.3878 40.1629C30.5128 40.4129 29.3503 40.6629 25.6378 40.7379C21.3841 40.692 17.157 40.0611 13.0753 38.8629L12.9253 38.5504C17.0711 39.6887 21.3399 40.3183 25.6378 40.4254C29.0378 40.3504 30.4878 40.1004 32.3378 39.8379C35.6503 39.3379 37.3128 38.7879 37.8128 38.6254L37.8003 38.6004L38.1503 38.4629Z" fill="#FFFF00" stroke="black" stroke-width="0.075" stroke-linecap="round" stroke-linejoin="round"/>
<path fill-rule="evenodd" clip-rule="evenodd" d="M38.2251 31.6746C38.2501 35.6746 36.2001 39.2746 34.5501 40.8621C32.1264 43.2194 28.8932 44.5609 25.5126 44.6121C21.4751 44.6871 17.6751 42.0496 16.6501 40.8996C14.6501 38.6371 13.0251 35.7746 12.9751 31.8996C13.2251 27.5246 14.9376 24.4871 17.4251 22.3996C19.8305 20.4169 22.858 19.3458 25.9751 19.3746C29.1501 19.4621 32.8751 21.0246 35.4376 24.1246C37.1126 26.1496 37.8501 28.3496 38.2251 31.6871V31.6746ZM25.5501 17.9746C33.3001 17.9746 39.6751 24.2871 39.6751 32.0121C39.652 35.7431 38.1536 39.3134 35.5072 41.9435C32.8607 44.5735 29.2812 46.0497 25.5501 46.0496C17.8001 46.0496 11.4751 39.7496 11.4751 32.0121C11.4751 24.2746 17.8001 17.9746 25.5501 17.9746Z" fill="#FFFF00" stroke="black" stroke-width="0.0875" stroke-linecap="round" stroke-linejoin="round"/>
<path fill-rule="evenodd" clip-rule="evenodd" d="M25.5875 17.9246C33.3375 17.9246 39.6625 24.2621 39.6625 32.0121C39.6625 39.7621 33.3375 46.0996 25.5875 46.0996C21.8521 46.0897 18.2728 44.6006 15.6327 41.9581C12.9925 39.3156 11.5066 35.735 11.5 31.9996C11.5099 28.2664 12.9973 24.689 15.6371 22.0492C18.2768 19.4094 21.8543 17.922 25.5875 17.9121V17.9246ZM11.8125 32.0121C11.8125 39.5871 18.0375 45.7871 25.5875 45.7871C33.1375 45.7871 39.35 39.5871 39.35 32.0121C39.35 24.4371 33.1375 18.2496 25.5875 18.2496C21.9404 18.2628 18.4462 19.7166 15.866 22.2943C13.2859 24.8721 11.829 28.365 11.8125 32.0121Z" fill="#FFFF00" stroke="black" stroke-width="0.0875" stroke-linecap="round" stroke-linejoin="round"/>
<path fill-rule="evenodd" clip-rule="evenodd" d="M25.6 19.0996C32.6625 19.0996 38.4875 24.9121 38.4875 31.9996C38.4875 39.0871 32.6625 44.8996 25.6 44.8996C22.1806 44.8897 18.9039 43.5279 16.4848 41.1111C14.0657 38.6944 12.7007 35.419 12.6875 31.9996C12.6875 24.9121 18.5125 19.0996 25.5875 19.0996H25.6ZM13 31.9996C13 38.9246 18.6875 44.5871 25.6 44.5871C32.5125 44.5871 38.1875 38.9246 38.1875 31.9996C38.1875 25.0746 32.5 19.4121 25.5875 19.4121C18.675 19.4121 13 25.0746 13 31.9996Z" fill="#FFFF00" stroke="black" stroke-width="0.0875" stroke-linecap="round" stroke-linejoin="round"/>
<path fill-rule="evenodd" clip-rule="evenodd" d="M26.1627 17.875H24.9502V46.175H26.1627V17.875Z" fill="#FFFF00" stroke="black" stroke-width="0.0875" stroke-linecap="round" stroke-linejoin="round"/>
<path fill-rule="evenodd" clip-rule="evenodd" d="M26.0379 17.7129H26.3504V46.3379H26.0379V17.7129ZM24.8379 17.7129H25.1504V46.3379H24.8379V17.7129Z" fill="#FFFF00" stroke="black" stroke-width="0.0875" stroke-linecap="round" stroke-linejoin="round"/>
<path fill-rule="evenodd" clip-rule="evenodd" d="M39.6752 32.5629V31.5004L38.8252 30.7129L33.9877 29.4254L27.0127 28.7129L18.6377 29.1379L12.6502 30.5629L11.4502 31.4629V32.5004L14.5002 31.1254L21.7502 30.0004H28.7252L33.8502 30.5629L37.4002 31.4254L39.6752 32.5629Z" fill="#FFFF00" stroke="black" stroke-width="0.0875" stroke-linecap="round" stroke-linejoin="round"/>
<path fill-rule="evenodd" clip-rule="evenodd" d="M25.5877 29.8385C28.6438 29.826 31.6945 30.098 34.7002 30.651C37.3377 31.176 39.2002 31.8385 39.8252 32.576V32.951C39.0752 32.026 36.5752 31.351 34.6377 30.951C32.1002 30.4635 28.8877 30.151 25.5877 30.151C22.0877 30.151 18.8377 30.4885 16.3377 30.976C14.3377 31.376 11.6627 32.1635 11.3252 32.951V32.576C11.5127 32.026 13.5002 31.2135 16.3002 30.651C19.3644 30.0951 22.4735 29.8231 25.5877 29.8385ZM25.5877 28.626C28.6479 28.6142 31.7027 28.8862 34.7127 29.4385C37.3377 29.9635 39.2127 30.626 39.8377 31.376V31.7385C39.0752 30.8135 36.5627 30.1385 34.6377 29.751C32.1002 29.251 28.8877 28.9385 25.5877 28.9385C22.4939 28.9289 19.4057 29.2051 16.3627 29.7635C14.4252 30.1385 11.6377 30.9635 11.3252 31.7385V31.3635C11.5127 30.826 13.5502 29.9885 16.3002 29.451C19.3641 28.8909 22.4731 28.6147 25.5877 28.626ZM25.5252 22.4635C30.7627 22.4385 35.3377 23.201 37.4252 24.276L38.1877 25.5885C36.3752 24.6135 31.4377 23.5885 25.5252 23.751C20.7127 23.776 15.5752 24.276 12.9877 25.651L13.9002 24.126C16.0252 23.026 21.0252 22.476 25.5252 22.4635Z" fill="#FFFF00" stroke="black" stroke-width="0.0875" stroke-linecap="round" stroke-linejoin="round"/>
<path fill-rule="evenodd" clip-rule="evenodd" d="M25.5879 23.5495C28.5879 23.5495 31.4629 23.712 33.7629 24.1245C35.9004 24.5245 37.9504 25.1245 38.2379 25.4495L38.4629 25.8495C37.7504 25.387 35.9879 24.862 33.7129 24.437C31.0266 24.009 28.3075 23.8207 25.5879 23.8745C22.2129 23.8745 19.5879 24.037 17.3379 24.437C14.9629 24.8745 13.3129 25.512 12.9004 25.812L13.1254 25.3995C13.9129 24.987 15.1754 24.4995 17.2879 24.1245C19.6129 23.6995 22.2504 23.5745 25.5879 23.5495ZM25.5879 22.3495C28.2279 22.308 30.8667 22.492 33.4754 22.8995C35.2129 23.237 36.9254 23.762 37.5629 24.2245L37.8879 24.7495C37.3254 24.1245 35.2129 23.537 33.3379 23.212C31.1629 22.837 28.4504 22.687 25.5879 22.662C22.5879 22.662 19.8129 22.8495 17.6629 23.237C15.6129 23.637 14.2879 24.0995 13.7254 24.462L14.0129 24.012C14.7879 23.612 16.0379 23.237 17.6129 22.9245C19.7754 22.537 22.5754 22.3495 25.5879 22.3495ZM32.5879 37.862C30.2768 37.4633 27.9327 37.2875 25.5879 37.337C16.8504 37.437 14.0379 39.1245 13.6879 39.637L13.0379 38.5745C15.2504 36.962 20.0004 36.062 25.6254 36.1495C28.5421 36.1912 31.0587 36.4078 33.1754 36.7995L32.5754 37.862" fill="#FFFF00"/>
<path d="M32.5879 37.862C30.2768 37.4633 27.9327 37.2875 25.5879 37.337C16.8504 37.437 14.0379 39.1245 13.6879 39.637L13.0379 38.5745C15.2504 36.962 20.0004 36.062 25.6254 36.1495C28.5421 36.1912 31.0587 36.4078 33.1754 36.7995L32.5754 37.862M25.5879 23.5495C28.5879 23.5495 31.4629 23.712 33.7629 24.1245C35.9004 24.5245 37.9504 25.1245 38.2379 25.4495L38.4629 25.8495C37.7504 25.387 35.9879 24.862 33.7129 24.437C31.0266 24.009 28.3075 23.8207 25.5879 23.8745C22.2129 23.8745 19.5879 24.037 17.3379 24.437C14.9629 24.8745 13.3129 25.512 12.9004 25.812L13.1254 25.3995C13.9129 24.987 15.1754 24.4995 17.2879 24.1245C19.6129 23.6995 22.2504 23.5745 25.5879 23.5495ZM25.5879 22.3495C28.2279 22.308 30.8667 22.492 33.4754 22.8995C35.2129 23.237 36.9254 23.762 37.5629 24.2245L37.8879 24.7495C37.3254 24.1245 35.2129 23.537 33.3379 23.212C31.1629 22.837 28.4504 22.687 25.5879 22.662C22.5879 22.662 19.8129 22.8495 17.6629 23.237C15.6129 23.637 14.2879 24.0995 13.7254 24.462L14.0129 24.012C14.7879 23.612 16.0379 23.237 17.6129 22.9245C19.7754 22.537 22.5754 22.3495 25.5879 22.3495Z" stroke="black" stroke-width="0.0875" stroke-linecap="round" stroke-linejoin="round"/>
<path fill-rule="evenodd" clip-rule="evenodd" d="M25.5376 37.1876C27.9626 37.2251 30.3501 37.3126 32.6626 37.7501L32.4876 38.0501C30.1969 37.6549 27.8743 37.4749 25.5501 37.5126C22.3251 37.4876 19.0501 37.7876 16.2251 38.6001C15.3251 38.8501 13.8501 39.4251 13.6876 39.9001L13.5251 39.6251C13.5751 39.3501 14.4751 38.7626 16.1501 38.3001C19.4001 37.3626 22.4376 37.2126 25.5251 37.1751L25.5376 37.1876ZM25.6501 35.9626C28.2104 35.9602 30.766 36.1819 33.2876 36.6251L33.1126 36.9376C30.6551 36.4881 28.1608 36.2704 25.6626 36.2876C22.4251 36.2876 19.0001 36.5251 15.8751 37.4251C14.8751 37.7251 13.1251 38.3501 13.0751 38.8501L12.9126 38.5626C12.9501 38.1126 14.4501 37.5126 15.8126 37.1126C19.0222 36.2731 22.3334 35.886 25.6501 35.9626Z" fill="#FFFF00" stroke="black" stroke-width="0.075" stroke-linecap="round" stroke-linejoin="round"/>
<path fill-rule="evenodd" clip-rule="evenodd" d="M38.0502 38.7371L37.0002 40.3621L33.9877 37.6871L26.1627 32.4371L17.3502 27.5871L12.7627 26.0246L13.7377 24.2121L14.0752 24.0371L16.9252 24.7496L26.3002 29.5871L31.7127 32.9996L36.2502 36.2496L38.1002 38.3871L38.0502 38.7371Z" fill="#FFFF00" stroke="black" stroke-width="0.0875" stroke-linecap="round" stroke-linejoin="round"/>
<path fill-rule="evenodd" clip-rule="evenodd" d="M12.6003 26.0629C13.4128 25.5254 19.3128 28.1504 25.4753 31.8754C31.6378 35.6004 37.5253 39.8254 37.0003 40.6254L36.8253 40.8879L36.7378 40.9504C36.7628 40.9504 36.8503 40.8254 36.7378 40.5379C36.4628 39.6754 32.3003 36.3504 25.3628 32.1629C18.6128 28.1379 12.9878 25.7129 12.4253 26.4129L12.6003 26.0629ZM38.2628 38.7129C38.7628 37.7129 33.3003 33.5879 26.5128 29.5754C19.5753 25.6379 14.5628 23.3254 13.6503 24.0129L13.4503 24.3879C13.442 24.3879 13.4586 24.3671 13.5003 24.3254C13.6628 24.1879 13.9378 24.2004 14.0628 24.2004C15.6378 24.2129 20.1378 26.2754 26.4378 29.9004C29.2003 31.5004 38.1128 37.2254 38.0753 38.8254C38.0753 38.9629 38.0878 38.9879 38.0378 39.0629L38.2628 38.7129Z" fill="#FFFF00" stroke="black" stroke-width="0.0875" stroke-linecap="round" stroke-linejoin="round"/>
<path d="M17.1479 33.5595C17.1524 34.6631 17.3745 35.7551 17.8016 36.7728C18.2287 37.7904 18.8523 38.7139 19.6368 39.4902C20.4137 40.2789 21.3389 40.9062 22.3592 41.3358C23.3795 41.7654 24.4747 41.9888 25.5817 41.9933C26.6916 41.9963 27.791 41.7792 28.8163 41.3544C29.8417 40.9296 30.7726 40.3056 31.5551 39.5186C32.3387 38.7395 32.9607 37.8132 33.3854 36.793C33.8101 35.7728 34.029 34.6788 34.0298 33.5737V22.3097L17.1479 22.2812V33.5595Z" fill="white" stroke="black" stroke-width="0.0995558"/>
<path d="M17.4893 33.5731C17.4891 34.6326 17.7004 35.6815 18.1106 36.6583C18.5209 37.6352 19.122 38.5203 19.8786 39.262C21.3928 40.7841 23.449 41.6434 25.5959 41.6513C27.7389 41.6509 29.7944 40.8021 31.3133 39.2904C32.0674 38.5476 32.6658 37.6619 33.0736 36.6851C33.4814 35.7083 33.6904 34.66 33.6884 33.6015V22.6504H17.4893V33.5731ZM30.4315 25.9357V32.8904L30.4173 33.6157C30.4237 34.2514 30.301 34.8816 30.0565 35.4684C29.812 36.0551 29.4509 36.5861 28.9951 37.0291C28.0906 37.9367 26.863 38.4482 25.5817 38.4513C24.2448 38.4513 23.0644 37.8824 22.1826 37.0006C21.275 36.0962 20.7635 34.8686 20.7604 33.5873V25.9073L30.4315 25.9357Z" fill="#FF0000" stroke="black" stroke-width="0.0711113"/>
<path d="M18.5132 25.5101C18.5274 24.7279 19.0821 24.543 19.0821 24.543C19.0963 24.543 19.6936 24.7421 19.6936 25.5243L18.5132 25.5101Z" fill="#FFFF00"/>
<path d="M18.0298 24.5572L17.9302 25.4532H18.5276C18.5276 24.7136 19.0965 24.5999 19.0965 24.5999C19.1107 24.5999 19.6654 24.7563 19.6796 25.4532H20.2769L20.1631 24.543L18.0298 24.5572ZM17.8876 25.4674H20.3054C20.3528 25.4674 20.3812 25.5006 20.3907 25.567C20.3907 25.6428 20.3623 25.6807 20.3054 25.6807H17.8876C17.8402 25.6807 17.8117 25.6428 17.8022 25.567C17.8022 25.5006 17.8354 25.4674 17.9018 25.4674H17.8876Z" fill="#FFFF00" stroke="black" stroke-width="0.0711113"/>
<path d="M18.7696 25.4537C18.7696 24.9843 19.0967 24.8563 19.0967 24.8563C19.0967 24.8563 19.4238 24.9986 19.4238 25.4537H18.7696ZM17.9447 24.1737H20.2629C20.3103 24.1832 20.3388 24.2211 20.3483 24.2875C20.3483 24.3349 20.3198 24.3633 20.2629 24.3728H17.9447C17.8973 24.3728 17.8689 24.3396 17.8594 24.2732C17.8594 24.2258 17.8878 24.1974 17.9447 24.1879V24.1737ZM18.0016 24.387H20.1918C20.2392 24.387 20.2677 24.4202 20.2772 24.4866C20.2866 24.5529 20.2582 24.5861 20.1918 24.5861H17.9874C17.9305 24.5861 17.902 24.5529 17.902 24.4866C17.902 24.4202 17.9305 24.387 17.9874 24.387H18.0016ZM18.7127 22.8795H18.8834V22.9932H19.0114V22.8795H19.1963V23.0075H19.3243V22.8652H19.4949V23.1497C19.4949 23.2066 19.4712 23.235 19.4238 23.235H18.798C18.7506 23.235 18.7222 23.2113 18.7127 23.1639V22.8795ZM19.3669 23.2635L19.4096 24.1737H18.798L18.8407 23.2492H19.3669" fill="#FFFF00"/>
<path d="M19.3669 23.2635L19.4096 24.1737H18.798L18.8407 23.2492H19.3669M18.7696 25.4537C18.7696 24.9843 19.0967 24.8563 19.0967 24.8563C19.0967 24.8563 19.4238 24.9986 19.4238 25.4537H18.7696ZM17.9447 24.1737H20.2629C20.3103 24.1832 20.3388 24.2211 20.3483 24.2875C20.3483 24.3349 20.3198 24.3633 20.2629 24.3728H17.9447C17.8973 24.3728 17.8689 24.3396 17.8594 24.2732C17.8594 24.2258 17.8878 24.1974 17.9447 24.1879V24.1737ZM18.0016 24.387H20.1918C20.2392 24.387 20.2677 24.4202 20.2772 24.4866C20.2866 24.5529 20.2582 24.5861 20.1918 24.5861H17.9874C17.9305 24.5861 17.902 24.5529 17.902 24.4866C17.902 24.4202 17.9305 24.387 17.9874 24.387H18.0016ZM18.7127 22.8795H18.8834V22.9932H19.0114V22.8795H19.1963V23.0075H19.3243V22.8652H19.4949V23.1497C19.4949 23.2066 19.4712 23.235 19.4238 23.235H18.798C18.7506 23.235 18.7222 23.2113 18.7127 23.1639V22.8795Z" stroke="black" stroke-width="0.0711113"/>
<path d="M18.627 23.6895V24.173H18.0581V23.6895H18.627Z" fill="#FFFF00" stroke="black" stroke-width="0.0711113"/>
<path d="M20.1348 23.6895V24.173H19.5659V23.6895H20.1348Z" fill="#FFFF00" stroke="black" stroke-width="0.0711113"/>
<path d="M17.9585 23.3203H18.1292V23.4625H18.2572V23.3203H18.4278V23.4625H18.5558V23.3203H18.7265V23.6048C18.7265 23.6616 18.7028 23.6901 18.6554 23.6901H18.0438C18.0242 23.683 18.0064 23.6717 17.9917 23.6569C17.9769 23.6422 17.9656 23.6244 17.9585 23.6048V23.3203Z" fill="#FFFF00" stroke="black" stroke-width="0.0711113"/>
<path d="M19.4663 23.3203H19.637V23.4625H19.765V23.3203H19.9356V23.4625H20.0636V23.3203H20.2343V23.6048C20.2343 23.6616 20.2106 23.6901 20.1632 23.6901H19.5516C19.532 23.683 19.5142 23.6717 19.4995 23.6569C19.4847 23.6422 19.4734 23.6244 19.4663 23.6048V23.3203Z" fill="#FFFF00" stroke="black" stroke-width="0.0711113"/>
<path d="M19.0396 23.5484C19.0396 23.463 19.1676 23.463 19.1676 23.5484V23.7759H19.0396V23.5484Z" fill="#000001"/>
<path d="M18.2856 23.8609C18.2856 23.7755 18.3994 23.7755 18.3994 23.8609V24.0315H18.2856V23.8609Z" fill="#000001"/>
<path d="M19.7935 23.8609C19.7935 23.7755 19.9072 23.7755 19.9072 23.8609V24.0315H19.7935V23.8609Z" fill="#000001"/>
<path d="M18.5132 32.0941C18.5274 31.3118 19.0821 31.127 19.0821 31.127C19.0963 31.127 19.6936 31.3261 19.6936 32.1083L18.5132 32.0941Z" fill="#FFFF00"/>
<path d="M18.0298 31.1412L17.9302 32.0372H18.5276C18.5276 31.2976 19.0965 31.1838 19.0965 31.1838C19.1107 31.1838 19.6654 31.3403 19.6796 32.0372H20.2769L20.1631 31.127L18.0298 31.1412ZM17.8876 32.0514H20.3054C20.3528 32.0514 20.3812 32.0846 20.3907 32.151C20.3907 32.2268 20.3623 32.2647 20.3054 32.2647H17.8876C17.8402 32.2647 17.8117 32.2268 17.8022 32.151C17.8022 32.0846 17.8354 32.0514 17.9018 32.0514H17.8876Z" fill="#FFFF00" stroke="black" stroke-width="0.0711113"/>
<path d="M18.7696 32.0377C18.7696 31.5683 19.0967 31.4403 19.0967 31.4403C19.0967 31.4403 19.4238 31.5826 19.4238 32.0377H18.7696ZM17.9447 30.7577H20.2629C20.3103 30.7671 20.3388 30.8051 20.3483 30.8714C20.3483 30.9189 20.3198 30.9473 20.2629 30.9568H17.9447C17.8973 30.9568 17.8689 30.9236 17.8594 30.8572C17.8594 30.8098 17.8878 30.7814 17.9447 30.7719V30.7577ZM18.0016 30.971H20.1918C20.2392 30.971 20.2677 31.0042 20.2772 31.0706C20.2866 31.1369 20.2582 31.1701 20.1918 31.1701H17.9874C17.9305 31.1701 17.902 31.1369 17.902 31.0706C17.902 31.0042 17.9305 30.971 17.9874 30.971H18.0016ZM18.7127 29.4634H18.8834V29.5772H19.0114V29.4634H19.1963V29.5914H19.3243V29.4492H19.4949V29.7337C19.4949 29.7906 19.4712 29.819 19.4238 29.819H18.798C18.7506 29.819 18.7222 29.7953 18.7127 29.7479V29.4634ZM19.3669 29.8474L19.4096 30.7577H18.798L18.8407 29.8332H19.3669" fill="#FFFF00"/>
<path d="M19.3669 29.8474L19.4096 30.7577H18.798L18.8407 29.8332H19.3669M18.7696 32.0377C18.7696 31.5683 19.0967 31.4403 19.0967 31.4403C19.0967 31.4403 19.4238 31.5826 19.4238 32.0377H18.7696ZM17.9447 30.7577H20.2629C20.3103 30.7671 20.3388 30.8051 20.3483 30.8714C20.3483 30.9189 20.3198 30.9473 20.2629 30.9568H17.9447C17.8973 30.9568 17.8689 30.9236 17.8594 30.8572C17.8594 30.8098 17.8878 30.7814 17.9447 30.7719V30.7577ZM18.0016 30.971H20.1918C20.2392 30.971 20.2677 31.0042 20.2772 31.0706C20.2866 31.1369 20.2582 31.1701 20.1918 31.1701H17.9874C17.9305 31.1701 17.902 31.1369 17.902 31.0706C17.902 31.0042 17.9305 30.971 17.9874 30.971H18.0016ZM18.7127 29.4634H18.8834V29.5772H19.0114V29.4634H19.1963V29.5914H19.3243V29.4492H19.4949V29.7337C19.4949 29.7906 19.4712 29.819 19.4238 29.819H18.798C18.7506 29.819 18.7222 29.7953 18.7127 29.7479V29.4634Z" stroke="black" stroke-width="0.0711113"/>
<path d="M18.627 30.2734V30.757H18.0581V30.2734H18.627Z" fill="#FFFF00" stroke="black" stroke-width="0.0711113"/>
<path d="M20.1348 30.2734V30.757H19.5659V30.2734H20.1348Z" fill="#FFFF00" stroke="black" stroke-width="0.0711113"/>
<path d="M17.9585 29.9043H18.1292V30.0465H18.2572V29.9043H18.4278V30.0465H18.5558V29.9043H18.7265V30.1887C18.7265 30.2456 18.7028 30.2741 18.6554 30.2741H18.0438C18.0242 30.267 18.0064 30.2557 17.9917 30.2409C17.9769 30.2262 17.9656 30.2084 17.9585 30.1887V29.9043Z" fill="#FFFF00" stroke="black" stroke-width="0.0711113"/>
<path d="M19.4663 29.9043H19.637V30.0465H19.765V29.9043H19.9356V30.0465H20.0636V29.9043H20.2343V30.1887C20.2343 30.2456 20.2106 30.2741 20.1632 30.2741H19.5516C19.532 30.267 19.5142 30.2557 19.4995 30.2409C19.4847 30.2262 19.4734 30.2084 19.4663 30.1887V29.9043Z" fill="#FFFF00" stroke="black" stroke-width="0.0711113"/>
<path d="M19.0396 30.1324C19.0396 30.047 19.1676 30.047 19.1676 30.1324V30.3599H19.0396V30.1324Z" fill="#000001"/>
<path d="M18.2856 30.4449C18.2856 30.3595 18.3994 30.3595 18.3994 30.4449V30.6155H18.2856V30.4449Z" fill="#000001"/>
<path d="M19.7935 30.4449C19.7935 30.3595 19.9072 30.3595 19.9072 30.4449V30.6155H19.7935V30.4449Z" fill="#000001"/>
<path d="M21.0798 38.9588C20.5348 38.3975 20.7944 37.8737 20.7944 37.8737C20.8044 37.8636 21.3666 37.58 21.9217 38.1312L21.0798 38.9588Z" fill="#FFFF00"/>
<path d="M20.063 38.6298L20.6286 39.3318L21.0495 38.9079C20.5248 38.3868 20.8449 37.903 20.8449 37.903C20.8549 37.8929 21.3568 37.6096 21.8613 38.0905L22.2822 37.6667L21.5561 37.106L20.063 38.6298ZM20.6087 39.3721L22.3123 37.6565C22.3457 37.6229 22.3893 37.6261 22.4431 37.6661C22.4969 37.7196 22.5038 37.7665 22.4637 37.8068L20.76 39.5224C20.7266 39.5561 20.6797 39.5495 20.6192 39.5028C20.5721 39.456 20.5719 39.4091 20.6187 39.362L20.6087 39.3721Z" fill="#FFFF00" stroke="black" stroke-width="0.0711113"/>
<path d="M21.2202 38.7366C20.8872 38.4059 21.0269 38.0836 21.0269 38.0836C21.0269 38.0836 21.3583 37.9517 21.6812 38.2724L21.2202 38.7366ZM19.7308 38.42L21.3643 36.7751C21.4044 36.7481 21.4513 36.7547 21.5051 36.7947C21.5388 36.8281 21.5389 36.8683 21.5055 36.9154L19.872 38.5603C19.8386 38.594 19.795 38.5908 19.7413 38.5507C19.7076 38.5173 19.7075 38.4771 19.7408 38.43L19.7308 38.42ZM19.9222 38.53L21.4655 36.9759C21.4989 36.9422 21.5425 36.9454 21.5963 36.9855C21.6501 37.0255 21.6536 37.0691 21.6068 37.1162L20.0535 38.6804C20.0134 38.7207 19.9698 38.7175 19.9227 38.6708C19.8756 38.624 19.8721 38.5804 19.9122 38.5401L19.9222 38.53ZM19.3536 36.9631L19.4738 36.842L19.5546 36.9222L19.6448 36.8314L19.564 36.7512L19.6943 36.62L19.7851 36.7102L19.8753 36.6194L19.7744 36.5192L19.8947 36.398L20.0965 36.5985C20.1369 36.6386 20.1403 36.6754 20.1069 36.7091L19.666 37.1531C19.6326 37.1867 19.5957 37.1902 19.5554 37.1635L19.3536 36.9631ZM20.087 36.7695L20.763 37.3806L20.332 37.8145L19.7061 37.1328L20.0769 36.7595" fill="#FFFF00"/>
<path d="M20.087 36.7695L20.763 37.3806L20.332 37.8145L19.7061 37.1328L20.0769 36.7595M21.2202 38.7366C20.8872 38.4059 21.0269 38.0836 21.0269 38.0836C21.0269 38.0836 21.3583 37.9517 21.6812 38.2724L21.2202 38.7366ZM19.7308 38.42L21.3643 36.7751C21.4044 36.7481 21.4513 36.7547 21.5051 36.7947C21.5388 36.8281 21.5389 36.8683 21.5055 36.9154L19.872 38.5603C19.8386 38.594 19.795 38.5908 19.7413 38.5507C19.7076 38.5173 19.7075 38.4771 19.7408 38.43L19.7308 38.42ZM19.9222 38.53L21.4655 36.9759C21.4989 36.9422 21.5425 36.9454 21.5963 36.9855C21.6501 37.0255 21.6536 37.0691 21.6068 37.1162L20.0535 38.6804C20.0134 38.7207 19.9698 38.7175 19.9227 38.6708C19.8756 38.624 19.8721 38.5804 19.9122 38.5401L19.9222 38.53ZM19.3536 36.9631L19.4738 36.842L19.5546 36.9222L19.6448 36.8314L19.564 36.7512L19.6943 36.62L19.7851 36.7102L19.8753 36.6194L19.7744 36.5192L19.8947 36.398L20.0965 36.5985C20.1369 36.6386 20.1403 36.6754 20.1069 36.7091L19.666 37.1531C19.6326 37.1867 19.5957 37.1902 19.5554 37.1635L19.3536 36.9631Z" stroke="black" stroke-width="0.0711113"/>
<path d="M19.8686 37.5963L20.2117 37.9371L19.8109 38.3407L19.4678 38L19.8686 37.5963Z" fill="#FFFF00" stroke="black" stroke-width="0.0711113"/>
<path d="M20.9306 36.526L21.2738 36.8667L20.8729 37.2704L20.5298 36.9297L20.9306 36.526Z" fill="#FFFF00" stroke="black" stroke-width="0.0711113"/>
<path d="M19.1353 37.8086L19.2555 37.6875L19.3564 37.7877L19.4466 37.6969L19.3457 37.5967L19.466 37.4756L19.5669 37.5758L19.6571 37.485L19.5562 37.3847L19.6764 37.2636L19.8782 37.4641C19.9186 37.5042 19.9221 37.541 19.8887 37.5747L19.4578 38.0086C19.4389 38.0175 19.4183 38.0222 19.3975 38.0222C19.3766 38.0223 19.356 38.0178 19.3371 38.009L19.1353 37.8086Z" fill="#FFFF00" stroke="black" stroke-width="0.0711113"/>
<path d="M20.1973 36.7402L20.3175 36.6191L20.4184 36.7193L20.5086 36.6285L20.4077 36.5283L20.528 36.4072L20.6289 36.5074L20.7191 36.4166L20.6182 36.3164L20.7384 36.1953L20.9403 36.3957C20.9806 36.4358 20.9841 36.4727 20.9507 36.5063L20.5198 36.9402C20.5009 36.9492 20.4803 36.9538 20.4595 36.9539C20.4386 36.954 20.418 36.9494 20.3991 36.9407L20.1973 36.7402Z" fill="#FFFF00" stroke="black" stroke-width="0.0711113"/>
<path d="M20.0581 37.2033C19.9976 37.1432 20.0878 37.0523 20.1483 37.1125L20.3098 37.2728L20.2196 37.3636L20.0581 37.2033Z" fill="#000001"/>
<path d="M19.749 37.9572C19.6885 37.8971 19.7686 37.8163 19.8292 37.8765L19.9503 37.9967L19.8701 38.0775L19.749 37.9572Z" fill="#000001"/>
<path d="M20.8115 36.8888C20.751 36.8287 20.8311 36.748 20.8917 36.8081L21.0128 36.9284L20.9326 37.0091L20.8115 36.8888Z" fill="#000001"/>
<path d="M25.0127 25.5101C25.0269 24.7279 25.5816 24.543 25.5816 24.543C25.5958 24.543 26.1931 24.7421 26.1931 25.5243L25.0127 25.5101Z" fill="#FFFF00"/>
<path d="M24.5293 24.5572L24.4298 25.4532H25.0271C25.0271 24.7136 25.596 24.5999 25.596 24.5999C25.6102 24.5999 26.1649 24.7563 26.1791 25.4532H26.7764L26.6627 24.543L24.5293 24.5572ZM24.3871 25.4674H26.8049C26.8523 25.4674 26.8807 25.5006 26.8902 25.567C26.8902 25.6428 26.8618 25.6807 26.8049 25.6807H24.3871C24.3397 25.6807 24.3112 25.6428 24.3018 25.567C24.3018 25.5006 24.3349 25.4674 24.4013 25.4674H24.3871Z" fill="#FFFF00" stroke="black" stroke-width="0.0711113"/>
<path d="M25.2691 25.4537C25.2691 24.9843 25.5962 24.8563 25.5962 24.8563C25.5962 24.8563 25.9233 24.9986 25.9233 25.4537H25.2691ZM24.4442 24.1737H26.7624C26.8099 24.1832 26.8383 24.2211 26.8478 24.2875C26.8478 24.3349 26.8193 24.3633 26.7624 24.3728H24.4442C24.3968 24.3728 24.3684 24.3396 24.3589 24.2732C24.3589 24.2258 24.3873 24.1974 24.4442 24.1879V24.1737ZM24.5011 24.387H26.6913C26.7387 24.387 26.7672 24.4202 26.7767 24.4866C26.7862 24.5529 26.7577 24.5861 26.6913 24.5861H24.4869C24.43 24.5861 24.4016 24.5529 24.4016 24.4866C24.4016 24.4202 24.43 24.387 24.4869 24.387H24.5011ZM25.2122 22.8795H25.3829V22.9932H25.5109V22.8795H25.6958V23.0075H25.8238V22.8652H25.9944V23.1497C25.9944 23.2066 25.9707 23.235 25.9233 23.235H25.2976C25.2501 23.235 25.2217 23.2113 25.2122 23.1639V22.8795ZM25.8664 23.2635L25.9091 24.1737H25.2976L25.3402 23.2492H25.8664" fill="#FFFF00"/>
<path d="M25.8664 23.2635L25.9091 24.1737H25.2976L25.3402 23.2492H25.8664M25.2691 25.4537C25.2691 24.9843 25.5962 24.8563 25.5962 24.8563C25.5962 24.8563 25.9233 24.9986 25.9233 25.4537H25.2691ZM24.4442 24.1737H26.7624C26.8099 24.1832 26.8383 24.2211 26.8478 24.2875C26.8478 24.3349 26.8193 24.3633 26.7624 24.3728H24.4442C24.3968 24.3728 24.3684 24.3396 24.3589 24.2732C24.3589 24.2258 24.3873 24.1974 24.4442 24.1879V24.1737ZM24.5011 24.387H26.6913C26.7387 24.387 26.7672 24.4202 26.7767 24.4866C26.7862 24.5529 26.7577 24.5861 26.6913 24.5861H24.4869C24.43 24.5861 24.4016 24.5529 24.4016 24.4866C24.4016 24.4202 24.43 24.387 24.4869 24.387H24.5011ZM25.2122 22.8795H25.3829V22.9932H25.5109V22.8795H25.6958V23.0075H25.8238V22.8652H25.9944V23.1497C25.9944 23.2066 25.9707 23.235 25.9233 23.235H25.2976C25.2501 23.235 25.2217 23.2113 25.2122 23.1639V22.8795Z" stroke="black" stroke-width="0.0711113"/>
<path d="M25.1265 23.6895V24.173H24.5576V23.6895H25.1265Z" fill="#FFFF00" stroke="black" stroke-width="0.0711113"/>
<path d="M26.6343 23.6895V24.173H26.0654V23.6895H26.6343Z" fill="#FFFF00" stroke="black" stroke-width="0.0711113"/>
<path d="M24.458 23.3203H24.6287V23.4625H24.7567V23.3203H24.9273V23.4625H25.0553V23.3203H25.226V23.6048C25.226 23.6616 25.2023 23.6901 25.1549 23.6901H24.5433C24.5237 23.683 24.5059 23.6717 24.4912 23.6569C24.4764 23.6422 24.4651 23.6244 24.458 23.6048V23.3203Z" fill="#FFFF00" stroke="black" stroke-width="0.0711113"/>
<path d="M25.9658 23.3203H26.1365V23.4625H26.2645V23.3203H26.4352V23.4625H26.5632V23.3203H26.7338V23.6048C26.7338 23.6616 26.7101 23.6901 26.6627 23.6901H26.0512C26.0315 23.683 26.0137 23.6717 25.999 23.6569C25.9842 23.6422 25.9729 23.6244 25.9658 23.6048V23.3203Z" fill="#FFFF00" stroke="black" stroke-width="0.0711113"/>
<path d="M25.5391 23.5484C25.5391 23.463 25.6671 23.463 25.6671 23.5484V23.7759H25.5391V23.5484Z" fill="#000001"/>
<path d="M24.7852 23.8609C24.7852 23.7755 24.8989 23.7755 24.8989 23.8609V24.0315H24.7852V23.8609Z" fill="#000001"/>
<path d="M26.293 23.8609C26.293 23.7755 26.4067 23.7755 26.4067 23.8609V24.0315H26.293V23.8609Z" fill="#000001"/>
<path d="M32.6504 25.5101C32.6362 24.7279 32.0815 24.543 32.0815 24.543C32.0673 24.543 31.4699 24.7421 31.4699 25.5243L32.6504 25.5101Z" fill="#FFFF00"/>
<path d="M33.1338 24.5572L33.2333 25.4532H32.636C32.636 24.7136 32.0671 24.5999 32.0671 24.5999C32.0529 24.5999 31.4982 24.7563 31.484 25.4532H30.8867L31.0004 24.543L33.1338 24.5572ZM33.276 25.4674H30.8582C30.8108 25.4674 30.7824 25.5006 30.7729 25.567C30.7729 25.6428 30.8013 25.6807 30.8582 25.6807H33.276C33.3234 25.6807 33.3518 25.6428 33.3613 25.567C33.3613 25.5006 33.3281 25.4674 33.2618 25.4674H33.276Z" fill="#FFFF00" stroke="black" stroke-width="0.0711113"/>
<path d="M32.3945 25.4537C32.3945 24.9843 32.0674 24.8563 32.0674 24.8563C32.0674 24.8563 31.7402 24.9986 31.7402 25.4537H32.3945ZM33.2194 24.1737H30.9011C30.8537 24.1832 30.8253 24.2211 30.8158 24.2875C30.8158 24.3349 30.8442 24.3633 30.9011 24.3728H33.2194C33.2668 24.3728 33.2952 24.3396 33.3047 24.2732C33.3047 24.2258 33.2762 24.1974 33.2194 24.1879V24.1737ZM33.1625 24.387H30.9722C30.9248 24.387 30.8964 24.4202 30.8869 24.4866C30.8774 24.5529 30.9059 24.5861 30.9722 24.5861H33.1767C33.2336 24.5861 33.262 24.5529 33.262 24.4866C33.262 24.4202 33.2336 24.387 33.1767 24.387H33.1625ZM32.4514 22.8795H32.2807V22.9932H32.1527V22.8795H31.9678V23.0075H31.8398V22.8652H31.6691V23.1497C31.6691 23.2066 31.6928 23.235 31.7402 23.235H32.366C32.4134 23.235 32.4419 23.2113 32.4514 23.1639V22.8795ZM31.7971 23.2635L31.7545 24.1737H32.366L32.3234 23.2492H31.7971" fill="#FFFF00"/>
<path d="M31.7971 23.2635L31.7545 24.1737H32.366L32.3234 23.2492H31.7971M32.3945 25.4537C32.3945 24.9843 32.0674 24.8563 32.0674 24.8563C32.0674 24.8563 31.7402 24.9986 31.7402 25.4537H32.3945ZM33.2194 24.1737H30.9011C30.8537 24.1832 30.8253 24.2211 30.8158 24.2875C30.8158 24.3349 30.8442 24.3633 30.9011 24.3728H33.2194C33.2668 24.3728 33.2952 24.3396 33.3047 24.2732C33.3047 24.2258 33.2762 24.1974 33.2194 24.1879V24.1737ZM33.1625 24.387H30.9722C30.9248 24.387 30.8964 24.4202 30.8869 24.4866C30.8774 24.5529 30.9059 24.5861 30.9722 24.5861H33.1767C33.2336 24.5861 33.262 24.5529 33.262 24.4866C33.262 24.4202 33.2336 24.387 33.1767 24.387H33.1625ZM32.4514 22.8795H32.2807V22.9932H32.1527V22.8795H31.9678V23.0075H31.8398V22.8652H31.6691V23.1497C31.6691 23.2066 31.6928 23.235 31.7402 23.235H32.366C32.4134 23.235 32.4419 23.2113 32.4514 23.1639V22.8795Z" stroke="black" stroke-width="0.0711113"/>
<path d="M32.5366 23.6895V24.173H33.1055V23.6895H32.5366Z" fill="#FFFF00" stroke="black" stroke-width="0.0711113"/>
<path d="M31.0288 23.6895V24.173H31.5977V23.6895H31.0288Z" fill="#FFFF00" stroke="black" stroke-width="0.0711113"/>
<path d="M33.2051 23.3203H33.0344V23.4625H32.9064V23.3203H32.7357V23.4625H32.6077V23.3203H32.4371V23.6048C32.4371 23.6616 32.4608 23.6901 32.5082 23.6901H33.1197C33.1394 23.683 33.1572 23.6717 33.1719 23.6569C33.1867 23.6422 33.198 23.6244 33.2051 23.6048V23.3203Z" fill="#FFFF00" stroke="black" stroke-width="0.0711113"/>
<path d="M31.6973 23.3203H31.5266V23.4625H31.3986V23.3203H31.2279V23.4625H31.0999V23.3203H30.9293V23.6048C30.9293 23.6616 30.953 23.6901 31.0004 23.6901H31.6119C31.6315 23.683 31.6494 23.6717 31.6641 23.6569C31.6788 23.6422 31.6902 23.6244 31.6973 23.6048V23.3203Z" fill="#FFFF00" stroke="black" stroke-width="0.0711113"/>
<path d="M32.124 23.5484C32.124 23.463 31.996 23.463 31.996 23.5484V23.7759H32.124V23.5484Z" fill="#000001"/>
<path d="M32.8779 23.8609C32.8779 23.7755 32.7642 23.7755 32.7642 23.8609V24.0315H32.8779V23.8609Z" fill="#000001"/>
<path d="M31.3701 23.8609C31.3701 23.7755 31.2563 23.7755 31.2563 23.8609V24.0315H31.3701V23.8609Z" fill="#000001"/>
<path d="M32.6504 32.0941C32.6362 31.3118 32.0815 31.127 32.0815 31.127C32.0673 31.127 31.4699 31.3261 31.4699 32.1083L32.6504 32.0941Z" fill="#FFFF00"/>
<path d="M33.1338 31.1412L33.2333 32.0372H32.636C32.636 31.2976 32.0671 31.1838 32.0671 31.1838C32.0529 31.1838 31.4982 31.3403 31.484 32.0372H30.8867L31.0004 31.127L33.1338 31.1412ZM33.276 32.0514H30.8582C30.8108 32.0514 30.7824 32.0846 30.7729 32.151C30.7729 32.2268 30.8013 32.2647 30.8582 32.2647H33.276C33.3234 32.2647 33.3518 32.2268 33.3613 32.151C33.3613 32.0846 33.3281 32.0514 33.2618 32.0514H33.276Z" fill="#FFFF00" stroke="black" stroke-width="0.0711113"/>
<path d="M32.3945 32.0377C32.3945 31.5683 32.0674 31.4403 32.0674 31.4403C32.0674 31.4403 31.7402 31.5826 31.7402 32.0377H32.3945ZM33.2194 30.7577H30.9011C30.8537 30.7671 30.8253 30.8051 30.8158 30.8714C30.8158 30.9189 30.8442 30.9473 30.9011 30.9568H33.2194C33.2668 30.9568 33.2952 30.9236 33.3047 30.8572C33.3047 30.8098 33.2762 30.7814 33.2194 30.7719V30.7577ZM33.1625 30.971H30.9722C30.9248 30.971 30.8964 31.0042 30.8869 31.0706C30.8774 31.1369 30.9059 31.1701 30.9722 31.1701H33.1767C33.2336 31.1701 33.262 31.1369 33.262 31.0706C33.262 31.0042 33.2336 30.971 33.1767 30.971H33.1625ZM32.4514 29.4634H32.2807V29.5772H32.1527V29.4634H31.9678V29.5914H31.8398V29.4492H31.6691V29.7337C31.6691 29.7906 31.6928 29.819 31.7402 29.819H32.366C32.4134 29.819 32.4419 29.7953 32.4514 29.7479V29.4634ZM31.7971 29.8474L31.7545 30.7577H32.366L32.3234 29.8332H31.7971" fill="#FFFF00"/>
<path d="M31.7971 29.8474L31.7545 30.7577H32.366L32.3234 29.8332H31.7971M32.3945 32.0377C32.3945 31.5683 32.0674 31.4403 32.0674 31.4403C32.0674 31.4403 31.7402 31.5826 31.7402 32.0377H32.3945ZM33.2194 30.7577H30.9011C30.8537 30.7671 30.8253 30.8051 30.8158 30.8714C30.8158 30.9189 30.8442 30.9473 30.9011 30.9568H33.2194C33.2668 30.9568 33.2952 30.9236 33.3047 30.8572C33.3047 30.8098 33.2762 30.7814 33.2194 30.7719V30.7577ZM33.1625 30.971H30.9722C30.9248 30.971 30.8964 31.0042 30.8869 31.0706C30.8774 31.1369 30.9059 31.1701 30.9722 31.1701H33.1767C33.2336 31.1701 33.262 31.1369 33.262 31.0706C33.262 31.0042 33.2336 30.971 33.1767 30.971H33.1625ZM32.4514 29.4634H32.2807V29.5772H32.1527V29.4634H31.9678V29.5914H31.8398V29.4492H31.6691V29.7337C31.6691 29.7906 31.6928 29.819 31.7402 29.819H32.366C32.4134 29.819 32.4419 29.7953 32.4514 29.7479V29.4634Z" stroke="black" stroke-width="0.0711113"/>
<path d="M32.5366 30.2734V30.757H33.1055V30.2734H32.5366Z" fill="#FFFF00" stroke="black" stroke-width="0.0711113"/>
<path d="M31.0288 30.2734V30.757H31.5977V30.2734H31.0288Z" fill="#FFFF00" stroke="black" stroke-width="0.0711113"/>
<path d="M33.2051 29.9043H33.0344V30.0465H32.9064V29.9043H32.7357V30.0465H32.6077V29.9043H32.4371V30.1887C32.4371 30.2456 32.4608 30.2741 32.5082 30.2741H33.1197C33.1394 30.267 33.1572 30.2557 33.1719 30.2409C33.1867 30.2262 33.198 30.2084 33.2051 30.1887V29.9043Z" fill="#FFFF00" stroke="black" stroke-width="0.0711113"/>
<path d="M31.6973 29.9043H31.5266V30.0465H31.3986V29.9043H31.2279V30.0465H31.0999V29.9043H30.9293V30.1887C30.9293 30.2456 30.953 30.2741 31.0004 30.2741H31.6119C31.6315 30.267 31.6494 30.2557 31.6641 30.2409C31.6788 30.2262 31.6902 30.2084 31.6973 30.1887V29.9043Z" fill="#FFFF00" stroke="black" stroke-width="0.0711113"/>
<path d="M32.124 30.1324C32.124 30.047 31.996 30.047 31.996 30.1324V30.3599H32.124V30.1324Z" fill="#000001"/>
<path d="M32.8779 30.4449C32.8779 30.3595 32.7642 30.3595 32.7642 30.4449V30.6155H32.8779V30.4449Z" fill="#000001"/>
<path d="M31.3701 30.4449C31.3701 30.3595 31.2563 30.3595 31.2563 30.4449V30.6155H31.3701V30.4449Z" fill="#000001"/>
<path d="M30.0843 38.9588C30.6293 38.3975 30.3696 37.8737 30.3696 37.8737C30.3596 37.8636 29.7974 37.58 29.2424 38.1312L30.0843 38.9588Z" fill="#FFFF00"/>
<path d="M31.101 38.6298L30.5354 39.3318L30.1145 38.9079C30.6393 38.3868 30.3192 37.903 30.3192 37.903C30.3091 37.8929 29.8073 37.6096 29.3028 38.0905L28.8819 37.6667L29.6079 37.106L31.101 38.6298ZM30.5554 39.3721L28.8517 37.6565C28.8183 37.6229 28.7747 37.6261 28.721 37.6661C28.6672 37.7196 28.6603 37.7665 28.7004 37.8068L30.404 39.5224C30.4374 39.5561 30.4844 39.5495 30.5449 39.5028C30.592 39.456 30.5921 39.4091 30.5454 39.362L30.5554 39.3721Z" fill="#FFFF00" stroke="black" stroke-width="0.0711113"/>
<path d="M29.9438 38.7366C30.2768 38.4059 30.1372 38.0836 30.1372 38.0836C30.1372 38.0836 29.8058 37.9517 29.4828 38.2724L29.9438 38.7366ZM31.4333 38.42L29.7998 36.7751C29.7597 36.7481 29.7127 36.7547 29.6589 36.7947C29.6253 36.8281 29.6252 36.8683 29.6585 36.9154L31.292 38.5603C31.3254 38.594 31.369 38.5908 31.4228 38.5507C31.4564 38.5173 31.4566 38.4771 31.4232 38.43L31.4333 38.42ZM31.2418 38.53L29.6985 36.9759C29.6651 36.9422 29.6215 36.9454 29.5678 36.9855C29.514 37.0255 29.5105 37.0691 29.5573 37.1162L31.1106 38.6804C31.1507 38.7207 31.1943 38.7175 31.2414 38.6708C31.2885 38.624 31.292 38.5804 31.2519 38.5401L31.2418 38.53ZM31.8105 36.9631L31.6902 36.842L31.6095 36.9222L31.5193 36.8314L31.6 36.7512L31.4698 36.62L31.3789 36.7102L31.2887 36.6194L31.3897 36.5192L31.2694 36.398L31.0676 36.5985C31.0272 36.6386 31.0237 36.6754 31.0571 36.7091L31.4981 37.1531C31.5315 37.1867 31.5683 37.1902 31.6087 37.1635L31.8105 36.9631ZM31.077 36.7695L30.4011 37.3806L30.832 37.8145L31.4579 37.1328L31.0871 36.7595" fill="#FFFF00"/>
<path d="M31.077 36.7695L30.4011 37.3806L30.832 37.8145L31.4579 37.1328L31.0871 36.7595M29.9438 38.7366C30.2768 38.4059 30.1372 38.0836 30.1372 38.0836C30.1372 38.0836 29.8058 37.9517 29.4828 38.2724L29.9438 38.7366ZM31.4333 38.42L29.7998 36.7751C29.7597 36.7481 29.7127 36.7547 29.6589 36.7947C29.6253 36.8281 29.6252 36.8683 29.6585 36.9154L31.292 38.5603C31.3254 38.594 31.369 38.5908 31.4228 38.5507C31.4564 38.5173 31.4566 38.4771 31.4232 38.43L31.4333 38.42ZM31.2418 38.53L29.6985 36.9759C29.6651 36.9422 29.6215 36.9454 29.5678 36.9855C29.514 37.0255 29.5105 37.0691 29.5573 37.1162L31.1106 38.6804C31.1507 38.7207 31.1943 38.7175 31.2414 38.6708C31.2885 38.624 31.292 38.5804 31.2519 38.5401L31.2418 38.53ZM31.8105 36.9631L31.6902 36.842L31.6095 36.9222L31.5193 36.8314L31.6 36.7512L31.4698 36.62L31.3789 36.7102L31.2887 36.6194L31.3897 36.5192L31.2694 36.398L31.0676 36.5985C31.0272 36.6386 31.0237 36.6754 31.0571 36.7091L31.4981 37.1531C31.5315 37.1867 31.5683 37.1902 31.6087 37.1635L31.8105 36.9631Z" stroke="black" stroke-width="0.0711113"/>
<path d="M31.2954 37.5963L30.9523 37.9371L31.3532 38.3407L31.6963 38L31.2954 37.5963Z" fill="#FFFF00" stroke="black" stroke-width="0.0711113"/>
<path d="M30.2334 36.526L29.8903 36.8667L30.2912 37.2704L30.6343 36.9297L30.2334 36.526Z" fill="#FFFF00" stroke="black" stroke-width="0.0711113"/>
<path d="M32.0293 37.8086L31.909 37.6875L31.8081 37.7877L31.7179 37.6969L31.8188 37.5967L31.6986 37.4756L31.5977 37.5758L31.5075 37.485L31.6084 37.3847L31.4881 37.2636L31.2863 37.4641C31.2459 37.5042 31.2425 37.541 31.2759 37.5747L31.7068 38.0086C31.7256 38.0175 31.7462 38.0222 31.7671 38.0222C31.7879 38.0223 31.8085 38.0178 31.8275 38.009L32.0293 37.8086Z" fill="#FFFF00" stroke="black" stroke-width="0.0711113"/>
<path d="M30.9668 36.7402L30.8465 36.6191L30.7456 36.7193L30.6554 36.6285L30.7563 36.5283L30.6361 36.4072L30.5352 36.5074L30.445 36.4166L30.5459 36.3164L30.4256 36.1953L30.2238 36.3957C30.1834 36.4358 30.18 36.4727 30.2134 36.5063L30.6443 36.9402C30.6631 36.9492 30.6837 36.9538 30.7046 36.9539C30.7254 36.954 30.746 36.9494 30.765 36.9407L30.9668 36.7402Z" fill="#FFFF00" stroke="black" stroke-width="0.0711113"/>
<path d="M31.106 37.2033C31.1665 37.1432 31.0763 37.0523 31.0158 37.1125L30.8543 37.2728L30.9445 37.3636L31.106 37.2033Z" fill="#000001"/>
<path d="M31.4145 37.9572C31.4751 37.8971 31.3949 37.8163 31.3344 37.8765L31.2133 37.9967L31.2934 38.0775L31.4145 37.9572Z" fill="#000001"/>
<path d="M30.3525 36.8888C30.4131 36.8287 30.3329 36.748 30.2724 36.8081L30.1513 36.9284L30.2314 37.0091L30.3525 36.8888Z" fill="#000001"/>
<path d="M24.5433 32.3368C24.5362 32.6378 24.6487 32.9293 24.8562 33.1475C24.95 33.2551 25.0659 33.3412 25.1959 33.4001C25.326 33.459 25.4672 33.4893 25.61 33.4888C25.9134 33.4698 26.1646 33.356 26.3637 33.1475C26.5712 32.9293 26.6837 32.6378 26.6766 32.3368V30.8008H24.5433V32.3368Z" fill="#003399"/>
<path d="M25.041 31.5966C25.1588 31.5966 25.2543 31.5011 25.2543 31.3833C25.2543 31.2654 25.1588 31.1699 25.041 31.1699C24.9231 31.1699 24.8276 31.2654 24.8276 31.3833C24.8276 31.5011 24.9231 31.5966 25.041 31.5966Z" fill="white"/>
<path d="M26.2216 31.5966C26.3395 31.5966 26.435 31.5011 26.435 31.3833C26.435 31.2654 26.3395 31.1699 26.2216 31.1699C26.1038 31.1699 26.0083 31.2654 26.0083 31.3833C26.0083 31.5011 26.1038 31.5966 26.2216 31.5966Z" fill="white"/>
<path d="M25.624 32.1669C25.7418 32.1669 25.8373 32.0714 25.8373 31.9536C25.8373 31.8357 25.7418 31.7402 25.624 31.7402C25.5062 31.7402 25.4106 31.8357 25.4106 31.9536C25.4106 32.0714 25.5062 32.1669 25.624 32.1669Z" fill="white"/>
<path d="M25.041 32.7626C25.1588 32.7626 25.2543 32.6671 25.2543 32.5493C25.2543 32.4315 25.1588 32.3359 25.041 32.3359C24.9231 32.3359 24.8276 32.4315 24.8276 32.5493C24.8276 32.6671 24.9231 32.7626 25.041 32.7626Z" fill="white"/>
<path d="M26.2216 32.7626C26.3395 32.7626 26.435 32.6671 26.435 32.5493C26.435 32.4315 26.3395 32.3359 26.2216 32.3359C26.1038 32.3359 26.0083 32.4315 26.0083 32.5493C26.0083 32.6671 26.1038 32.7626 26.2216 32.7626Z" fill="white"/>
<path d="M24.5433 28.6395C24.5362 28.9405 24.6487 29.232 24.8562 29.4502C24.95 29.5578 25.0659 29.644 25.1959 29.7029C25.326 29.7618 25.4672 29.792 25.61 29.7915C25.9134 29.7726 26.1646 29.6588 26.3637 29.4502C26.5712 29.232 26.6837 28.9405 26.6766 28.6395V27.1035H24.5433V28.6395Z" fill="#003399"/>
<path d="M25.041 27.8993C25.1588 27.8993 25.2543 27.8038 25.2543 27.686C25.2543 27.5682 25.1588 27.4727 25.041 27.4727C24.9231 27.4727 24.8276 27.5682 24.8276 27.686C24.8276 27.8038 24.9231 27.8993 25.041 27.8993Z" fill="white"/>
<path d="M26.2216 27.8993C26.3395 27.8993 26.435 27.8038 26.435 27.686C26.435 27.5682 26.3395 27.4727 26.2216 27.4727C26.1038 27.4727 26.0083 27.5682 26.0083 27.686C26.0083 27.8038 26.1038 27.8993 26.2216 27.8993Z" fill="white"/>
<path d="M25.624 28.4696C25.7418 28.4696 25.8373 28.3741 25.8373 28.2563C25.8373 28.1385 25.7418 28.043 25.624 28.043C25.5062 28.043 25.4106 28.1385 25.4106 28.2563C25.4106 28.3741 25.5062 28.4696 25.624 28.4696Z" fill="white"/>
<path d="M25.041 29.0653C25.1588 29.0653 25.2543 28.9698 25.2543 28.852C25.2543 28.7342 25.1588 28.6387 25.041 28.6387C24.9231 28.6387 24.8276 28.7342 24.8276 28.852C24.8276 28.9698 24.9231 29.0653 25.041 29.0653Z" fill="white"/>
<path d="M26.2216 29.0653C26.3395 29.0653 26.435 28.9698 26.435 28.852C26.435 28.7342 26.3395 28.6387 26.2216 28.6387C26.1038 28.6387 26.0083 28.7342 26.0083 28.852C26.0083 28.9698 26.1038 29.0653 26.2216 29.0653Z" fill="white"/>
<path d="M21.5853 32.3368C21.5782 32.6378 21.6907 32.9293 21.8982 33.1475C21.992 33.2551 22.1079 33.3412 22.2379 33.4001C22.368 33.459 22.5092 33.4893 22.6519 33.4888C22.9554 33.4698 23.2066 33.356 23.4057 33.1475C23.6132 32.9293 23.7257 32.6378 23.7186 32.3368V30.8008H21.5853V32.3368Z" fill="#003399"/>
<path d="M22.083 31.5966C22.2008 31.5966 22.2963 31.5011 22.2963 31.3833C22.2963 31.2654 22.2008 31.1699 22.083 31.1699C21.9651 31.1699 21.8696 31.2654 21.8696 31.3833C21.8696 31.5011 21.9651 31.5966 22.083 31.5966Z" fill="white"/>
<path d="M23.2636 31.5966C23.3814 31.5966 23.477 31.5011 23.477 31.3833C23.477 31.2654 23.3814 31.1699 23.2636 31.1699C23.1458 31.1699 23.0503 31.2654 23.0503 31.3833C23.0503 31.5011 23.1458 31.5966 23.2636 31.5966Z" fill="white"/>
<path d="M22.666 32.1669C22.7838 32.1669 22.8793 32.0714 22.8793 31.9536C22.8793 31.8357 22.7838 31.7402 22.666 31.7402C22.5481 31.7402 22.4526 31.8357 22.4526 31.9536C22.4526 32.0714 22.5481 32.1669 22.666 32.1669Z" fill="white"/>
<path d="M22.083 32.7626C22.2008 32.7626 22.2963 32.6671 22.2963 32.5493C22.2963 32.4315 22.2008 32.3359 22.083 32.3359C21.9651 32.3359 21.8696 32.4315 21.8696 32.5493C21.8696 32.6671 21.9651 32.7626 22.083 32.7626Z" fill="white"/>
<path d="M23.2636 32.7626C23.3814 32.7626 23.477 32.6671 23.477 32.5493C23.477 32.4315 23.3814 32.3359 23.2636 32.3359C23.1458 32.3359 23.0503 32.4315 23.0503 32.5493C23.0503 32.6671 23.1458 32.7626 23.2636 32.7626Z" fill="white"/>
<path d="M27.5018 32.3368C27.4947 32.6378 27.6072 32.9293 27.8147 33.1475C27.9085 33.2551 28.0244 33.3412 28.1544 33.4001C28.2845 33.459 28.4257 33.4893 28.5684 33.4888C28.8719 33.4698 29.1231 33.356 29.3222 33.1475C29.5297 32.9293 29.6422 32.6378 29.6351 32.3368V30.8008H27.5018V32.3368Z" fill="#003399"/>
<path d="M27.9995 31.5966C28.1173 31.5966 28.2128 31.5011 28.2128 31.3833C28.2128 31.2654 28.1173 31.1699 27.9995 31.1699C27.8816 31.1699 27.7861 31.2654 27.7861 31.3833C27.7861 31.5011 27.8816 31.5966 27.9995 31.5966Z" fill="white"/>
<path d="M29.1801 31.5966C29.298 31.5966 29.3935 31.5011 29.3935 31.3833C29.3935 31.2654 29.298 31.1699 29.1801 31.1699C29.0623 31.1699 28.9668 31.2654 28.9668 31.3833C28.9668 31.5011 29.0623 31.5966 29.1801 31.5966Z" fill="white"/>
<path d="M28.5825 32.1669C28.7003 32.1669 28.7958 32.0714 28.7958 31.9536C28.7958 31.8357 28.7003 31.7402 28.5825 31.7402C28.4647 31.7402 28.3691 31.8357 28.3691 31.9536C28.3691 32.0714 28.4647 32.1669 28.5825 32.1669Z" fill="white"/>
<path d="M27.9995 32.7626C28.1173 32.7626 28.2128 32.6671 28.2128 32.5493C28.2128 32.4315 28.1173 32.3359 27.9995 32.3359C27.8816 32.3359 27.7861 32.4315 27.7861 32.5493C27.7861 32.6671 27.8816 32.7626 27.9995 32.7626Z" fill="white"/>
<path d="M29.1801 32.7626C29.298 32.7626 29.3935 32.6671 29.3935 32.5493C29.3935 32.4315 29.298 32.3359 29.1801 32.3359C29.0623 32.3359 28.9668 32.4315 28.9668 32.5493C28.9668 32.6671 29.0623 32.7626 29.1801 32.7626Z" fill="white"/>
<path d="M24.5433 36.0048C24.5362 36.3057 24.6487 36.5972 24.8562 36.8154C24.95 36.923 25.0659 37.0092 25.1959 37.0681C25.326 37.127 25.4672 37.1572 25.61 37.1568C25.9134 37.1378 26.1646 37.024 26.3637 36.8154C26.5712 36.5972 26.6837 36.3057 26.6766 36.0048V34.4688H24.5433V36.0048Z" fill="#003399"/>
<path d="M25.041 35.2646C25.1588 35.2646 25.2543 35.169 25.2543 35.0512C25.2543 34.9334 25.1588 34.8379 25.041 34.8379C24.9231 34.8379 24.8276 34.9334 24.8276 35.0512C24.8276 35.169 24.9231 35.2646 25.041 35.2646Z" fill="white"/>
<path d="M26.2216 35.2646C26.3395 35.2646 26.435 35.169 26.435 35.0512C26.435 34.9334 26.3395 34.8379 26.2216 34.8379C26.1038 34.8379 26.0083 34.9334 26.0083 35.0512C26.0083 35.169 26.1038 35.2646 26.2216 35.2646Z" fill="white"/>
<path d="M25.624 35.8349C25.7418 35.8349 25.8373 35.7394 25.8373 35.6215C25.8373 35.5037 25.7418 35.4082 25.624 35.4082C25.5062 35.4082 25.4106 35.5037 25.4106 35.6215C25.4106 35.7394 25.5062 35.8349 25.624 35.8349Z" fill="white"/>
<path d="M25.041 36.4306C25.1588 36.4306 25.2543 36.3351 25.2543 36.2172C25.2543 36.0994 25.1588 36.0039 25.041 36.0039C24.9231 36.0039 24.8276 36.0994 24.8276 36.2172C24.8276 36.3351 24.9231 36.4306 25.041 36.4306Z" fill="white"/>
<path d="M26.2216 36.4306C26.3395 36.4306 26.435 36.3351 26.435 36.2172C26.435 36.0994 26.3395 36.0039 26.2216 36.0039C26.1038 36.0039 26.0083 36.0994 26.0083 36.2172C26.0083 36.3351 26.1038 36.4306 26.2216 36.4306Z" fill="white"/>
<g clip-path="url(#clip1_647_1943)">
<path d="M0 0H64V64H0V0Z" fill="#006B3F"/>
<path d="M0 0H64V42.6625H0V0Z" fill="#FCD116"/>
<path d="M0 0H64V21.3375H0V0Z" fill="#CE1126"/>
<path d="M32.0001 21.3379L38.9376 42.6629L20.7876 29.5004H43.2126L25.0751 42.6629L32.0001 21.3379Z" fill="#000001"/>
</g>
<g clip-path="url(#clip2_647_1943)">
<path fill-rule="evenodd" clip-rule="evenodd" d="M0 0H64V64H0V0Z" fill="white"/>
<path fill-rule="evenodd" clip-rule="evenodd" d="M2.74658 20.9434L10.5491 9.244L12.499 10.5444L4.69647 22.2438L2.74658 20.9434ZM5.67142 22.894L13.4739 11.1946L15.4238 12.495L7.62131 24.1944L5.67142 22.894ZM8.59626 24.8446L16.3988 13.1453L18.3487 14.4457L10.5462 26.145L8.59626 24.8446Z" fill="#000001"/>
<path fill-rule="evenodd" clip-rule="evenodd" d="M45.6445 49.5527L53.447 37.8534L55.3969 39.1538L47.5944 50.8532L45.6445 49.5527ZM48.5694 51.5034L56.3719 39.804L58.3218 41.1044L50.5193 52.8038L48.5694 51.5034ZM51.4942 53.454L59.2967 41.7546L61.2466 43.055L53.4441 54.7544L51.4942 53.454Z" fill="#000001"/>
<path fill-rule="evenodd" clip-rule="evenodd" d="M48.5713 43.0527L58.3208 49.5548L48.5713 43.0527Z" fill="black"/>
<path d="M48.5713 43.0527L58.3208 49.5548" stroke="white" stroke-width="1.17188"/>
<path fill-rule="evenodd" clip-rule="evenodd" d="M20.2974 24.1973C22.3667 21.0944 25.5839 18.9407 29.2412 18.2099C32.8985 17.4791 36.6964 18.2311 39.7992 20.3004C42.9021 22.3698 45.0558 25.587 45.7866 29.2443C46.5174 32.9016 45.7654 36.6994 43.6961 39.8023L20.2974 24.1973Z" fill="#CD2E3A"/>
<path fill-rule="evenodd" clip-rule="evenodd" d="M20.2976 24.1971C18.2283 27.3 17.4763 31.0978 18.2071 34.7551C18.9379 38.4124 21.0916 41.6296 24.1945 43.699C27.2973 45.7683 31.0952 46.5203 34.7525 45.7895C38.4098 45.0587 41.627 42.905 43.6963 39.8021C44.731 38.2507 45.107 36.3518 44.7416 34.5231C44.3762 32.6945 43.2993 31.0859 41.7479 30.0512C40.1965 29.0165 38.2976 28.6405 36.4689 29.0059C34.6403 29.3713 33.0316 30.4482 31.997 31.9996L20.2976 24.1971Z" fill="#0047A0"/>
<path d="M31.9966 31.9997C34.1512 28.769 33.2789 24.4034 30.0482 22.2488C26.8175 20.0942 22.4518 20.9665 20.2972 24.1972C18.1426 27.4279 19.015 31.7935 22.2457 33.9481C25.4764 36.1027 29.842 35.2304 31.9966 31.9997Z" fill="#CD2E3A"/>
<path fill-rule="evenodd" clip-rule="evenodd" d="M10.5557 54.7539L2.75316 43.0546L4.70306 41.7541L12.5056 53.4535L10.5557 54.7539ZM13.4805 52.8033L5.678 41.1039L7.6279 39.8035L15.4304 51.5029L13.4805 52.8033ZM16.4053 50.8527L8.60284 39.1533L10.5527 37.8529L18.3552 49.5522L16.4053 50.8527Z" fill="#000001"/>
<path fill-rule="evenodd" clip-rule="evenodd" d="M53.4531 26.1445L45.6506 14.4452L47.6005 13.1448L55.403 24.8441L53.4531 26.1445ZM56.378 24.1939L48.5755 12.4946L50.5254 11.1941L58.3279 22.8935L56.378 24.1939ZM59.3028 22.2433L51.5003 10.5439L53.4502 9.24351L61.2527 20.9429L59.3028 22.2433Z" fill="#000001"/>
<path fill-rule="evenodd" clip-rule="evenodd" d="M9.0918 47.2793L12.0166 45.3287L9.0918 47.2793ZM48.5771 20.9459L51.9894 18.6701L48.5771 20.9459ZM54.9143 16.7195L57.8391 14.7689L54.9143 16.7195Z" fill="black"/>
<path d="M9.0918 47.2793L12.0166 45.3287M48.5771 20.9459L51.9894 18.6701M54.9143 16.7195L57.8391 14.7689" stroke="white" stroke-width="1.17188"/>
</g>
<g clip-path="url(#clip3_647_1943)">
<path d="M0 0H64V64H0V0Z" fill="white"/>
<path d="M0 0H64V19.2H0V0Z" fill="#000001"/>
<path d="M0 44.8008H64V64.0008H0V44.8008Z" fill="#006600"/>
<path d="M20.5352 50.9996L21.2552 51.3996L39.9352 18.9996C41.0152 18.7596 41.6152 17.7196 42.2152 16.6796C42.6152 15.9596 44.2152 13.1996 44.8952 9.59961C42.9975 11.286 41.3894 13.2724 40.1352 15.4796C39.5352 16.5196 38.9352 17.5596 39.2152 18.6396L20.5352 50.9996Z" fill="black" stroke="black" stroke-width="0.4"/>
<path d="M20.5352 50.9996L21.2552 51.3996L39.9352 18.9996C41.0152 18.7596 41.6152 17.7196 42.2152 16.6796C42.6152 15.9596 44.2152 13.1996 44.8952 9.59961C42.9975 11.286 41.3894 13.2724 40.1352 15.4796C39.5352 16.5196 38.9352 17.5596 39.2152 18.6396L20.5352 50.9996Z" fill="white"/>
<path d="M43.4277 50.9996L42.7077 51.3996L24.0277 18.9996C22.9477 18.7596 22.3477 17.7196 21.7477 16.6796C21.3477 15.9596 19.7477 13.1996 19.0677 9.59961C20.9654 11.286 22.5735 13.2724 23.8277 15.4796C24.4277 16.5196 25.0277 17.5596 24.7477 18.6396L43.4277 50.9996Z" fill="black" stroke="black" stroke-width="0.4"/>
<path d="M43.4277 50.9996L42.7077 51.3996L24.0277 18.9996C22.9477 18.7596 22.3477 17.7196 21.7477 16.6796C21.3477 15.9596 19.7477 13.1996 19.0677 9.59961C20.9654 11.286 22.5735 13.2724 23.8277 15.4796C24.4277 16.5196 25.0277 17.5596 24.7477 18.6396L43.4277 50.9996Z" fill="white"/>
<path d="M31.975 12.8008C29.575 12.8008 25.575 19.2008 24.375 22.4008H0V41.6008H24.375C25.5875 44.8008 29.5875 51.2008 31.9875 51.2008C34.3875 51.2008 38.3875 44.8008 39.5875 41.6008H64V22.4008H39.575C38.375 19.2008 34.375 12.8008 31.975 12.8008Z" fill="#BB0000"/>
<path d="M39.5752 41.6004C40.8116 38.5461 41.4891 35.2944 41.5752 32.0004C41.4891 28.7064 40.8116 25.4547 39.5752 22.4004C38.3388 25.4547 37.6613 28.7064 37.5752 32.0004C37.6613 35.2944 38.3388 38.5461 39.5752 41.6004Z" fill="black"/>
<path d="M24.3877 41.6004C23.1513 38.5461 22.4738 35.2944 22.3877 32.0004C22.4738 28.7064 23.1513 25.4547 24.3877 22.4004C25.6241 25.4547 26.3016 28.7064 26.3877 32.0004C26.3016 35.2944 25.6241 38.5461 24.3877 41.6004Z" fill="black"/>
<path d="M31.975 34.3996C32.8587 34.3996 33.575 33.3251 33.575 31.9996C33.575 30.6741 32.8587 29.5996 31.975 29.5996C31.0913 29.5996 30.375 30.6741 30.375 31.9996C30.375 33.3251 31.0913 34.3996 31.975 34.3996Z" fill="white"/>
<path d="M32.375 34.3184C32.375 34.3184 33.975 37.5184 33.975 42.7184C33.975 47.9184 32.375 51.1184 32.375 51.1184V34.3184Z" fill="white"/>
<path d="M31.5752 29.6797C31.5752 29.6797 29.9752 26.4797 29.9752 21.2797C29.9752 16.0797 31.5752 12.8797 31.5752 12.8797V29.6797Z" fill="white"/>
<path d="M31.5752 34.3184C31.5752 34.3184 29.9752 37.5184 29.9752 42.7184C29.9752 47.9184 31.5752 51.1184 31.5752 51.1184V34.3184Z" fill="white"/>
<path d="M32.375 29.6797C32.375 29.6797 33.975 26.4797 33.975 21.2797C33.975 16.0797 32.375 12.8797 32.375 12.8797V29.6797Z" fill="white"/>
</g>
<g clip-path="url(#clip4_647_1943)">
<path fill-rule="evenodd" clip-rule="evenodd" d="M0 0H64V64H0V0Z" fill="#E30A17"/>
<path fill-rule="evenodd" clip-rule="evenodd" d="M43.6002 32.9992C43.6002 41.8242 36.3127 48.9867 27.3377 48.9867C18.3627 48.9867 11.0752 41.8242 11.0752 32.9867C11.0752 24.1492 18.3502 17.0117 27.3252 17.0117C36.3002 17.0117 43.6127 24.1617 43.6127 32.9992H43.6002Z" fill="white"/>
<path fill-rule="evenodd" clip-rule="evenodd" d="M44.4124 33.0004C44.4124 40.0629 38.5874 45.7879 31.3999 45.7879C24.2124 45.7879 18.3999 40.0629 18.3999 33.0004C18.3999 25.9379 24.2124 20.2129 31.3999 20.2129C38.5874 20.2129 44.3999 25.9379 44.3999 33.0004H44.4124Z" fill="#E30A17"/>
<path fill-rule="evenodd" clip-rule="evenodd" d="M46.7623 25.5254L46.6373 31.4379L41.1123 32.9379L46.5498 34.8754L46.4248 40.2879L49.9623 36.0629L55.3248 37.9129L52.2248 33.3754L55.9998 28.8629L50.1998 30.4629L46.7623 25.5254Z" fill="white"/>
</g>
<g clip-path="url(#clip5_647_1943)">
<path d="M0 0H64V21.3375H0V0Z" fill="#FF9933"/>
<path d="M0 21.3379H64V42.6629H0V21.3379Z" fill="white"/>
<path d="M0 42.6621H64V63.9996H0V42.6621Z" fill="#128807"/>
<path d="M32.0001 40.5334C36.7129 40.5334 40.5334 36.7129 40.5334 32.0001C40.5334 27.2873 36.7129 23.4668 32.0001 23.4668C27.2873 23.4668 23.4668 27.2873 23.4668 32.0001C23.4668 36.7129 27.2873 40.5334 32.0001 40.5334Z" fill="#000088"/>
<path d="M31.9999 39.4665C36.1236 39.4665 39.4665 36.1236 39.4665 31.9999C39.4665 27.8761 36.1236 24.5332 31.9999 24.5332C27.8761 24.5332 24.5332 27.8761 24.5332 31.9999C24.5332 36.1236 27.8761 39.4665 31.9999 39.4665Z" fill="white"/>
<path d="M32.0002 33.4925C32.8249 33.4925 33.4935 32.8239 33.4935 31.9992C33.4935 31.1744 32.8249 30.5059 32.0002 30.5059C31.1754 30.5059 30.5068 31.1744 30.5068 31.9992C30.5068 32.8239 31.1754 33.4925 32.0002 33.4925Z" fill="#000088"/>
<path d="M39.3518 33.3584C39.562 33.3861 39.7549 33.2381 39.7826 33.0278C39.8103 32.8176 39.6623 32.6247 39.452 32.597C39.2417 32.5693 39.0488 32.7173 39.0212 32.9276C38.9935 33.1379 39.1415 33.3307 39.3518 33.3584Z" fill="#000088"/>
<path d="M31.9992 39.4668L32.2552 34.9868L31.9992 32.8535L31.7432 34.9868L31.9992 39.4668Z" fill="#000088"/>
<path d="M38.7503 35.2159C38.9463 35.297 39.1709 35.204 39.252 35.008C39.3332 34.8121 39.2402 34.5875 39.0442 34.5063C38.8483 34.4252 38.6237 34.5182 38.5425 34.7141C38.4613 34.9101 38.5544 35.1347 38.7503 35.2159Z" fill="#000088"/>
<path d="M30.0678 39.214L31.4746 34.9529L31.7795 32.826L30.9801 34.8204L30.0678 39.214Z" fill="#000088"/>
<path d="M37.6887 36.8528C37.8569 36.9819 38.098 36.9502 38.2271 36.7819C38.3562 36.6137 38.3245 36.3726 38.1562 36.2435C37.988 36.1144 37.7469 36.1462 37.6178 36.3144C37.4887 36.4827 37.5204 36.7237 37.6887 36.8528Z" fill="#000088"/>
<path d="M28.2666 38.4666L30.7283 34.7148L31.5733 32.7393L30.2849 34.4588L28.2666 38.4666Z" fill="#000088"/>
<path d="M36.2387 38.1608C36.3678 38.3291 36.6089 38.3608 36.7771 38.2317C36.9454 38.1026 36.9771 37.8616 36.848 37.6933C36.7189 37.5251 36.4779 37.4933 36.3096 37.6224C36.1414 37.7515 36.1096 37.9926 36.2387 38.1608Z" fill="#000088"/>
<path d="M26.7205 37.2812L30.0694 34.2944L31.3968 32.6048L29.7073 33.9323L26.7205 37.2812Z" fill="#000088"/>
<path d="M34.4999 39.0471C34.5811 39.243 34.8057 39.3361 35.0016 39.2549C35.1976 39.1738 35.2906 38.9491 35.2095 38.7532C35.1283 38.5573 34.9037 38.4642 34.7077 38.5454C34.5118 38.6265 34.4188 38.8512 34.4999 39.0471Z" fill="#000088"/>
<path d="M25.5335 35.7354L29.5413 33.7171L31.2608 32.4287L29.2853 33.2737L25.5335 35.7354Z" fill="#000088"/>
<path d="M32.5914 39.4536C32.6191 39.6639 32.812 39.8119 33.0223 39.7842C33.2325 39.7565 33.3805 39.5636 33.3529 39.3534C33.3252 39.1431 33.1323 38.9951 32.922 39.0228C32.7118 39.0505 32.5637 39.2434 32.5914 39.4536Z" fill="#000088"/>
<path d="M24.7886 33.9335L29.1822 33.0213L31.1766 32.2219L29.0497 32.5268L24.7886 33.9335Z" fill="#000088"/>
<path d="M30.6416 39.3527C30.6139 39.563 30.7619 39.7559 30.9722 39.7836C31.1824 39.8113 31.3753 39.6632 31.403 39.453C31.4307 39.2427 31.2827 39.0498 31.0724 39.0221C30.8621 38.9945 30.6693 39.1425 30.6416 39.3527Z" fill="#000088"/>
<path d="M24.5332 32.0001L29.0132 32.2561L31.1465 32.0001L29.0132 31.7441L24.5332 32.0001Z" fill="#000088"/>
<path d="M28.7851 38.7503C28.704 38.9463 28.797 39.1709 28.9929 39.252C29.1889 39.3332 29.4135 39.2402 29.4947 39.0442C29.5758 38.8483 29.4828 38.6237 29.2868 38.5425C29.0909 38.4613 28.8663 38.5544 28.7851 38.7503Z" fill="#000088"/>
<path d="M24.7879 30.0669L29.049 31.4737L31.1759 31.7785L29.1815 30.9791L24.7879 30.0669Z" fill="#000088"/>
<path d="M27.1482 37.6867C27.019 37.855 27.0508 38.096 27.219 38.2251C27.3873 38.3542 27.6283 38.3225 27.7574 38.1543C27.8866 37.986 27.8548 37.7449 27.6866 37.6158C27.5183 37.4867 27.2773 37.5185 27.1482 37.6867Z" fill="#000088"/>
<path d="M25.5343 28.2646L29.2861 30.7263L31.2616 31.5713L29.5421 30.2829L25.5343 28.2646Z" fill="#000088"/>
<path d="M25.8411 36.2378C25.6729 36.3669 25.6411 36.6079 25.7702 36.7762C25.8993 36.9444 26.1404 36.9761 26.3086 36.847C26.4769 36.7179 26.5086 36.4769 26.3795 36.3086C26.2504 36.1404 26.0094 36.1086 25.8411 36.2378Z" fill="#000088"/>
<path d="M26.7208 26.7195L29.7076 30.0684L31.3971 31.3959L30.0696 29.7064L26.7208 26.7195Z" fill="#000088"/>
<path d="M24.9544 34.4999C24.7584 34.5811 24.6654 34.8057 24.7465 35.0016C24.8277 35.1976 25.0523 35.2906 25.2483 35.2095C25.4442 35.1283 25.5372 34.9037 25.4561 34.7077C25.3749 34.5118 25.1503 34.4188 24.9544 34.4999Z" fill="#000088"/>
<path d="M28.2675 25.5335L30.2858 29.5413L31.5742 31.2608L30.7292 29.2853L28.2675 25.5335Z" fill="#000088"/>
<path d="M24.5474 32.5914C24.3371 32.6191 24.1891 32.812 24.2168 33.0223C24.2445 33.2325 24.4373 33.3805 24.6476 33.3529C24.8579 33.3252 25.0059 33.1323 24.9782 32.922C24.9505 32.7118 24.7576 32.5637 24.5474 32.5914Z" fill="#000088"/>
<path d="M30.0684 24.7876L30.9806 29.1813L31.7801 31.1756L31.4752 29.0487L30.0684 24.7876Z" fill="#000088"/>
<path d="M24.6473 30.6416C24.437 30.6139 24.2441 30.7619 24.2164 30.9722C24.1887 31.1824 24.3368 31.3753 24.547 31.403C24.7573 31.4307 24.9502 31.2827 24.9779 31.0724C25.0055 30.8621 24.8575 30.6693 24.6473 30.6416Z" fill="#000088"/>
<path d="M31.9999 24.5332L31.7439 29.0132L31.9999 31.1465L32.2559 29.0132L31.9999 24.5332Z" fill="#000088"/>
<path d="M25.2497 28.7841C25.0537 28.703 24.8291 28.796 24.748 28.992C24.6668 29.1879 24.7598 29.4125 24.9558 29.4937C25.1517 29.5748 25.3763 29.4818 25.4575 29.2859C25.5387 29.0899 25.4456 28.8653 25.2497 28.7841Z" fill="#000088"/>
<path d="M33.9322 24.786L32.5254 29.0471L32.2205 31.174L33.0199 29.1796L33.9322 24.786Z" fill="#000088"/>
<path d="M26.3118 27.1472C26.1436 27.0181 25.9025 27.0498 25.7734 27.2181C25.6443 27.3863 25.676 27.6274 25.8443 27.7565C26.0125 27.8856 26.2536 27.8538 26.3827 27.6856C26.5118 27.5173 26.4801 27.2763 26.3118 27.1472Z" fill="#000088"/>
<path d="M35.7334 25.5334L33.2717 29.2852L32.4267 31.2607L33.7151 29.5412L35.7334 25.5334Z" fill="#000088"/>
<path d="M27.7622 25.8392C27.6331 25.6709 27.3921 25.6392 27.2238 25.7683C27.0556 25.8974 27.0239 26.1384 27.153 26.3067C27.2821 26.4749 27.5231 26.5067 27.6914 26.3776C27.8596 26.2485 27.8914 26.0074 27.7622 25.8392Z" fill="#000088"/>
<path d="M37.2805 26.7188L33.9316 29.7056L32.6041 31.3952L34.2936 30.0677L37.2805 26.7188Z" fill="#000088"/>
<path d="M29.5001 24.9529C29.4189 24.757 29.1943 24.6639 28.9984 24.7451C28.8024 24.8262 28.7094 25.0509 28.7905 25.2468C28.8717 25.4427 29.0963 25.5358 29.2923 25.4546C29.4882 25.3735 29.5812 25.1488 29.5001 24.9529Z" fill="#000088"/>
<path d="M38.4665 28.2646L34.4587 30.2829L32.7392 31.5713L34.7147 30.7263L38.4665 28.2646Z" fill="#000088"/>
<path d="M31.4095 24.5464C31.3819 24.3361 31.189 24.1881 30.9787 24.2158C30.7684 24.2435 30.6204 24.4364 30.6481 24.6466C30.6758 24.8569 30.8687 25.0049 31.079 24.9772C31.2892 24.9495 31.4372 24.7566 31.4095 24.5464Z" fill="#000088"/>
<path d="M39.2124 30.0665L34.8187 30.9787L32.8244 31.7781L34.9513 31.4732L39.2124 30.0665Z" fill="#000088"/>
<path d="M33.3584 24.6473C33.3861 24.437 33.2381 24.2441 33.0278 24.2164C32.8176 24.1887 32.6247 24.3368 32.597 24.547C32.5693 24.7573 32.7173 24.9502 32.9276 24.9779C33.1379 25.0055 33.3307 24.8575 33.3584 24.6473Z" fill="#000088"/>
<path d="M39.4668 31.9999L34.9868 31.7439L32.8535 31.9999L34.9868 32.2559L39.4668 31.9999Z" fill="#000088"/>
<path d="M35.2149 25.2497C35.296 25.0537 35.203 24.8291 35.0071 24.748C34.8111 24.6668 34.5865 24.7598 34.5053 24.9558C34.4242 25.1517 34.5172 25.3763 34.7132 25.4575C34.9091 25.5387 35.1337 25.4456 35.2149 25.2497Z" fill="#000088"/>
<path d="M39.2121 33.9331L34.951 32.5263L32.8241 32.2215L34.8185 33.0209L39.2121 33.9331Z" fill="#000088"/>
<path d="M36.8528 26.3113C36.9819 26.1431 36.9502 25.902 36.7819 25.7729C36.6137 25.6438 36.3726 25.6755 36.2435 25.8438C36.1144 26.012 36.1462 26.2531 36.3144 26.3822C36.4827 26.5113 36.7237 26.4796 36.8528 26.3113Z" fill="#000088"/>
<path d="M38.4666 35.7334L34.7148 33.2717L32.7393 32.4267L34.4588 33.7151L38.4666 35.7334Z" fill="#000088"/>
<path d="M38.1599 27.7603C38.3281 27.6312 38.3599 27.3901 38.2308 27.2219C38.1016 27.0536 37.8606 27.0219 37.6923 27.151C37.5241 27.2801 37.4924 27.5212 37.6215 27.6894C37.7506 27.8577 37.9916 27.8894 38.1599 27.7603Z" fill="#000088"/>
<path d="M37.2802 37.2785L34.2934 33.9297L32.6039 32.6022L33.9313 34.2917L37.2802 37.2785Z" fill="#000088"/>
<path d="M39.0471 29.4981C39.243 29.417 39.3361 29.1923 39.2549 28.9964C39.1738 28.8005 38.9491 28.7074 38.7532 28.7886C38.5573 28.8698 38.4642 29.0944 38.5454 29.2903C38.6265 29.4863 38.8512 29.5793 39.0471 29.4981Z" fill="#000088"/>
<path d="M35.7334 38.4645L33.7151 34.4568L32.4268 32.7372L33.2717 34.7128L35.7334 38.4645Z" fill="#000088"/>
<path d="M39.4536 31.4066C39.6639 31.3789 39.8119 31.186 39.7842 30.9758C39.7565 30.7655 39.5636 30.6175 39.3534 30.6452C39.1431 30.6729 38.9951 30.8658 39.0228 31.076C39.0505 31.2863 39.2434 31.4343 39.4536 31.4066Z" fill="#000088"/>
<path d="M33.9326 39.2104L33.0203 34.8168L32.2209 32.8224L32.5258 34.9493L33.9326 39.2104Z" fill="#000088"/>
</g>
</g>
<defs>
<clipPath id="clip0_647_1943">
<rect width="64" height="64" rx="32" fill="white"/>
</clipPath>
<clipPath id="clip1_647_1943">
<rect width="64" height="64" fill="white"/>
</clipPath>
<clipPath id="clip2_647_1943">
<rect width="64" height="64" fill="white"/>
</clipPath>
<clipPath id="clip3_647_1943">
<rect width="64" height="64" fill="white"/>
</clipPath>
<clipPath id="clip4_647_1943">
<rect width="64" height="64" fill="white"/>
</clipPath>
<clipPath id="clip5_647_1943">
<rect width="64" height="64" fill="white"/>
</clipPath>
</defs>
</svg>
