<svg width="65" height="65" viewBox="0 0 65 65" fill="none" xmlns="http://www.w3.org/2000/svg">
<g clip-path="url(#clip0_647_983)">
<path d="M25.678 0.808594H64.078V64.8086H25.6655L25.678 0.808594Z" fill="#FF0000"/>
<path d="M0.0779297 0.808594H25.6779V64.8086H0.0654297L0.0779297 0.808594Z" fill="#006600"/>
<path fill-rule="evenodd" clip-rule="evenodd" d="M36.8032 41.6336C32.5032 41.5086 12.8032 29.2086 12.6782 27.2461L13.7532 25.4336C15.7032 28.2711 35.8532 40.2336 37.8282 39.8086L36.8032 41.6336Z" fill="#FFFF00" stroke="black" stroke-width="0.0875" stroke-linecap="round" stroke-linejoin="round"/>
<path fill-rule="evenodd" clip-rule="evenodd" d="M13.5282 25.1832C13.1407 26.2207 18.6657 29.6332 25.3157 33.6832C31.9657 37.7207 37.6907 40.2207 38.1282 39.8707L38.3157 39.5082C38.2324 39.6415 38.0407 39.6665 37.7407 39.5832C35.9407 39.0582 31.2532 36.9082 25.4532 33.3957C19.6532 29.8832 14.6032 26.6332 13.8282 25.2582C13.7659 25.1299 13.7358 24.9883 13.7407 24.8457H13.7157L13.5532 25.1332L13.5282 25.1832ZM36.9032 41.6832C36.8282 41.8207 36.6907 41.8207 36.4407 41.8082C34.8282 41.6207 29.9407 39.2457 24.1907 35.7957C17.4657 31.7707 11.9157 28.1082 12.5282 27.1582L12.6907 26.8582L12.7157 26.8707C12.1782 28.4957 23.6657 35.0582 24.3407 35.4832C30.9782 39.6082 36.5907 42.0082 37.0907 41.3832L36.9032 41.6832Z" fill="#FFFF00" stroke="black" stroke-width="0.0875" stroke-linecap="round" stroke-linejoin="round"/>
<path fill-rule="evenodd" clip-rule="evenodd" d="M25.7035 28.4332C29.991 28.3957 35.3035 27.8457 38.3535 26.6332L37.7035 25.5582C35.891 26.5582 30.566 27.2207 25.666 27.3082C19.866 27.2582 15.7785 26.7207 13.7285 25.3457L13.1035 26.4832C16.8785 28.0707 20.7285 28.4207 25.7035 28.4332Z" fill="#FFFF00" stroke="black" stroke-width="0.0875" stroke-linecap="round" stroke-linejoin="round"/>
<path fill-rule="evenodd" clip-rule="evenodd" d="M38.5409 26.659C38.4284 26.8215 36.4409 27.509 33.5034 28.009C30.9133 28.3974 28.2975 28.5897 25.6784 28.584C23.1706 28.5953 20.6648 28.4366 18.1784 28.109C15.1159 27.6215 13.5159 26.9465 12.9284 26.709L13.0784 26.4215C14.7407 27.0767 16.473 27.538 18.2409 27.7965C20.7067 28.119 23.1916 28.2735 25.6784 28.259C28.2766 28.2606 30.8713 28.0684 33.4409 27.684C36.4409 27.1965 38.0909 26.5715 38.3159 26.284L38.5409 26.659ZM37.9534 25.559C37.6284 25.809 36.0034 26.3965 33.1534 26.8465C30.6901 27.2001 28.2045 27.3755 25.7159 27.3715C23.3163 27.3897 20.9184 27.2351 18.5409 26.909C15.6284 26.534 14.0909 25.8465 13.5409 25.6465L13.7034 25.359C14.1284 25.584 15.6284 26.184 18.5784 26.609C20.945 26.9157 23.3296 27.0619 25.7159 27.0465C28.1837 27.0497 30.6485 26.8742 33.0909 26.5215C35.9659 26.1215 37.5159 25.3965 37.7534 25.209L37.9534 25.559ZM11.5784 33.609C14.2284 35.034 20.0909 35.759 25.6534 35.809C30.7159 35.809 37.3159 35.0215 39.7784 33.709L39.7034 32.284C38.9409 33.4965 31.8784 34.659 25.6034 34.609C19.3284 34.559 13.5034 33.584 11.5659 32.334V33.609" fill="#FFFF00"/>
<path d="M11.5784 33.609C14.2284 35.034 20.0909 35.759 25.6534 35.809C30.7159 35.809 37.3159 35.0215 39.7784 33.709L39.7034 32.284C38.9409 33.4965 31.8784 34.659 25.6034 34.609C19.3284 34.559 13.5034 33.584 11.5659 32.334V33.609M38.5409 26.659C38.4284 26.8215 36.4409 27.509 33.5034 28.009C30.9133 28.3974 28.2975 28.5897 25.6784 28.584C23.1706 28.5953 20.6648 28.4366 18.1784 28.109C15.1159 27.6215 13.5159 26.9465 12.9284 26.709L13.0784 26.4215C14.7407 27.0767 16.473 27.538 18.2409 27.7965C20.7067 28.119 23.1916 28.2735 25.6784 28.259C28.2766 28.2606 30.8713 28.0684 33.4409 27.684C36.4409 27.1965 38.0909 26.5715 38.3159 26.284L38.5409 26.659ZM37.9534 25.559C37.6284 25.809 36.0034 26.3965 33.1534 26.8465C30.6901 27.2001 28.2045 27.3755 25.7159 27.3715C23.3163 27.3897 20.9184 27.2351 18.5409 26.909C15.6284 26.534 14.0909 25.8465 13.5409 25.6465L13.7034 25.359C14.1284 25.584 15.6284 26.184 18.5784 26.609C20.945 26.9157 23.3296 27.0619 25.7159 27.0465C28.1837 27.0497 30.6485 26.8742 33.0909 26.5215C35.9659 26.1215 37.5159 25.3965 37.7534 25.209L37.9534 25.559Z" stroke="black" stroke-width="0.0875" stroke-linecap="round" stroke-linejoin="round"/>
<path fill-rule="evenodd" clip-rule="evenodd" d="M39.9158 33.4082V33.7457C39.5408 34.1957 37.2158 34.8707 34.3033 35.3332C31.4184 35.7523 28.506 35.9529 25.5908 35.9332C22.1658 35.9332 19.4408 35.6832 17.3158 35.3582C15.277 35.1261 13.2842 34.591 11.4033 33.7707V33.3707C12.7033 34.2332 16.1908 34.8582 17.3658 35.0457C19.4658 35.3707 22.1783 35.6082 25.5908 35.6082C29.1783 35.6082 32.0533 35.3582 34.2533 35.0207C36.3533 34.7207 39.3283 33.9332 39.9158 33.4082ZM39.9158 32.1957V32.5457C39.5408 32.9832 37.2158 33.6582 34.3033 34.1207C31.4184 34.5398 28.506 34.7404 25.5908 34.7207C22.1658 34.7207 19.4408 34.4707 17.3283 34.1582C15.2846 33.9233 13.2875 33.384 11.4033 32.5582V32.1582C12.7033 33.0207 16.1908 33.6582 17.3658 33.8332C19.4783 34.1582 22.1908 34.4082 25.5908 34.4082C29.1783 34.4082 32.0533 34.1582 34.2533 33.8082C36.3533 33.5082 39.3283 32.7207 39.9158 32.1957ZM25.6408 41.3832C19.5658 41.3457 14.3533 39.7332 13.2533 39.4582L14.0533 40.7082C15.9908 41.5332 21.0783 42.7582 25.7033 42.6207C30.3283 42.4832 34.3658 42.1207 37.2033 40.7457L38.0283 39.4332C36.0908 40.3457 29.4908 41.3832 25.6533 41.3832" fill="#FFFF00"/>
<path d="M25.6408 41.3832C19.5658 41.3457 14.3533 39.7332 13.2533 39.4582L14.0533 40.7082C15.9908 41.5332 21.0783 42.7582 25.7033 42.6207C30.3283 42.4832 34.3658 42.1207 37.2033 40.7457L38.0283 39.4332C36.0908 40.3457 29.4908 41.3832 25.6533 41.3832M39.9158 33.4082V33.7457C39.5408 34.1957 37.2158 34.8707 34.3033 35.3332C31.4184 35.7523 28.506 35.9529 25.5908 35.9332C22.1658 35.9332 19.4408 35.6832 17.3158 35.3582C15.277 35.1261 13.2842 34.591 11.4033 33.7707V33.3707C12.7033 34.2332 16.1908 34.8582 17.3658 35.0457C19.4658 35.3707 22.1783 35.6082 25.5908 35.6082C29.1783 35.6082 32.0533 35.3582 34.2533 35.0207C36.3533 34.7207 39.3283 33.9332 39.9158 33.4082ZM39.9158 32.1957V32.5457C39.5408 32.9832 37.2158 33.6582 34.3033 34.1207C31.4184 34.5398 28.506 34.7404 25.5908 34.7207C22.1658 34.7207 19.4408 34.4707 17.3283 34.1582C15.2846 33.9233 13.2875 33.384 11.4033 32.5582V32.1582C12.7033 33.0207 16.1908 33.6582 17.3658 33.8332C19.4783 34.1582 22.1908 34.4082 25.5908 34.4082C29.1783 34.4082 32.0533 34.1582 34.2533 33.8082C36.3533 33.5082 39.3283 32.7207 39.9158 32.1957Z" stroke="black" stroke-width="0.0875" stroke-linecap="round" stroke-linejoin="round"/>
<path fill-rule="evenodd" clip-rule="evenodd" d="M37.5159 40.4465L37.1409 40.9965C35.7225 41.467 34.2732 41.8387 32.8034 42.109C30.4449 42.5429 28.0516 42.7605 25.6534 42.759C20.2659 42.684 15.8534 41.634 13.7784 40.734L13.6034 40.4465L13.6409 40.3965L13.9159 40.509C17.7114 41.7656 21.6804 42.4194 25.6784 42.4465C28.1784 42.459 30.6784 42.159 32.6909 41.809C35.7909 41.184 37.0409 40.7215 37.4284 40.509L37.5159 40.4465ZM38.2284 39.2715H38.2409L37.9659 39.7465C37.2534 39.9965 35.3034 40.5715 32.4659 40.9715C30.5909 41.2215 29.4284 41.4715 25.7159 41.5465C21.4622 41.5006 17.2351 40.8697 13.1534 39.6715L13.0034 39.359C17.1492 40.4973 21.4181 41.1269 25.7159 41.234C29.1159 41.159 30.5659 40.909 32.4159 40.6465C35.7284 40.1465 37.3909 39.5965 37.8909 39.434L37.8784 39.409L38.2284 39.2715Z" fill="#FFFF00" stroke="black" stroke-width="0.075" stroke-linecap="round" stroke-linejoin="round"/>
<path fill-rule="evenodd" clip-rule="evenodd" d="M38.3032 32.4832C38.3282 36.4832 36.2782 40.0832 34.6282 41.6707C32.2045 44.028 28.9713 45.3695 25.5907 45.4207C21.5532 45.4957 17.7532 42.8582 16.7282 41.7082C14.7282 39.4457 13.1032 36.5832 13.0532 32.7082C13.3032 28.3332 15.0157 25.2957 17.5032 23.2082C19.9087 21.2255 22.9361 20.1544 26.0532 20.1832C29.2282 20.2707 32.9532 21.8332 35.5157 24.9332C37.1907 26.9582 37.9282 29.1582 38.3032 32.4957V32.4832ZM25.6282 18.7832C33.3782 18.7832 39.7532 25.0957 39.7532 32.8207C39.7301 36.5517 38.2317 40.122 35.5853 42.7521C32.9388 45.3821 29.3593 46.8583 25.6282 46.8582C17.8782 46.8582 11.5532 40.5582 11.5532 32.8207C11.5532 25.0832 17.8782 18.7832 25.6282 18.7832Z" fill="#FFFF00" stroke="black" stroke-width="0.0875" stroke-linecap="round" stroke-linejoin="round"/>
<path fill-rule="evenodd" clip-rule="evenodd" d="M25.6656 18.7332C33.4156 18.7332 39.7406 25.0707 39.7406 32.8207C39.7406 40.5707 33.4156 46.9082 25.6656 46.9082C21.9303 46.8983 18.3509 45.4092 15.7108 42.7667C13.0707 40.1242 11.5847 36.5436 11.5781 32.8082C11.588 29.075 13.0754 25.4975 15.7152 22.8578C18.355 20.218 21.9324 18.7306 25.6656 18.7207V18.7332ZM11.8906 32.8207C11.8906 40.3957 18.1156 46.5957 25.6656 46.5957C33.2156 46.5957 39.4281 40.3957 39.4281 32.8207C39.4281 25.2457 33.2156 19.0582 25.6656 19.0582C22.0185 19.0714 18.5243 20.5252 15.9442 23.1029C13.3641 25.6807 11.9071 29.1736 11.8906 32.8207Z" fill="#FFFF00" stroke="black" stroke-width="0.0875" stroke-linecap="round" stroke-linejoin="round"/>
<path fill-rule="evenodd" clip-rule="evenodd" d="M25.6781 19.9082C32.7406 19.9082 38.5656 25.7207 38.5656 32.8082C38.5656 39.8957 32.7406 45.7082 25.6781 45.7082C22.2587 45.6983 18.982 44.3364 16.5629 41.9197C14.1439 39.503 12.7788 36.2276 12.7656 32.8082C12.7656 25.7207 18.5906 19.9082 25.6656 19.9082H25.6781ZM13.0781 32.8082C13.0781 39.7332 18.7656 45.3957 25.6781 45.3957C32.5906 45.3957 38.2656 39.7332 38.2656 32.8082C38.2656 25.8832 32.5781 20.2207 25.6656 20.2207C18.7531 20.2207 13.0781 25.8832 13.0781 32.8082Z" fill="#FFFF00" stroke="black" stroke-width="0.0875" stroke-linecap="round" stroke-linejoin="round"/>
<path fill-rule="evenodd" clip-rule="evenodd" d="M26.2408 18.6836H25.0283V46.9836H26.2408V18.6836Z" fill="#FFFF00" stroke="black" stroke-width="0.0875" stroke-linecap="round" stroke-linejoin="round"/>
<path fill-rule="evenodd" clip-rule="evenodd" d="M26.116 18.5215H26.4285V47.1465H26.116V18.5215ZM24.916 18.5215H25.2285V47.1465H24.916V18.5215Z" fill="#FFFF00" stroke="black" stroke-width="0.0875" stroke-linecap="round" stroke-linejoin="round"/>
<path fill-rule="evenodd" clip-rule="evenodd" d="M39.7533 33.3715V32.309L38.9033 31.5215L34.0658 30.234L27.0908 29.5215L18.7158 29.9465L12.7283 31.3715L11.5283 32.2715V33.309L14.5783 31.934L21.8283 30.809H28.8033L33.9283 31.3715L37.4783 32.234L39.7533 33.3715Z" fill="#FFFF00" stroke="black" stroke-width="0.0875" stroke-linecap="round" stroke-linejoin="round"/>
<path fill-rule="evenodd" clip-rule="evenodd" d="M25.6658 30.6471C28.722 30.6346 31.7726 30.9066 34.7783 31.4596C37.4158 31.9846 39.2783 32.6471 39.9033 33.3846V33.7596C39.1533 32.8346 36.6533 32.1596 34.7158 31.7596C32.1783 31.2721 28.9658 30.9596 25.6658 30.9596C22.1658 30.9596 18.9158 31.2971 16.4158 31.7846C14.4158 32.1846 11.7408 32.9721 11.4033 33.7596V33.3846C11.5908 32.8346 13.5783 32.0221 16.3783 31.4596C19.4426 30.9037 22.5516 30.6317 25.6658 30.6471ZM25.6658 29.4346C28.7261 29.4228 31.7808 29.6948 34.7908 30.2471C37.4158 30.7721 39.2908 31.4346 39.9158 32.1846V32.5471C39.1533 31.6221 36.6408 30.9471 34.7158 30.5596C32.1783 30.0596 28.9658 29.7471 25.6658 29.7471C22.572 29.7375 19.4839 30.0137 16.4408 30.5721C14.5033 30.9471 11.7158 31.7721 11.4033 32.5471V32.1721C11.5908 31.6346 13.6283 30.7971 16.3783 30.2596C19.4422 29.6995 22.5512 29.4233 25.6658 29.4346ZM25.6033 23.2721C30.8408 23.2471 35.4158 24.0096 37.5033 25.0846L38.2658 26.3971C36.4533 25.4221 31.5158 24.3971 25.6033 24.5596C20.7908 24.5846 15.6533 25.0846 13.0658 26.4596L13.9783 24.9346C16.1033 23.8346 21.1033 23.2846 25.6033 23.2721Z" fill="#FFFF00" stroke="black" stroke-width="0.0875" stroke-linecap="round" stroke-linejoin="round"/>
<path fill-rule="evenodd" clip-rule="evenodd" d="M25.666 24.3581C28.666 24.3581 31.541 24.5206 33.841 24.9331C35.9785 25.3331 38.0285 25.9331 38.316 26.2581L38.541 26.6581C37.8285 26.1956 36.066 25.6706 33.791 25.2456C31.1047 24.8176 28.3857 24.6293 25.666 24.6831C22.291 24.6831 19.666 24.8456 17.416 25.2456C15.041 25.6831 13.391 26.3206 12.9785 26.6206L13.2035 26.2081C13.991 25.7956 15.2535 25.3081 17.366 24.9331C19.691 24.5081 22.3285 24.3831 25.666 24.3581ZM25.666 23.1581C28.306 23.1165 30.9448 23.3005 33.5535 23.7081C35.291 24.0456 37.0035 24.5706 37.641 25.0331L37.966 25.5581C37.4035 24.9331 35.291 24.3456 33.416 24.0206C31.241 23.6456 28.5285 23.4956 25.666 23.4706C22.666 23.4706 19.891 23.6581 17.741 24.0456C15.691 24.4456 14.366 24.9081 13.8035 25.2706L14.091 24.8206C14.866 24.4206 16.116 24.0456 17.691 23.7331C19.8535 23.3456 22.6535 23.1581 25.666 23.1581ZM32.666 38.6706C30.3549 38.2719 28.0108 38.0961 25.666 38.1456C16.9285 38.2456 14.116 39.9331 13.766 40.4456L13.116 39.3831C15.3285 37.7706 20.0785 36.8706 25.7035 36.9581C28.6202 36.9998 31.1368 37.2164 33.2535 37.6081L32.6535 38.6706" fill="#FFFF00"/>
<path d="M32.666 38.6706C30.3549 38.2719 28.0108 38.0961 25.666 38.1456C16.9285 38.2456 14.116 39.9331 13.766 40.4456L13.116 39.3831C15.3285 37.7706 20.0785 36.8706 25.7035 36.9581C28.6202 36.9998 31.1368 37.2164 33.2535 37.6081L32.6535 38.6706M25.666 24.3581C28.666 24.3581 31.541 24.5206 33.841 24.9331C35.9785 25.3331 38.0285 25.9331 38.316 26.2581L38.541 26.6581C37.8285 26.1956 36.066 25.6706 33.791 25.2456C31.1047 24.8176 28.3857 24.6293 25.666 24.6831C22.291 24.6831 19.666 24.8456 17.416 25.2456C15.041 25.6831 13.391 26.3206 12.9785 26.6206L13.2035 26.2081C13.991 25.7956 15.2535 25.3081 17.366 24.9331C19.691 24.5081 22.3285 24.3831 25.666 24.3581ZM25.666 23.1581C28.306 23.1165 30.9448 23.3005 33.5535 23.7081C35.291 24.0456 37.0035 24.5706 37.641 25.0331L37.966 25.5581C37.4035 24.9331 35.291 24.3456 33.416 24.0206C31.241 23.6456 28.5285 23.4956 25.666 23.4706C22.666 23.4706 19.891 23.6581 17.741 24.0456C15.691 24.4456 14.366 24.9081 13.8035 25.2706L14.091 24.8206C14.866 24.4206 16.116 24.0456 17.691 23.7331C19.8535 23.3456 22.6535 23.1581 25.666 23.1581Z" stroke="black" stroke-width="0.0875" stroke-linecap="round" stroke-linejoin="round"/>
<path fill-rule="evenodd" clip-rule="evenodd" d="M25.6157 37.9962C28.0407 38.0337 30.4282 38.1212 32.7407 38.5587L32.5657 38.8587C30.2751 38.4635 27.9524 38.2835 25.6282 38.3212C22.4032 38.2962 19.1282 38.5962 16.3032 39.4087C15.4032 39.6587 13.9282 40.2337 13.7657 40.7087L13.6032 40.4337C13.6532 40.1587 14.5532 39.5712 16.2282 39.1087C19.4782 38.1712 22.5157 38.0212 25.6032 37.9837L25.6157 37.9962ZM25.7282 36.7712C28.2885 36.7688 30.8441 36.9905 33.3657 37.4337L33.1907 37.7462C30.7332 37.2966 28.2389 37.079 25.7407 37.0962C22.5032 37.0962 19.0782 37.3337 15.9532 38.2337C14.9532 38.5337 13.2032 39.1587 13.1532 39.6587L12.9907 39.3712C13.0282 38.9212 14.5282 38.3212 15.8907 37.9212C19.1003 37.0817 22.4115 36.6946 25.7282 36.7712Z" fill="#FFFF00" stroke="black" stroke-width="0.075" stroke-linecap="round" stroke-linejoin="round"/>
<path fill-rule="evenodd" clip-rule="evenodd" d="M38.1283 39.5457L37.0783 41.1707L34.0658 38.4957L26.2408 33.2457L17.4283 28.3957L12.8408 26.8332L13.8158 25.0207L14.1533 24.8457L17.0033 25.5582L26.3783 30.3957L31.7908 33.8082L36.3283 37.0582L38.1783 39.1957L38.1283 39.5457Z" fill="#FFFF00" stroke="black" stroke-width="0.0875" stroke-linecap="round" stroke-linejoin="round"/>
<path fill-rule="evenodd" clip-rule="evenodd" d="M12.6784 26.8715C13.4909 26.334 19.3909 28.959 25.5534 32.684C31.7159 36.409 37.6034 40.634 37.0784 41.434L36.9034 41.6965L36.8159 41.759C36.8409 41.759 36.9284 41.634 36.8159 41.3465C36.5409 40.484 32.3784 37.159 25.4409 32.9715C18.6909 28.9465 13.0659 26.5215 12.5034 27.2215L12.6784 26.8715ZM38.3409 39.5215C38.8409 38.5215 33.3784 34.3965 26.5909 30.384C19.6534 26.4465 14.6409 24.134 13.7284 24.8215L13.5284 25.1965C13.5201 25.1965 13.5368 25.1757 13.5784 25.134C13.7409 24.9965 14.0159 25.009 14.1409 25.009C15.7159 25.0215 20.2159 27.084 26.5159 30.709C29.2784 32.309 38.1909 38.034 38.1534 39.634C38.1534 39.7715 38.1659 39.7965 38.1159 39.8715L38.3409 39.5215Z" fill="#FFFF00" stroke="black" stroke-width="0.0875" stroke-linecap="round" stroke-linejoin="round"/>
<path d="M17.2261 34.3681C17.2305 35.4717 17.4527 36.5637 17.8797 37.5814C18.3068 38.599 18.9305 39.5225 19.715 40.2988C20.4918 41.0875 21.417 41.7148 22.4373 42.1444C23.4576 42.574 24.5528 42.7974 25.6599 42.8019C26.7697 42.8049 27.8691 42.5878 28.8945 42.163C29.9198 41.7382 30.8507 41.1142 31.6332 40.3272C32.4168 39.5481 33.0388 38.6218 33.4635 37.6016C33.8882 36.5814 34.1072 35.4874 34.1079 34.3823V23.1183L17.2261 23.0898V34.3681Z" fill="white" stroke="black" stroke-width="0.0995558"/>
<path d="M17.5674 34.3817C17.5672 35.4412 17.7785 36.4901 18.1888 37.4669C18.599 38.4438 19.2001 39.3289 19.9567 40.0706C21.4709 41.5927 23.5271 42.452 25.6741 42.4599C27.817 42.4595 29.8726 41.6107 31.3914 40.099C32.1455 39.3562 32.7439 38.4705 33.1517 37.4937C33.5595 36.5169 33.7685 35.4686 33.7665 34.4101V23.459H17.5674V34.3817ZM30.5096 26.7443V33.699L30.4954 34.4243C30.5018 35.0599 30.3791 35.6902 30.1346 36.277C29.8901 36.8637 29.529 37.3947 29.0732 37.8377C28.1688 38.7452 26.9411 39.2568 25.6598 39.2599C24.323 39.2599 23.1425 38.691 22.2607 37.8092C21.3532 36.9048 20.8416 35.6772 20.8385 34.3959V26.7159L30.5096 26.7443Z" fill="#FF0000" stroke="black" stroke-width="0.0711113"/>
<path d="M18.5913 26.3187C18.6055 25.5364 19.1602 25.3516 19.1602 25.3516C19.1744 25.3516 19.7718 25.5507 19.7718 26.3329L18.5913 26.3187Z" fill="#FFFF00"/>
<path d="M18.1079 25.3658L18.0084 26.2618H18.6057C18.6057 25.5222 19.1746 25.4085 19.1746 25.4085C19.1888 25.4085 19.7435 25.5649 19.7577 26.2618H20.355L20.2413 25.3516L18.1079 25.3658ZM17.9657 26.276H20.3835C20.4309 26.276 20.4593 26.3092 20.4688 26.3756C20.4688 26.4514 20.4404 26.4893 20.3835 26.4893H17.9657C17.9183 26.4893 17.8899 26.4514 17.8804 26.3756C17.8804 26.3092 17.9136 26.276 17.9799 26.276H17.9657Z" fill="#FFFF00" stroke="black" stroke-width="0.0711113"/>
<path d="M18.8477 26.2623C18.8477 25.7929 19.1748 25.6649 19.1748 25.6649C19.1748 25.6649 19.5019 25.8072 19.5019 26.2623H18.8477ZM18.0228 24.9823H20.3411C20.3885 24.9918 20.4169 25.0297 20.4264 25.0961C20.4264 25.1435 20.3979 25.1719 20.3411 25.1814H18.0228C17.9754 25.1814 17.947 25.1482 17.9375 25.0818C17.9375 25.0344 17.9659 25.006 18.0228 24.9965V24.9823ZM18.0797 25.1956H20.2699C20.3174 25.1956 20.3458 25.2288 20.3553 25.2952C20.3648 25.3615 20.3363 25.3947 20.2699 25.3947H18.0655C18.0086 25.3947 17.9802 25.3615 17.9802 25.2952C17.9802 25.2288 18.0086 25.1956 18.0655 25.1956H18.0797ZM18.7908 23.688H18.9615V23.8018H19.0895V23.688H19.2744V23.8161H19.4024V23.6738H19.5731V23.9583C19.5731 24.0152 19.5494 24.0436 19.5019 24.0436H18.8762C18.8288 24.0436 18.8003 24.0199 18.7908 23.9725V23.688ZM19.4451 24.0721L19.4877 24.9823H18.8762L18.9188 24.0578H19.4451" fill="#FFFF00"/>
<path d="M19.4451 24.0721L19.4877 24.9823H18.8762L18.9188 24.0578H19.4451M18.8477 26.2623C18.8477 25.7929 19.1748 25.6649 19.1748 25.6649C19.1748 25.6649 19.5019 25.8072 19.5019 26.2623H18.8477ZM18.0228 24.9823H20.3411C20.3885 24.9918 20.4169 25.0297 20.4264 25.0961C20.4264 25.1435 20.3979 25.1719 20.3411 25.1814H18.0228C17.9754 25.1814 17.947 25.1482 17.9375 25.0818C17.9375 25.0344 17.9659 25.006 18.0228 24.9965V24.9823ZM18.0797 25.1956H20.2699C20.3174 25.1956 20.3458 25.2288 20.3553 25.2952C20.3648 25.3615 20.3363 25.3947 20.2699 25.3947H18.0655C18.0086 25.3947 17.9802 25.3615 17.9802 25.2952C17.9802 25.2288 18.0086 25.1956 18.0655 25.1956H18.0797ZM18.7908 23.688H18.9615V23.8018H19.0895V23.688H19.2744V23.8161H19.4024V23.6738H19.5731V23.9583C19.5731 24.0152 19.5494 24.0436 19.5019 24.0436H18.8762C18.8288 24.0436 18.8003 24.0199 18.7908 23.9725V23.688Z" stroke="black" stroke-width="0.0711113"/>
<path d="M18.7051 24.498V24.9816H18.1362V24.498H18.7051Z" fill="#FFFF00" stroke="black" stroke-width="0.0711113"/>
<path d="M20.2129 24.498V24.9816H19.644V24.498H20.2129Z" fill="#FFFF00" stroke="black" stroke-width="0.0711113"/>
<path d="M18.0366 24.1289H18.2073V24.2711H18.3353V24.1289H18.506V24.2711H18.634V24.1289H18.8046V24.4134C18.8046 24.4702 18.7809 24.4987 18.7335 24.4987H18.122C18.1023 24.4916 18.0845 24.4803 18.0698 24.4655C18.055 24.4508 18.0437 24.433 18.0366 24.4134V24.1289Z" fill="#FFFF00" stroke="black" stroke-width="0.0711113"/>
<path d="M19.5444 24.1289H19.7151V24.2711H19.8431V24.1289H20.0138V24.2711H20.1418V24.1289H20.3124V24.4134C20.3124 24.4702 20.2887 24.4987 20.2413 24.4987H19.6298C19.6102 24.4916 19.5923 24.4803 19.5776 24.4655C19.5629 24.4508 19.5515 24.433 19.5444 24.4134V24.1289Z" fill="#FFFF00" stroke="black" stroke-width="0.0711113"/>
<path d="M19.1177 24.357C19.1177 24.2716 19.2457 24.2716 19.2457 24.357V24.5845H19.1177V24.357Z" fill="#000001"/>
<path d="M18.3638 24.6695C18.3638 24.5841 18.4775 24.5841 18.4775 24.6695V24.8401H18.3638V24.6695Z" fill="#000001"/>
<path d="M19.8716 24.6695C19.8716 24.5841 19.9854 24.5841 19.9854 24.6695V24.8401H19.8716V24.6695Z" fill="#000001"/>
<path d="M18.5913 32.9027C18.6055 32.1204 19.1602 31.9355 19.1602 31.9355C19.1744 31.9355 19.7718 32.1347 19.7718 32.9169L18.5913 32.9027Z" fill="#FFFF00"/>
<path d="M18.1079 31.9498L18.0084 32.8458H18.6057C18.6057 32.1062 19.1746 31.9924 19.1746 31.9924C19.1888 31.9924 19.7435 32.1489 19.7577 32.8458H20.355L20.2413 31.9355L18.1079 31.9498ZM17.9657 32.86H20.3835C20.4309 32.86 20.4593 32.8932 20.4688 32.9595C20.4688 33.0354 20.4404 33.0733 20.3835 33.0733H17.9657C17.9183 33.0733 17.8899 33.0354 17.8804 32.9595C17.8804 32.8932 17.9136 32.86 17.9799 32.86H17.9657Z" fill="#FFFF00" stroke="black" stroke-width="0.0711113"/>
<path d="M18.8477 32.8463C18.8477 32.3769 19.1748 32.2489 19.1748 32.2489C19.1748 32.2489 19.5019 32.3911 19.5019 32.8463H18.8477ZM18.0228 31.5663H20.3411C20.3885 31.5757 20.4169 31.6137 20.4264 31.68C20.4264 31.7274 20.3979 31.7559 20.3411 31.7654H18.0228C17.9754 31.7654 17.947 31.7322 17.9375 31.6658C17.9375 31.6184 17.9659 31.59 18.0228 31.5805V31.5663ZM18.0797 31.7796H20.2699C20.3174 31.7796 20.3458 31.8128 20.3553 31.8791C20.3648 31.9455 20.3363 31.9787 20.2699 31.9787H18.0655C18.0086 31.9787 17.9802 31.9455 17.9802 31.8791C17.9802 31.8128 18.0086 31.7796 18.0655 31.7796H18.0797ZM18.7908 30.272H18.9615V30.3858H19.0895V30.272H19.2744V30.4H19.4024V30.2578H19.5731V30.5423C19.5731 30.5991 19.5494 30.6276 19.5019 30.6276H18.8762C18.8288 30.6276 18.8003 30.6039 18.7908 30.5565V30.272ZM19.4451 30.656L19.4877 31.5663H18.8762L18.9188 30.6418H19.4451" fill="#FFFF00"/>
<path d="M19.4451 30.656L19.4877 31.5663H18.8762L18.9188 30.6418H19.4451M18.8477 32.8463C18.8477 32.3769 19.1748 32.2489 19.1748 32.2489C19.1748 32.2489 19.5019 32.3911 19.5019 32.8463H18.8477ZM18.0228 31.5663H20.3411C20.3885 31.5757 20.4169 31.6137 20.4264 31.68C20.4264 31.7274 20.3979 31.7559 20.3411 31.7654H18.0228C17.9754 31.7654 17.947 31.7322 17.9375 31.6658C17.9375 31.6184 17.9659 31.59 18.0228 31.5805V31.5663ZM18.0797 31.7796H20.2699C20.3174 31.7796 20.3458 31.8128 20.3553 31.8791C20.3648 31.9455 20.3363 31.9787 20.2699 31.9787H18.0655C18.0086 31.9787 17.9802 31.9455 17.9802 31.8791C17.9802 31.8128 18.0086 31.7796 18.0655 31.7796H18.0797ZM18.7908 30.272H18.9615V30.3858H19.0895V30.272H19.2744V30.4H19.4024V30.2578H19.5731V30.5423C19.5731 30.5991 19.5494 30.6276 19.5019 30.6276H18.8762C18.8288 30.6276 18.8003 30.6039 18.7908 30.5565V30.272Z" stroke="black" stroke-width="0.0711113"/>
<path d="M18.7051 31.082V31.5656H18.1362V31.082H18.7051Z" fill="#FFFF00" stroke="black" stroke-width="0.0711113"/>
<path d="M20.2129 31.082V31.5656H19.644V31.082H20.2129Z" fill="#FFFF00" stroke="black" stroke-width="0.0711113"/>
<path d="M18.0366 30.7129H18.2073V30.8551H18.3353V30.7129H18.506V30.8551H18.634V30.7129H18.8046V30.9973C18.8046 31.0542 18.7809 31.0827 18.7335 31.0827H18.122C18.1023 31.0756 18.0845 31.0642 18.0698 31.0495C18.055 31.0348 18.0437 31.0169 18.0366 30.9973V30.7129Z" fill="#FFFF00" stroke="black" stroke-width="0.0711113"/>
<path d="M19.5444 30.7129H19.7151V30.8551H19.8431V30.7129H20.0138V30.8551H20.1418V30.7129H20.3124V30.9973C20.3124 31.0542 20.2887 31.0827 20.2413 31.0827H19.6298C19.6102 31.0756 19.5923 31.0642 19.5776 31.0495C19.5629 31.0348 19.5515 31.0169 19.5444 30.9973V30.7129Z" fill="#FFFF00" stroke="black" stroke-width="0.0711113"/>
<path d="M19.1177 30.941C19.1177 30.8556 19.2457 30.8556 19.2457 30.941V31.1685H19.1177V30.941Z" fill="#000001"/>
<path d="M18.3638 31.2535C18.3638 31.1681 18.4775 31.1681 18.4775 31.2535V31.4241H18.3638V31.2535Z" fill="#000001"/>
<path d="M19.8716 31.2535C19.8716 31.1681 19.9854 31.1681 19.9854 31.2535V31.4241H19.8716V31.2535Z" fill="#000001"/>
<path d="M21.1579 39.7674C20.6129 39.2061 20.8725 38.6823 20.8725 38.6823C20.8826 38.6722 21.4447 38.3886 21.9998 38.9398L21.1579 39.7674Z" fill="#FFFF00"/>
<path d="M20.1411 39.4384L20.7068 40.1404L21.1277 39.7165C20.6029 39.1954 20.923 38.7116 20.923 38.7116C20.933 38.7015 21.4349 38.4182 21.9394 38.8991L22.3603 38.4753L21.6343 37.9146L20.1411 39.4384ZM20.6868 40.1807L22.3904 38.4651C22.4238 38.4315 22.4674 38.4347 22.5212 38.4747C22.575 38.5282 22.5819 38.5751 22.5418 38.6154L20.8382 40.331C20.8048 40.3647 20.7578 40.3581 20.6973 40.3114C20.6502 40.2646 20.65 40.2177 20.6968 40.1706L20.6868 40.1807Z" fill="#FFFF00" stroke="black" stroke-width="0.0711113"/>
<path d="M21.2979 39.5452C20.9649 39.2145 21.1045 38.8922 21.1045 38.8922C21.1045 38.8922 21.4359 38.7603 21.7589 39.081L21.2979 39.5452ZM19.8084 39.2286L21.4419 37.5837C21.482 37.5567 21.529 37.5633 21.5828 37.6033C21.6164 37.6367 21.6165 37.6769 21.5832 37.724L19.9497 39.3689C19.9163 39.4026 19.8727 39.3994 19.8189 39.3593C19.7853 39.3259 19.7851 39.2857 19.8185 39.2386L19.8084 39.2286ZM19.9998 39.3386L21.5432 37.7844C21.5766 37.7508 21.6202 37.754 21.6739 37.794C21.7277 37.8341 21.7312 37.8777 21.6844 37.9247L20.1311 39.489C20.091 39.5293 20.0474 39.5261 20.0003 39.4794C19.9532 39.4326 19.9497 39.389 19.9898 39.3487L19.9998 39.3386ZM19.4312 37.7717L19.5515 37.6506L19.6322 37.7308L19.7224 37.64L19.6417 37.5598L19.7719 37.4286L19.8628 37.5188L19.953 37.428L19.852 37.3277L19.9723 37.2066L20.1741 37.4071C20.2145 37.4472 20.218 37.484 20.1846 37.5177L19.7436 37.9617C19.7102 37.9953 19.6734 37.9988 19.633 37.9721L19.4312 37.7717ZM20.1647 37.5781L20.8406 38.1892L20.4097 38.6231L19.7838 37.9414L20.1546 37.568" fill="#FFFF00"/>
<path d="M20.1647 37.5781L20.8406 38.1892L20.4097 38.6231L19.7838 37.9414L20.1546 37.568M21.2979 39.5452C20.9649 39.2145 21.1045 38.8922 21.1045 38.8922C21.1045 38.8922 21.4359 38.7603 21.7589 39.081L21.2979 39.5452ZM19.8084 39.2286L21.4419 37.5837C21.482 37.5567 21.529 37.5633 21.5828 37.6033C21.6164 37.6367 21.6165 37.6769 21.5832 37.724L19.9497 39.3689C19.9163 39.4026 19.8727 39.3994 19.8189 39.3593C19.7853 39.3259 19.7851 39.2857 19.8185 39.2386L19.8084 39.2286ZM19.9998 39.3386L21.5432 37.7844C21.5766 37.7508 21.6202 37.754 21.6739 37.794C21.7277 37.8341 21.7312 37.8777 21.6844 37.9247L20.1311 39.489C20.091 39.5293 20.0474 39.5261 20.0003 39.4794C19.9532 39.4326 19.9497 39.389 19.9898 39.3487L19.9998 39.3386ZM19.4312 37.7717L19.5515 37.6506L19.6322 37.7308L19.7224 37.64L19.6417 37.5598L19.7719 37.4286L19.8628 37.5188L19.953 37.428L19.852 37.3277L19.9723 37.2066L20.1741 37.4071C20.2145 37.4472 20.218 37.484 20.1846 37.5177L19.7436 37.9617C19.7102 37.9953 19.6734 37.9988 19.633 37.9721L19.4312 37.7717Z" stroke="black" stroke-width="0.0711113"/>
<path d="M19.9463 38.4049L20.2894 38.7457L19.8885 39.1493L19.5454 38.8086L19.9463 38.4049Z" fill="#FFFF00" stroke="black" stroke-width="0.0711113"/>
<path d="M21.0088 37.3346L21.3519 37.6753L20.951 38.079L20.6079 37.7383L21.0088 37.3346Z" fill="#FFFF00" stroke="black" stroke-width="0.0711113"/>
<path d="M19.2129 38.6172L19.3331 38.4961L19.4341 38.5963L19.5243 38.5055L19.4233 38.4053L19.5436 38.2842L19.6445 38.3844L19.7347 38.2936L19.6338 38.1933L19.7541 38.0722L19.9559 38.2727C19.9963 38.3128 19.9997 38.3496 19.9663 38.3833L19.5354 38.8172C19.5165 38.8261 19.496 38.8308 19.4751 38.8308C19.4543 38.8309 19.4336 38.8264 19.4147 38.8176L19.2129 38.6172Z" fill="#FFFF00" stroke="black" stroke-width="0.0711113"/>
<path d="M20.2754 37.5488L20.3956 37.4277L20.4966 37.5279L20.5868 37.4371L20.4858 37.3369L20.6061 37.2158L20.707 37.316L20.7972 37.2252L20.6963 37.125L20.8166 37.0039L21.0184 37.2043C21.0588 37.2444 21.0622 37.2813 21.0288 37.3149L20.5979 37.7488C20.579 37.7578 20.5585 37.7624 20.5376 37.7625C20.5168 37.7626 20.4961 37.758 20.4772 37.7493L20.2754 37.5488Z" fill="#FFFF00" stroke="black" stroke-width="0.0711113"/>
<path d="M20.1362 38.0119C20.0757 37.9518 20.1659 37.8609 20.2264 37.9211L20.3879 38.0814L20.2977 38.1722L20.1362 38.0119Z" fill="#000001"/>
<path d="M19.8272 38.7658C19.7666 38.7057 19.8468 38.6249 19.9073 38.6851L20.0284 38.8053L19.9483 38.8861L19.8272 38.7658Z" fill="#000001"/>
<path d="M20.8892 37.6974C20.8286 37.6373 20.9088 37.5566 20.9693 37.6167L21.0904 37.737L21.0103 37.8177L20.8892 37.6974Z" fill="#000001"/>
<path d="M25.0908 26.3187C25.105 25.5364 25.6597 25.3516 25.6597 25.3516C25.6739 25.3516 26.2713 25.5507 26.2713 26.3329L25.0908 26.3187Z" fill="#FFFF00"/>
<path d="M24.6074 25.3658L24.5079 26.2618H25.1052C25.1052 25.5222 25.6741 25.4085 25.6741 25.4085C25.6883 25.4085 26.243 25.5649 26.2572 26.2618H26.8546L26.7408 25.3516L24.6074 25.3658ZM24.4652 26.276H26.883C26.9304 26.276 26.9589 26.3092 26.9683 26.3756C26.9683 26.4514 26.9399 26.4893 26.883 26.4893H24.4652C24.4178 26.4893 24.3894 26.4514 24.3799 26.3756C24.3799 26.3092 24.4131 26.276 24.4794 26.276H24.4652Z" fill="#FFFF00" stroke="black" stroke-width="0.0711113"/>
<path d="M25.3472 26.2623C25.3472 25.7929 25.6743 25.6649 25.6743 25.6649C25.6743 25.6649 26.0015 25.8072 26.0015 26.2623H25.3472ZM24.5223 24.9823H26.8406C26.888 24.9918 26.9164 25.0297 26.9259 25.0961C26.9259 25.1435 26.8975 25.1719 26.8406 25.1814H24.5223C24.4749 25.1814 24.4465 25.1482 24.437 25.0818C24.437 25.0344 24.4655 25.006 24.5223 24.9965V24.9823ZM24.5792 25.1956H26.7695C26.8169 25.1956 26.8453 25.2288 26.8548 25.2952C26.8643 25.3615 26.8358 25.3947 26.7695 25.3947H24.565C24.5081 25.3947 24.4797 25.3615 24.4797 25.2952C24.4797 25.2288 24.5081 25.1956 24.565 25.1956H24.5792ZM25.2903 23.688H25.461V23.8018H25.589V23.688H25.7739V23.8161H25.9019V23.6738H26.0726V23.9583C26.0726 24.0152 26.0489 24.0436 26.0015 24.0436H25.3757C25.3283 24.0436 25.2998 24.0199 25.2903 23.9725V23.688ZM25.9446 24.0721L25.9872 24.9823H25.3757L25.4183 24.0578H25.9446" fill="#FFFF00"/>
<path d="M25.9446 24.0721L25.9872 24.9823H25.3757L25.4183 24.0578H25.9446M25.3472 26.2623C25.3472 25.7929 25.6743 25.6649 25.6743 25.6649C25.6743 25.6649 26.0015 25.8072 26.0015 26.2623H25.3472ZM24.5223 24.9823H26.8406C26.888 24.9918 26.9164 25.0297 26.9259 25.0961C26.9259 25.1435 26.8975 25.1719 26.8406 25.1814H24.5223C24.4749 25.1814 24.4465 25.1482 24.437 25.0818C24.437 25.0344 24.4655 25.006 24.5223 24.9965V24.9823ZM24.5792 25.1956H26.7695C26.8169 25.1956 26.8453 25.2288 26.8548 25.2952C26.8643 25.3615 26.8358 25.3947 26.7695 25.3947H24.565C24.5081 25.3947 24.4797 25.3615 24.4797 25.2952C24.4797 25.2288 24.5081 25.1956 24.565 25.1956H24.5792ZM25.2903 23.688H25.461V23.8018H25.589V23.688H25.7739V23.8161H25.9019V23.6738H26.0726V23.9583C26.0726 24.0152 26.0489 24.0436 26.0015 24.0436H25.3757C25.3283 24.0436 25.2998 24.0199 25.2903 23.9725V23.688Z" stroke="black" stroke-width="0.0711113"/>
<path d="M25.2046 24.498V24.9816H24.6357V24.498H25.2046Z" fill="#FFFF00" stroke="black" stroke-width="0.0711113"/>
<path d="M26.7124 24.498V24.9816H26.1436V24.498H26.7124Z" fill="#FFFF00" stroke="black" stroke-width="0.0711113"/>
<path d="M24.5361 24.1289H24.7068V24.2711H24.8348V24.1289H25.0055V24.2711H25.1335V24.1289H25.3041V24.4134C25.3041 24.4702 25.2804 24.4987 25.233 24.4987H24.6215C24.6019 24.4916 24.584 24.4803 24.5693 24.4655C24.5546 24.4508 24.5432 24.433 24.5361 24.4134V24.1289Z" fill="#FFFF00" stroke="black" stroke-width="0.0711113"/>
<path d="M26.0439 24.1289H26.2146V24.2711H26.3426V24.1289H26.5133V24.2711H26.6413V24.1289H26.8119V24.4134C26.8119 24.4702 26.7882 24.4987 26.7408 24.4987H26.1293C26.1097 24.4916 26.0919 24.4803 26.0771 24.4655C26.0624 24.4508 26.051 24.433 26.0439 24.4134V24.1289Z" fill="#FFFF00" stroke="black" stroke-width="0.0711113"/>
<path d="M25.6172 24.357C25.6172 24.2716 25.7452 24.2716 25.7452 24.357V24.5845H25.6172V24.357Z" fill="#000001"/>
<path d="M24.8633 24.6695C24.8633 24.5841 24.9771 24.5841 24.9771 24.6695V24.8401H24.8633V24.6695Z" fill="#000001"/>
<path d="M26.3711 24.6695C26.3711 24.5841 26.4849 24.5841 26.4849 24.6695V24.8401H26.3711V24.6695Z" fill="#000001"/>
<path d="M32.7285 26.3187C32.7143 25.5364 32.1596 25.3516 32.1596 25.3516C32.1454 25.3516 31.5481 25.5507 31.5481 26.3329L32.7285 26.3187Z" fill="#FFFF00"/>
<path d="M33.2119 25.3658L33.3115 26.2618H32.7141C32.7141 25.5222 32.1452 25.4085 32.1452 25.4085C32.131 25.4085 31.5763 25.5649 31.5621 26.2618H30.9648L31.0786 25.3516L33.2119 25.3658ZM33.3541 26.276H30.9363C30.8889 26.276 30.8605 26.3092 30.851 26.3756C30.851 26.4514 30.8794 26.4893 30.9363 26.4893H33.3541C33.4015 26.4893 33.43 26.4514 33.4395 26.3756C33.4395 26.3092 33.4063 26.276 33.3399 26.276H33.3541Z" fill="#FFFF00" stroke="black" stroke-width="0.0711113"/>
<path d="M32.4726 26.2623C32.4726 25.7929 32.1455 25.6649 32.1455 25.6649C32.1455 25.6649 31.8184 25.8072 31.8184 26.2623H32.4726ZM33.2975 24.9823H30.9793C30.9318 24.9918 30.9034 25.0297 30.8939 25.0961C30.8939 25.1435 30.9224 25.1719 30.9793 25.1814H33.2975C33.3449 25.1814 33.3733 25.1482 33.3828 25.0818C33.3828 25.0344 33.3544 25.006 33.2975 24.9965V24.9823ZM33.2406 25.1956H31.0504C31.003 25.1956 30.9745 25.2288 30.965 25.2952C30.9555 25.3615 30.984 25.3947 31.0504 25.3947H33.2548C33.3117 25.3947 33.3401 25.3615 33.3401 25.2952C33.3401 25.2288 33.3117 25.1956 33.2548 25.1956H33.2406ZM32.5295 23.688H32.3588V23.8018H32.2308V23.688H32.0459V23.8161H31.9179V23.6738H31.7473V23.9583C31.7473 24.0152 31.771 24.0436 31.8184 24.0436H32.4441C32.4916 24.0436 32.52 24.0199 32.5295 23.9725V23.688ZM31.8753 24.0721L31.8326 24.9823H32.4441L32.4015 24.0578H31.8753" fill="#FFFF00"/>
<path d="M31.8753 24.0721L31.8326 24.9823H32.4441L32.4015 24.0578H31.8753M32.4726 26.2623C32.4726 25.7929 32.1455 25.6649 32.1455 25.6649C32.1455 25.6649 31.8184 25.8072 31.8184 26.2623H32.4726ZM33.2975 24.9823H30.9793C30.9318 24.9918 30.9034 25.0297 30.8939 25.0961C30.8939 25.1435 30.9224 25.1719 30.9793 25.1814H33.2975C33.3449 25.1814 33.3733 25.1482 33.3828 25.0818C33.3828 25.0344 33.3544 25.006 33.2975 24.9965V24.9823ZM33.2406 25.1956H31.0504C31.003 25.1956 30.9745 25.2288 30.965 25.2952C30.9555 25.3615 30.984 25.3947 31.0504 25.3947H33.2548C33.3117 25.3947 33.3401 25.3615 33.3401 25.2952C33.3401 25.2288 33.3117 25.1956 33.2548 25.1956H33.2406ZM32.5295 23.688H32.3588V23.8018H32.2308V23.688H32.0459V23.8161H31.9179V23.6738H31.7473V23.9583C31.7473 24.0152 31.771 24.0436 31.8184 24.0436H32.4441C32.4916 24.0436 32.52 24.0199 32.5295 23.9725V23.688Z" stroke="black" stroke-width="0.0711113"/>
<path d="M32.6147 24.498V24.9816H33.1836V24.498H32.6147Z" fill="#FFFF00" stroke="black" stroke-width="0.0711113"/>
<path d="M31.1069 24.498V24.9816H31.6758V24.498H31.1069Z" fill="#FFFF00" stroke="black" stroke-width="0.0711113"/>
<path d="M33.2832 24.1289H33.1125V24.2711H32.9845V24.1289H32.8139V24.2711H32.6859V24.1289H32.5152V24.4134C32.5152 24.4702 32.5389 24.4987 32.5863 24.4987H33.1979C33.2175 24.4916 33.2353 24.4803 33.25 24.4655C33.2648 24.4508 33.2761 24.433 33.2832 24.4134V24.1289Z" fill="#FFFF00" stroke="black" stroke-width="0.0711113"/>
<path d="M31.7754 24.1289H31.6047V24.2711H31.4767V24.1289H31.3061V24.2711H31.1781V24.1289H31.0074V24.4134C31.0074 24.4702 31.0311 24.4987 31.0785 24.4987H31.6901C31.7097 24.4916 31.7275 24.4803 31.7422 24.4655C31.757 24.4508 31.7683 24.433 31.7754 24.4134V24.1289Z" fill="#FFFF00" stroke="black" stroke-width="0.0711113"/>
<path d="M32.2021 24.357C32.2021 24.2716 32.0741 24.2716 32.0741 24.357V24.5845H32.2021V24.357Z" fill="#000001"/>
<path d="M32.9561 24.6695C32.9561 24.5841 32.8423 24.5841 32.8423 24.6695V24.8401H32.9561V24.6695Z" fill="#000001"/>
<path d="M31.4482 24.6695C31.4482 24.5841 31.3345 24.5841 31.3345 24.6695V24.8401H31.4482V24.6695Z" fill="#000001"/>
<path d="M32.7285 32.9027C32.7143 32.1204 32.1596 31.9355 32.1596 31.9355C32.1454 31.9355 31.5481 32.1347 31.5481 32.9169L32.7285 32.9027Z" fill="#FFFF00"/>
<path d="M33.2119 31.9498L33.3115 32.8458H32.7141C32.7141 32.1062 32.1452 31.9924 32.1452 31.9924C32.131 31.9924 31.5763 32.1489 31.5621 32.8458H30.9648L31.0786 31.9355L33.2119 31.9498ZM33.3541 32.86H30.9363C30.8889 32.86 30.8605 32.8932 30.851 32.9595C30.851 33.0354 30.8794 33.0733 30.9363 33.0733H33.3541C33.4015 33.0733 33.43 33.0354 33.4395 32.9595C33.4395 32.8932 33.4063 32.86 33.3399 32.86H33.3541Z" fill="#FFFF00" stroke="black" stroke-width="0.0711113"/>
<path d="M32.4726 32.8463C32.4726 32.3769 32.1455 32.2489 32.1455 32.2489C32.1455 32.2489 31.8184 32.3911 31.8184 32.8463H32.4726ZM33.2975 31.5663H30.9793C30.9318 31.5757 30.9034 31.6137 30.8939 31.68C30.8939 31.7274 30.9224 31.7559 30.9793 31.7654H33.2975C33.3449 31.7654 33.3733 31.7322 33.3828 31.6658C33.3828 31.6184 33.3544 31.59 33.2975 31.5805V31.5663ZM33.2406 31.7796H31.0504C31.003 31.7796 30.9745 31.8128 30.965 31.8791C30.9555 31.9455 30.984 31.9787 31.0504 31.9787H33.2548C33.3117 31.9787 33.3401 31.9455 33.3401 31.8791C33.3401 31.8128 33.3117 31.7796 33.2548 31.7796H33.2406ZM32.5295 30.272H32.3588V30.3858H32.2308V30.272H32.0459V30.4H31.9179V30.2578H31.7473V30.5423C31.7473 30.5991 31.771 30.6276 31.8184 30.6276H32.4441C32.4916 30.6276 32.52 30.6039 32.5295 30.5565V30.272ZM31.8753 30.656L31.8326 31.5663H32.4441L32.4015 30.6418H31.8753" fill="#FFFF00"/>
<path d="M31.8753 30.656L31.8326 31.5663H32.4441L32.4015 30.6418H31.8753M32.4726 32.8463C32.4726 32.3769 32.1455 32.2489 32.1455 32.2489C32.1455 32.2489 31.8184 32.3911 31.8184 32.8463H32.4726ZM33.2975 31.5663H30.9793C30.9318 31.5757 30.9034 31.6137 30.8939 31.68C30.8939 31.7274 30.9224 31.7559 30.9793 31.7654H33.2975C33.3449 31.7654 33.3733 31.7322 33.3828 31.6658C33.3828 31.6184 33.3544 31.59 33.2975 31.5805V31.5663ZM33.2406 31.7796H31.0504C31.003 31.7796 30.9745 31.8128 30.965 31.8791C30.9555 31.9455 30.984 31.9787 31.0504 31.9787H33.2548C33.3117 31.9787 33.3401 31.9455 33.3401 31.8791C33.3401 31.8128 33.3117 31.7796 33.2548 31.7796H33.2406ZM32.5295 30.272H32.3588V30.3858H32.2308V30.272H32.0459V30.4H31.9179V30.2578H31.7473V30.5423C31.7473 30.5991 31.771 30.6276 31.8184 30.6276H32.4441C32.4916 30.6276 32.52 30.6039 32.5295 30.5565V30.272Z" stroke="black" stroke-width="0.0711113"/>
<path d="M32.6147 31.082V31.5656H33.1836V31.082H32.6147Z" fill="#FFFF00" stroke="black" stroke-width="0.0711113"/>
<path d="M31.1069 31.082V31.5656H31.6758V31.082H31.1069Z" fill="#FFFF00" stroke="black" stroke-width="0.0711113"/>
<path d="M33.2832 30.7129H33.1125V30.8551H32.9845V30.7129H32.8139V30.8551H32.6859V30.7129H32.5152V30.9973C32.5152 31.0542 32.5389 31.0827 32.5863 31.0827H33.1979C33.2175 31.0756 33.2353 31.0642 33.25 31.0495C33.2648 31.0348 33.2761 31.0169 33.2832 30.9973V30.7129Z" fill="#FFFF00" stroke="black" stroke-width="0.0711113"/>
<path d="M31.7754 30.7129H31.6047V30.8551H31.4767V30.7129H31.3061V30.8551H31.1781V30.7129H31.0074V30.9973C31.0074 31.0542 31.0311 31.0827 31.0785 31.0827H31.6901C31.7097 31.0756 31.7275 31.0642 31.7422 31.0495C31.757 31.0348 31.7683 31.0169 31.7754 30.9973V30.7129Z" fill="#FFFF00" stroke="black" stroke-width="0.0711113"/>
<path d="M32.2021 30.941C32.2021 30.8556 32.0741 30.8556 32.0741 30.941V31.1685H32.2021V30.941Z" fill="#000001"/>
<path d="M32.9561 31.2535C32.9561 31.1681 32.8423 31.1681 32.8423 31.2535V31.4241H32.9561V31.2535Z" fill="#000001"/>
<path d="M31.4482 31.2535C31.4482 31.1681 31.3345 31.1681 31.3345 31.2535V31.4241H31.4482V31.2535Z" fill="#000001"/>
<path d="M30.1619 39.7674C30.7069 39.2061 30.4473 38.6823 30.4473 38.6823C30.4373 38.6722 29.8751 38.3886 29.32 38.9398L30.1619 39.7674Z" fill="#FFFF00"/>
<path d="M31.1787 39.4384L30.6131 40.1404L30.1922 39.7165C30.7169 39.1954 30.3968 38.7116 30.3968 38.7116C30.3868 38.7015 29.8849 38.4182 29.3804 38.8991L28.9595 38.4753L29.6856 37.9146L31.1787 39.4384ZM30.633 40.1807L28.9294 38.4651C28.896 38.4315 28.8524 38.4347 28.7986 38.4747C28.7448 38.5282 28.7379 38.5751 28.778 38.6154L30.4817 40.331C30.5151 40.3647 30.562 40.3581 30.6225 40.3114C30.6696 40.2646 30.6698 40.2177 30.623 40.1706L30.633 40.1807Z" fill="#FFFF00" stroke="black" stroke-width="0.0711113"/>
<path d="M30.0219 39.5452C30.355 39.2145 30.2153 38.8922 30.2153 38.8922C30.2153 38.8922 29.8839 38.7603 29.5609 39.081L30.0219 39.5452ZM31.5114 39.2286L29.8779 37.5837C29.8378 37.5567 29.7908 37.5633 29.7371 37.6033C29.7034 37.6367 29.7033 37.6769 29.7367 37.724L31.3702 39.3689C31.4036 39.4026 31.4471 39.3994 31.5009 39.3593C31.5346 39.3259 31.5347 39.2857 31.5013 39.2386L31.5114 39.2286ZM31.32 39.3386L29.7767 37.7844C29.7433 37.7508 29.6997 37.754 29.6459 37.794C29.5921 37.8341 29.5886 37.8777 29.6354 37.9247L31.1887 39.489C31.2288 39.5293 31.2724 39.5261 31.3195 39.4794C31.3666 39.4326 31.3701 39.389 31.33 39.3487L31.32 39.3386ZM31.8886 37.7717L31.7684 37.6506L31.6876 37.7308L31.5974 37.64L31.6782 37.5598L31.5479 37.4286L31.4571 37.5188L31.3669 37.428L31.4678 37.3277L31.3475 37.2066L31.1457 37.4071C31.1053 37.4472 31.1018 37.484 31.1353 37.5177L31.5762 37.9617C31.6096 37.9953 31.6465 37.9988 31.6868 37.9721L31.8886 37.7717ZM31.1552 37.5781L30.4792 38.1892L30.9101 38.6231L31.536 37.9414L31.1652 37.568" fill="#FFFF00"/>
<path d="M31.1552 37.5781L30.4792 38.1892L30.9101 38.6231L31.536 37.9414L31.1652 37.568M30.0219 39.5452C30.355 39.2145 30.2153 38.8922 30.2153 38.8922C30.2153 38.8922 29.8839 38.7603 29.5609 39.081L30.0219 39.5452ZM31.5114 39.2286L29.8779 37.5837C29.8378 37.5567 29.7908 37.5633 29.7371 37.6033C29.7034 37.6367 29.7033 37.6769 29.7367 37.724L31.3702 39.3689C31.4036 39.4026 31.4471 39.3994 31.5009 39.3593C31.5346 39.3259 31.5347 39.2857 31.5013 39.2386L31.5114 39.2286ZM31.32 39.3386L29.7767 37.7844C29.7433 37.7508 29.6997 37.754 29.6459 37.794C29.5921 37.8341 29.5886 37.8777 29.6354 37.9247L31.1887 39.489C31.2288 39.5293 31.2724 39.5261 31.3195 39.4794C31.3666 39.4326 31.3701 39.389 31.33 39.3487L31.32 39.3386ZM31.8886 37.7717L31.7684 37.6506L31.6876 37.7308L31.5974 37.64L31.6782 37.5598L31.5479 37.4286L31.4571 37.5188L31.3669 37.428L31.4678 37.3277L31.3475 37.2066L31.1457 37.4071C31.1053 37.4472 31.1018 37.484 31.1353 37.5177L31.5762 37.9617C31.6096 37.9953 31.6465 37.9988 31.6868 37.9721L31.8886 37.7717Z" stroke="black" stroke-width="0.0711113"/>
<path d="M31.3736 38.4049L31.0304 38.7457L31.4313 39.1493L31.7744 38.8086L31.3736 38.4049Z" fill="#FFFF00" stroke="black" stroke-width="0.0711113"/>
<path d="M30.3111 37.3346L29.9679 37.6753L30.3688 38.079L30.7119 37.7383L30.3111 37.3346Z" fill="#FFFF00" stroke="black" stroke-width="0.0711113"/>
<path d="M32.1069 38.6172L31.9867 38.4961L31.8858 38.5963L31.7956 38.5055L31.8965 38.4053L31.7762 38.2842L31.6753 38.3844L31.5851 38.2936L31.686 38.1933L31.5658 38.0722L31.3639 38.2727C31.3236 38.3128 31.3201 38.3496 31.3535 38.3833L31.7844 38.8172C31.8033 38.8261 31.8239 38.8308 31.8447 38.8308C31.8656 38.8309 31.8862 38.8264 31.9051 38.8176L32.1069 38.6172Z" fill="#FFFF00" stroke="black" stroke-width="0.0711113"/>
<path d="M31.0444 37.5488L30.9242 37.4277L30.8233 37.5279L30.7331 37.4371L30.834 37.3369L30.7137 37.2158L30.6128 37.316L30.5226 37.2252L30.6235 37.125L30.5033 37.0039L30.3014 37.2043C30.2611 37.2444 30.2576 37.2813 30.291 37.3149L30.7219 37.7488C30.7408 37.7578 30.7614 37.7624 30.7822 37.7625C30.8031 37.7626 30.8237 37.758 30.8426 37.7493L31.0444 37.5488Z" fill="#FFFF00" stroke="black" stroke-width="0.0711113"/>
<path d="M31.1836 38.0119C31.2441 37.9518 31.1539 37.8609 31.0934 37.9211L30.9319 38.0814L31.0221 38.1722L31.1836 38.0119Z" fill="#000001"/>
<path d="M31.4927 38.7658C31.5532 38.7057 31.4731 38.6249 31.4125 38.6851L31.2914 38.8053L31.3716 38.8861L31.4927 38.7658Z" fill="#000001"/>
<path d="M30.4307 37.6974C30.4912 37.6373 30.411 37.5566 30.3505 37.6167L30.2294 37.737L30.3096 37.8177L30.4307 37.6974Z" fill="#000001"/>
<path d="M24.6214 33.1454C24.6143 33.4464 24.7269 33.7379 24.9343 33.956C25.0281 34.0637 25.144 34.1498 25.274 34.2087C25.4041 34.2676 25.5453 34.2979 25.6881 34.2974C25.9915 34.2784 26.2427 34.1646 26.4419 33.956C26.6493 33.7379 26.7618 33.4464 26.7547 33.1454V31.6094H24.6214V33.1454Z" fill="#003399"/>
<path d="M25.1191 32.4052C25.2369 32.4052 25.3324 32.3097 25.3324 32.1918C25.3324 32.074 25.2369 31.9785 25.1191 31.9785C25.0013 31.9785 24.9058 32.074 24.9058 32.1918C24.9058 32.3097 25.0013 32.4052 25.1191 32.4052Z" fill="white"/>
<path d="M26.2998 32.4052C26.4176 32.4052 26.5131 32.3097 26.5131 32.1918C26.5131 32.074 26.4176 31.9785 26.2998 31.9785C26.1819 31.9785 26.0864 32.074 26.0864 32.1918C26.0864 32.3097 26.1819 32.4052 26.2998 32.4052Z" fill="white"/>
<path d="M25.7021 32.9755C25.8199 32.9755 25.9154 32.88 25.9154 32.7622C25.9154 32.6443 25.8199 32.5488 25.7021 32.5488C25.5843 32.5488 25.4888 32.6443 25.4888 32.7622C25.4888 32.88 25.5843 32.9755 25.7021 32.9755Z" fill="white"/>
<path d="M25.1191 33.5712C25.2369 33.5712 25.3324 33.4757 25.3324 33.3579C25.3324 33.24 25.2369 33.1445 25.1191 33.1445C25.0013 33.1445 24.9058 33.24 24.9058 33.3579C24.9058 33.4757 25.0013 33.5712 25.1191 33.5712Z" fill="white"/>
<path d="M26.2998 33.5712C26.4176 33.5712 26.5131 33.4757 26.5131 33.3579C26.5131 33.24 26.4176 33.1445 26.2998 33.1445C26.1819 33.1445 26.0864 33.24 26.0864 33.3579C26.0864 33.4757 26.1819 33.5712 26.2998 33.5712Z" fill="white"/>
<path d="M24.6214 29.4481C24.6143 29.7491 24.7269 30.0406 24.9343 30.2588C25.0281 30.3664 25.144 30.4526 25.274 30.5115C25.4041 30.5704 25.5453 30.6006 25.6881 30.6001C25.9915 30.5812 26.2427 30.4674 26.4419 30.2588C26.6493 30.0406 26.7618 29.7491 26.7547 29.4481V27.9121H24.6214V29.4481Z" fill="#003399"/>
<path d="M25.1191 28.7079C25.2369 28.7079 25.3324 28.6124 25.3324 28.4946C25.3324 28.3768 25.2369 28.2812 25.1191 28.2812C25.0013 28.2812 24.9058 28.3768 24.9058 28.4946C24.9058 28.6124 25.0013 28.7079 25.1191 28.7079Z" fill="white"/>
<path d="M26.2998 28.7079C26.4176 28.7079 26.5131 28.6124 26.5131 28.4946C26.5131 28.3768 26.4176 28.2812 26.2998 28.2812C26.1819 28.2812 26.0864 28.3768 26.0864 28.4946C26.0864 28.6124 26.1819 28.7079 26.2998 28.7079Z" fill="white"/>
<path d="M25.7021 29.2782C25.8199 29.2782 25.9154 29.1827 25.9154 29.0649C25.9154 28.9471 25.8199 28.8516 25.7021 28.8516C25.5843 28.8516 25.4888 28.9471 25.4888 29.0649C25.4888 29.1827 25.5843 29.2782 25.7021 29.2782Z" fill="white"/>
<path d="M25.1191 29.8739C25.2369 29.8739 25.3324 29.7784 25.3324 29.6606C25.3324 29.5428 25.2369 29.4473 25.1191 29.4473C25.0013 29.4473 24.9058 29.5428 24.9058 29.6606C24.9058 29.7784 25.0013 29.8739 25.1191 29.8739Z" fill="white"/>
<path d="M26.2998 29.8739C26.4176 29.8739 26.5131 29.7784 26.5131 29.6606C26.5131 29.5428 26.4176 29.4473 26.2998 29.4473C26.1819 29.4473 26.0864 29.5428 26.0864 29.6606C26.0864 29.7784 26.1819 29.8739 26.2998 29.8739Z" fill="white"/>
<path d="M21.6634 33.1454C21.6563 33.4464 21.7688 33.7379 21.9763 33.956C22.0701 34.0637 22.186 34.1498 22.316 34.2087C22.4461 34.2676 22.5873 34.2979 22.7301 34.2974C23.0335 34.2784 23.2847 34.1646 23.4838 33.956C23.6913 33.7379 23.8038 33.4464 23.7967 33.1454V31.6094H21.6634V33.1454Z" fill="#003399"/>
<path d="M22.1611 32.4052C22.2789 32.4052 22.3744 32.3097 22.3744 32.1918C22.3744 32.074 22.2789 31.9785 22.1611 31.9785C22.0433 31.9785 21.9478 32.074 21.9478 32.1918C21.9478 32.3097 22.0433 32.4052 22.1611 32.4052Z" fill="white"/>
<path d="M23.3418 32.4052C23.4596 32.4052 23.5551 32.3097 23.5551 32.1918C23.5551 32.074 23.4596 31.9785 23.3418 31.9785C23.2239 31.9785 23.1284 32.074 23.1284 32.1918C23.1284 32.3097 23.2239 32.4052 23.3418 32.4052Z" fill="white"/>
<path d="M22.7441 32.9755C22.8619 32.9755 22.9574 32.88 22.9574 32.7622C22.9574 32.6443 22.8619 32.5488 22.7441 32.5488C22.6263 32.5488 22.5308 32.6443 22.5308 32.7622C22.5308 32.88 22.6263 32.9755 22.7441 32.9755Z" fill="white"/>
<path d="M22.1611 33.5712C22.2789 33.5712 22.3744 33.4757 22.3744 33.3579C22.3744 33.24 22.2789 33.1445 22.1611 33.1445C22.0433 33.1445 21.9478 33.24 21.9478 33.3579C21.9478 33.4757 22.0433 33.5712 22.1611 33.5712Z" fill="white"/>
<path d="M23.3418 33.5712C23.4596 33.5712 23.5551 33.4757 23.5551 33.3579C23.5551 33.24 23.4596 33.1445 23.3418 33.1445C23.2239 33.1445 23.1284 33.24 23.1284 33.3579C23.1284 33.4757 23.2239 33.5712 23.3418 33.5712Z" fill="white"/>
<path d="M27.5799 33.1454C27.5728 33.4464 27.6854 33.7379 27.8928 33.956C27.9866 34.0637 28.1025 34.1498 28.2325 34.2087C28.3626 34.2676 28.5038 34.2979 28.6466 34.2974C28.95 34.2784 29.2012 34.1646 29.4003 33.956C29.6078 33.7379 29.7203 33.4464 29.7132 33.1454V31.6094H27.5799V33.1454Z" fill="#003399"/>
<path d="M28.0776 32.4052C28.1954 32.4052 28.2909 32.3097 28.2909 32.1918C28.2909 32.074 28.1954 31.9785 28.0776 31.9785C27.9598 31.9785 27.8643 32.074 27.8643 32.1918C27.8643 32.3097 27.9598 32.4052 28.0776 32.4052Z" fill="white"/>
<path d="M29.2583 32.4052C29.3761 32.4052 29.4716 32.3097 29.4716 32.1918C29.4716 32.074 29.3761 31.9785 29.2583 31.9785C29.1404 31.9785 29.0449 32.074 29.0449 32.1918C29.0449 32.3097 29.1404 32.4052 29.2583 32.4052Z" fill="white"/>
<path d="M28.6606 32.9755C28.7784 32.9755 28.8739 32.88 28.8739 32.7622C28.8739 32.6443 28.7784 32.5488 28.6606 32.5488C28.5428 32.5488 28.4473 32.6443 28.4473 32.7622C28.4473 32.88 28.5428 32.9755 28.6606 32.9755Z" fill="white"/>
<path d="M28.0776 33.5712C28.1954 33.5712 28.2909 33.4757 28.2909 33.3579C28.2909 33.24 28.1954 33.1445 28.0776 33.1445C27.9598 33.1445 27.8643 33.24 27.8643 33.3579C27.8643 33.4757 27.9598 33.5712 28.0776 33.5712Z" fill="white"/>
<path d="M29.2583 33.5712C29.3761 33.5712 29.4716 33.4757 29.4716 33.3579C29.4716 33.24 29.3761 33.1445 29.2583 33.1445C29.1404 33.1445 29.0449 33.24 29.0449 33.3579C29.0449 33.4757 29.1404 33.5712 29.2583 33.5712Z" fill="white"/>
<path d="M24.6214 36.8133C24.6143 37.1143 24.7269 37.4058 24.9343 37.624C25.0281 37.7316 25.144 37.8178 25.274 37.8767C25.4041 37.9356 25.5453 37.9658 25.6881 37.9653C25.9915 37.9464 26.2427 37.8326 26.4419 37.624C26.6493 37.4058 26.7618 37.1143 26.7547 36.8133V35.2773H24.6214V36.8133Z" fill="#003399"/>
<path d="M25.1191 36.0732C25.2369 36.0732 25.3324 35.9776 25.3324 35.8598C25.3324 35.742 25.2369 35.6465 25.1191 35.6465C25.0013 35.6465 24.9058 35.742 24.9058 35.8598C24.9058 35.9776 25.0013 36.0732 25.1191 36.0732Z" fill="white"/>
<path d="M26.2998 36.0732C26.4176 36.0732 26.5131 35.9776 26.5131 35.8598C26.5131 35.742 26.4176 35.6465 26.2998 35.6465C26.1819 35.6465 26.0864 35.742 26.0864 35.8598C26.0864 35.9776 26.1819 36.0732 26.2998 36.0732Z" fill="white"/>
<path d="M25.7021 36.6435C25.8199 36.6435 25.9154 36.548 25.9154 36.4301C25.9154 36.3123 25.8199 36.2168 25.7021 36.2168C25.5843 36.2168 25.4888 36.3123 25.4888 36.4301C25.4888 36.548 25.5843 36.6435 25.7021 36.6435Z" fill="white"/>
<path d="M25.1191 37.2392C25.2369 37.2392 25.3324 37.1437 25.3324 37.0258C25.3324 36.908 25.2369 36.8125 25.1191 36.8125C25.0013 36.8125 24.9058 36.908 24.9058 37.0258C24.9058 37.1437 25.0013 37.2392 25.1191 37.2392Z" fill="white"/>
<path d="M26.2998 37.2392C26.4176 37.2392 26.5131 37.1437 26.5131 37.0258C26.5131 36.908 26.4176 36.8125 26.2998 36.8125C26.1819 36.8125 26.0864 36.908 26.0864 37.0258C26.0864 37.1437 26.1819 37.2392 26.2998 37.2392Z" fill="white"/>
</g>
<defs>
<clipPath id="clip0_647_983">
<rect width="64" height="64" fill="white" transform="translate(0.078125 0.808594)"/>
</clipPath>
</defs>
</svg>
