<svg width="65" height="65" viewBox="0 0 65 65" fill="none" xmlns="http://www.w3.org/2000/svg">
<g clip-path="url(#clip0_647_1407)">
<path d="M26.5164 0.392578H64.9164V64.3926H26.5039L26.5164 0.392578Z" fill="#FF0000"/>
<path d="M0.91582 0.392578H26.5158V64.3926H0.90332L0.91582 0.392578Z" fill="#006600"/>
<path fill-rule="evenodd" clip-rule="evenodd" d="M37.6416 41.2176C33.3416 41.0926 13.6416 28.7926 13.5166 26.8301L14.5916 25.0176C16.5416 27.8551 36.6916 39.8176 38.6666 39.3926L37.6416 41.2176Z" fill="#FFFF00" stroke="black" stroke-width="0.0875" stroke-linecap="round" stroke-linejoin="round"/>
<path fill-rule="evenodd" clip-rule="evenodd" d="M14.3666 24.7672C13.9791 25.8047 19.5041 29.2172 26.1541 33.2672C32.8041 37.3047 38.5291 39.8047 38.9666 39.4547L39.1541 39.0922C39.0708 39.2255 38.8791 39.2505 38.5791 39.1672C36.7791 38.6422 32.0916 36.4922 26.2916 32.9797C20.4916 29.4672 15.4416 26.2172 14.6666 24.8422C14.6042 24.7139 14.5742 24.5723 14.5791 24.4297H14.5541L14.3916 24.7172L14.3666 24.7672ZM37.7416 41.2672C37.6666 41.4047 37.5291 41.4047 37.2791 41.3922C35.6666 41.2047 30.7791 38.8297 25.0291 35.3797C18.3041 31.3547 12.7541 27.6922 13.3666 26.7422L13.5291 26.4422L13.5541 26.4547C13.0166 28.0797 24.5041 34.6422 25.1791 35.0672C31.8166 39.1922 37.4291 41.5922 37.9291 40.9672L37.7416 41.2672Z" fill="#FFFF00" stroke="black" stroke-width="0.0875" stroke-linecap="round" stroke-linejoin="round"/>
<path fill-rule="evenodd" clip-rule="evenodd" d="M26.5414 28.0172C30.8289 27.9797 36.1414 27.4297 39.1914 26.2172L38.5414 25.1422C36.7289 26.1422 31.4039 26.8047 26.5039 26.8922C20.7039 26.8422 16.6164 26.3047 14.5664 24.9297L13.9414 26.0672C17.7164 27.6547 21.5664 28.0047 26.5414 28.0172Z" fill="#FFFF00" stroke="black" stroke-width="0.0875" stroke-linecap="round" stroke-linejoin="round"/>
<path fill-rule="evenodd" clip-rule="evenodd" d="M39.3783 26.243C39.2658 26.4055 37.2783 27.093 34.3408 27.593C31.7507 27.9814 29.1349 28.1736 26.5158 28.168C24.008 28.1793 21.5022 28.0206 19.0158 27.693C15.9533 27.2055 14.3533 26.5305 13.7658 26.293L13.9158 26.0055C15.5781 26.6606 17.3104 27.122 19.0783 27.3805C21.5441 27.703 24.029 27.8575 26.5158 27.843C29.114 27.8446 31.7087 27.6524 34.2783 27.268C37.2783 26.7805 38.9283 26.1555 39.1533 25.868L39.3783 26.243ZM38.7908 25.143C38.4658 25.393 36.8408 25.9805 33.9908 26.4305C31.5275 26.7841 29.0419 26.9595 26.5533 26.9555C24.1537 26.9737 21.7558 26.8191 19.3783 26.493C16.4658 26.118 14.9283 25.4305 14.3783 25.2305L14.5408 24.943C14.9658 25.168 16.4658 25.768 19.4158 26.193C21.7824 26.4997 24.167 26.6459 26.5533 26.6305C29.0211 26.6337 31.4859 26.4582 33.9283 26.1055C36.8033 25.7055 38.3533 24.9805 38.5908 24.793L38.7908 25.143ZM12.4158 33.193C15.0658 34.618 20.9283 35.343 26.4908 35.393C31.5533 35.393 38.1533 34.6055 40.6158 33.293L40.5408 31.868C39.7783 33.0805 32.7158 34.243 26.4408 34.193C20.1658 34.143 14.3408 33.168 12.4033 31.918V33.193" fill="#FFFF00"/>
<path d="M12.4158 33.193C15.0658 34.618 20.9283 35.343 26.4908 35.393C31.5533 35.393 38.1533 34.6055 40.6158 33.293L40.5408 31.868C39.7783 33.0805 32.7158 34.243 26.4408 34.193C20.1658 34.143 14.3408 33.168 12.4033 31.918V33.193M39.3783 26.243C39.2658 26.4055 37.2783 27.093 34.3408 27.593C31.7507 27.9814 29.1349 28.1736 26.5158 28.168C24.008 28.1793 21.5022 28.0206 19.0158 27.693C15.9533 27.2055 14.3533 26.5305 13.7658 26.293L13.9158 26.0055C15.5781 26.6606 17.3104 27.122 19.0783 27.3805C21.5441 27.703 24.029 27.8575 26.5158 27.843C29.114 27.8446 31.7087 27.6524 34.2783 27.268C37.2783 26.7805 38.9283 26.1555 39.1533 25.868L39.3783 26.243ZM38.7908 25.143C38.4658 25.393 36.8408 25.9805 33.9908 26.4305C31.5275 26.7841 29.0419 26.9595 26.5533 26.9555C24.1537 26.9737 21.7558 26.8191 19.3783 26.493C16.4658 26.118 14.9283 25.4305 14.3783 25.2305L14.5408 24.943C14.9658 25.168 16.4658 25.768 19.4158 26.193C21.7824 26.4997 24.167 26.6459 26.5533 26.6305C29.0211 26.6337 31.4859 26.4582 33.9283 26.1055C36.8033 25.7055 38.3533 24.9805 38.5908 24.793L38.7908 25.143Z" stroke="black" stroke-width="0.0875" stroke-linecap="round" stroke-linejoin="round"/>
<path fill-rule="evenodd" clip-rule="evenodd" d="M40.7537 32.9922V33.3297C40.3787 33.7797 38.0537 34.4547 35.1412 34.9172C32.2563 35.3363 29.3438 35.5369 26.4287 35.5172C23.0037 35.5172 20.2787 35.2672 18.1537 34.9422C16.1149 34.7101 14.1221 34.175 12.2412 33.3547V32.9547C13.5412 33.8172 17.0287 34.4422 18.2037 34.6297C20.3037 34.9547 23.0162 35.1922 26.4287 35.1922C30.0162 35.1922 32.8912 34.9422 35.0912 34.6047C37.1912 34.3047 40.1662 33.5172 40.7537 32.9922ZM40.7537 31.7797V32.1297C40.3787 32.5672 38.0537 33.2422 35.1412 33.7047C32.2563 34.1238 29.3438 34.3244 26.4287 34.3047C23.0037 34.3047 20.2787 34.0547 18.1662 33.7422C16.1225 33.5073 14.1254 32.968 12.2412 32.1422V31.7422C13.5412 32.6047 17.0287 33.2422 18.2037 33.4172C20.3162 33.7422 23.0287 33.9922 26.4287 33.9922C30.0162 33.9922 32.8912 33.7422 35.0912 33.3922C37.1912 33.0922 40.1662 32.3047 40.7537 31.7797ZM26.4787 40.9672C20.4037 40.9297 15.1912 39.3172 14.0912 39.0422L14.8912 40.2922C16.8287 41.1172 21.9162 42.3422 26.5412 42.2047C31.1662 42.0672 35.2037 41.7047 38.0412 40.3297L38.8662 39.0172C36.9287 39.9297 30.3287 40.9672 26.4912 40.9672" fill="#FFFF00"/>
<path d="M26.4787 40.9672C20.4037 40.9297 15.1912 39.3172 14.0912 39.0422L14.8912 40.2922C16.8287 41.1172 21.9162 42.3422 26.5412 42.2047C31.1662 42.0672 35.2037 41.7047 38.0412 40.3297L38.8662 39.0172C36.9287 39.9297 30.3287 40.9672 26.4912 40.9672M40.7537 32.9922V33.3297C40.3787 33.7797 38.0537 34.4547 35.1412 34.9172C32.2563 35.3363 29.3438 35.5369 26.4287 35.5172C23.0037 35.5172 20.2787 35.2672 18.1537 34.9422C16.1149 34.7101 14.1221 34.175 12.2412 33.3547V32.9547C13.5412 33.8172 17.0287 34.4422 18.2037 34.6297C20.3037 34.9547 23.0162 35.1922 26.4287 35.1922C30.0162 35.1922 32.8912 34.9422 35.0912 34.6047C37.1912 34.3047 40.1662 33.5172 40.7537 32.9922ZM40.7537 31.7797V32.1297C40.3787 32.5672 38.0537 33.2422 35.1412 33.7047C32.2563 34.1238 29.3438 34.3244 26.4287 34.3047C23.0037 34.3047 20.2787 34.0547 18.1662 33.7422C16.1225 33.5073 14.1254 32.968 12.2412 32.1422V31.7422C13.5412 32.6047 17.0287 33.2422 18.2037 33.4172C20.3162 33.7422 23.0287 33.9922 26.4287 33.9922C30.0162 33.9922 32.8912 33.7422 35.0912 33.3922C37.1912 33.0922 40.1662 32.3047 40.7537 31.7797Z" stroke="black" stroke-width="0.0875" stroke-linecap="round" stroke-linejoin="round"/>
<path fill-rule="evenodd" clip-rule="evenodd" d="M38.3533 40.0305L37.9783 40.5805C36.5599 41.051 35.1106 41.4227 33.6408 41.693C31.2823 42.1269 28.889 42.3445 26.4908 42.343C21.1033 42.268 16.6908 41.218 14.6158 40.318L14.4408 40.0305L14.4783 39.9805L14.7533 40.093C18.5488 41.3496 22.5178 42.0033 26.5158 42.0305C29.0158 42.043 31.5158 41.743 33.5283 41.393C36.6283 40.768 37.8783 40.3055 38.2658 40.093L38.3533 40.0305ZM39.0658 38.8555H39.0783L38.8033 39.3305C38.0908 39.5805 36.1408 40.1555 33.3033 40.5555C31.4283 40.8055 30.2658 41.0555 26.5533 41.1305C22.2996 41.0846 18.0725 40.4537 13.9908 39.2555L13.8408 38.943C17.9866 40.0813 22.2555 40.7109 26.5533 40.818C29.9533 40.743 31.4033 40.493 33.2533 40.2305C36.5658 39.7305 38.2283 39.1805 38.7283 39.018L38.7158 38.993L39.0658 38.8555Z" fill="#FFFF00" stroke="black" stroke-width="0.075" stroke-linecap="round" stroke-linejoin="round"/>
<path fill-rule="evenodd" clip-rule="evenodd" d="M39.1416 32.0672C39.1666 36.0672 37.1166 39.6672 35.4666 41.2547C33.0429 43.612 29.8097 44.9535 26.4291 45.0047C22.3916 45.0797 18.5916 42.4422 17.5666 41.2922C15.5666 39.0297 13.9416 36.1672 13.8916 32.2922C14.1416 27.9172 15.8541 24.8797 18.3416 22.7922C20.747 20.8095 23.7745 19.7384 26.8916 19.7672C30.0666 19.8547 33.7916 21.4172 36.3541 24.5172C38.0291 26.5422 38.7666 28.7422 39.1416 32.0797V32.0672ZM26.4666 18.3672C34.2166 18.3672 40.5916 24.6797 40.5916 32.4047C40.5685 36.1357 39.0701 39.706 36.4237 42.3361C33.7772 44.9661 30.1977 46.4423 26.4666 46.4422C18.7166 46.4422 12.3916 40.1422 12.3916 32.4047C12.3916 24.6672 18.7166 18.3672 26.4666 18.3672Z" fill="#FFFF00" stroke="black" stroke-width="0.0875" stroke-linecap="round" stroke-linejoin="round"/>
<path fill-rule="evenodd" clip-rule="evenodd" d="M26.5035 18.3172C34.2535 18.3172 40.5785 24.6547 40.5785 32.4047C40.5785 40.1547 34.2535 46.4922 26.5035 46.4922C22.7682 46.4823 19.1888 44.9932 16.5487 42.3507C13.9086 39.7082 12.4226 36.1275 12.416 32.3922C12.4259 28.659 13.9133 25.0815 16.5531 22.4418C19.1929 19.802 22.7703 18.3146 26.5035 18.3047V18.3172ZM12.7285 32.4047C12.7285 39.9797 18.9535 46.1797 26.5035 46.1797C34.0535 46.1797 40.266 39.9797 40.266 32.4047C40.266 24.8297 34.0535 18.6422 26.5035 18.6422C22.8564 18.6553 19.3622 20.1091 16.7821 22.6869C14.202 25.2647 12.745 28.7576 12.7285 32.4047Z" fill="#FFFF00" stroke="black" stroke-width="0.0875" stroke-linecap="round" stroke-linejoin="round"/>
<path fill-rule="evenodd" clip-rule="evenodd" d="M26.516 19.4922C33.5785 19.4922 39.4035 25.3047 39.4035 32.3922C39.4035 39.4797 33.5785 45.2922 26.516 45.2922C23.0966 45.2823 19.8199 43.9204 17.4008 41.5037C14.9818 39.087 13.6167 35.8116 13.6035 32.3922C13.6035 25.3047 19.4285 19.4922 26.5035 19.4922H26.516ZM13.916 32.3922C13.916 39.3172 19.6035 44.9797 26.516 44.9797C33.4285 44.9797 39.1035 39.3172 39.1035 32.3922C39.1035 25.4672 33.416 19.8047 26.5035 19.8047C19.591 19.8047 13.916 25.4672 13.916 32.3922Z" fill="#FFFF00" stroke="black" stroke-width="0.0875" stroke-linecap="round" stroke-linejoin="round"/>
<path fill-rule="evenodd" clip-rule="evenodd" d="M27.0787 18.2676H25.8662V46.5676H27.0787V18.2676Z" fill="#FFFF00" stroke="black" stroke-width="0.0875" stroke-linecap="round" stroke-linejoin="round"/>
<path fill-rule="evenodd" clip-rule="evenodd" d="M26.9539 18.1055H27.2664V46.7305H26.9539V18.1055ZM25.7539 18.1055H26.0664V46.7305H25.7539V18.1055Z" fill="#FFFF00" stroke="black" stroke-width="0.0875" stroke-linecap="round" stroke-linejoin="round"/>
<path fill-rule="evenodd" clip-rule="evenodd" d="M40.5912 32.9555V31.893L39.7412 31.1055L34.9037 29.818L27.9287 29.1055L19.5537 29.5305L13.5662 30.9555L12.3662 31.8555V32.893L15.4162 31.518L22.6662 30.393H29.6412L34.7662 30.9555L38.3162 31.818L40.5912 32.9555Z" fill="#FFFF00" stroke="black" stroke-width="0.0875" stroke-linecap="round" stroke-linejoin="round"/>
<path fill-rule="evenodd" clip-rule="evenodd" d="M26.5037 30.2311C29.5598 30.2186 32.6105 30.4906 35.6162 31.0436C38.2537 31.5686 40.1162 32.2311 40.7412 32.9686V33.3436C39.9912 32.4186 37.4912 31.7436 35.5537 31.3436C33.0162 30.8561 29.8037 30.5436 26.5037 30.5436C23.0037 30.5436 19.7537 30.8811 17.2537 31.3686C15.2537 31.7686 12.5787 32.5561 12.2412 33.3436V32.9686C12.4287 32.4186 14.4162 31.6061 17.2162 31.0436C20.2805 30.4876 23.3895 30.2157 26.5037 30.2311ZM26.5037 29.0186C29.564 29.0067 32.6187 29.2787 35.6287 29.8311C38.2537 30.3561 40.1287 31.0186 40.7537 31.7686V32.1311C39.9912 31.2061 37.4787 30.5311 35.5537 30.1436C33.0162 29.6436 29.8037 29.3311 26.5037 29.3311C23.4099 29.3215 20.3218 29.5977 17.2787 30.1561C15.3412 30.5311 12.5537 31.3561 12.2412 32.1311V31.7561C12.4287 31.2186 14.4662 30.3811 17.2162 29.8436C20.2801 29.2835 23.3891 29.0073 26.5037 29.0186ZM26.4412 22.8561C31.6787 22.8311 36.2537 23.5936 38.3412 24.6686L39.1037 25.9811C37.2912 25.0061 32.3537 23.9811 26.4412 24.1436C21.6287 24.1686 16.4912 24.6686 13.9037 26.0436L14.8162 24.5186C16.9412 23.4186 21.9412 22.8686 26.4412 22.8561Z" fill="#FFFF00" stroke="black" stroke-width="0.0875" stroke-linecap="round" stroke-linejoin="round"/>
<path fill-rule="evenodd" clip-rule="evenodd" d="M26.5039 23.9421C29.5039 23.9421 32.3789 24.1046 34.6789 24.5171C36.8164 24.9171 38.8664 25.5171 39.1539 25.8421L39.3789 26.2421C38.6664 25.7796 36.9039 25.2546 34.6289 24.8296C31.9426 24.4015 29.2236 24.2133 26.5039 24.2671C23.1289 24.2671 20.5039 24.4296 18.2539 24.8296C15.8789 25.2671 14.2289 25.9046 13.8164 26.2046L14.0414 25.7921C14.8289 25.3796 16.0914 24.8921 18.2039 24.5171C20.5289 24.0921 23.1664 23.9671 26.5039 23.9421ZM26.5039 22.7421C29.1439 22.7005 31.7827 22.8845 34.3914 23.2921C36.1289 23.6296 37.8414 24.1546 38.4789 24.6171L38.8039 25.1421C38.2414 24.5171 36.1289 23.9296 34.2539 23.6046C32.0789 23.2296 29.3664 23.0796 26.5039 23.0546C23.5039 23.0546 20.7289 23.2421 18.5789 23.6296C16.5289 24.0296 15.2039 24.4921 14.6414 24.8546L14.9289 24.4046C15.7039 24.0046 16.9539 23.6296 18.5289 23.3171C20.6914 22.9296 23.4914 22.7421 26.5039 22.7421ZM33.5039 38.2546C31.1928 37.8558 28.8487 37.68 26.5039 37.7296C17.7664 37.8296 14.9539 39.5171 14.6039 40.0296L13.9539 38.9671C16.1664 37.3546 20.9164 36.4546 26.5414 36.5421C29.4581 36.5837 31.9747 36.8004 34.0914 37.1921L33.4914 38.2546" fill="#FFFF00"/>
<path d="M33.5039 38.2546C31.1928 37.8558 28.8487 37.68 26.5039 37.7296C17.7664 37.8296 14.9539 39.5171 14.6039 40.0296L13.9539 38.9671C16.1664 37.3546 20.9164 36.4546 26.5414 36.5421C29.4581 36.5837 31.9747 36.8004 34.0914 37.1921L33.4914 38.2546M26.5039 23.9421C29.5039 23.9421 32.3789 24.1046 34.6789 24.5171C36.8164 24.9171 38.8664 25.5171 39.1539 25.8421L39.3789 26.2421C38.6664 25.7796 36.9039 25.2546 34.6289 24.8296C31.9426 24.4015 29.2236 24.2133 26.5039 24.2671C23.1289 24.2671 20.5039 24.4296 18.2539 24.8296C15.8789 25.2671 14.2289 25.9046 13.8164 26.2046L14.0414 25.7921C14.8289 25.3796 16.0914 24.8921 18.2039 24.5171C20.5289 24.0921 23.1664 23.9671 26.5039 23.9421ZM26.5039 22.7421C29.1439 22.7005 31.7827 22.8845 34.3914 23.2921C36.1289 23.6296 37.8414 24.1546 38.4789 24.6171L38.8039 25.1421C38.2414 24.5171 36.1289 23.9296 34.2539 23.6046C32.0789 23.2296 29.3664 23.0796 26.5039 23.0546C23.5039 23.0546 20.7289 23.2421 18.5789 23.6296C16.5289 24.0296 15.2039 24.4921 14.6414 24.8546L14.9289 24.4046C15.7039 24.0046 16.9539 23.6296 18.5289 23.3171C20.6914 22.9296 23.4914 22.7421 26.5039 22.7421Z" stroke="black" stroke-width="0.0875" stroke-linecap="round" stroke-linejoin="round"/>
<path fill-rule="evenodd" clip-rule="evenodd" d="M26.4541 37.5802C28.8791 37.6177 31.2666 37.7052 33.5791 38.1427L33.4041 38.4427C31.1134 38.0475 28.7908 37.8675 26.4666 37.9052C23.2416 37.8802 19.9666 38.1802 17.1416 38.9927C16.2416 39.2427 14.7666 39.8177 14.6041 40.2927L14.4416 40.0177C14.4916 39.7427 15.3916 39.1552 17.0666 38.6927C20.3166 37.7552 23.3541 37.6052 26.4416 37.5677L26.4541 37.5802ZM26.5666 36.3552C29.1269 36.3528 31.6825 36.5744 34.2041 37.0177L34.0291 37.3302C31.5716 36.8806 29.0773 36.663 26.5791 36.6802C23.3416 36.6802 19.9166 36.9177 16.7916 37.8177C15.7916 38.1177 14.0416 38.7427 13.9916 39.2427L13.8291 38.9552C13.8666 38.5052 15.3666 37.9052 16.7291 37.5052C19.9387 36.6657 23.2499 36.2786 26.5666 36.3552Z" fill="#FFFF00" stroke="black" stroke-width="0.075" stroke-linecap="round" stroke-linejoin="round"/>
<path fill-rule="evenodd" clip-rule="evenodd" d="M38.9662 39.1297L37.9162 40.7547L34.9037 38.0797L27.0787 32.8297L18.2662 27.9797L13.6787 26.4172L14.6537 24.6047L14.9912 24.4297L17.8412 25.1422L27.2162 29.9797L32.6287 33.3922L37.1662 36.6422L39.0162 38.7797L38.9662 39.1297Z" fill="#FFFF00" stroke="black" stroke-width="0.0875" stroke-linecap="round" stroke-linejoin="round"/>
<path fill-rule="evenodd" clip-rule="evenodd" d="M13.5158 26.4555C14.3283 25.918 20.2283 28.543 26.3908 32.268C32.5533 35.993 38.4408 40.218 37.9158 41.018L37.7408 41.2805L37.6533 41.343C37.6783 41.343 37.7658 41.218 37.6533 40.9305C37.3783 40.068 33.2158 36.743 26.2783 32.5555C19.5283 28.5305 13.9033 26.1055 13.3408 26.8055L13.5158 26.4555ZM39.1783 39.1055C39.6783 38.1055 34.2158 33.9805 27.4283 29.968C20.4908 26.0305 15.4783 23.718 14.5658 24.4055L14.3658 24.7805C14.3575 24.7805 14.3742 24.7596 14.4158 24.718C14.5783 24.5805 14.8533 24.593 14.9783 24.593C16.5533 24.6055 21.0533 26.668 27.3533 30.293C30.1158 31.893 39.0283 37.618 38.9908 39.218C38.9908 39.3555 39.0033 39.3805 38.9533 39.4555L39.1783 39.1055Z" fill="#FFFF00" stroke="black" stroke-width="0.0875" stroke-linecap="round" stroke-linejoin="round"/>
<path d="M18.0635 33.9521C18.0679 35.0557 18.2901 36.1477 18.7171 37.1653C19.1442 38.183 19.7679 39.1065 20.5524 39.8827C21.3292 40.6715 22.2544 41.2988 23.2747 41.7284C24.295 42.158 25.3902 42.3814 26.4973 42.3859C27.6071 42.3889 28.7065 42.1717 29.7319 41.747C30.7572 41.3222 31.6881 40.6982 32.4706 39.9112C33.2542 39.132 33.8762 38.2058 34.3009 37.1856C34.7256 36.1654 34.9446 35.0714 34.9453 33.9663V22.7023L18.0635 22.6738V33.9521Z" fill="white" stroke="black" stroke-width="0.0995558"/>
<path d="M18.4053 33.9657C18.4051 35.0252 18.6164 36.074 19.0266 37.0509C19.4369 38.0277 20.038 38.9129 20.7946 39.6546C22.3088 41.1767 24.365 42.036 26.512 42.0439C28.6549 42.0435 30.7105 41.1947 32.2293 39.683C32.9834 38.9402 33.5818 38.0545 33.9896 37.0777C34.3974 36.1009 34.6064 35.0526 34.6044 33.9941V23.043H18.4053V33.9657ZM31.3475 26.3283V33.283L31.3333 34.0083C31.3397 34.6439 31.217 35.2742 30.9725 35.861C30.728 36.4477 30.3669 36.9787 29.9111 37.4217C29.0066 38.3292 27.779 38.8407 26.4977 38.8439C25.1608 38.8439 23.9804 38.275 23.0986 37.3932C22.191 36.4888 21.6795 35.2611 21.6764 33.9799V26.2999L31.3475 26.3283Z" fill="#FF0000" stroke="black" stroke-width="0.0711113"/>
<path d="M19.4287 25.9027C19.4429 25.1204 19.9976 24.9355 19.9976 24.9355C20.0118 24.9355 20.6092 25.1347 20.6092 25.9169L19.4287 25.9027Z" fill="#FFFF00"/>
<path d="M18.9453 24.9498L18.8458 25.8458H19.4431C19.4431 25.1062 20.012 24.9924 20.012 24.9924C20.0262 24.9924 20.5809 25.1489 20.5951 25.8458H21.1924L21.0787 24.9355L18.9453 24.9498ZM18.8031 25.86H21.2209C21.2683 25.86 21.2967 25.8932 21.3062 25.9595C21.3062 26.0354 21.2778 26.0733 21.2209 26.0733H18.8031C18.7557 26.0733 18.7273 26.0354 18.7178 25.9595C18.7178 25.8932 18.751 25.86 18.8173 25.86H18.8031Z" fill="#FFFF00" stroke="black" stroke-width="0.0711113"/>
<path d="M19.6846 25.8463C19.6846 25.3769 20.0117 25.2489 20.0117 25.2489C20.0117 25.2489 20.3389 25.3911 20.3389 25.8463H19.6846ZM18.8597 24.5663H21.178C21.2254 24.5757 21.2538 24.6137 21.2633 24.68C21.2633 24.7274 21.2349 24.7559 21.178 24.7654H18.8597C18.8123 24.7654 18.7839 24.7322 18.7744 24.6658C18.7744 24.6184 18.8029 24.59 18.8597 24.5805V24.5663ZM18.9166 24.7796H21.1069C21.1543 24.7796 21.1827 24.8128 21.1922 24.8791C21.2017 24.9455 21.1732 24.9787 21.1069 24.9787H18.9024C18.8455 24.9787 18.8171 24.9455 18.8171 24.8791C18.8171 24.8128 18.8455 24.7796 18.9024 24.7796H18.9166ZM19.6277 23.272H19.7984V23.3858H19.9264V23.272H20.1113V23.4H20.2393V23.2578H20.41V23.5423C20.41 23.5991 20.3863 23.6276 20.3389 23.6276H19.7131C19.6657 23.6276 19.6372 23.6039 19.6277 23.5565V23.272ZM20.282 23.656L20.3246 24.5663H19.7131L19.7557 23.6418H20.282" fill="#FFFF00"/>
<path d="M20.282 23.656L20.3246 24.5663H19.7131L19.7557 23.6418H20.282M19.6846 25.8463C19.6846 25.3769 20.0117 25.2489 20.0117 25.2489C20.0117 25.2489 20.3389 25.3911 20.3389 25.8463H19.6846ZM18.8597 24.5663H21.178C21.2254 24.5757 21.2538 24.6137 21.2633 24.68C21.2633 24.7274 21.2349 24.7559 21.178 24.7654H18.8597C18.8123 24.7654 18.7839 24.7322 18.7744 24.6658C18.7744 24.6184 18.8029 24.59 18.8597 24.5805V24.5663ZM18.9166 24.7796H21.1069C21.1543 24.7796 21.1827 24.8128 21.1922 24.8791C21.2017 24.9455 21.1732 24.9787 21.1069 24.9787H18.9024C18.8455 24.9787 18.8171 24.9455 18.8171 24.8791C18.8171 24.8128 18.8455 24.7796 18.9024 24.7796H18.9166ZM19.6277 23.272H19.7984V23.3858H19.9264V23.272H20.1113V23.4H20.2393V23.2578H20.41V23.5423C20.41 23.5991 20.3863 23.6276 20.3389 23.6276H19.7131C19.6657 23.6276 19.6372 23.6039 19.6277 23.5565V23.272Z" stroke="black" stroke-width="0.0711113"/>
<path d="M19.5425 24.082V24.5656H18.9736V24.082H19.5425Z" fill="#FFFF00" stroke="black" stroke-width="0.0711113"/>
<path d="M21.0503 24.082V24.5656H20.4814V24.082H21.0503Z" fill="#FFFF00" stroke="black" stroke-width="0.0711113"/>
<path d="M18.874 23.7129H19.0447V23.8551H19.1727V23.7129H19.3434V23.8551H19.4714V23.7129H19.642V23.9973C19.642 24.0542 19.6183 24.0827 19.5709 24.0827H18.9594C18.9397 24.0756 18.9219 24.0642 18.9072 24.0495C18.8924 24.0348 18.8811 24.0169 18.874 23.9973V23.7129Z" fill="#FFFF00" stroke="black" stroke-width="0.0711113"/>
<path d="M20.3818 23.7129H20.5525V23.8551H20.6805V23.7129H20.8512V23.8551H20.9792V23.7129H21.1498V23.9973C21.1498 24.0542 21.1261 24.0827 21.0787 24.0827H20.4672C20.4476 24.0756 20.4297 24.0642 20.415 24.0495C20.4003 24.0348 20.3889 24.0169 20.3818 23.9973V23.7129Z" fill="#FFFF00" stroke="black" stroke-width="0.0711113"/>
<path d="M19.9551 23.941C19.9551 23.8556 20.0831 23.8556 20.0831 23.941V24.1685H19.9551V23.941Z" fill="#000001"/>
<path d="M19.2012 24.2535C19.2012 24.1681 19.3149 24.1681 19.3149 24.2535V24.4241H19.2012V24.2535Z" fill="#000001"/>
<path d="M20.709 24.2535C20.709 24.1681 20.8228 24.1681 20.8228 24.2535V24.4241H20.709V24.2535Z" fill="#000001"/>
<path d="M19.4287 32.4866C19.4429 31.7044 19.9976 31.5195 19.9976 31.5195C20.0118 31.5195 20.6092 31.7186 20.6092 32.5009L19.4287 32.4866Z" fill="#FFFF00"/>
<path d="M18.9453 31.5338L18.8458 32.4298H19.4431C19.4431 31.6902 20.012 31.5764 20.012 31.5764C20.0262 31.5764 20.5809 31.7329 20.5951 32.4298H21.1924L21.0787 31.5195L18.9453 31.5338ZM18.8031 32.444H21.2209C21.2683 32.444 21.2967 32.4772 21.3062 32.5435C21.3062 32.6194 21.2778 32.6573 21.2209 32.6573H18.8031C18.7557 32.6573 18.7273 32.6194 18.7178 32.5435C18.7178 32.4772 18.751 32.444 18.8173 32.444H18.8031Z" fill="#FFFF00" stroke="black" stroke-width="0.0711113"/>
<path d="M19.6846 32.4302C19.6846 31.9609 20.0117 31.8329 20.0117 31.8329C20.0117 31.8329 20.3389 31.9751 20.3389 32.4302H19.6846ZM18.8597 31.1502H21.178C21.2254 31.1597 21.2538 31.1977 21.2633 31.264C21.2633 31.3114 21.2349 31.3399 21.178 31.3494H18.8597C18.8123 31.3494 18.7839 31.3162 18.7744 31.2498C18.7744 31.2024 18.8029 31.1739 18.8597 31.1645V31.1502ZM18.9166 31.3636H21.1069C21.1543 31.3636 21.1827 31.3968 21.1922 31.4631C21.2017 31.5295 21.1732 31.5627 21.1069 31.5627H18.9024C18.8455 31.5627 18.8171 31.5295 18.8171 31.4631C18.8171 31.3968 18.8455 31.3636 18.9024 31.3636H18.9166ZM19.6277 29.856H19.7984V29.9698H19.9264V29.856H20.1113V29.984H20.2393V29.8418H20.41V30.1262C20.41 30.1831 20.3863 30.2116 20.3389 30.2116H19.7131C19.6657 30.2116 19.6372 30.1879 19.6277 30.1405V29.856ZM20.282 30.24L20.3246 31.1502H19.7131L19.7557 30.2258H20.282" fill="#FFFF00"/>
<path d="M20.282 30.24L20.3246 31.1502H19.7131L19.7557 30.2258H20.282M19.6846 32.4302C19.6846 31.9609 20.0117 31.8329 20.0117 31.8329C20.0117 31.8329 20.3389 31.9751 20.3389 32.4302H19.6846ZM18.8597 31.1502H21.178C21.2254 31.1597 21.2538 31.1977 21.2633 31.264C21.2633 31.3114 21.2349 31.3399 21.178 31.3494H18.8597C18.8123 31.3494 18.7839 31.3162 18.7744 31.2498C18.7744 31.2024 18.8029 31.1739 18.8597 31.1645V31.1502ZM18.9166 31.3636H21.1069C21.1543 31.3636 21.1827 31.3968 21.1922 31.4631C21.2017 31.5295 21.1732 31.5627 21.1069 31.5627H18.9024C18.8455 31.5627 18.8171 31.5295 18.8171 31.4631C18.8171 31.3968 18.8455 31.3636 18.9024 31.3636H18.9166ZM19.6277 29.856H19.7984V29.9698H19.9264V29.856H20.1113V29.984H20.2393V29.8418H20.41V30.1262C20.41 30.1831 20.3863 30.2116 20.3389 30.2116H19.7131C19.6657 30.2116 19.6372 30.1879 19.6277 30.1405V29.856Z" stroke="black" stroke-width="0.0711113"/>
<path d="M19.5425 30.666V31.1496H18.9736V30.666H19.5425Z" fill="#FFFF00" stroke="black" stroke-width="0.0711113"/>
<path d="M21.0503 30.666V31.1496H20.4814V30.666H21.0503Z" fill="#FFFF00" stroke="black" stroke-width="0.0711113"/>
<path d="M18.874 30.2969H19.0447V30.4391H19.1727V30.2969H19.3434V30.4391H19.4714V30.2969H19.642V30.5813C19.642 30.6382 19.6183 30.6667 19.5709 30.6667H18.9594C18.9397 30.6596 18.9219 30.6482 18.9072 30.6335C18.8924 30.6187 18.8811 30.6009 18.874 30.5813V30.2969Z" fill="#FFFF00" stroke="black" stroke-width="0.0711113"/>
<path d="M20.3818 30.2969H20.5525V30.4391H20.6805V30.2969H20.8512V30.4391H20.9792V30.2969H21.1498V30.5813C21.1498 30.6382 21.1261 30.6667 21.0787 30.6667H20.4672C20.4476 30.6596 20.4297 30.6482 20.415 30.6335C20.4003 30.6187 20.3889 30.6009 20.3818 30.5813V30.2969Z" fill="#FFFF00" stroke="black" stroke-width="0.0711113"/>
<path d="M19.9551 30.5249C19.9551 30.4396 20.0831 30.4396 20.0831 30.5249V30.7525H19.9551V30.5249Z" fill="#000001"/>
<path d="M19.2012 30.8374C19.2012 30.7521 19.3149 30.7521 19.3149 30.8374V31.0081H19.2012V30.8374Z" fill="#000001"/>
<path d="M20.709 30.8374C20.709 30.7521 20.8228 30.7521 20.8228 30.8374V31.0081H20.709V30.8374Z" fill="#000001"/>
<path d="M21.9948 39.3514C21.4498 38.7901 21.7095 38.2663 21.7095 38.2663C21.7195 38.2562 22.2817 37.9726 22.8367 38.5238L21.9948 39.3514Z" fill="#FFFF00"/>
<path d="M20.9781 39.0224L21.5437 39.7244L21.9646 39.3005C21.4398 38.7794 21.7599 38.2956 21.7599 38.2956C21.77 38.2855 22.2718 38.0021 22.7763 38.4831L23.1972 38.0592L22.4712 37.4986L20.9781 39.0224ZM21.5237 39.7647L23.2274 38.0491C23.2608 38.0154 23.3044 38.0186 23.3581 38.0587C23.412 38.1121 23.4188 38.159 23.3787 38.1994L21.6751 39.915C21.6417 39.9486 21.5947 39.9421 21.5342 39.8954C21.4871 39.8486 21.487 39.8017 21.5337 39.7546L21.5237 39.7647Z" fill="#FFFF00" stroke="black" stroke-width="0.0711113"/>
<path d="M22.1353 39.1292C21.8023 38.7985 21.9419 38.4762 21.9419 38.4762C21.9419 38.4762 22.2733 38.3443 22.5963 38.665L22.1353 39.1292ZM20.6458 38.8126L22.2793 37.1677C22.3194 37.1407 22.3664 37.1472 22.4202 37.1873C22.4538 37.2207 22.4539 37.2609 22.4206 37.308L20.7871 38.9529C20.7537 38.9865 20.7101 38.9833 20.6563 38.9433C20.6227 38.9099 20.6225 38.8697 20.6559 38.8226L20.6458 38.8126ZM20.8373 38.9226L22.3806 37.3684C22.414 37.3348 22.4576 37.338 22.5113 37.378C22.5651 37.4181 22.5686 37.4616 22.5218 37.5087L20.9685 39.0729C20.9284 39.1133 20.8848 39.1101 20.8377 39.0633C20.7906 39.0166 20.7871 38.973 20.8272 38.9326L20.8373 38.9226ZM20.2686 37.3557L20.3889 37.2346L20.4696 37.3148L20.5598 37.2239L20.4791 37.1438L20.6093 37.0126L20.7002 37.1028L20.7904 37.0119L20.6894 36.9117L20.8097 36.7906L21.0115 36.9911C21.0519 37.0311 21.0554 37.068 21.022 37.1016L20.581 37.5457C20.5476 37.5793 20.5108 37.5828 20.4704 37.5561L20.2686 37.3557ZM21.0021 37.1621L21.678 37.7732L21.2471 38.2071L20.6212 37.5254L20.992 37.152" fill="#FFFF00"/>
<path d="M21.0021 37.1621L21.678 37.7732L21.2471 38.2071L20.6212 37.5254L20.992 37.152M22.1353 39.1292C21.8023 38.7985 21.9419 38.4762 21.9419 38.4762C21.9419 38.4762 22.2733 38.3443 22.5963 38.665L22.1353 39.1292ZM20.6458 38.8126L22.2793 37.1677C22.3194 37.1407 22.3664 37.1472 22.4202 37.1873C22.4538 37.2207 22.4539 37.2609 22.4206 37.308L20.7871 38.9529C20.7537 38.9865 20.7101 38.9833 20.6563 38.9433C20.6227 38.9099 20.6225 38.8697 20.6559 38.8226L20.6458 38.8126ZM20.8373 38.9226L22.3806 37.3684C22.414 37.3348 22.4576 37.338 22.5113 37.378C22.5651 37.4181 22.5686 37.4616 22.5218 37.5087L20.9685 39.0729C20.9284 39.1133 20.8848 39.1101 20.8377 39.0633C20.7906 39.0166 20.7871 38.973 20.8272 38.9326L20.8373 38.9226ZM20.2686 37.3557L20.3889 37.2346L20.4696 37.3148L20.5598 37.2239L20.4791 37.1438L20.6093 37.0126L20.7002 37.1028L20.7904 37.0119L20.6894 36.9117L20.8097 36.7906L21.0115 36.9911C21.0519 37.0311 21.0554 37.068 21.022 37.1016L20.581 37.5457C20.5476 37.5793 20.5108 37.5828 20.4704 37.5561L20.2686 37.3557Z" stroke="black" stroke-width="0.0711113"/>
<path d="M20.7837 37.987L21.1268 38.3277L20.7259 38.7314L20.3828 38.3906L20.7837 37.987Z" fill="#FFFF00" stroke="black" stroke-width="0.0711113"/>
<path d="M21.8462 36.9186L22.1893 37.2593L21.7884 37.663L21.4453 37.3223L21.8462 36.9186Z" fill="#FFFF00" stroke="black" stroke-width="0.0711113"/>
<path d="M20.0508 38.2012L20.171 38.0801L20.272 38.1803L20.3621 38.0895L20.2612 37.9892L20.3815 37.8681L20.4824 37.9684L20.5726 37.8775L20.4717 37.7773L20.5919 37.6562L20.7938 37.8567C20.8341 37.8967 20.8376 37.9336 20.8042 37.9672L20.3733 38.4012C20.3544 38.4101 20.3339 38.4148 20.313 38.4148C20.2921 38.4149 20.2715 38.4104 20.2526 38.4016L20.0508 38.2012Z" fill="#FFFF00" stroke="black" stroke-width="0.0711113"/>
<path d="M21.1123 37.1309L21.2326 37.0098L21.3335 37.11L21.4237 37.0191L21.3228 36.9189L21.443 36.7978L21.5439 36.898L21.6341 36.8072L21.5332 36.707L21.6535 36.5859L21.8553 36.7863C21.8957 36.8264 21.8991 36.8633 21.8657 36.8969L21.4348 37.3309C21.416 37.3398 21.3954 37.3444 21.3745 37.3445C21.3537 37.3446 21.3331 37.3401 21.3141 37.3313L21.1123 37.1309Z" fill="#FFFF00" stroke="black" stroke-width="0.0711113"/>
<path d="M20.9731 37.5939C20.9126 37.5338 21.0028 37.443 21.0633 37.5031L21.2248 37.6634L21.1346 37.7543L20.9731 37.5939Z" fill="#000001"/>
<path d="M20.6646 38.3498C20.604 38.2897 20.6842 38.2089 20.7447 38.2691L20.8658 38.3893L20.7857 38.47L20.6646 38.3498Z" fill="#000001"/>
<path d="M21.7261 37.2795C21.6655 37.2193 21.7457 37.1386 21.8062 37.1987L21.9273 37.319L21.8472 37.3997L21.7261 37.2795Z" fill="#000001"/>
<path d="M25.9277 25.9027C25.942 25.1204 26.4966 24.9355 26.4966 24.9355C26.5108 24.9355 27.1082 25.1347 27.1082 25.9169L25.9277 25.9027Z" fill="#FFFF00"/>
<path d="M25.4444 24.9498L25.3448 25.8458H25.9421C25.9421 25.1062 26.511 24.9924 26.511 24.9924C26.5252 24.9924 27.0799 25.1489 27.0941 25.8458H27.6915L27.5777 24.9355L25.4444 24.9498ZM25.3021 25.86H27.7199C27.7673 25.86 27.7958 25.8932 27.8052 25.9595C27.8052 26.0354 27.7768 26.0733 27.7199 26.0733H25.3021C25.2547 26.0733 25.2263 26.0354 25.2168 25.9595C25.2168 25.8932 25.25 25.86 25.3164 25.86H25.3021Z" fill="#FFFF00" stroke="black" stroke-width="0.0711113"/>
<path d="M26.1837 25.8463C26.1837 25.3769 26.5108 25.2489 26.5108 25.2489C26.5108 25.2489 26.8379 25.3911 26.8379 25.8463H26.1837ZM25.3588 24.5663H27.677C27.7244 24.5757 27.7528 24.6137 27.7623 24.68C27.7623 24.7274 27.7339 24.7559 27.677 24.7654H25.3588C25.3114 24.7654 25.2829 24.7322 25.2734 24.6658C25.2734 24.6184 25.3019 24.59 25.3588 24.5805V24.5663ZM25.4157 24.7796H27.6059C27.6533 24.7796 27.6817 24.8128 27.6912 24.8791C27.7007 24.9455 27.6723 24.9787 27.6059 24.9787H25.4014C25.3445 24.9787 25.3161 24.9455 25.3161 24.8791C25.3161 24.8128 25.3445 24.7796 25.4014 24.7796H25.4157ZM26.1268 23.272H26.2974V23.3858H26.4254V23.272H26.6103V23.4H26.7383V23.2578H26.909V23.5423C26.909 23.5991 26.8853 23.6276 26.8379 23.6276H26.2121C26.1647 23.6276 26.1363 23.6039 26.1268 23.5565V23.272ZM26.781 23.656L26.8237 24.5663H26.2121L26.2548 23.6418H26.781" fill="#FFFF00"/>
<path d="M26.781 23.656L26.8237 24.5663H26.2121L26.2548 23.6418H26.781M26.1837 25.8463C26.1837 25.3769 26.5108 25.2489 26.5108 25.2489C26.5108 25.2489 26.8379 25.3911 26.8379 25.8463H26.1837ZM25.3588 24.5663H27.677C27.7244 24.5757 27.7528 24.6137 27.7623 24.68C27.7623 24.7274 27.7339 24.7559 27.677 24.7654H25.3588C25.3114 24.7654 25.2829 24.7322 25.2734 24.6658C25.2734 24.6184 25.3019 24.59 25.3588 24.5805V24.5663ZM25.4157 24.7796H27.6059C27.6533 24.7796 27.6817 24.8128 27.6912 24.8791C27.7007 24.9455 27.6723 24.9787 27.6059 24.9787H25.4014C25.3445 24.9787 25.3161 24.9455 25.3161 24.8791C25.3161 24.8128 25.3445 24.7796 25.4014 24.7796H25.4157ZM26.1268 23.272H26.2974V23.3858H26.4254V23.272H26.6103V23.4H26.7383V23.2578H26.909V23.5423C26.909 23.5991 26.8853 23.6276 26.8379 23.6276H26.2121C26.1647 23.6276 26.1363 23.6039 26.1268 23.5565V23.272Z" stroke="black" stroke-width="0.0711113"/>
<path d="M26.0415 24.082V24.5656H25.4727V24.082H26.0415Z" fill="#FFFF00" stroke="black" stroke-width="0.0711113"/>
<path d="M27.5494 24.082V24.5656H26.9805V24.082H27.5494Z" fill="#FFFF00" stroke="black" stroke-width="0.0711113"/>
<path d="M25.373 23.7129H25.5437V23.8551H25.6717V23.7129H25.8424V23.8551H25.9704V23.7129H26.141V23.9973C26.141 24.0542 26.1173 24.0827 26.0699 24.0827H25.4584C25.4388 24.0756 25.421 24.0642 25.4062 24.0495C25.3915 24.0348 25.3801 24.0169 25.373 23.9973V23.7129Z" fill="#FFFF00" stroke="black" stroke-width="0.0711113"/>
<path d="M26.8809 23.7129H27.0515V23.8551H27.1795V23.7129H27.3502V23.8551H27.4782V23.7129H27.6489V23.9973C27.6489 24.0542 27.6252 24.0827 27.5777 24.0827H26.9662C26.9466 24.0756 26.9288 24.0642 26.914 24.0495C26.8993 24.0348 26.888 24.0169 26.8809 23.9973V23.7129Z" fill="#FFFF00" stroke="black" stroke-width="0.0711113"/>
<path d="M26.4541 23.941C26.4541 23.8556 26.5821 23.8556 26.5821 23.941V24.1685H26.4541V23.941Z" fill="#000001"/>
<path d="M25.7002 24.2535C25.7002 24.1681 25.814 24.1681 25.814 24.2535V24.4241H25.7002V24.2535Z" fill="#000001"/>
<path d="M27.208 24.2535C27.208 24.1681 27.3218 24.1681 27.3218 24.2535V24.4241H27.208V24.2535Z" fill="#000001"/>
<path d="M33.5654 25.9027C33.5512 25.1204 32.9965 24.9355 32.9965 24.9355C32.9823 24.9355 32.385 25.1347 32.385 25.9169L33.5654 25.9027Z" fill="#FFFF00"/>
<path d="M34.0488 24.9498L34.1484 25.8458H33.551C33.551 25.1062 32.9821 24.9924 32.9821 24.9924C32.9679 24.9924 32.4133 25.1489 32.399 25.8458H31.8017L31.9155 24.9355L34.0488 24.9498ZM34.191 25.86H31.7733C31.7258 25.86 31.6974 25.8932 31.6879 25.9595C31.6879 26.0354 31.7164 26.0733 31.7733 26.0733H34.191C34.2384 26.0733 34.2669 26.0354 34.2764 25.9595C34.2764 25.8932 34.2432 25.86 34.1768 25.86H34.191Z" fill="#FFFF00" stroke="black" stroke-width="0.0711113"/>
<path d="M33.3095 25.8463C33.3095 25.3769 32.9824 25.2489 32.9824 25.2489C32.9824 25.2489 32.6553 25.3911 32.6553 25.8463H33.3095ZM34.1344 24.5663H31.8162C31.7688 24.5757 31.7403 24.6137 31.7308 24.68C31.7308 24.7274 31.7593 24.7559 31.8162 24.7654H34.1344C34.1818 24.7654 34.2102 24.7322 34.2197 24.6658C34.2197 24.6184 34.1913 24.59 34.1344 24.5805V24.5663ZM34.0775 24.7796H31.8873C31.8399 24.7796 31.8114 24.8128 31.8019 24.8791C31.7925 24.9455 31.8209 24.9787 31.8873 24.9787H34.0917C34.1486 24.9787 34.1771 24.9455 34.1771 24.8791C34.1771 24.8128 34.1486 24.7796 34.0917 24.7796H34.0775ZM33.3664 23.272H33.1957V23.3858H33.0677V23.272H32.8828V23.4H32.7548V23.2578H32.5842V23.5423C32.5842 23.5991 32.6079 23.6276 32.6553 23.6276H33.2811C33.3285 23.6276 33.3569 23.6039 33.3664 23.5565V23.272ZM32.7122 23.656L32.6695 24.5663H33.2811L33.2384 23.6418H32.7122" fill="#FFFF00"/>
<path d="M32.7122 23.656L32.6695 24.5663H33.2811L33.2384 23.6418H32.7122M33.3095 25.8463C33.3095 25.3769 32.9824 25.2489 32.9824 25.2489C32.9824 25.2489 32.6553 25.3911 32.6553 25.8463H33.3095ZM34.1344 24.5663H31.8162C31.7688 24.5757 31.7403 24.6137 31.7308 24.68C31.7308 24.7274 31.7593 24.7559 31.8162 24.7654H34.1344C34.1818 24.7654 34.2102 24.7322 34.2197 24.6658C34.2197 24.6184 34.1913 24.59 34.1344 24.5805V24.5663ZM34.0775 24.7796H31.8873C31.8399 24.7796 31.8114 24.8128 31.8019 24.8791C31.7925 24.9455 31.8209 24.9787 31.8873 24.9787H34.0917C34.1486 24.9787 34.1771 24.9455 34.1771 24.8791C34.1771 24.8128 34.1486 24.7796 34.0917 24.7796H34.0775ZM33.3664 23.272H33.1957V23.3858H33.0677V23.272H32.8828V23.4H32.7548V23.2578H32.5842V23.5423C32.5842 23.5991 32.6079 23.6276 32.6553 23.6276H33.2811C33.3285 23.6276 33.3569 23.6039 33.3664 23.5565V23.272Z" stroke="black" stroke-width="0.0711113"/>
<path d="M33.4516 24.082V24.5656H34.0205V24.082H33.4516Z" fill="#FFFF00" stroke="black" stroke-width="0.0711113"/>
<path d="M31.9438 24.082V24.5656H32.5127V24.082H31.9438Z" fill="#FFFF00" stroke="black" stroke-width="0.0711113"/>
<path d="M34.1201 23.7129H33.9495V23.8551H33.8215V23.7129H33.6508V23.8551H33.5228V23.7129H33.3521V23.9973C33.3521 24.0542 33.3758 24.0827 33.4232 24.0827H34.0348C34.0544 24.0756 34.0722 24.0642 34.087 24.0495C34.1017 24.0348 34.113 24.0169 34.1201 23.9973V23.7129Z" fill="#FFFF00" stroke="black" stroke-width="0.0711113"/>
<path d="M32.6123 23.7129H32.4416V23.8551H32.3136V23.7129H32.143V23.8551H32.015V23.7129H31.8443V23.9973C31.8443 24.0542 31.868 24.0827 31.9154 24.0827H32.527C32.5466 24.0756 32.5644 24.0642 32.5791 24.0495C32.5939 24.0348 32.6052 24.0169 32.6123 23.9973V23.7129Z" fill="#FFFF00" stroke="black" stroke-width="0.0711113"/>
<path d="M33.0391 23.941C33.0391 23.8556 32.9111 23.8556 32.9111 23.941V24.1685H33.0391V23.941Z" fill="#000001"/>
<path d="M33.793 24.2535C33.793 24.1681 33.6792 24.1681 33.6792 24.2535V24.4241H33.793V24.2535Z" fill="#000001"/>
<path d="M32.2852 24.2535C32.2852 24.1681 32.1714 24.1681 32.1714 24.2535V24.4241H32.2852V24.2535Z" fill="#000001"/>
<path d="M33.5654 32.4866C33.5512 31.7044 32.9965 31.5195 32.9965 31.5195C32.9823 31.5195 32.385 31.7186 32.385 32.5009L33.5654 32.4866Z" fill="#FFFF00"/>
<path d="M34.0488 31.5338L34.1484 32.4298H33.551C33.551 31.6902 32.9821 31.5764 32.9821 31.5764C32.9679 31.5764 32.4133 31.7329 32.399 32.4298H31.8017L31.9155 31.5195L34.0488 31.5338ZM34.191 32.444H31.7733C31.7258 32.444 31.6974 32.4772 31.6879 32.5435C31.6879 32.6194 31.7164 32.6573 31.7733 32.6573H34.191C34.2384 32.6573 34.2669 32.6194 34.2764 32.5435C34.2764 32.4772 34.2432 32.444 34.1768 32.444H34.191Z" fill="#FFFF00" stroke="black" stroke-width="0.0711113"/>
<path d="M33.3095 32.4302C33.3095 31.9609 32.9824 31.8329 32.9824 31.8329C32.9824 31.8329 32.6553 31.9751 32.6553 32.4302H33.3095ZM34.1344 31.1502H31.8162C31.7688 31.1597 31.7403 31.1977 31.7308 31.264C31.7308 31.3114 31.7593 31.3399 31.8162 31.3494H34.1344C34.1818 31.3494 34.2102 31.3162 34.2197 31.2498C34.2197 31.2024 34.1913 31.1739 34.1344 31.1645V31.1502ZM34.0775 31.3636H31.8873C31.8399 31.3636 31.8114 31.3968 31.8019 31.4631C31.7925 31.5295 31.8209 31.5627 31.8873 31.5627H34.0917C34.1486 31.5627 34.1771 31.5295 34.1771 31.4631C34.1771 31.3968 34.1486 31.3636 34.0917 31.3636H34.0775ZM33.3664 29.856H33.1957V29.9698H33.0677V29.856H32.8828V29.984H32.7548V29.8418H32.5842V30.1262C32.5842 30.1831 32.6079 30.2116 32.6553 30.2116H33.2811C33.3285 30.2116 33.3569 30.1879 33.3664 30.1405V29.856ZM32.7122 30.24L32.6695 31.1502H33.2811L33.2384 30.2258H32.7122" fill="#FFFF00"/>
<path d="M32.7122 30.24L32.6695 31.1502H33.2811L33.2384 30.2258H32.7122M33.3095 32.4302C33.3095 31.9609 32.9824 31.8329 32.9824 31.8329C32.9824 31.8329 32.6553 31.9751 32.6553 32.4302H33.3095ZM34.1344 31.1502H31.8162C31.7688 31.1597 31.7403 31.1977 31.7308 31.264C31.7308 31.3114 31.7593 31.3399 31.8162 31.3494H34.1344C34.1818 31.3494 34.2102 31.3162 34.2197 31.2498C34.2197 31.2024 34.1913 31.1739 34.1344 31.1645V31.1502ZM34.0775 31.3636H31.8873C31.8399 31.3636 31.8114 31.3968 31.8019 31.4631C31.7925 31.5295 31.8209 31.5627 31.8873 31.5627H34.0917C34.1486 31.5627 34.1771 31.5295 34.1771 31.4631C34.1771 31.3968 34.1486 31.3636 34.0917 31.3636H34.0775ZM33.3664 29.856H33.1957V29.9698H33.0677V29.856H32.8828V29.984H32.7548V29.8418H32.5842V30.1262C32.5842 30.1831 32.6079 30.2116 32.6553 30.2116H33.2811C33.3285 30.2116 33.3569 30.1879 33.3664 30.1405V29.856Z" stroke="black" stroke-width="0.0711113"/>
<path d="M33.4516 30.666V31.1496H34.0205V30.666H33.4516Z" fill="#FFFF00" stroke="black" stroke-width="0.0711113"/>
<path d="M31.9438 30.666V31.1496H32.5127V30.666H31.9438Z" fill="#FFFF00" stroke="black" stroke-width="0.0711113"/>
<path d="M34.1201 30.2969H33.9495V30.4391H33.8215V30.2969H33.6508V30.4391H33.5228V30.2969H33.3521V30.5813C33.3521 30.6382 33.3758 30.6667 33.4232 30.6667H34.0348C34.0544 30.6596 34.0722 30.6482 34.087 30.6335C34.1017 30.6187 34.113 30.6009 34.1201 30.5813V30.2969Z" fill="#FFFF00" stroke="black" stroke-width="0.0711113"/>
<path d="M32.6123 30.2969H32.4416V30.4391H32.3136V30.2969H32.143V30.4391H32.015V30.2969H31.8443V30.5813C31.8443 30.6382 31.868 30.6667 31.9154 30.6667H32.527C32.5466 30.6596 32.5644 30.6482 32.5791 30.6335C32.5939 30.6187 32.6052 30.6009 32.6123 30.5813V30.2969Z" fill="#FFFF00" stroke="black" stroke-width="0.0711113"/>
<path d="M33.0391 30.5249C33.0391 30.4396 32.9111 30.4396 32.9111 30.5249V30.7525H33.0391V30.5249Z" fill="#000001"/>
<path d="M33.793 30.8374C33.793 30.7521 33.6792 30.7521 33.6792 30.8374V31.0081H33.793V30.8374Z" fill="#000001"/>
<path d="M32.2852 30.8374C32.2852 30.7521 32.1714 30.7521 32.1714 30.8374V31.0081H32.2852V30.8374Z" fill="#000001"/>
<path d="M30.9993 39.3514C31.5443 38.7901 31.2847 38.2663 31.2847 38.2663C31.2747 38.2562 30.7125 37.9726 30.1574 38.5238L30.9993 39.3514Z" fill="#FFFF00"/>
<path d="M32.0161 39.0224L31.4505 39.7244L31.0296 39.3005C31.5543 38.7794 31.2342 38.2956 31.2342 38.2956C31.2242 38.2855 30.7223 38.0021 30.2178 38.4831L29.7969 38.0592L30.523 37.4986L32.0161 39.0224ZM31.4704 39.7647L29.7668 38.0491C29.7334 38.0154 29.6898 38.0186 29.636 38.0587C29.5822 38.1121 29.5753 38.159 29.6154 38.1994L31.3191 39.915C31.3525 39.9486 31.3994 39.9421 31.4599 39.8954C31.507 39.8486 31.5072 39.8017 31.4604 39.7546L31.4704 39.7647Z" fill="#FFFF00" stroke="black" stroke-width="0.0711113"/>
<path d="M30.8589 39.1292C31.1919 38.7985 31.0522 38.4762 31.0522 38.4762C31.0522 38.4762 30.7208 38.3443 30.3979 38.665L30.8589 39.1292ZM32.3484 38.8126L30.7148 37.1677C30.6747 37.1407 30.6278 37.1472 30.574 37.1873C30.5403 37.2207 30.5402 37.2609 30.5736 37.308L32.2071 38.9529C32.2405 38.9865 32.2841 38.9833 32.3378 38.9433C32.3715 38.9099 32.3716 38.8697 32.3383 38.8226L32.3484 38.8126ZM32.1569 38.9226L30.6136 37.3684C30.5802 37.3348 30.5366 37.338 30.4828 37.378C30.429 37.4181 30.4255 37.4616 30.4723 37.5087L32.0256 39.0729C32.0657 39.1133 32.1093 39.1101 32.1564 39.0633C32.2035 39.0166 32.207 38.973 32.1669 38.9326L32.1569 38.9226ZM32.7255 37.3557L32.6053 37.2346L32.5245 37.3148L32.4344 37.2239L32.5151 37.1438L32.3848 37.0126L32.294 37.1028L32.2038 37.0119L32.3047 36.9117L32.1844 36.7906L31.9826 36.9911C31.9422 37.0311 31.9388 37.068 31.9722 37.1016L32.4131 37.5457C32.4465 37.5793 32.4834 37.5828 32.5237 37.5561L32.7255 37.3557ZM31.9921 37.1621L31.3161 37.7732L31.7471 38.2071L32.373 37.5254L32.0022 37.152" fill="#FFFF00"/>
<path d="M31.9921 37.1621L31.3161 37.7732L31.7471 38.2071L32.373 37.5254L32.0022 37.152M30.8589 39.1292C31.1919 38.7985 31.0522 38.4762 31.0522 38.4762C31.0522 38.4762 30.7208 38.3443 30.3979 38.665L30.8589 39.1292ZM32.3484 38.8126L30.7148 37.1677C30.6747 37.1407 30.6278 37.1472 30.574 37.1873C30.5403 37.2207 30.5402 37.2609 30.5736 37.308L32.2071 38.9529C32.2405 38.9865 32.2841 38.9833 32.3378 38.9433C32.3715 38.9099 32.3716 38.8697 32.3383 38.8226L32.3484 38.8126ZM32.1569 38.9226L30.6136 37.3684C30.5802 37.3348 30.5366 37.338 30.4828 37.378C30.429 37.4181 30.4255 37.4616 30.4723 37.5087L32.0256 39.0729C32.0657 39.1133 32.1093 39.1101 32.1564 39.0633C32.2035 39.0166 32.207 38.973 32.1669 38.9326L32.1569 38.9226ZM32.7255 37.3557L32.6053 37.2346L32.5245 37.3148L32.4344 37.2239L32.5151 37.1438L32.3848 37.0126L32.294 37.1028L32.2038 37.0119L32.3047 36.9117L32.1844 36.7906L31.9826 36.9911C31.9422 37.0311 31.9388 37.068 31.9722 37.1016L32.4131 37.5457C32.4465 37.5793 32.4834 37.5828 32.5237 37.5561L32.7255 37.3557Z" stroke="black" stroke-width="0.0711113"/>
<path d="M32.2105 37.987L31.8674 38.3277L32.2682 38.7314L32.6113 38.3906L32.2105 37.987Z" fill="#FFFF00" stroke="black" stroke-width="0.0711113"/>
<path d="M31.148 36.9186L30.8049 37.2593L31.2057 37.663L31.5488 37.3223L31.148 36.9186Z" fill="#FFFF00" stroke="black" stroke-width="0.0711113"/>
<path d="M32.9434 38.2012L32.8231 38.0801L32.7222 38.1803L32.632 38.0895L32.7329 37.9892L32.6127 37.8681L32.5117 37.9684L32.4215 37.8775L32.5225 37.7773L32.4022 37.6562L32.2004 37.8567C32.16 37.8967 32.1565 37.9336 32.1899 37.9672L32.6208 38.4012C32.6397 38.4101 32.6603 38.4148 32.6811 38.4148C32.702 38.4149 32.7226 38.4104 32.7415 38.4016L32.9434 38.2012Z" fill="#FFFF00" stroke="black" stroke-width="0.0711113"/>
<path d="M31.8818 37.1309L31.7616 37.0098L31.6607 37.11L31.5705 37.0191L31.6714 36.9189L31.5511 36.7978L31.4502 36.898L31.36 36.8072L31.4609 36.707L31.3407 36.5859L31.1388 36.7863C31.0985 36.8264 31.095 36.8633 31.1284 36.8969L31.5593 37.3309C31.5782 37.3398 31.5988 37.3444 31.6196 37.3445C31.6405 37.3446 31.6611 37.3401 31.68 37.3313L31.8818 37.1309Z" fill="#FFFF00" stroke="black" stroke-width="0.0711113"/>
<path d="M32.021 37.5939C32.0815 37.5338 31.9913 37.443 31.9308 37.5031L31.7693 37.6634L31.8595 37.7543L32.021 37.5939Z" fill="#000001"/>
<path d="M32.3296 38.3498C32.3901 38.2897 32.31 38.2089 32.2494 38.2691L32.1283 38.3893L32.2085 38.47L32.3296 38.3498Z" fill="#000001"/>
<path d="M31.2681 37.2795C31.3286 37.2193 31.2484 37.1386 31.1879 37.1987L31.0668 37.319L31.147 37.3997L31.2681 37.2795Z" fill="#000001"/>
<path d="M25.4593 32.7294C25.4522 33.0303 25.5647 33.3218 25.7722 33.54C25.866 33.6476 25.9819 33.7338 26.1119 33.7927C26.242 33.8516 26.3832 33.8818 26.526 33.8814C26.8294 33.8624 27.0806 33.7486 27.2797 33.54C27.4872 33.3218 27.5997 33.0303 27.5926 32.7294V31.1934H25.4593V32.7294Z" fill="#003399"/>
<path d="M25.9575 31.9892C26.0753 31.9892 26.1708 31.8937 26.1708 31.7758C26.1708 31.658 26.0753 31.5625 25.9575 31.5625C25.8397 31.5625 25.7441 31.658 25.7441 31.7758C25.7441 31.8937 25.8397 31.9892 25.9575 31.9892Z" fill="white"/>
<path d="M27.1372 31.9892C27.255 31.9892 27.3505 31.8937 27.3505 31.7758C27.3505 31.658 27.255 31.5625 27.1372 31.5625C27.0193 31.5625 26.9238 31.658 26.9238 31.7758C26.9238 31.8937 27.0193 31.9892 27.1372 31.9892Z" fill="white"/>
<path d="M26.5405 32.5595C26.6583 32.5595 26.7538 32.464 26.7538 32.3461C26.7538 32.2283 26.6583 32.1328 26.5405 32.1328C26.4227 32.1328 26.3271 32.2283 26.3271 32.3461C26.3271 32.464 26.4227 32.5595 26.5405 32.5595Z" fill="white"/>
<path d="M25.9575 33.1552C26.0753 33.1552 26.1708 33.0597 26.1708 32.9418C26.1708 32.824 26.0753 32.7285 25.9575 32.7285C25.8397 32.7285 25.7441 32.824 25.7441 32.9418C25.7441 33.0597 25.8397 33.1552 25.9575 33.1552Z" fill="white"/>
<path d="M27.1372 33.1552C27.255 33.1552 27.3505 33.0597 27.3505 32.9418C27.3505 32.824 27.255 32.7285 27.1372 32.7285C27.0193 32.7285 26.9238 32.824 26.9238 32.9418C26.9238 33.0597 27.0193 33.1552 27.1372 33.1552Z" fill="white"/>
<path d="M25.4593 29.0321C25.4522 29.3331 25.5647 29.6246 25.7722 29.8428C25.866 29.9504 25.9819 30.0366 26.1119 30.0955C26.242 30.1543 26.3832 30.1846 26.526 30.1841C26.8294 30.1651 27.0806 30.0514 27.2797 29.8428C27.4872 29.6246 27.5997 29.3331 27.5926 29.0321V27.4961H25.4593V29.0321Z" fill="#003399"/>
<path d="M25.9575 28.2919C26.0753 28.2919 26.1708 28.1964 26.1708 28.0786C26.1708 27.9607 26.0753 27.8652 25.9575 27.8652C25.8397 27.8652 25.7441 27.9607 25.7441 28.0786C25.7441 28.1964 25.8397 28.2919 25.9575 28.2919Z" fill="white"/>
<path d="M27.1372 28.2919C27.255 28.2919 27.3505 28.1964 27.3505 28.0786C27.3505 27.9607 27.255 27.8652 27.1372 27.8652C27.0193 27.8652 26.9238 27.9607 26.9238 28.0786C26.9238 28.1964 27.0193 28.2919 27.1372 28.2919Z" fill="white"/>
<path d="M26.5405 28.8622C26.6583 28.8622 26.7538 28.7667 26.7538 28.6489C26.7538 28.5311 26.6583 28.4355 26.5405 28.4355C26.4227 28.4355 26.3271 28.5311 26.3271 28.6489C26.3271 28.7667 26.4227 28.8622 26.5405 28.8622Z" fill="white"/>
<path d="M25.9575 29.4579C26.0753 29.4579 26.1708 29.3624 26.1708 29.2446C26.1708 29.1268 26.0753 29.0312 25.9575 29.0312C25.8397 29.0312 25.7441 29.1268 25.7441 29.2446C25.7441 29.3624 25.8397 29.4579 25.9575 29.4579Z" fill="white"/>
<path d="M27.1372 29.4579C27.255 29.4579 27.3505 29.3624 27.3505 29.2446C27.3505 29.1268 27.255 29.0312 27.1372 29.0312C27.0193 29.0312 26.9238 29.1268 26.9238 29.2446C26.9238 29.3624 27.0193 29.4579 27.1372 29.4579Z" fill="white"/>
<path d="M22.5013 32.7294C22.4942 33.0303 22.6067 33.3218 22.8142 33.54C22.908 33.6476 23.0239 33.7338 23.1539 33.7927C23.284 33.8516 23.4252 33.8818 23.568 33.8814C23.8714 33.8624 24.1226 33.7486 24.3217 33.54C24.5292 33.3218 24.6417 33.0303 24.6346 32.7294V31.1934H22.5013V32.7294Z" fill="#003399"/>
<path d="M22.9995 31.9892C23.1173 31.9892 23.2128 31.8937 23.2128 31.7758C23.2128 31.658 23.1173 31.5625 22.9995 31.5625C22.8816 31.5625 22.7861 31.658 22.7861 31.7758C22.7861 31.8937 22.8816 31.9892 22.9995 31.9892Z" fill="white"/>
<path d="M24.1792 31.9892C24.297 31.9892 24.3925 31.8937 24.3925 31.7758C24.3925 31.658 24.297 31.5625 24.1792 31.5625C24.0613 31.5625 23.9658 31.658 23.9658 31.7758C23.9658 31.8937 24.0613 31.9892 24.1792 31.9892Z" fill="white"/>
<path d="M23.5825 32.5595C23.7003 32.5595 23.7958 32.464 23.7958 32.3461C23.7958 32.2283 23.7003 32.1328 23.5825 32.1328C23.4647 32.1328 23.3691 32.2283 23.3691 32.3461C23.3691 32.464 23.4647 32.5595 23.5825 32.5595Z" fill="white"/>
<path d="M22.9995 33.1552C23.1173 33.1552 23.2128 33.0597 23.2128 32.9418C23.2128 32.824 23.1173 32.7285 22.9995 32.7285C22.8816 32.7285 22.7861 32.824 22.7861 32.9418C22.7861 33.0597 22.8816 33.1552 22.9995 33.1552Z" fill="white"/>
<path d="M24.1792 33.1552C24.297 33.1552 24.3925 33.0597 24.3925 32.9418C24.3925 32.824 24.297 32.7285 24.1792 32.7285C24.0613 32.7285 23.9658 32.824 23.9658 32.9418C23.9658 33.0597 24.0613 33.1552 24.1792 33.1552Z" fill="white"/>
<path d="M28.4173 32.7294C28.4102 33.0303 28.5228 33.3218 28.7302 33.54C28.824 33.6476 28.9399 33.7338 29.0699 33.7927C29.2 33.8516 29.3412 33.8818 29.484 33.8814C29.7874 33.8624 30.0386 33.7486 30.2378 33.54C30.4452 33.3218 30.5577 33.0303 30.5506 32.7294V31.1934H28.4173V32.7294Z" fill="#003399"/>
<path d="M28.9155 31.9892C29.0333 31.9892 29.1288 31.8937 29.1288 31.7758C29.1288 31.658 29.0333 31.5625 28.9155 31.5625C28.7977 31.5625 28.7021 31.658 28.7021 31.7758C28.7021 31.8937 28.7977 31.9892 28.9155 31.9892Z" fill="white"/>
<path d="M30.0952 31.9892C30.213 31.9892 30.3085 31.8937 30.3085 31.7758C30.3085 31.658 30.213 31.5625 30.0952 31.5625C29.9773 31.5625 29.8818 31.658 29.8818 31.7758C29.8818 31.8937 29.9773 31.9892 30.0952 31.9892Z" fill="white"/>
<path d="M29.4985 32.5595C29.6163 32.5595 29.7118 32.464 29.7118 32.3461C29.7118 32.2283 29.6163 32.1328 29.4985 32.1328C29.3807 32.1328 29.2852 32.2283 29.2852 32.3461C29.2852 32.464 29.3807 32.5595 29.4985 32.5595Z" fill="white"/>
<path d="M28.9155 33.1552C29.0333 33.1552 29.1288 33.0597 29.1288 32.9418C29.1288 32.824 29.0333 32.7285 28.9155 32.7285C28.7977 32.7285 28.7021 32.824 28.7021 32.9418C28.7021 33.0597 28.7977 33.1552 28.9155 33.1552Z" fill="white"/>
<path d="M30.0952 33.1552C30.213 33.1552 30.3085 33.0597 30.3085 32.9418C30.3085 32.824 30.213 32.7285 30.0952 32.7285C29.9773 32.7285 29.8818 32.824 29.8818 32.9418C29.8818 33.0597 29.9773 33.1552 30.0952 33.1552Z" fill="white"/>
<path d="M25.4593 36.3973C25.4522 36.6983 25.5647 36.9898 25.7722 37.208C25.866 37.3156 25.9819 37.4018 26.1119 37.4607C26.242 37.5196 26.3832 37.5498 26.526 37.5493C26.8294 37.5304 27.0806 37.4166 27.2797 37.208C27.4872 36.9898 27.5997 36.6983 27.5926 36.3973V34.8613H25.4593V36.3973Z" fill="#003399"/>
<path d="M25.9575 35.6571C26.0753 35.6571 26.1708 35.5616 26.1708 35.4438C26.1708 35.326 26.0753 35.2305 25.9575 35.2305C25.8397 35.2305 25.7441 35.326 25.7441 35.4438C25.7441 35.5616 25.8397 35.6571 25.9575 35.6571Z" fill="white"/>
<path d="M27.1372 35.6571C27.255 35.6571 27.3505 35.5616 27.3505 35.4438C27.3505 35.326 27.255 35.2305 27.1372 35.2305C27.0193 35.2305 26.9238 35.326 26.9238 35.4438C26.9238 35.5616 27.0193 35.6571 27.1372 35.6571Z" fill="white"/>
<path d="M26.5405 36.2274C26.6583 36.2274 26.7538 36.1319 26.7538 36.0141C26.7538 35.8963 26.6583 35.8008 26.5405 35.8008C26.4227 35.8008 26.3271 35.8963 26.3271 36.0141C26.3271 36.1319 26.4227 36.2274 26.5405 36.2274Z" fill="white"/>
<path d="M25.9575 36.8232C26.0753 36.8232 26.1708 36.7276 26.1708 36.6098C26.1708 36.492 26.0753 36.3965 25.9575 36.3965C25.8397 36.3965 25.7441 36.492 25.7441 36.6098C25.7441 36.7276 25.8397 36.8232 25.9575 36.8232Z" fill="white"/>
<path d="M27.1372 36.8232C27.255 36.8232 27.3505 36.7276 27.3505 36.6098C27.3505 36.492 27.255 36.3965 27.1372 36.3965C27.0193 36.3965 26.9238 36.492 26.9238 36.6098C26.9238 36.7276 27.0193 36.8232 27.1372 36.8232Z" fill="white"/>
<g clip-path="url(#clip1_647_1407)">
<path d="M0.916016 0.392578H64.916V64.3926H0.916016V0.392578Z" fill="#006B3F"/>
<path d="M0.916016 0.392578H64.916V43.0551H0.916016V0.392578Z" fill="#FCD116"/>
<path d="M0.916016 0.392578H64.916V21.7301H0.916016V0.392578Z" fill="#CE1126"/>
<path d="M32.9156 21.7305L39.8531 43.0555L21.7031 29.893H44.1281L25.9906 43.0555L32.9156 21.7305Z" fill="#000001"/>
</g>
<g clip-path="url(#clip2_647_1407)">
<path fill-rule="evenodd" clip-rule="evenodd" d="M0.916016 0.392578H64.916V64.3926H0.916016V0.392578Z" fill="white"/>
<path fill-rule="evenodd" clip-rule="evenodd" d="M3.66309 21.3359L11.4656 9.63658L13.4155 10.937L5.61298 22.6364L3.66309 21.3359ZM6.58792 23.2866L14.3904 11.5872L16.3403 12.8876L8.53782 24.587L6.58792 23.2866ZM9.51276 25.2372L17.3153 13.5378L19.2652 14.8382L11.4627 26.5376L9.51276 25.2372Z" fill="#000001"/>
<path fill-rule="evenodd" clip-rule="evenodd" d="M46.5605 49.9453L54.363 38.246L56.3129 39.5464L48.5104 51.2457L46.5605 49.9453ZM49.4854 51.8959L57.2879 40.1966L59.2378 41.497L51.4353 53.1964L49.4854 51.8959ZM52.4102 53.8466L60.2127 42.1472L62.1626 43.4476L54.3601 55.147L52.4102 53.8466Z" fill="#000001"/>
<path fill-rule="evenodd" clip-rule="evenodd" d="M49.4873 43.4453L59.2368 49.9474L49.4873 43.4453Z" fill="black"/>
<path d="M49.4873 43.4453L59.2368 49.9474" stroke="white" stroke-width="1.17188"/>
<path fill-rule="evenodd" clip-rule="evenodd" d="M21.2139 24.5898C23.2832 21.487 26.5004 19.3333 30.1577 18.6025C33.815 17.8716 37.6129 18.6236 40.7157 20.693C43.8186 22.7623 45.9723 25.9795 46.7031 29.6369C47.4339 33.2942 46.6819 37.092 44.6126 40.1948L21.2139 24.5898Z" fill="#CD2E3A"/>
<path fill-rule="evenodd" clip-rule="evenodd" d="M21.2136 24.5897C19.1443 27.6926 18.3923 31.4904 19.1231 35.1477C19.8539 38.805 22.0076 42.0222 25.1105 44.0916C28.2133 46.1609 32.0112 46.9129 35.6685 46.1821C39.3258 45.4513 42.543 43.2976 44.6123 40.1947C45.647 38.6433 46.023 36.7444 45.6576 34.9157C45.2922 33.0871 44.2153 31.4785 42.6639 30.4438C41.1125 29.4091 39.2136 29.0331 37.3849 29.3985C35.5563 29.7639 33.9477 30.8408 32.913 32.3922L21.2136 24.5897Z" fill="#0047A0"/>
<path d="M32.9131 32.3923C35.0677 29.1616 34.1954 24.7959 30.9647 22.6413C27.734 20.4867 23.3684 21.3591 21.2137 24.5898C19.0591 27.8205 19.9315 32.1861 23.1622 34.3407C26.3929 36.4953 30.7585 35.623 32.9131 32.3923Z" fill="#CD2E3A"/>
<path fill-rule="evenodd" clip-rule="evenodd" d="M11.4717 55.1465L3.66918 43.4471L5.61907 42.1467L13.4216 53.8461L11.4717 55.1465ZM14.3965 53.1959L6.59402 41.4965L8.54391 40.1961L16.3464 51.8954L14.3965 53.1959ZM17.3214 51.2452L9.51886 39.5459L11.4687 38.2455L19.2712 49.9448L17.3214 51.2452Z" fill="#000001"/>
<path fill-rule="evenodd" clip-rule="evenodd" d="M54.3691 26.5371L46.5666 14.8378L48.5165 13.5373L56.319 25.2367L54.3691 26.5371ZM57.294 24.5865L49.4915 12.8871L51.4414 11.5867L59.2439 23.2861L57.294 24.5865ZM60.2188 22.6359L52.4163 10.9365L54.3662 9.63609L62.1687 21.3354L60.2188 22.6359Z" fill="#000001"/>
<path fill-rule="evenodd" clip-rule="evenodd" d="M10.0078 47.6719L12.9327 45.7213L10.0078 47.6719ZM49.4931 21.3384L52.9054 19.0627L49.4931 21.3384ZM55.8303 17.1121L58.7551 15.1615L55.8303 17.1121Z" fill="black"/>
<path d="M10.0078 47.6719L12.9327 45.7213M49.4931 21.3384L52.9054 19.0627M55.8303 17.1121L58.7551 15.1615" stroke="white" stroke-width="1.17188"/>
</g>
<g clip-path="url(#clip3_647_1407)">
<path fill-rule="evenodd" clip-rule="evenodd" d="M0.916016 0.392578H64.916V64.3926H0.916016V0.392578Z" fill="white"/>
<path fill-rule="evenodd" clip-rule="evenodd" d="M3.66309 21.3359L11.4656 9.63658L13.4155 10.937L5.61298 22.6364L3.66309 21.3359ZM6.58792 23.2866L14.3904 11.5872L16.3403 12.8876L8.53782 24.587L6.58792 23.2866ZM9.51276 25.2372L17.3153 13.5378L19.2652 14.8382L11.4627 26.5376L9.51276 25.2372Z" fill="#000001"/>
<path fill-rule="evenodd" clip-rule="evenodd" d="M46.5605 49.9453L54.363 38.246L56.3129 39.5464L48.5104 51.2457L46.5605 49.9453ZM49.4854 51.8959L57.2879 40.1966L59.2378 41.497L51.4353 53.1964L49.4854 51.8959ZM52.4102 53.8466L60.2127 42.1472L62.1626 43.4476L54.3601 55.147L52.4102 53.8466Z" fill="#000001"/>
<path fill-rule="evenodd" clip-rule="evenodd" d="M49.4873 43.4453L59.2368 49.9474L49.4873 43.4453Z" fill="black"/>
<path d="M49.4873 43.4453L59.2368 49.9474" stroke="white" stroke-width="1.17188"/>
<path fill-rule="evenodd" clip-rule="evenodd" d="M21.2139 24.5898C23.2832 21.487 26.5004 19.3333 30.1577 18.6025C33.815 17.8716 37.6129 18.6236 40.7157 20.693C43.8186 22.7623 45.9723 25.9795 46.7031 29.6369C47.4339 33.2942 46.6819 37.092 44.6126 40.1948L21.2139 24.5898Z" fill="#CD2E3A"/>
<path fill-rule="evenodd" clip-rule="evenodd" d="M21.2136 24.5897C19.1443 27.6926 18.3923 31.4904 19.1231 35.1477C19.8539 38.805 22.0076 42.0222 25.1105 44.0916C28.2133 46.1609 32.0112 46.9129 35.6685 46.1821C39.3258 45.4513 42.543 43.2976 44.6123 40.1947C45.647 38.6433 46.023 36.7444 45.6576 34.9157C45.2922 33.0871 44.2153 31.4785 42.6639 30.4438C41.1125 29.4091 39.2136 29.0331 37.3849 29.3985C35.5563 29.7639 33.9477 30.8408 32.913 32.3922L21.2136 24.5897Z" fill="#0047A0"/>
<path d="M32.9131 32.3923C35.0677 29.1616 34.1954 24.7959 30.9647 22.6413C27.734 20.4867 23.3684 21.3591 21.2137 24.5898C19.0591 27.8205 19.9315 32.1861 23.1622 34.3407C26.3929 36.4953 30.7585 35.623 32.9131 32.3923Z" fill="#CD2E3A"/>
<path fill-rule="evenodd" clip-rule="evenodd" d="M11.4717 55.1465L3.66918 43.4471L5.61907 42.1467L13.4216 53.8461L11.4717 55.1465ZM14.3965 53.1959L6.59402 41.4965L8.54391 40.1961L16.3464 51.8954L14.3965 53.1959ZM17.3214 51.2452L9.51886 39.5459L11.4687 38.2455L19.2712 49.9448L17.3214 51.2452Z" fill="#000001"/>
<path fill-rule="evenodd" clip-rule="evenodd" d="M54.3691 26.5371L46.5666 14.8378L48.5165 13.5373L56.319 25.2367L54.3691 26.5371ZM57.294 24.5865L49.4915 12.8871L51.4414 11.5867L59.2439 23.2861L57.294 24.5865ZM60.2188 22.6359L52.4163 10.9365L54.3662 9.63609L62.1687 21.3354L60.2188 22.6359Z" fill="#000001"/>
<path fill-rule="evenodd" clip-rule="evenodd" d="M10.0078 47.6719L12.9327 45.7213L10.0078 47.6719ZM49.4931 21.3384L52.9054 19.0627L49.4931 21.3384ZM55.8303 17.1121L58.7551 15.1615L55.8303 17.1121Z" fill="black"/>
<path d="M10.0078 47.6719L12.9327 45.7213M49.4931 21.3384L52.9054 19.0627M55.8303 17.1121L58.7551 15.1615" stroke="white" stroke-width="1.17188"/>
</g>
</g>
<defs>
<clipPath id="clip0_647_1407">
<rect x="0.916016" y="0.392578" width="64" height="64" rx="32" fill="white"/>
</clipPath>
<clipPath id="clip1_647_1407">
<rect width="64" height="64" fill="white" transform="translate(0.916016 0.392578)"/>
</clipPath>
<clipPath id="clip2_647_1407">
<rect width="64" height="64" fill="white" transform="translate(0.916016 0.392578)"/>
</clipPath>
<clipPath id="clip3_647_1407">
<rect width="64" height="64" fill="white" transform="translate(0.916016 0.392578)"/>
</clipPath>
</defs>
</svg>
