<svg width="64" height="64" viewBox="0 0 64 64" fill="none" xmlns="http://www.w3.org/2000/svg">
<g clip-path="url(#clip0_1342_5390)">
<path fill-rule="evenodd" clip-rule="evenodd" d="M0 0H64V64H0V0Z" fill="white"/>
<path fill-rule="evenodd" clip-rule="evenodd" d="M2.74707 20.9434L10.5496 9.244L12.4995 10.5444L4.69696 22.2438L2.74707 20.9434ZM5.67191 22.894L13.4744 11.1946L15.4243 12.495L7.6218 24.1944L5.67191 22.894ZM8.59675 24.8446L16.3992 13.1453L18.3491 14.4457L10.5466 26.145L8.59675 24.8446Z" fill="#000001"/>
<path fill-rule="evenodd" clip-rule="evenodd" d="M45.6445 49.5527L53.447 37.8534L55.3969 39.1538L47.5944 50.8532L45.6445 49.5527ZM48.5694 51.5034L56.3719 39.804L58.3218 41.1044L50.5193 52.8038L48.5694 51.5034ZM51.4942 53.454L59.2967 41.7546L61.2466 43.055L53.4441 54.7544L51.4942 53.454Z" fill="#000001"/>
<path fill-rule="evenodd" clip-rule="evenodd" d="M48.5713 43.0527L58.3208 49.5548L48.5713 43.0527Z" fill="black"/>
<path d="M48.5713 43.0527L58.3208 49.5548" stroke="white" stroke-width="1.17188"/>
<path fill-rule="evenodd" clip-rule="evenodd" d="M20.2979 24.1973C22.3672 21.0944 25.5844 18.9407 29.2417 18.2099C32.899 17.4791 36.6968 18.2311 39.7997 20.3004C42.9026 22.3698 45.0563 25.587 45.7871 29.2443C46.5179 32.9016 45.7659 36.6994 43.6966 39.8023L20.2979 24.1973Z" fill="#CD2E3A"/>
<path fill-rule="evenodd" clip-rule="evenodd" d="M20.2976 24.1971C18.2283 27.3 17.4763 31.0978 18.2071 34.7551C18.9379 38.4124 21.0916 41.6296 24.1945 43.699C27.2973 45.7683 31.0952 46.5203 34.7525 45.7895C38.4098 45.0587 41.627 42.905 43.6963 39.8021C44.731 38.2507 45.107 36.3518 44.7416 34.5231C44.3762 32.6945 43.2993 31.0859 41.7479 30.0512C40.1965 29.0165 38.2976 28.6405 36.4689 29.0059C34.6403 29.3713 33.0316 30.4482 31.997 31.9996L20.2976 24.1971Z" fill="#0047A0"/>
<path d="M31.9971 31.9997C34.1517 28.769 33.2793 24.4034 30.0487 22.2488C26.818 20.0942 22.4523 20.9665 20.2977 24.1972C18.1431 27.4279 19.0155 31.7935 22.2462 33.9481C25.4768 36.1027 29.8425 35.2304 31.9971 31.9997Z" fill="#CD2E3A"/>
<path fill-rule="evenodd" clip-rule="evenodd" d="M10.5557 54.7539L2.75316 43.0546L4.70306 41.7541L12.5056 53.4535L10.5557 54.7539ZM13.4805 52.8033L5.678 41.1039L7.6279 39.8035L15.4304 51.5029L13.4805 52.8033ZM16.4053 50.8527L8.60284 39.1533L10.5527 37.8529L18.3552 49.5522L16.4053 50.8527Z" fill="#000001"/>
<path fill-rule="evenodd" clip-rule="evenodd" d="M53.4531 26.1445L45.6506 14.4452L47.6005 13.1448L55.403 24.8441L53.4531 26.1445ZM56.378 24.1939L48.5755 12.4946L50.5254 11.1941L58.3279 22.8935L56.378 24.1939ZM59.3028 22.2433L51.5003 10.5439L53.4502 9.24351L61.2527 20.9429L59.3028 22.2433Z" fill="#000001"/>
<path fill-rule="evenodd" clip-rule="evenodd" d="M9.0918 47.2793L12.0166 45.3287L9.0918 47.2793ZM48.5771 20.9459L51.9894 18.6701L48.5771 20.9459ZM54.9143 16.7195L57.8391 14.7689L54.9143 16.7195Z" fill="black"/>
<path d="M9.0918 47.2793L12.0166 45.3287M48.5771 20.9459L51.9894 18.6701M54.9143 16.7195L57.8391 14.7689" stroke="white" stroke-width="1.17188"/>
</g>
<defs>
<clipPath id="clip0_1342_5390">
<rect width="64" height="64" rx="32" fill="white"/>
</clipPath>
</defs>
</svg>
