<svg width="64" height="64" viewBox="0 0 64 64" fill="none" xmlns="http://www.w3.org/2000/svg">
<g clip-path="url(#clip0_1342_5725)">
<mask id="mask0_1342_5725" style="mask-type:luminance" maskUnits="userSpaceOnUse" x="-1" y="0" width="65" height="64">
<path d="M-0.00292969 0H63.9873V63.9902H-0.00292969V0Z" fill="white"/>
</mask>
<g mask="url(#mask0_1342_5725)">
<path fill-rule="evenodd" clip-rule="evenodd" d="M-16 42.6641H79.9853V53.3334H-16V42.6641Z" fill="#FFE700"/>
<path fill-rule="evenodd" clip-rule="evenodd" d="M-16 31.9941H79.9853V42.6635H-16V31.9941Z" fill="#000001"/>
<path fill-rule="evenodd" clip-rule="evenodd" d="M-16 21.3379H79.9853V31.9943H-16V21.3379Z" fill="#DE3908"/>
<path fill-rule="evenodd" clip-rule="evenodd" d="M-16 10.6699H79.9853V21.3393H-16V10.6699Z" fill="#FFE700"/>
<path fill-rule="evenodd" clip-rule="evenodd" d="M-16 0H79.9853V10.6693H-16V0Z" fill="#000001"/>
<path fill-rule="evenodd" clip-rule="evenodd" d="M41.9656 31.9955C41.9656 34.6387 40.9156 37.1737 39.0466 39.0427C37.1776 40.9117 34.6426 41.9617 31.9994 41.9617C29.3562 41.9617 26.8213 40.9117 24.9522 39.0427C23.0832 37.1737 22.0332 34.6387 22.0332 31.9955C22.0332 29.3523 23.0832 26.8174 24.9522 24.9483C26.8213 23.0793 29.3562 22.0293 31.9994 22.0293C34.6426 22.0293 37.1776 23.0793 39.0466 24.9483C40.9156 26.8174 41.9656 29.3523 41.9656 31.9955Z" fill="#FFFDFF" stroke="black" stroke-width="0.116111"/>
<path fill-rule="evenodd" clip-rule="evenodd" d="M30.2378 24.358L29.5928 23.1711C29.8508 22.913 30.2636 22.7324 30.9345 22.7324L30.87 24.0225L30.2378 24.358Z" fill="#DE3108" stroke="black" stroke-width="0.116111"/>
<path fill-rule="evenodd" clip-rule="evenodd" d="M30.8701 24.0482L30.9475 22.7323C30.9475 22.7323 32.2893 22.6548 33.0117 23.5192L32.3022 24.5513L30.8701 24.0482Z" fill="#FFE700" stroke="black" stroke-width="0.116111"/>
<path fill-rule="evenodd" clip-rule="evenodd" d="M32.3281 24.538L32.9861 23.5059C33.4247 23.9703 33.6053 24.3057 33.6828 24.796C33.6828 24.8218 32.6378 25.054 32.6378 25.054L32.3281 24.538Z" fill="#DE3108" stroke="black" stroke-width="0.116111"/>
<path fill-rule="evenodd" clip-rule="evenodd" d="M30.5734 41.4005C30.5734 41.4005 31.8119 39.9814 34.2116 40.2781C33.8503 39.6976 32.6763 39.7621 32.6763 39.7621C32.6763 39.7621 32.3151 37.0012 32.5989 36.8722C32.8827 36.7432 34.0826 36.8722 34.0826 36.8722C34.2503 36.8722 34.5212 36.4464 34.3019 36.1755C34.0826 35.9046 33.4504 34.8596 33.7084 34.6532C33.9664 34.4467 35.3856 34.7693 35.3856 34.7693L31.3862 29.6346C31.3862 29.6346 30.9734 27.6994 31.799 26.7834C32.7795 25.9577 32.6763 25.0804 32.6505 25.0933C32.5215 24.1902 31.154 23.5452 30.2251 24.3709C29.6832 25.0288 30.0445 25.532 30.0445 25.532C30.0445 25.532 28.6253 25.919 28.5608 26.177C28.5092 26.4093 30.1735 26.1254 30.1735 26.1254L30.0187 27.2607C30.0187 27.2607 26.7675 30.228 29.2446 32.7696C29.2833 32.7696 29.3349 32.6535 29.3349 32.6535C29.3349 32.6535 30.2122 33.7372 31.1282 33.9694C31.9925 34.8596 31.9022 34.7177 31.9022 34.7177C31.9022 34.7177 32.0829 36.111 31.9151 36.3948C31.0074 36.282 30.0898 36.2733 29.1801 36.369C28.8834 36.4593 27.748 36.4077 28.019 38.2526L28.4318 37.3108C28.4318 37.3108 28.406 37.9817 28.6769 38.2139C28.6253 37.5172 28.935 37.0399 28.935 37.0399C28.935 37.0399 28.9866 37.814 29.1672 37.9172C29.3349 38.0462 29.3349 36.6787 30.2767 36.7819C31.2185 36.9109 31.9022 36.8722 31.9022 36.8722C31.9022 36.8722 32.2119 39.5298 32.1087 39.7879C31.4378 39.6201 29.8122 39.8524 29.709 40.2652C30.6637 40.2007 31.1024 40.3168 31.1024 40.3168C31.1024 40.3168 30.3283 41.0006 30.5734 41.4005Z" fill="black" stroke="black" stroke-width="0.10321" stroke-linecap="round" stroke-linejoin="round"/>
<path fill-rule="evenodd" clip-rule="evenodd" d="M30.9605 26.834C30.9605 26.834 28.5866 29.44 29.6058 31.4397C29.6703 31.1559 29.6445 30.9882 29.6703 31.0011C29.6187 30.9624 29.9671 31.2333 29.9284 31.1817C29.9542 31.0398 29.8381 30.7302 29.8381 30.7302L30.1477 30.8076L29.9671 30.4592L30.4186 30.5237C30.4186 30.5237 30.2638 30.0851 30.3154 30.0851L30.6895 30.1109C30.0187 28.9111 30.6508 27.9177 30.9476 26.8469L30.9605 26.834Z" fill="#9CA69C" stroke="#9CA69C" stroke-width="0.10321" stroke-linecap="round" stroke-linejoin="round"/>
<path fill-rule="evenodd" clip-rule="evenodd" d="M31.7734 24.6152C31.7734 24.6152 31.9025 25.5183 31.4122 25.7763C31.3348 25.828 31.0252 25.9312 31.0639 26.1118C31.1284 26.3569 31.2574 26.3053 31.4509 26.2666C31.967 26.1763 32.5604 25.0797 31.7734 24.6152Z" fill="#9CA69C" stroke="#9CA69C" stroke-width="0.116111"/>
<path fill-rule="evenodd" clip-rule="evenodd" d="M30.8958 25.3771C30.8958 25.4284 30.8754 25.4777 30.8391 25.514C30.8029 25.5502 30.7536 25.5706 30.7023 25.5706C30.651 25.5706 30.6018 25.5502 30.5655 25.514C30.5292 25.4777 30.5088 25.4284 30.5088 25.3771C30.5088 25.3258 30.5292 25.2766 30.5655 25.2403C30.6018 25.204 30.651 25.1836 30.7023 25.1836C30.7536 25.1836 30.8029 25.204 30.8391 25.2403C30.8754 25.2766 30.8958 25.3258 30.8958 25.3771Z" fill="white"/>
<path fill-rule="evenodd" clip-rule="evenodd" d="M30.1348 26.125C30.0058 26.2282 29.3607 26.912 30.0058 27.1571C30.6766 26.9765 30.4831 26.8604 30.6379 26.7056C30.6379 26.4088 30.3025 26.3185 30.1348 26.125Z" fill="#DE3108" stroke="black" stroke-width="0.116111"/>
<path fill-rule="evenodd" clip-rule="evenodd" d="M31.567 32.5625C31.5283 32.7173 31.3864 33.2592 31.5928 33.672C32.1605 33.4398 32.4185 33.5043 32.612 33.6333C32.1476 33.2463 31.9669 33.1044 31.567 32.5625Z" fill="#9CA69C" stroke="#9CA69C" stroke-width="0.10321" stroke-linecap="round" stroke-linejoin="round"/>
<path fill-rule="evenodd" clip-rule="evenodd" d="M32.5479 35.1426L32.5737 36.4069C32.5737 36.4069 33.0252 36.4972 33.2187 36.4069C33.4251 36.3295 33.2187 35.5296 32.5479 35.1426Z" fill="white" stroke="white" stroke-width="0.10321" stroke-linecap="round" stroke-linejoin="round"/>
<path fill-rule="evenodd" clip-rule="evenodd" d="M35.7597 35.2983C35.7597 35.2983 34.934 33.3244 32.8569 32.8213C30.7798 32.3181 31.0378 30.112 31.2056 29.9701C31.2959 29.7766 31.3604 29.4798 31.9667 29.7637C32.5731 30.0475 35.334 31.4408 35.7339 31.5053C36.1338 31.5698 35.7855 35.3499 35.7597 35.2983Z" fill="#9CA69C" stroke="black" stroke-width="0.116111"/>
<path fill-rule="evenodd" clip-rule="evenodd" d="M33.7729 32.8203C33.7342 32.8332 36.5595 34.4846 35.708 35.9037C36.5208 35.3747 36.2499 34.433 36.2499 34.433C36.2499 34.433 36.9079 36.1488 35.3081 36.9874C35.4887 37.1422 35.5919 37.1035 35.5919 37.1035L35.3339 37.3744C35.3339 37.3744 35.2049 37.5809 36.2757 37.0648C35.979 37.297 35.9532 37.4647 35.9532 37.4647C35.9532 37.4647 36.0435 37.697 36.7401 37.0777C36.4625 37.3505 36.2277 37.6637 36.0435 38.0066C37.5916 37.8647 40.9201 32.8848 34.9985 31.4141L35.2565 31.6979L33.7729 32.8203Z" fill="#DE3108" stroke="black" stroke-width="0.10321" stroke-linejoin="round"/>
<path fill-rule="evenodd" clip-rule="evenodd" d="M33.8895 32.3302C34.2765 32.5882 34.4055 32.6914 34.4571 32.8204C34.1088 32.743 33.7862 32.7688 33.7862 32.7688C33.7862 32.7688 33.038 32.0464 32.8961 31.9947C32.7928 31.9947 32.1994 31.6077 32.1994 31.6077C31.9027 31.4658 31.6317 30.4466 32.7154 30.7433C33.8507 31.2723 34.0056 31.311 34.0056 31.311L35.3473 31.7367L36.1214 32.6011C36.1214 32.6011 34.7409 31.9173 34.5732 31.9044C34.9603 32.2141 35.1667 32.6269 35.1667 32.6269C34.728 32.4979 34.3539 32.3947 33.8895 32.3302Z" fill="white" stroke="black" stroke-width="0.10321" stroke-linecap="round" stroke-linejoin="round"/>
<path d="M28.5479 26.2287C28.5479 26.2287 29.8638 25.919 30.0186 25.9706" stroke="white" stroke-width="0.10321" stroke-linecap="round"/>
<path fill-rule="evenodd" clip-rule="evenodd" d="M-16 53.334H79.9853V64.0033H-16V53.334Z" fill="#DE3908"/>
</g>
</g>
<defs>
<clipPath id="clip0_1342_5725">
<rect width="64" height="64" rx="32" fill="white"/>
</clipPath>
</defs>
</svg>
