<svg width="12" height="13" viewBox="0 0 12 13" fill="none" xmlns="http://www.w3.org/2000/svg">
<path fill-rule="evenodd" clip-rule="evenodd" d="M6.01259 0.5C4.50692 0.5 3.13525 0.997333 2.32359 1.40367C2.25025 1.44033 2.18181 1.47611 2.11825 1.511C1.99225 1.57967 1.88492 1.64367 1.79959 1.7L2.72292 3.05933L3.15759 3.23233C4.85625 4.08933 7.13425 4.08933 8.83325 3.23233L9.32659 2.97633L10.1996 1.7C10.0185 1.58237 9.83054 1.47584 9.63659 1.381C8.82892 0.979 7.48992 0.5 6.01292 0.5M3.86559 2.03867C3.5387 1.97715 3.21579 1.89612 2.89859 1.796C3.65892 1.45833 4.79192 1.1 6.01292 1.1C6.85859 1.1 7.65825 1.272 8.31959 1.49C7.54459 1.599 6.71759 1.784 5.92959 2.01167C5.30959 2.191 4.58492 2.17167 3.86559 2.03867ZM9.18559 3.72667L9.10359 3.768C7.23492 4.71067 4.75625 4.71067 2.88759 3.768L2.80992 3.72867C0.00225383 6.809 -2.14108 12.499 6.01259 12.499C14.1663 12.499 11.9709 6.70333 9.18559 3.72667ZM5.66625 6.5C5.48944 6.5 5.31987 6.57024 5.19485 6.69526C5.06983 6.82029 4.99959 6.98986 4.99959 7.16667C4.99959 7.34348 5.06983 7.51305 5.19485 7.63807C5.31987 7.7631 5.48944 7.83333 5.66625 7.83333V6.5ZM6.33292 5.83333V5.5H5.66625V5.83333C5.31263 5.83333 4.97349 5.97381 4.72345 6.22386C4.4734 6.47391 4.33292 6.81305 4.33292 7.16667C4.33292 7.52029 4.4734 7.85943 4.72345 8.10948C4.97349 8.35952 5.31263 8.5 5.66625 8.5V9.83333C5.37625 9.83333 5.12925 9.64833 5.03725 9.389C5.0236 9.34657 5.00159 9.30731 4.9725 9.27354C4.94341 9.23977 4.90785 9.21218 4.86791 9.19239C4.82797 9.17261 4.78447 9.16103 4.73998 9.15835C4.69549 9.15567 4.65092 9.16194 4.60889 9.17679C4.56687 9.19164 4.52825 9.21476 4.49532 9.2448C4.46239 9.27483 4.43581 9.31116 4.41717 9.35165C4.39853 9.39213 4.38819 9.43594 4.38677 9.48049C4.38536 9.52504 4.39289 9.56941 4.40892 9.611C4.50083 9.87102 4.6711 10.0961 4.89628 10.2554C5.12146 10.4146 5.39047 10.5 5.66625 10.5V10.8333H6.33292V10.5C6.68654 10.5 7.02568 10.3595 7.27573 10.1095C7.52578 9.85943 7.66625 9.52029 7.66625 9.16667C7.66625 8.81304 7.52578 8.47391 7.27573 8.22386C7.02568 7.97381 6.68654 7.83333 6.33292 7.83333V6.5C6.62292 6.5 6.86992 6.685 6.96192 6.94433C6.97557 6.98676 6.99759 7.02602 7.02668 7.05979C7.05577 7.09356 7.09133 7.12115 7.13127 7.14094C7.17121 7.16073 7.2147 7.1723 7.25919 7.17498C7.30368 7.17766 7.34826 7.17139 7.39028 7.15654C7.43231 7.1417 7.47093 7.11857 7.50386 7.08854C7.53679 7.0585 7.56336 7.02217 7.58201 6.98169C7.60065 6.9412 7.61099 6.89739 7.6124 6.85285C7.61382 6.8083 7.60629 6.76392 7.59025 6.72233C7.49835 6.46231 7.32808 6.23719 7.1029 6.07798C6.87772 5.91876 6.6087 5.83329 6.33292 5.83333ZM6.33292 8.5V9.83333C6.50973 9.83333 6.6793 9.7631 6.80433 9.63807C6.92935 9.51305 6.99959 9.34348 6.99959 9.16667C6.99959 8.98986 6.92935 8.82029 6.80433 8.69526C6.6793 8.57024 6.50973 8.5 6.33292 8.5Z" fill="#738A99"/>
</svg>
