<svg width="14" height="11" viewBox="0 0 14 11" fill="none" xmlns="http://www.w3.org/2000/svg">
<path d="M9.66634 8.83271V10.166H0.333008V8.83271C0.333008 8.83271 0.333008 6.16604 4.99967 6.16604C9.66634 6.16604 9.66634 8.83271 9.66634 8.83271ZM7.33301 2.49937C7.33301 2.03788 7.19616 1.58676 6.93977 1.20304C6.68338 0.819328 6.31896 0.520259 5.8926 0.343655C5.46624 0.16705 4.99709 0.120842 4.54446 0.210875C4.09184 0.300907 3.67608 0.523135 3.34976 0.849458C3.02344 1.17578 2.80121 1.59154 2.71118 2.04416C2.62114 2.49679 2.66735 2.96594 2.84396 3.3923C3.02056 3.81866 3.31963 4.18308 3.70334 4.43947C4.08706 4.69586 4.53818 4.83271 4.99967 4.83271C5.61851 4.83271 6.21201 4.58687 6.64959 4.14929C7.08718 3.7117 7.33301 3.11821 7.33301 2.49937ZM9.62634 6.16604C10.0362 6.48321 10.3715 6.88633 10.6088 7.34705C10.8461 7.80776 10.9795 8.31488 10.9997 8.83271V10.166H13.6663V8.83271C13.6663 8.83271 13.6663 6.41271 9.62634 6.16604ZM8.99967 0.16604C8.54086 0.163906 8.0922 0.301061 7.71301 0.559374C8.11797 1.1252 8.33571 1.80356 8.33571 2.49937C8.33571 3.19518 8.11797 3.87355 7.71301 4.43937C8.0922 4.69769 8.54086 4.83484 8.99967 4.83271C9.61851 4.83271 10.212 4.58687 10.6496 4.14929C11.0872 3.7117 11.333 3.11821 11.333 2.49937C11.333 1.88054 11.0872 1.28704 10.6496 0.849458C10.212 0.411873 9.61851 0.16604 8.99967 0.16604Z" fill="#738A99"/>
</svg>
