<svg width="14" height="15" viewBox="0 0 14 15" fill="none" xmlns="http://www.w3.org/2000/svg">
<path d="M2.25 15H1.25C1.05109 15 0.860322 14.921 0.71967 14.7803C0.579018 14.6397 0.5 14.4489 0.5 14.25V9.75C0.5 9.55109 0.579018 9.36032 0.71967 9.21967C0.860322 9.07902 1.05109 9 1.25 9H2.25C2.44891 9 2.63968 9.07902 2.78033 9.21967C2.92098 9.36032 3 9.55109 3 9.75V14.25C3 14.4489 2.92098 14.6397 2.78033 14.7803C2.63968 14.921 2.44891 15 2.25 15ZM9.25 15H8.25C8.05109 15 7.86032 14.921 7.71967 14.7803C7.57902 14.6397 7.5 14.4489 7.5 14.25V6.75C7.5 6.55109 7.57902 6.36032 7.71967 6.21967C7.86032 6.07902 8.05109 6 8.25 6H9.25C9.44891 6 9.63968 6.07902 9.78033 6.21967C9.92098 6.36032 10 6.55109 10 6.75V14.25C10 14.4489 9.92098 14.6397 9.78033 14.7803C9.63968 14.921 9.44891 15 9.25 15ZM12.75 15H11.75C11.5511 15 11.3603 14.921 11.2197 14.7803C11.079 14.6397 11 14.4489 11 14.25V3.25C11 3.05109 11.079 2.86032 11.2197 2.71967C11.3603 2.57902 11.5511 2.5 11.75 2.5H12.75C12.9489 2.5 13.1397 2.57902 13.2803 2.71967C13.421 2.86032 13.5 3.05109 13.5 3.25V14.25C13.5 14.4489 13.421 14.6397 13.2803 14.7803C13.1397 14.921 12.9489 15 12.75 15ZM5.75 15H4.75C4.55109 15 4.36032 14.921 4.21967 14.7803C4.07902 14.6397 4 14.4489 4 14.25V0.75C4 0.551088 4.07902 0.360322 4.21967 0.21967C4.36032 0.0790177 4.55109 0 4.75 0H5.75C5.94891 0 6.13968 0.0790177 6.28033 0.21967C6.42098 0.360322 6.5 0.551088 6.5 0.75V14.25C6.5 14.4489 6.42098 14.6397 6.28033 14.7803C6.13968 14.921 5.94891 15 5.75 15Z" fill="#738A99"/>
</svg>
