<svg width="20" height="23" viewBox="0 0 20 23" fill="none" xmlns="http://www.w3.org/2000/svg">
<path d="M7 11.5C7.53043 11.5 8.03914 11.2893 8.41421 10.9142C8.78929 10.5391 9 10.0304 9 9.5C9 8.96957 8.78929 8.46086 8.41421 8.08579C8.03914 7.71071 7.53043 7.5 7 7.5C6.46957 7.5 5.96086 7.71071 5.58579 8.08579C5.21071 8.46086 5 8.96957 5 9.5C5 10.0304 5.21071 10.5391 5.58579 10.9142C5.96086 11.2893 6.46957 11.5 7 11.5ZM19.5 6L10 0.5L0.5 6V17L10 22.5L19.5 17V6ZM10 2.811L17.5 7.153V14.033L12.938 11.297L4.967 17.275L2.5 15.847V7.153L10 2.811ZM10 20.189L6.848 18.364L13.062 13.704L17.06 16.102L10 20.189Z" fill="black"/>
</svg>
