<svg width="16" height="16" viewBox="0 0 16 16" fill="none" xmlns="http://www.w3.org/2000/svg">
<path d="M2.86753 0.312531C5.91566 4.74566 3.26587 4.41178 2.05087 4.78772C3.26337 6.44141 2.56819 7.99534 0.660156 8.96859C2.30078 9.6275 4.48047 9.92022 1.9735 13.3969C4.46031 11.9899 6.18309 11.8713 5.94631 15.0579C7.75241 13.2299 10.1039 12.3087 12.448 13.8538C12.1806 11.5439 12.8436 10.5324 15.163 11.5288C12.6761 9.24725 13.7038 7.89247 15.1773 6.56538C12.6307 6.46438 12.2736 4.51859 12.3673 2.19288C10.8303 3.86531 9.66422 3.68525 9.11719 0.412812C8.06075 2.81459 6.63797 4.3475 2.8675 0.3125L2.86753 0.312531ZM6.31681 3.72947C6.81994 3.74059 7.11572 4.11066 7.40013 4.50066L5.54063 7.72147C4.90244 7.7835 4.43719 7.57844 4.23478 6.96763L6.09447 3.74656C6.15167 3.73677 6.20949 3.73108 6.2675 3.72953C6.28394 3.72912 6.30038 3.7291 6.31681 3.72947ZM8.47422 4.07938C8.97734 4.09038 9.27319 4.46063 9.55759 4.8505L7.46672 8.57022C6.8285 8.63225 6.36328 8.42691 6.16094 7.81625L8.25187 4.09656C8.30907 4.08672 8.36689 4.08098 8.42491 4.07938C8.44133 4.07898 8.45776 4.07896 8.47419 4.07931L8.47422 4.07938ZM10.3087 5.08094C10.8119 5.09209 11.1077 5.46212 11.3922 5.85197L9.33138 9.52531C8.69316 9.58719 8.22794 9.38219 8.02566 8.77147L10.0863 5.09803C10.1435 5.08825 10.2014 5.08257 10.2594 5.08103C10.2761 5.08064 10.2925 5.08061 10.3088 5.08097L10.3087 5.08094ZM11.7569 6.80697C12.2811 6.81003 12.5927 7.18125 12.893 7.57212L11.1568 10.5792C10.531 10.6198 10.0676 10.4115 9.851 9.82531L11.5872 6.81831C11.6435 6.8106 11.7001 6.80682 11.7569 6.807L11.7569 6.80697ZM3.98556 7.99125L7.29275 9.47625C7.38697 10.1541 7.20581 10.6884 6.60656 11.0047L3.29925 9.51959C3.15837 8.84403 3.55778 8.41069 3.9855 7.99125H3.98556Z" fill="#738A99"/>
</svg>
